<?xml version="1.0" encoding="iso-8859-1"?>
<!-- Generator: Adobe Illustrator 16.0.0, SVG Export Plug-In . SVG Version: 6.00 Build 0)  -->
<!DOCTYPE svg PUBLIC "-//W3C//DTD SVG 1.1//EN" "http://www.w3.org/Graphics/SVG/1.1/DTD/svg11.dtd">
<svg version="1.1" id="Capa_1" xmlns="http://www.w3.org/2000/svg" xmlns:xlink="http://www.w3.org/1999/xlink" x="0px" y="0px"
	 width="190.301px" height="190.301px" viewBox="0 0 190.301 190.301" style="enable-background:new 0 0 190.301 190.301;"
	 xml:space="preserve">
<g>
	<path d="M168.268,39.733c-12.26-21.188-39.373-27.574-61.361-19.81c-0.076-5.887-0.703-11.771-1.818-17.65
		c-0.239-1.257-1.533-2.006-2.711-2.063c-7.301-0.359-14.745-0.499-21.809,1.633c-2.308,0.696-3.269,3.223-2.165,5.321
		c2.652,5.037,5.968,10.203,9.931,14.676c-21.164,0.479-53.421-7.392-66.118,12.834c-15.23,24.261-9.55,53.147-3.177,79.135
		c5.895,24.037,14.974,55.54,35.365,71.561c16.066,12.622,34.955-1.07,41.019-17.568c9.042,16.265,24.499,28.1,42.249,14.606
		c19.043-14.478,27.287-43.473,33.539-65.342C178.611,91.181,182.356,64.082,168.268,39.733z M87.005,7.695
		c4.331-0.936,8.715-1.424,13.157-1.714c1.45,6.755,1.498,14.187,0.553,21.219c-2.144-2.57-4.162-6.003-5.842-8.16
		C92.054,15.424,89.37,11.645,87.005,7.695z M162.176,110.398c-4.693,18.111-11.139,36.091-20.854,52.137
		c-13.604,22.469-29.07,15.6-44.271-1.319c-0.383-0.426-0.809-0.612-1.231-0.683c-1.278-1.505-3.62-2.035-5.3-0.286
		c-6.577,6.848-10.252,17.104-19.948,20.28c-9.035,2.96-17.465-9.589-21.462-15.565c-11.972-17.902-18.46-39.94-23.474-60.678
		c-5.084-21.024-9.212-48.428,5.458-66.737c7.03-8.774,20.946-7.238,30.861-7.019c10.545,0.233,20.796-1.15,30.867-4.206
		c1.83,1.584,3.765,3.013,5.828,4.187c-5.604-0.048-14.88,0.925-16.355,6.826c-0.179,0.715,0.112,1.432,0.74,1.818
		c3.869,2.379,9.469,0.147,13.831,0.03c3.114-0.084,6.215,0.391,9.206,1.22c3.541,0.981,5.946,3.846,9.42,4.833
		c2.362,0.671,3.945-1.5,3.624-3.624c-0.859-5.694-6.977-8.801-12.843-10.192c0.228-1.595,0.313-3.19,0.431-4.785
		c22.938-1.652,42.413-0.82,54.99,21.738C172.27,67.339,167.289,90.672,162.176,110.398z"/>
	<path d="M67.691,146.567c-3.6-4.497-8.13-7.642-11.266-12.645c-3.718-5.931-5.571-12.759-5.232-19.725
		c0.114-2.353-3.597-2.857-4.105-0.556c-3.008,13.635,1.465,34.576,17.336,38.535C67.915,153.049,69.715,149.095,67.691,146.567z"/>
</g>
<g>
</g>
<g>
</g>
<g>
</g>
<g>
</g>
<g>
</g>
<g>
</g>
<g>
</g>
<g>
</g>
<g>
</g>
<g>
</g>
<g>
</g>
<g>
</g>
<g>
</g>
<g>
</g>
<g>
</g>
</svg>
