<?xml version="1.0" encoding="iso-8859-1"?>
<!-- Generator: Adobe Illustrator 16.0.0, SVG Export Plug-In . SVG Version: 6.00 Build 0)  -->
<!DOCTYPE svg PUBLIC "-//W3C//DTD SVG 1.1//EN" "http://www.w3.org/Graphics/SVG/1.1/DTD/svg11.dtd">
<svg version="1.1" id="Capa_1" xmlns="http://www.w3.org/2000/svg" xmlns:xlink="http://www.w3.org/1999/xlink" x="0px" y="0px"
	 width="190.19px" height="190.189px" viewBox="0 0 190.19 190.189" style="enable-background:new 0 0 190.19 190.189;"
	 xml:space="preserve">
<g>
	<path d="M176.051,36.204c-10.449-7.184-19.373-14.663-26.752-25.04c-1.368-1.924-3.635-2.706-5.802-1.521
		c-24.979,13.651-45.877,40.634-47.703,69.648c-0.967-0.865-1.935-1.727-2.882-2.634C72.626,57.239,62.425,30.14,58.627,2.846
		c-0.263-1.887-2.937-3.385-4.685-2.66C40.958,5.569,28.253,11.972,16.184,19.172c-0.653,0.39-0.903,1.061-0.88,1.727
		C2.498,70.52,29.478,114.1,69.536,140.744c-0.603,0.879-1.19,1.771-1.767,2.677c-0.301,0.474,0.359,0.926,0.746,0.576
		c0.2-0.181,0.336-0.347,0.508-0.521c-0.692,1.7-1.372,3.401-1.992,5.135c-1.881,5.26-3.142,10.772-3.828,16.315
		c-0.86,6.951-1.557,17.135,4.763,22.003c5.469,4.214,14.838,3.193,21.235,3.048c10.04-0.229,20.823-2.372,30.815-0.905
		c3.168,0.465,5.426-1.703,4.909-4.909c-1.124-6.971,1.463-13.236-0.905-19.855c14.193,3.29,28.579,4.603,42.399,3.545
		c2.957-0.227,3.896-3.281,2.813-5.224c1.167-10.624,1.42-21.198,0.988-31.797c2.905-0.287,2.938-4.369-0.023-4.576
		c-0.066-0.005-0.133-0.016-0.199-0.02c-0.217-3.633-0.502-7.27-0.868-10.913c-0.118-1.174-0.735-2.328-1.99-2.614
		c-7.562-1.722-14.96-3.716-22.157-6.089c4.493-24.958,12.02-46.776,31.901-63.958C179.018,40.816,178.087,37.603,176.051,36.204z
		 M163.822,37.425c-0.183,0.051-0.366,0.078-0.547,0.182c-20.981,12.131-32.93,38.262-37.252,61.475
		c-4.362-2.061-8.603-4.366-12.738-6.888c6.269-26.366,25.519-42.419,44.714-59.523C159.89,34.299,161.823,35.889,163.822,37.425z
		 M100.94,80.126c4.601-25.109,21.782-48.161,43.628-61.289c2.814,3.55,5.83,6.811,9.026,9.867
		c-20.935,13.986-38.952,36.835-43.068,61.748c-3.995-2.581-7.89-5.37-11.628-8.487C99.862,81.845,100.73,81.27,100.94,80.126z
		 M80.113,181.682c-10.357-0.432-9.485-8.118-8.664-16.754c0.642-6.749,2.266-13.698,4.167-20.33
		c5.957,3.595,12.164,6.801,18.527,9.633c-7.5,5.388-11.293,18.693-10.331,27.216c0.012,0.105,0.056,0.197,0.091,0.293
		C82.637,181.74,81.373,181.733,80.113,181.682z M86.521,181.701c0.723-4.568,1.434-8.847,3.312-13.127
		c2.082-4.746,6.097-8.088,8.351-12.604l0,0c2.253,0.934,4.529,1.801,6.814,2.637c-4.134,6.557-4.429,15.05-0.771,21.967
		c0.038,0.072,0.098,0.108,0.142,0.171C98.417,181.022,92.438,181.56,86.521,181.701z M118.227,164.443
		c-0.537,5.419-1.46,10.886-1.413,16.328c-3.024-0.219-6.076-0.228-9.137-0.146c0.32-0.433,0.466-0.978,0.226-1.603
		c-2.842-7.435-0.184-12.309,2.967-18.394c2.614,0.848,5.238,1.648,7.88,2.356C118.492,163.39,118.286,163.854,118.227,164.443z
		 M165.062,137.32C107.873,127.258,23.653,88.732,39.38,17.477c0.413-1.87-2.253-2.598-2.856-0.787
		c-22.658,67.947,70.174,124.493,128.509,125.442c-0.126,6.282-0.503,12.561-0.983,18.836
		C88.624,159.429,7.688,105.762,18.821,22.276c2.823-1.168,5.628-2.367,8.429-3.57c-0.029,0.089-0.073,0.166-0.086,0.267
		C17.197,99.404,86.839,151.73,160.751,157.121c2.754,0.201,2.683-3.98,0-4.247c-34.663-3.439-67.852-14.506-94.227-37.917
		C38.781,90.331,28.761,55.052,29.847,18.972c0.017-0.572-0.246-0.929-0.603-1.12c4.136-1.778,8.275-3.537,12.452-5.206
		c-0.629,30.048,24.519,58.425,44.884,77.428c19.519,18.214,49.675,40.691,78.344,40.955
		C165.004,133.126,165.052,135.224,165.062,137.32z M164.585,125.686c-28.493-3.757-53.108-20.384-74.188-39.43
		C68.875,66.81,48.342,40.884,45.634,11.107c2.073-0.786,4.159-1.546,6.266-2.256c5.348,33.124,20.159,62.407,47.148,83.405
		c13.304,10.352,28.937,17.26,45.06,21.874C153.684,116.871,163.312,114.529,164.585,125.686z M139.086,104.564
		c-3.514-1.291-6.968-2.694-10.362-4.215c8.374-22.801,17.518-42.576,36.806-58.204C149.158,58.984,140.013,80.893,139.086,104.564z
		"/>
</g>
<g>
</g>
<g>
</g>
<g>
</g>
<g>
</g>
<g>
</g>
<g>
</g>
<g>
</g>
<g>
</g>
<g>
</g>
<g>
</g>
<g>
</g>
<g>
</g>
<g>
</g>
<g>
</g>
<g>
</g>
</svg>
