<?xml version="1.0" encoding="iso-8859-1"?>
<!-- Generator: Adobe Illustrator 16.0.0, SVG Export Plug-In . SVG Version: 6.00 Build 0)  -->
<!DOCTYPE svg PUBLIC "-//W3C//DTD SVG 1.1//EN" "http://www.w3.org/Graphics/SVG/1.1/DTD/svg11.dtd">
<svg version="1.1" id="Capa_1" xmlns="http://www.w3.org/2000/svg" xmlns:xlink="http://www.w3.org/1999/xlink" x="0px" y="0px"
	 width="191.462px" height="191.463px" viewBox="0 0 191.462 191.463" style="enable-background:new 0 0 191.462 191.463;"
	 xml:space="preserve">
<g>
	<path d="M155.712,1.331C124.904-8.892,99.078,42.412,87.956,65.127C81.983,40.529,63.054,1.829,36.394,0.395
		C21.298-0.417,16.08,14.958,16.932,27.212c0.917,13.179,6.187,26.098,12.585,37.919c-0.352,0.067-0.696,0.208-0.982,0.441
		c-1.02-0.494-2.447-0.017-2.409,1.42c1.066,39.396-8.977,110.714,42.472,121.812c20.429,4.407,55.3,4.855,71.581-10.718
		c8.825-8.443,10.377-22.491,11.341-33.898c1.841-21.787,1.574-43.795,1.433-65.647C165.609,56.826,193.129,13.745,155.712,1.331z
		 M157.603,52.009c-5.664-4.913-12.16-8.555-19.18-10.782c1.656-0.282,3.337-0.492,5.057-0.602
		c6.788-0.434,11.615,2.38,17.296,4.738C159.798,47.612,158.739,49.827,157.603,52.009z M75.239,52.942
		c-5.644,0.36-11.556,1.312-17.166,2.701c3.577-4.604,8.204-8.032,13.723-10.4C73.01,47.778,74.167,50.342,75.239,52.942z
		 M54.432,17.084c1.847,2.003,3.566,4.214,5.166,6.518c-6.099,1.977-11.701,5.396-16.752,9.479
		c2.524-5.643,6.618-10.587,11.108-14.835C54.312,17.904,54.447,17.492,54.432,17.084z M41.954,8.669
		c4.004,1.134,7.603,3.57,10.837,6.714c-0.284-0.008-0.576,0.039-0.867,0.229c-9.078,5.952-13.84,15.699-17.394,25.62
		c-1.051,2.934,2.954,4.861,4.985,2.902c7.141-6.887,14.238-12.313,23.324-15.529c2.443,4.033,4.557,8.063,6.373,11.468
		c0.247,0.465,0.463,0.943,0.704,1.409c-9.52,2.479-18.025,8.829-21.938,18.069c-0.974,2.301,0.671,6.11,3.755,4.884
		c8.327-3.309,17.453-3.046,25.848-5.469C78.43,61.275,79.24,63.6,80,65.938c-0.55,0.316-1.037,0.75-1.386,1.242
		c-2.481,3.505-5.659,6.359-8.495,9.53c-2.316-2.37-5.02-4.419-6.652-7.643c-1.286-2.538-4.622-1.974-6.034,0
		c-2.984,4.173-6.851,6.709-9.587,10.722c-3.036-1.996-5.965-4.072-8.737-6.338C33.701,59.724,8.881-0.701,41.954,8.669z
		 M143.873,127.432c-0.499,14.763,0.686,32.923-9.37,44.98c-12.813,15.363-53.633,11.918-70.347,7.102
		C24.146,167.986,38.732,104.295,30.79,71.328c4.714,5.627,10.382,10.261,15.907,15.179c1.504,1.338,3.889,1.198,4.956-0.639
		c2.213-3.81,5.531-6.488,8.536-9.511c2.407,2.579,5.284,4.729,6.848,7.761c1.277,2.475,4.657,2.047,6.034,0
		c2.635-3.92,6.239-6.949,9.235-10.531c5.682,4.192,9.983,9.053,14.829,14.336c1.424,1.553,4.146,0.312,4.2-1.592
		c0.516-0.101,0.983-0.397,1.262-0.995c2.001-4.31,4.456-7.914,7.795-10.959c1.978,6.65,5.803,12.354,12.922,14.59
		c7.56,2.374,15.356-1.916,21.286-6.754C144.5,97.29,144.382,112.363,143.873,127.432z M145.705,72.765
		c-1.168-0.297-2.463-0.082-3.586,0.998c-4.056,3.902-8.873,7.874-14.687,8.536c-7.813,0.889-10.621-8.447-12.111-14.218
		c-0.102-0.396-0.278-0.719-0.481-1.006c10.529,1.303,20.916,4.798,31.384,4.789C146.052,72.164,145.874,72.463,145.705,72.765z
		 M147.711,69.273c-9.03-3.898-19.106-7.018-29.101-8.555c9.153-4.379,19.491-4.623,27.992,2.701
		c2.991,2.576,7.284-1.574,4.379-4.379c-13.236-12.775-31.636-8.683-44.946,1.683c-2.496,1.944-0.282,5.822,2.426,5.858
		c0.553,0.007,1.102,0.075,1.652,0.101c-0.007,0.006-0.017,0.009-0.024,0.015c-5.111,4.183-8.479,8.978-10.649,14.991
		c-2.238-4.057-5.43-7.291-8.986-10.252c0.465-0.216,0.908-0.533,1.257-1.093c12.999-20.855,27.261-51.024,51.726-60.194
		c7.461-2.797,16.599,0.502,20.959,6.998c4.17,6.214,1.031,15.57-1.215,22.056c-10.403-8.956-28.935-5.068-40.261-0.468
		c-3.398,1.381-3.195,6.661,0.906,6.695c12.029,0.102,21.632,4.703,31.571,10.658C152.917,60.534,150.265,64.895,147.711,69.273z"/>
</g>
<g>
</g>
<g>
</g>
<g>
</g>
<g>
</g>
<g>
</g>
<g>
</g>
<g>
</g>
<g>
</g>
<g>
</g>
<g>
</g>
<g>
</g>
<g>
</g>
<g>
</g>
<g>
</g>
<g>
</g>
</svg>
