<?xml version="1.0" encoding="iso-8859-1"?>
<!-- Generator: Adobe Illustrator 16.0.0, SVG Export Plug-In . SVG Version: 6.00 Build 0)  -->
<!DOCTYPE svg PUBLIC "-//W3C//DTD SVG 1.1//EN" "http://www.w3.org/Graphics/SVG/1.1/DTD/svg11.dtd">
<svg version="1.1" id="Capa_1" xmlns="http://www.w3.org/2000/svg" xmlns:xlink="http://www.w3.org/1999/xlink" x="0px" y="0px"
	 width="196.401px" height="196.401px" viewBox="0 0 196.401 196.401" style="enable-background:new 0 0 196.401 196.401;"
	 xml:space="preserve">
<g>
	<path d="M195.651,163.093c-0.048-2.288-1.288-3.771-2.889-4.497c-0.365-0.665-0.876-1.195-1.491-1.572
		c1.312-1.906,1.028-4.952-1.879-5.717c-31.824-8.357-61.587-28.731-87.559-48.246c-27.379-20.57-50.02-44.279-63.888-75.781
		c-0.433-0.983-2.148-0.741-2.325,0.304c-5.09,30.027,34.415,60.415,54.341,76.472c27.118,21.854,59.56,43.894,93.698,53.404
		c-0.049,0.046-0.101,0.086-0.147,0.134c-1.791,1.573-1.854,4.383-1.854,6.771v1.846c-61.554-7.954-102.713-50.074-142.014-93.983
		c-0.825-0.922-2.234,0.256-1.665,1.285c28.079,50.725,86.331,90.986,143.679,98.563v1.256c0,0.608,0.113,1.139,0.28,1.625
		c-40.543,11.657-83.277-12.745-114.026-37.811C51.61,123.856,36.817,107.773,27.528,88.77c-8.513-17.416-4.575-29.649,2.268-46.2
		c0.332-0.802-0.662-1.764-1.453-1.453c-2.083,0.817-3.904,1.883-5.504,3.139c-0.052-0.048-0.067-0.107-0.125-0.153
		c-5.384-4.302-9.569-9.83-13.361-15.554c5.245-4.861,10.957-9.855,17.423-12.875c1.729,5.527,2.559,11.268,4.019,16.881
		c0.486,1.866,3.524,2.016,3.914,0c1.45-7.482-1.299-14.653-3.062-21.845c-0.416-1.696-2.205-2.532-3.816-2.166
		C17.483,10.89,8.516,17.551,1.211,25.052c-1.185,1.217-1.693,3.436-0.634,4.915c5.106,7.132,10.559,14.013,17.939,18.892
		c-6.5,9.235-6.348,23.269-3.686,33.697c5.738,22.479,24.136,41.833,40.859,56.827c19.852,17.8,43.238,31.916,68.231,41.152
		c19.118,7.064,46.091,12.316,64.284,0.057c0.239-0.161,0.394-0.375,0.577-0.571c1.769,0.583,3.823,0.204,5.206-1.127
		c1.352-0.584,2.192-1.955,2.328-3.515C196.688,171.12,195.739,167.257,195.651,163.093z"/>
</g>
<g>
</g>
<g>
</g>
<g>
</g>
<g>
</g>
<g>
</g>
<g>
</g>
<g>
</g>
<g>
</g>
<g>
</g>
<g>
</g>
<g>
</g>
<g>
</g>
<g>
</g>
<g>
</g>
<g>
</g>
</svg>
