<?xml version="1.0" encoding="iso-8859-1"?>
<!-- Generator: Adobe Illustrator 16.0.0, SVG Export Plug-In . SVG Version: 6.00 Build 0)  -->
<!DOCTYPE svg PUBLIC "-//W3C//DTD SVG 1.1//EN" "http://www.w3.org/Graphics/SVG/1.1/DTD/svg11.dtd">
<svg version="1.1" id="Capa_1" xmlns="http://www.w3.org/2000/svg" xmlns:xlink="http://www.w3.org/1999/xlink" x="0px" y="0px"
	 width="190.369px" height="190.368px" viewBox="0 0 190.369 190.368" style="enable-background:new 0 0 190.369 190.368;"
	 xml:space="preserve">
<g>
	<path d="M171.955,125.87c-0.632-0.349-1.252-0.518-1.846-0.554c5.701-19.197,10.268-38.926,5.217-58.17
		c-0.443-1.689-2.007-2.772-3.708-2.823c-22.869-0.686-45.836-1.349-68.81-1.61c0.527-3.192,0.029-6.831,0.103-9.863
		c0.146-6.016,0.37-12.165,1.607-18.067c0.458-2.186-0.976-4.277-3.292-4.322c-0.412-0.008-0.824-0.001-1.236-0.007
		c-0.181-3.405-0.342-6.877,0.685-10.084c1.994-2.384,3.176-5.167,2.4-8.56c-0.809-3.542-5.132-9.252-8.644-10.163
		c-1.016-0.263-2.015,0.494-2.028,1.545c-0.038,3.059,2.805,5.665,4.416,8.11c1.311,1.989,0.989,3.57-0.012,4.992
		c-0.726-2.002-1.362-4.039-1.862-6.101c-0.213-0.879-0.316-1.928-0.993-2.604c-0.376-0.376-0.932-0.436-1.032-0.986
		c-0.128-0.709-1.326-0.724-1.442,0c-0.089,0.558-0.275,0.602-0.714,0.986c-0.884,0.772-0.716,2.231-0.646,3.257
		c0.288,4.193,1.519,8.009,3.282,11.803c0.53,1.14,1.678,1.47,2.765,1.284c-0.526,2.118-0.798,4.305-0.935,6.493
		c-2.214-0.008-4.428-0.031-6.641-0.039c-1.4-0.005-3.152,1.055-3.364,2.561c-1.34,9.499-0.849,20.02,0.966,29.66
		c-24.521-0.031-49.028,0.517-73.407,2.228c-2.365,0.166-3.517,1.989-3.214,4.219c2.956,21.746,6.646,43.082,13.718,63.54
		C2.29,134.992-8.022,160.32,7.404,176.124c15.321,15.696,46.777,12.361,66.399,11.896c32.692-0.774,67.986,5.771,98.413-9.424
		C197.804,165.82,195.075,138.645,171.955,125.87z M91.686,37.347c1.905-0.003,3.809-0.02,5.713-0.034
		c-0.558,4.507-0.971,9.017-1.153,13.574c-0.139,3.462-0.872,7.973-0.234,11.753c-1.745-0.013-3.49-0.032-5.235-0.039
		C91.749,54.311,90.883,45.708,91.686,37.347z M21.041,96.166c-1.759-8.24-3.3-16.518-4.459-24.849
		c42.175-2.352,84.508-0.326,126.701,0.554c2.429,0.051,25.065-0.891,25.474,0.775c0.734,2.991,0.95,6.116,0.889,9.278
		c-0.109,0.071-0.227,0.101-0.331,0.186c-2.316,1.871-4.427,5.473-7.903,4.94c-3.53-0.541-5.947-4.714-7.688-7.392
		c-1.01-1.552-3.447-1.17-4.13,0.185c-0.811,0.076-1.606,0.446-2.193,1.269c-3.625,5.087-7.991,9.394-10.603,0.646
		c-1.003-3.362-6.523-2.854-6.281,0.85c1.463,22.343-23.941,16.271-25.563-1.805c-0.104-1.167-0.994-1.778-1.89-1.835
		c-0.99-0.98-2.61-1.331-3.744-0.071c-6.113,6.79-13.395,10.142-18.867,0.334c-1.464-2.624-6.008-1.565-5.805,1.572
		c0.332,5.15,0.188,11.917-6.408,12.393c-7.499,0.541-10.516-8.315-10.8-14.197c-0.085-1.764-2.456-1.668-2.67,0
		c-0.044,0.341-0.065,0.68-0.095,1.02c-0.328-1.142-1.364-2.029-2.819-1.532c-2.009,0.687-3.581,1.678-5.21,3.029
		c-4.072,3.379-5.88,6.182-9.866-0.272c-1.557-2.521-6.03-0.888-4.941,2.083c1.919,5.238,3.895,10.487,2.596,16.134
		C32.568,107.577,23.598,99.102,21.041,96.166z M22.456,102.547c3.783,4.261,9.026,7.836,13.938,3.393
		c4.377-3.961,4.957-9.996,3.778-15.688c0.889,0.19,1.841,0.247,2.908,0.072c4.089-0.673,6.178-5.879,10.053-7.203
		c0.731-0.25,1.199-0.73,1.445-1.292c-0.151,8.617,4.176,16.276,13.661,17.32c7.205,0.793,11.065-4.597,12.353-10.657
		c6.619,4.792,14.956,3.603,20.859-3.423c1.479,9.11,7.806,17.278,17.579,18.553c9.237,1.204,15.128-4.007,17.226-11.334
		c4.556,3.278,10.021,0.184,15.273-6.862c2.049,3.564,4.888,6.604,9.08,7.644c2.674,0.663,5.554-0.009,8.068-1.41
		c-0.653,3.844-1.525,7.619-2.321,11.171c-2.341,10.448-5.59,20.64-8.652,30.884c-40.177-11.754-87.952-15.305-129.024-6.147
		c-0.607-2.271-1.207-4.547-1.798-6.822c43.411,1.996,86.946-12.047,128.681,6.143c3.729,1.626,7.012-3.816,3.233-5.531
		c-42.122-19.123-88.695-8.197-132.945-4.66C24.656,111.992,23.535,107.274,22.456,102.547z M146.986,141.89
		c-4.943-0.722-9.484,1.444-13.241,4.503c-4.526-10.26-12.652-8.108-19.07-1.446c-5.039-8.546-12.696-7.795-19.295-0.699
		c-1.768-4.796-4.796-8.592-10.692-9.258c-6.757-0.764-11.017,6.16-12.936,12.132c-2.265-3.074-5.917-6.466-9.446-7.385
		c-3.069-0.8-5.552,1.337-7.473,3.856c-2.366-4.974-6.002-9.681-11.814-6.955c-2.446,1.147-4.165,4.09-5.497,6.294
		c-0.685,1.134-1.403,2.402-1.826,3.664c-0.685,2.042-0.618,1.591,0.555,1.514c-0.813,0.054-1.55,0.938-1.166,1.743
		c-0.082,0.077-0.161,0.152-0.229,0.242c-1.768-6.362-3.545-12.74-5.275-19.138c42.983-4.093,83.988,2.27,126.415,8.705
		c-0.581,2.028-1.185,4.05-1.726,6.088C152.184,143.732,149.554,142.265,146.986,141.89z M150.196,151.643
		c-32.75,19.54-76.746,8.607-111.31-1.591c0.625-0.437,1.174-0.978,1.508-1.476c1.356-2.022,2.516-4.192,4.142-6.018
		c3.426-3.846,6.366,5.539,7.148,7.552c0.821,2.113,3.664,2.813,4.958,0.647c2.089-3.498,3.733-6.893,7.357-3.454
		c1.961,1.86,3.391,3.376,5.934,4.299c0.338,0.123,0.663,0.119,0.976,0.066c0.439,1.272,2.35,1.514,2.958-0.056
		c4.119-10.643,15.444-16.569,17.022-0.419c0.298,3.048,4.035,4.303,5.809,1.572c4.297-6.611,11.079-10.53,13.956-0.688
		c0.878,3.004,4.398,2.995,6.077,0.794c4.271-5.597,7.88-7.38,12.962-1.752c-0.021,1.696,2.118,3.095,3.802,1.659
		c3.188-2.719,7.388-5.515,11.811-4.793C147.75,148.386,149.097,149.877,150.196,151.643z M148.285,177.848
		c-22.476,4.955-46.473,1.448-69.252,1.634c-13.681,0.11-27.229,0.93-40.892-0.357c-8.762-0.825-18.151-2.985-25.132-8.601
		c-13.364-10.752-1.485-29.849,12.12-32.843c2.288,6.071,4.88,12.065,7.888,17.958c0.867,1.698,3.519,0.506,3.025-1.274
		c-0.132-0.477-0.265-0.955-0.397-1.432c35.194,16.377,85.252,29.417,120.161,5.698c0.508-0.345,0.893-0.748,1.2-1.177
		c1.96,0.195,3.969-0.736,4.601-3.233c1.738-6.866,3.922-13.883,6.108-20.991C199.326,151.133,171.413,172.749,148.285,177.848z"/>
</g>
<g>
</g>
<g>
</g>
<g>
</g>
<g>
</g>
<g>
</g>
<g>
</g>
<g>
</g>
<g>
</g>
<g>
</g>
<g>
</g>
<g>
</g>
<g>
</g>
<g>
</g>
<g>
</g>
<g>
</g>
</svg>
