<?xml version="1.0" encoding="iso-8859-1"?>
<!-- Generator: Adobe Illustrator 16.0.0, SVG Export Plug-In . SVG Version: 6.00 Build 0)  -->
<!DOCTYPE svg PUBLIC "-//W3C//DTD SVG 1.1//EN" "http://www.w3.org/Graphics/SVG/1.1/DTD/svg11.dtd">
<svg version="1.1" id="Capa_1" xmlns="http://www.w3.org/2000/svg" xmlns:xlink="http://www.w3.org/1999/xlink" x="0px" y="0px"
	 width="189.447px" height="189.448px" viewBox="0 0 189.447 189.448" style="enable-background:new 0 0 189.447 189.448;"
	 xml:space="preserve">
<g>
	<path d="M164.905,90.568C136.597,52.644,88.072,9.316,38.988,3.393C31.715,2.515,24.75,2.604,17.751,4.905
		c-1.946,0.64-2.713,2.18-2.66,3.702c-35.874,28.955,0.616,83.349,22.747,109.213c27.211,31.798,77.65,76.453,123.629,67.613
		C211.437,175.825,182.785,114.523,164.905,90.568z M122.381,129.561c0.694-9.388,4.655-18.237,10.813-25.604
		c3.323-3.975,7.556-7.036,11.998-9.625c3.029-1.765,5.871-2.54,8.229-4.698c3.834,4.602,7.696,9.579,11.299,14.783
		c-8.055,0.717-16.987,6.914-23.183,10.78C134.795,119.406,128.399,124.296,122.381,129.561z M124.284,59.644
		c-19.799,6.235-36.487,19.978-51.458,34.295c2.447-21.523,20.531-36.086,40.641-43.789
		C117.242,53.332,120.855,56.514,124.284,59.644z M83.892,28.483C64.308,29.39,49.75,47.44,37.599,62.301
		c-1.577-18.968,12.468-34.005,29.003-42.974C72.469,21.932,78.253,25.037,83.892,28.483z M168.252,173.895
		c-15.491,10.527-38.128,1.625-53.047-5.453c-22.23-10.546-41.975-26.416-59.417-43.576C29.872,99.371-10.8,48.216,18.603,12.326
		c0.381,0.026,0.757,0.065,1.187-0.024c14.228-2.951,28.957-0.301,43.278,5.517c-21.373,9.55-38.159,29.354-31.313,54.018
		c0.716,2.58,4.365,3.819,6.261,1.653c6.995-7.988,13.503-16.374,21.044-23.869c9.197-9.142,18.638-12.785,30.997-15.474
		c0.559-0.121,0.983-0.447,1.314-0.852c6.289,4.247,12.348,8.835,18.087,13.511c-26.33,4.04-48.038,30.769-45.149,57.229
		c0.385,3.522,4.411,5.838,7.257,3.006C88.665,90.029,106.611,74.314,129.8,66.45c0.447-0.152,0.817-0.364,1.153-0.602
		c1.449,1.377,2.865,2.737,4.224,4.057c3.946,3.835,8.981,9.022,14.281,15.079c-9.715-0.362-20.925,10.805-25.882,17.156
		c-8.581,10.99-11.512,24.726-9.518,38.347c0.507,3.458,5.28,4.078,7.44,1.964c7.518-7.361,15.711-13.84,24.497-19.627
		c7.473-4.922,15.796-7.072,23.47-11.153C183.285,134.138,190.128,159.029,168.252,173.895z"/>
</g>
<g>
</g>
<g>
</g>
<g>
</g>
<g>
</g>
<g>
</g>
<g>
</g>
<g>
</g>
<g>
</g>
<g>
</g>
<g>
</g>
<g>
</g>
<g>
</g>
<g>
</g>
<g>
</g>
<g>
</g>
</svg>
