<?xml version="1.0" encoding="iso-8859-1"?>
<!-- Generator: Adobe Illustrator 16.0.0, SVG Export Plug-In . SVG Version: 6.00 Build 0)  -->
<!DOCTYPE svg PUBLIC "-//W3C//DTD SVG 1.1//EN" "http://www.w3.org/Graphics/SVG/1.1/DTD/svg11.dtd">
<svg version="1.1" id="Capa_1" xmlns="http://www.w3.org/2000/svg" xmlns:xlink="http://www.w3.org/1999/xlink" x="0px" y="0px"
	 width="186.826px" height="186.825px" viewBox="0 0 186.826 186.825" style="enable-background:new 0 0 186.826 186.825;"
	 xml:space="preserve">
<g>
	<path d="M174.109,16.121C143.19-24.339,81.75,23.515,46.143,28.424c-0.807,0.111-1.119,0.827-1.045,1.521
		c-5.27,2.415-9.646,6.372-12.492,12.843c-0.304,0.692-0.237,1.351,0.022,1.908c-6.042,0.428-12.098,0.77-18.185,0.929
		c-1.164,0.03-2.388,1.018-2.283,2.283c0.615,7.407,2.172,12.781,5.764,18.944c-1.494,1.368-2.988,2.74-4.446,4.162
		c-0.107,0.104-0.162,0.216-0.227,0.326c-2.945,0.838-5.489,2.579-7.342,5.749c-4.645,7.947,2.014,18.04,7.804,22.944
		c3.587,3.038,7.968,4.429,12.537,4.783c4.901,18.305,2.306,37.361,6.63,55.766c0.1,3.281,0.389,6.53,1.039,9.685
		c3.4,16.496,32.157,15.06,44.222,16.042c12.746,1.038,36.058,1.695,45.558-10.329c5.188-4.185,8.551-8.579,10.563-13.136
		c0.389,0.109,0.812,0.154,1.276,0.086c4.918-0.716,9.18-3.022,14.051-3.975c1.533-0.3,2.334-2.073,1.976-3.479
		c-0.312-1.221-0.571-2.447-0.858-3.672c0.621,0.034,1.285-0.093,1.965-0.475c2.088-1.172,3.789-2.46,5.218-3.829
		c0.567,0.177,1.187,0.257,1.909,0.068c35.781-9.366,9.972-51.128,1.519-73.67C181.469,62.62,190.233,37.222,174.109,16.121z
		 M158.167,10.904c13.318,5.965,20.158,20.83,17.683,34.806c-2.29,12.931-12.283,20.317-23.574,24.502
		c0.601-1.154,1.279-2.29,2.136-3.38c7.465-9.512,13.914-13.868,13.522-26.948c-0.271-9.031-5.438-17.735-12.767-22.655
		c-16.086-10.799-41.213,4.268-57.191,8.023c-8.042,1.89-18.059,1.182-27.944,1.081C99.373,16.728,129.515-1.929,158.167,10.904z
		 M95.397,31.042C110.75,29.704,124.57,21.2,140.087,20c15.488-1.199,23.717,13.193,21.32,27.492
		c-1.525,9.089-12.988,13.68-16.238,22.105c-0.391,1.014-0.674,2.032-0.926,3.051c-0.105,0.026-0.211,0.056-0.315,0.081
		c-0.425,0.103-0.742,0.286-1.05,0.474c-0.649-14.055-1.486-28.105-3.45-42.067c-0.22-1.555-2.044-2.145-3.349-1.901
		c-33.035,6.184-65.873,12.442-99.292,15.121C46.934,25.184,77.488,32.6,95.397,31.042z M117.162,63.213
		c-13.692-16.922-46.968,2.642-61.837,7.47c-11.734,3.81-20.977,1.883-32.735,0.321c-1.545-0.205-3.057-0.307-4.523-0.294
		c0.568-0.474,1.118-0.916,1.666-1.353c1.092,0.555,2.522-0.408,2.263-1.709c4.058-2.853,8.098-4.395,14.35-3.529
		c4.713,0.653,9.4-0.195,14.023-1.003c12.8-2.237,24.705-9.276,36.98-13.324c17.515-5.776,41.778,1.994,43.793,22.804
		c0.979,10.119-5.097,15.841-12.688,19.574C124.544,84.228,124.716,72.55,117.162,63.213z M25.069,50.175
		c5.561-0.056,11.108-0.379,16.654-0.75c11.592-0.776,23.139-2.19,34.652-3.713c4.768-0.631,9.546-1.314,14.321-2.039
		c-20.562,5.003-42.712,18.683-61.542,13.838c-0.824-0.212-1.873-0.027-2.454,0.648c-1.937,2.255-4.05,4.311-6.21,6.323
		C17.301,57.835,15.224,50.274,25.069,50.175z M31.13,104.798c2.841-0.19,5.675-0.661,8.361-1.348
		c-3.218,9.354-4.127,18.764-4.9,28.564C34.344,122.851,33.748,113.737,31.13,104.798z M82.35,182.215
		c-14.079-0.494-43.086,1.136-45.095-17.367c-2.149-19.787,3.539-43.091,6.639-62.872c1.928-1.4,0.72-4.834-2.008-4.231
		c-3.582,0.997-7.215,1.381-10.897,1.148c-2.284-0.473-4.567-0.945-6.85-1.419c-11.076-2.809-13.406-10.198-6.99-22.169
		c5.279-0.708,10.917,0.99,16.069,1.971c8.219,1.565,15.3,0.106,23.338-2.122c12.7-3.52,24.917-8.577,37.693-11.865
		c24.064-6.193,33.482,27.32,7.672,31.933c-2.43,0.435-2.577,2.936-1.387,4.479c-0.947,0.637-1.468,1.758-0.893,3.209
		c6.031,15.234,14.982,29.062,20.652,44.495C130.98,176.498,105.46,183.026,82.35,182.215z M128.048,164.489
		c2.709-21.287-13.203-42.667-21.463-61.403c2.725,0.23,5.297-0.005,7.733-0.545C121.398,123.42,137.844,144.934,128.048,164.489z
		 M136.08,157.146c3.635-17.654-9.554-37.364-15.959-56.7c14.94-7.555,21.32-29.403,10.545-44.095
		c-8.705-11.87-18.978-15.092-29.979-14.314c11.347-1.908,22.64-4.142,33.772-6.844c2.636,22.527,2.304,45.237,3.35,67.873
		c0.475,10.279,1.525,20.484,2.941,30.673c0.824,5.93,2.164,11.722,3.645,17.514C145.458,155.429,140.083,156.405,136.08,157.146z
		 M149.219,144.931c-4.319-21.852-5.123-44.047-6.097-66.254c0.101,0.068,0.229,0.095,0.338,0.154
		c-0.14,6.519,1.67,13.064,3.506,19.455C150.281,109.817,163.969,136.16,149.219,144.931z M162.988,138.881
		c4.254-16.997-14.928-41.26-13.085-60.48c2.63-0.647,5.146-1.509,7.533-2.557C160.153,95.614,185.057,127.805,162.988,138.881z"/>
</g>
<g>
</g>
<g>
</g>
<g>
</g>
<g>
</g>
<g>
</g>
<g>
</g>
<g>
</g>
<g>
</g>
<g>
</g>
<g>
</g>
<g>
</g>
<g>
</g>
<g>
</g>
<g>
</g>
<g>
</g>
</svg>
