<?xml version="1.0" encoding="iso-8859-1"?>
<!-- Generator: Adobe Illustrator 16.0.0, SVG Export Plug-In . SVG Version: 6.00 Build 0)  -->
<!DOCTYPE svg PUBLIC "-//W3C//DTD SVG 1.1//EN" "http://www.w3.org/Graphics/SVG/1.1/DTD/svg11.dtd">
<svg version="1.1" id="Capa_1" xmlns="http://www.w3.org/2000/svg" xmlns:xlink="http://www.w3.org/1999/xlink" x="0px" y="0px"
	 width="190.327px" height="190.327px" viewBox="0 0 190.327 190.327" style="enable-background:new 0 0 190.327 190.327;"
	 xml:space="preserve">
<g>
	<path d="M181.341,59.245c7.342-8.893,10.849-20.053,7.996-32.845C184.666,5.448,163.524-1.155,144.86,0.308
		c-9.524,0.746-18.936,3.22-28.281,5.065C102.612,8.13,87.708,5.795,73.73,4.273c-19.285-2.098-36.127-0.557-51.742,8.651
		C9.525,17.454-0.34,26.498,0.009,41.281c0.483,20.453,34.264,48.343,48.177,28.001c2.338,22.948,5.37,45.813,5.773,68.902
		c0.208,11.908-4.812,28.651,1.465,39.697c5.365,9.442,15.267,14.314,25.717,11.574c6.941-1.82,12.966-6.51,19.887-8.613
		c6.69-2.034,15.536-0.533,22.404,0.139c10.622,1.039,20.344,2.296,28.237-0.791c0.198,0.004,0.39,0.021,0.615-0.032
		c55.144-12.982,33.066-80.699,29.325-119.996C181.577,59.813,181.451,59.535,181.341,59.245z M65.751,9.27
		c16.133,0.969,31.682,3.562,47.92,2.361c14.569-1.077,27.977-6.466,42.885-5.685c16.088,0.844,26.904,14.677,27.831,30.025
		c0.538,8.895-4.451,16.423-10.922,22.313c8.025-15.93,8.648-36.901-10.767-43.819c-16.772-5.976-30.827,1.49-45.547,9.035
		C94.627,35.047,74.101,13.048,51.717,9.921c-0.441-0.062-0.892-0.111-1.342-0.163C55.265,9.144,60.343,8.945,65.751,9.27z
		 M120.507,172.601c-10.17-0.971-19.497-0.832-29.026,3.149c-4.263,1.781-8.174,4.252-12.465,5.996
		c-15.561,6.322-17.645-14.863-17.278-24.238c1.222-31.247-0.976-59.917-8.124-90.49c-0.357-1.526-1.811-2.14-3.148-1.984
		c0.086-0.2,0.184-0.374,0.267-0.58c0.764-1.89-1.817-2.793-3.058-1.78C23.694,82.242-9.877,35.151,23.789,21.033
		c22.506-9.438,42.643,1.366,62.677,10.977c20.31,9.744,35.258-3.84,53.714-10.304c13.998-4.903,28.805,1.902,30.209,17.091
		c1.029,11.124-5.96,21.148-14.11,27.813c-2.763,2.259-1.23,5.575,1.349,6.754c5.841,27.707,8.776,55.096,1.989,82.935
		C154.193,178.541,138.647,174.333,120.507,172.601z M163.512,169.276c0.581-1.062,1.136-2.2,1.659-3.432
		c12.181-28.631,7.967-64.334,0.264-93.686c3.634-2.016,6.976-4.342,9.981-6.92C177.974,100.464,194.231,146.378,163.512,169.276z"
		/>
	<path d="M50.872,50.674c0.036,0,0.036-0.056,0-0.056"/>
	<path d="M151.332,34.558c-12.478-5.51-23.713,1.913-35.172,6.246c-17.348,6.559-38.106-2.429-54.124-9.162
		c-13.373-5.621-40.938-15.255-43.766,7.706c-2.853,23.156,16.917,26.114,31.547,14.508c22.634,23.552,13.032,67.103,18.241,96.675
		c0.852,4.835,3.411,18.691,8.563,21.711c3.361,1.969,9.523-3.313,12.485-4.109c18.04-4.849,42.343,8.551,57.199-7.161
		c6.408-6.776,7.343-17.86,8.347-26.593c2.502-21.769-2.053-44.116-6.053-65.413c-0.036-0.195-0.133-0.32-0.196-0.484
		C163.21,61.259,170.972,43.23,151.332,34.558z M141.453,65.004c-3.525,1.088-2.06,6.519,1.527,5.537
		c0.156-0.043,0.31-0.097,0.466-0.142c3.347,19.214,6.105,38.253,5.735,57.798c-0.222,11.724-1.49,29.188-14.626,33.628
		c-16.335,5.52-36.234-5.498-51.953,2.62c-1.676,0.864-3.279,2.423-3.619,1.599c-2.25-5.446-3.883-11.359-5.392-17.037
		c-3.593-13.515-1.648-29.343-3.012-43.267c-1.855-18.935-1.87-41.532-18.252-54.119c1.163-1.566-1.09-3.621-2.708-2.228
		c-9.875,8.5-25.298,11.45-26.586-6.358c-1.067-14.743,13.294-14.394,22.832-12.049c11.327,2.785,21.497,9.009,32.652,12.36
		c14.49,4.354,28.486,6.923,43.021,1.412c8.584-3.254,14.452-7.386,24.044-6.073c7.396,1.012,13.564,6.441,11.924,14.538
		C156.072,60.299,147.286,63.204,141.453,65.004z"/>
</g>
<g>
</g>
<g>
</g>
<g>
</g>
<g>
</g>
<g>
</g>
<g>
</g>
<g>
</g>
<g>
</g>
<g>
</g>
<g>
</g>
<g>
</g>
<g>
</g>
<g>
</g>
<g>
</g>
<g>
</g>
</svg>
