<?xml version="1.0" encoding="iso-8859-1"?>
<!-- Generator: Adobe Illustrator 16.0.0, SVG Export Plug-In . SVG Version: 6.00 Build 0)  -->
<!DOCTYPE svg PUBLIC "-//W3C//DTD SVG 1.1//EN" "http://www.w3.org/Graphics/SVG/1.1/DTD/svg11.dtd">
<svg version="1.1" id="Capa_1" xmlns="http://www.w3.org/2000/svg" xmlns:xlink="http://www.w3.org/1999/xlink" x="0px" y="0px"
	 width="192.583px" height="192.583px" viewBox="0 0 192.583 192.583" style="enable-background:new 0 0 192.583 192.583;"
	 xml:space="preserve">
<g>
	<path d="M189.187,129.621c-2.64-0.233-5.273-0.385-7.904-0.508c2.347-1.557,4.503-3.385,6.611-5.444
		c3.281-3.206,1.419-5.351,0.569-8.907c8.416-15.997-3.035-27.204-16.768-34.963c-0.05-0.585-0.278-1.142-0.75-1.512
		c-4.336-3.398-10.229-6.623-15.703-3.676c-1.05,0.564-1.96,1.275-2.81,2.042c-4.272-4.473-9.832-7.721-15.648-9.742
		c-1.463-0.508-2.997,0.817-2.989,2.278c0.014,3.058,0.299,6.11,0.685,9.143c0.078,0.615,0.372,1.034,0.744,1.298
		c-0.115,0.055-0.231,0.1-0.341,0.181c-1.876,1.38-3.815,1.462-6.041,1.561c-1.278,0.057-2.518,1.07-2.446,2.446
		c0.256,4.98,1.001,9.974,2.3,14.809c-6.369,3.089-10.684,7.85-9.085,15.36c1.503,7.057,8.052,12.723,13.712,17.146
		c-4.974,0.51-9.94,1.055-14.9,1.609c2.396-2.035,2.915-5.795,2.532-8.936c-0.435-3.572-2.498-6.662-5.303-8.813
		c1.533-1.913,2.629-4.099,2.997-6.686c0.188-1.324-0.47-2.35-1.373-2.916c0.906-6.924,0.803-13.368-0.56-20.437
		c-0.146-0.75-0.53-1.227-1.006-1.524c4.72-5.204,5.694-13.051,0.318-19.717c-0.617-0.764-1.434-0.937-2.197-0.749
		c0.101-0.329,0.144-0.691,0.104-1.091c-4.92-49.59-105.213-41.234-98.284,1.868c-0.34-0.043-0.704,0.014-1.071,0.271
		c-4.342,3.042-8.827,7.533-8,13.344c0.339,2.381,1.478,4.423,3.047,6.111c-5.838,6.446-8.862,13.482-9.617,22.292
		c-0.163,1.899,1.808,2.786,3.364,2.563c2.848-0.41,5.679-0.853,8.503-1.305c-0.258,3.721-0.184,7.402,1.512,10.929
		c0.017,0.034,0.04,0.057,0.058,0.091c-1.307,1.715-2.326,3.62-2.93,5.755c-0.498,1.761-0.509,3.827,0.302,5.377
		c-0.204-0.013-0.403-0.081-0.609-0.068c-2.685,0.166-4.675,1.767-5.902,4.1c-1.293,2.457,1.196,4.429,3.226,3.669
		c10.827,27.831,55.143,28.509,79.287,27.52c34.335-1.407,74.041-8.857,103.892-26.755c1.039-0.623,1.415-1.548,1.409-2.47
		C193.268,133.146,192.273,129.893,189.187,129.621z M173.824,126.874c-0.967,0.405-1.483,1.175-1.698,2.006
		c-6.286-0.026-12.55,0.184-18.793,0.572c0.44-1.469,0.908-2.929,1.394-4.386c9.265-4.001,18.785-6.948,28.673-8.864
		c0.006,0.009,0.01,0.019,0.017,0.027c0.296,1.243,0.68,2.455,1.164,3.764C184.889,120.821,175.121,126.331,173.824,126.874z
		 M148.38,129.534c0.011,0.091,0.055,0.162,0.073,0.248c-0.769,0.057-1.537,0.117-2.306,0.179c0.069-0.133,0.165-0.248,0.154-0.427
		c-0.667-10.917,0.639-21.659,1.182-32.535c3.254-0.186,6.432-0.548,9.645-0.348c0.408,0.274,0.897,0.406,1.436,0.363
		c-1.541,5.592-3.683,11.036-5.712,16.451C151.062,118.24,147.712,124.269,148.38,129.534z M174.755,94.972
		c3.115,3.705,4.195,7.786,1.562,12.633c-1.478,2.723-3.92,4.646-6.084,6.782c-4.709,1.616-9.304,3.549-13.806,5.747
		c0.034-0.097,0.068-0.194,0.104-0.292c0.327-0.061,0.65-0.25,0.908-0.6C163.361,111.212,168.691,102.894,174.755,94.972z
		 M170.506,82.976c10.065,6.63,19.717,15.592,14.459,27.554c-0.048,0.007-0.088-0.01-0.138,0c-1.698,0.314-3.361,0.731-5.029,1.132
		c0.93-1.378,1.704-2.833,2.221-4.315c2.471-7.083-0.421-13.099-5.699-17.976c-0.905-0.837-2.661-1.099-3.524,0
		c-4.225,5.377-8.163,11.298-11.718,17.378c1.202-3.716,2.295-7.463,3.092-11.294c0.188-0.91-0.089-1.883-0.739-2.504
		c0.769-1.046,1.481-2.115,2.159-3.005C167.305,87.697,169.048,85.414,170.506,82.976z M155.267,80.557
		c3.153-3.054,7.112-1.792,10.312,0.313c-1.284,2.019-2.766,3.926-4.226,5.806c-1.247,1.606-3.067,3.275-4.3,5.066
		c-2.773-0.067-5.526,0.198-8.331,0.464c0.117-0.165,0.237-0.328,0.312-0.549C150.412,87.589,152.135,83.59,155.267,80.557z
		 M149.446,80.193c-2.025,3.14-3.292,6.867-4.222,10.415c-0.212,0.81,0.055,1.433,0.509,1.856c-0.145,0.011-0.288,0.025-0.434,0.035
		c-1.145,0.078-2.133,0.88-2.245,2.051c-0.937-4.501-3.058-9.021-4.466-13.229c-0.237-0.71-0.826-1.345-1.53-1.671
		c0.387-0.262,0.693-0.685,0.774-1.316c0.238-1.876,0.408-3.761,0.53-5.648c3.95,1.847,7.49,4.373,10.757,7.312
		C149.227,80.091,149.34,80.121,149.446,80.193z M134.606,85.556c1.37,4.763,2.627,9.996,5.403,13.848
		c0.732,1.017,2.197,1.111,2.987,0.376c-0.088,7.623-0.522,15.339,0.234,22.909c-3.718-7.722-6.665-15.96-10.516-23.606
		c-0.025-0.049-0.07-0.069-0.098-0.115c-0.862-4.194-1.281-8.486-1.327-12.752C132.435,86.134,133.537,85.908,134.606,85.556z
		 M125.895,116.954c-3.692-6.129-1.588-10.521,3.633-13.483c2.109,4.576,4.053,9.23,6.031,13.863
		c1.669,3.911,3.094,8.961,6.499,11.787c0.703,0.584,1.538,0.612,2.213,0.321c0.026,0.119,0.039,0.239,0.066,0.358
		c0.03,0.135,0.137,0.19,0.208,0.286c-2.321,0.194-4.641,0.402-6.956,0.625c-0.072-0.163-0.172-0.32-0.321-0.458
		C132.975,126.264,128.932,121.997,125.895,116.954z M114.929,123.808c0.369,2.82-1.718,4.86-1.401,7.555
		c0.078,0.661,0.397,1.335,0.867,1.828c-32.903,3.65-65.599,6.728-98.882-4.051c0.235-1.294,0.038-2.507,0.179-3.962
		c0.217-2.239,1.093-4.313,2.367-6.146c13.346,11.119,40.031,9.112,54.982,8.268c9.336-0.528,29.148-1.465,39.365-9.127
		C113.535,119.932,114.65,121.682,114.929,123.808z M15.748,106.393c32.924-5.403,64.406-11.814,96.457,3.332
		c-6.895,10.903-36.141,11.093-45.519,11.483c-13.364,0.556-34.981,1.796-47.779-5.435c-0.296-0.508-0.789-0.869-1.369-0.961
		C17.024,111.979,16.333,109.197,15.748,106.393z M112.323,68.191c1.043,3.289,2.196,6.474,0.504,9.896
		c-1.545,3.124-5.09,4.5-8.279,5.174c-8.438,1.781-15.713-2.838-19.162-10.11c8.154-0.4,16.281-1.072,24.334-2.189
		C111.319,70.739,112.134,69.548,112.323,68.191z M107.298,62.775c0.053,0.366,0.202,0.652,0.354,0.932
		c-28.932,2.428-57.746,1.248-86.696,2.617c-0.099,0.005-0.167,0.05-0.261,0.062C15.448,26.907,101.516,22.522,107.298,62.775z
		 M81.649,73.326c-5.793,5.71-9.189,10.86-18.271,10.636c-7.069-0.174-12.38-4.842-15.546-10.679
		C59.101,73.656,70.4,73.754,81.649,73.326z M16.397,67.126c0.239,0.852,0.505,1.713,0.826,2.589
		c0.311,0.85,0.959,1.264,1.635,1.349c0.462,0.551,1.157,0.941,2.097,0.993c6.994,0.384,14.032,0.747,21.087,1.032
		c-5.194,7.394-11.288,12.322-21.159,10.367c-3.427-0.679-6.839-2.392-8.518-5.566C10.421,74.212,14.017,69.725,16.397,67.126z
		 M12.425,100.276c-0.02,0.395-0.054,0.789-0.083,1.184c-2.213,0.381-4.432,0.759-6.657,1.126c0.928-6.155,3.266-11.557,6.9-16.649
		c1.107,0.716,2.291,1.317,3.504,1.778c10.334,3.921,25.412,0.107,29.664-10.795c2.878,6.073,8.23,10.503,15.446,11.846
		c8.042,1.497,18.794-2.576,22.672-10.237c3.99,7.659,13.205,12.037,22.2,10.265c2.093-0.412,3.999-1.164,5.693-2.156
		c1.359,5.682,1.456,11.352,0.411,17.011c-32.099-14.381-64.062-8.384-97.233-2.639c-0.019-0.247-0.071-0.485-0.084-0.734
		C14.777,98.708,12.504,98.707,12.425,100.276z M97.411,157.862c-31.24,3.512-66.452,2.797-87.768-23.037
		c0.405-0.503,0.851-0.987,1.318-1.301c0.264-0.177,0.517-0.256,0.769-0.319c0.167,0.168,0.326,0.342,0.56,0.47
		c24.585,13.345,53.817,12.719,80.939,10.722c28.772-2.118,57.109-7.04,85.926-7.593C153.898,148.973,124.87,154.774,97.411,157.862
		z"/>
	<path d="M37.991,52.836l-1.201-1.308c-0.245-0.267-0.519-0.388-0.798-0.453c-0.428-0.374-0.846-0.759-1.28-1.127
		c-1.333-1.132-3.045,0.58-1.912,1.912c0.369,0.434,0.754,0.851,1.127,1.28c0.065,0.279,0.186,0.553,0.453,0.798l1.308,1.201
		C37.111,56.689,39.408,54.38,37.991,52.836z"/>
	<path d="M47.654,50.263c-1.159-2.288-3.724-4.39-6.345-4.664c-2.552-0.267-4.602,1.137-6.336,2.865
		c-0.795,0.792,0.405,1.976,1.224,1.224c1.338-1.227,2.924-2.407,4.847-2.127c2.168,0.316,3.289,2.816,4.614,4.243
		C46.682,52.907,48.284,51.506,47.654,50.263z"/>
	<path d="M41.071,58.208c-1.828,0.045-3.657,0.09-5.486,0.135c-2.197,0.054-2.197,3.354,0,3.408c1.828,0.045,3.657,0.09,5.486,0.135
		C43.443,61.945,43.443,58.15,41.071,58.208z"/>
	<path d="M91.797,52.912c-1.071-1.449-3.294-1.957-5.012-1.91c-2.206,0.06-2.149,2.958-0.205,3.399
		c-0.085,1.188,0.587,2.442,2.033,2.297c1.105-0.111,2.088-0.23,2.944-0.993C92.312,55.034,92.38,53.7,91.797,52.912z"/>
	<path d="M97.049,47.161c-2.302-1.728-5.041-2.908-7.21-4.795c-1.671-1.454-4.006,0.819-2.448,2.448
		c2.097,2.193,5.036,3.491,6.97,5.83C96.279,52.965,99.781,49.214,97.049,47.161z"/>
</g>
<g>
</g>
<g>
</g>
<g>
</g>
<g>
</g>
<g>
</g>
<g>
</g>
<g>
</g>
<g>
</g>
<g>
</g>
<g>
</g>
<g>
</g>
<g>
</g>
<g>
</g>
<g>
</g>
<g>
</g>
</svg>
