<?xml version="1.0" encoding="iso-8859-1"?>
<!-- Generator: Adobe Illustrator 16.0.0, SVG Export Plug-In . SVG Version: 6.00 Build 0)  -->
<!DOCTYPE svg PUBLIC "-//W3C//DTD SVG 1.1//EN" "http://www.w3.org/Graphics/SVG/1.1/DTD/svg11.dtd">
<svg version="1.1" id="Capa_1" xmlns="http://www.w3.org/2000/svg" xmlns:xlink="http://www.w3.org/1999/xlink" x="0px" y="0px"
	 width="185.939px" height="185.94px" viewBox="0 0 185.939 185.94" style="enable-background:new 0 0 185.939 185.94;"
	 xml:space="preserve">
<g>
	<path d="M159.23,9.352c-0.172-0.771-0.554-1.274-1.003-1.657c-0.07-1.255-0.178-2.514-0.335-3.776
		c-0.245-1.966-1.596-4.102-3.906-3.906C110.519,3.681,81.278,42.082,40.08,52.527c-2.4,0.607-1.311,3.907,0.991,3.594
		c37.606-5.115,64.351-35.154,99.849-46.049c22.118-6.788-3.708,40.138-8.329,47.5c-9.175,14.619-22.784,27.788-30.522,43.242
		c-4.496-3.484-11.479-2.418-16.215,0.23c-1.928,1.079-0.534,3.68,1.412,3.351c4.196-0.71,10.167-2.726,13.036,1.664
		c2.038,3.117,1.287,7.763,0.309,11.205c-1.499-0.806-3.69-0.119-3.84,2.165c-0.117,1.801-0.172,3.613-0.224,5.427
		c-0.873,0.913-1.854,1.68-2.971,2.146c-5.382,2.255-9.361-4.852-11.327-8.608c-0.465-0.889-1.422-1.062-2.315-0.942
		c-12.054,1.623-26.398-2.264-29.909-15.114c-0.321-1.175-2.17-0.95-2.137,0.289c0.012,0.411,0.046,0.738,0.064,1.12
		c-0.177-0.207-0.379-0.4-0.672-0.487c-5.433-1.598-10.709-1.172-15.361-4.981c-4.813-3.942-4.516-11.121-3.871-16.653
		c0.105-0.898-0.736-1.923-1.596-2.097c-3.67-0.742-8.605-1.479-8.974-6.22c-0.261-3.369,1.894-7.014,3.329-9.864
		c0.426-0.844,0.027-1.603-0.595-1.938c3.532-2.263,7.05-4.138,11.748-3.341c6.465,1.097,8.563,7.661,8.176,13.39
		c-0.96,0.405-1.645,1.784-0.769,2.879c3.941,4.921,10.654,5.331,9.952,13.492c-0.053,0.604,0.372,1.224,0.869,1.518
		c4.426,2.612,9.882,5.923,15.051,6.737c4.005,0.631,5.183-4.829,10.587-4.063c3.252,0.461,7.552,5.396,10.28,7.464
		c1.207,0.916,2.777-1.131,1.618-2.098c-3.064-2.558-6.876-7.606-11.009-8.594c-4.842-1.158-9.516,3.814-12.989,2.685
		c-3.414-1.111-6.706-2.866-9.941-4.41c-1.843-0.88-1.507-3.313-2.243-4.868c-2.126-4.49-6.749-6.439-9.757-10.278
		c-0.08-0.103-0.173-0.146-0.26-0.22c1.496-6.543,0.395-13.292-6.33-16.421c-7.044-3.275-16.982,0.33-21.188,6.547
		c-0.908,1.342,0.853,2.962,2.168,2.168c0.467-0.281,0.921-0.574,1.376-0.866c-2.527,3.923-5.649,9.266-3.547,13.781
		c0.178,0.384,0.392,0.706,0.601,1.038c-0.653,0.292-1.125,0.957-0.906,1.943c5.869,26.525,9.095,53.365,13.473,80.146
		c0.354,2.157,2.261,2.539,3.805,1.84c10.962,23.089,54.603,30.969,74.859,17.118c0.952-0.026,1.911-0.395,2.611-1.343
		c20.028-27.097,43.447-51.64,58.204-82.292C181.017,65.61,165.811,38.898,159.23,9.352z M162.859,50.834
		c0.72,2.845,1.187,5.612,1.47,8.33c-0.022,0.039-0.055,0.054-0.076,0.096c-15.909,31.325-36.214,58.377-60.503,83.284
		c-0.261-3.536-0.508-7.072-0.785-10.604c20.889-27.28,38.139-57.25,58.942-84.676C162.221,48.456,162.556,49.638,162.859,50.834z
		 M104.592,119.937c1.612-4.087,2.488-8.845,1.315-13.106c13.9-14.218,25.737-32.74,36.382-49.457
		c6.084-9.556,11.329-19.999,14.047-30.966c1.511,5.911,3.143,11.795,4.732,17.701c-0.74-0.27-1.614-0.231-2.275,0.32
		c-25.104,20.948-38.419,54.789-56.231,82.223c-0.064-0.801-0.118-1.608-0.184-2.408
		C103.263,122.864,104.013,121.404,104.592,119.937z M32.814,160.015c0.154-0.449,0.238-0.937,0.165-1.483
		c-3.494-26.006-5.508-52.71-15.141-77.326c0.277,0.178,0.539,0.361,0.838,0.533c4.271,2.454,4.637,0.661,4.651,6.07
		c0.031,12.389,11.962,21.252,23.952,18.387c0.356-0.085,0.608-0.283,0.789-0.524c0.616,6.204,2.824,8.206,9.27,11.915
		c6.837,3.935,14.329,4.792,21.979,4.001c2.823,5.052,7.53,11.119,13.985,9.679c1.143-0.256,2.19-0.706,3.183-1.254
		c0.033,14.849,1.963,29.918,4.513,44.438C77.996,178.929,47.671,181.928,32.814,160.015z M105.552,170.743
		c-0.388-7.916-0.909-15.844-1.473-23.77c12.1-5.806,21.964-19.476,29.667-29.67c11.266-14.909,21.583-30.58,30.61-46.955
		c-1.201,12.227-6.29,23.52-12.814,35.071C138.475,128.556,120.715,148.931,105.552,170.743z"/>
</g>
<g>
</g>
<g>
</g>
<g>
</g>
<g>
</g>
<g>
</g>
<g>
</g>
<g>
</g>
<g>
</g>
<g>
</g>
<g>
</g>
<g>
</g>
<g>
</g>
<g>
</g>
<g>
</g>
<g>
</g>
</svg>
