<?xml version="1.0" encoding="iso-8859-1"?>
<!-- Generator: Adobe Illustrator 16.0.0, SVG Export Plug-In . SVG Version: 6.00 Build 0)  -->
<!DOCTYPE svg PUBLIC "-//W3C//DTD SVG 1.1//EN" "http://www.w3.org/Graphics/SVG/1.1/DTD/svg11.dtd">
<svg version="1.1" id="Capa_1" xmlns="http://www.w3.org/2000/svg" xmlns:xlink="http://www.w3.org/1999/xlink" x="0px" y="0px"
	 width="189.761px" height="189.761px" viewBox="0 0 189.761 189.761" style="enable-background:new 0 0 189.761 189.761;"
	 xml:space="preserve">
<g>
	<path d="M39.629,50.99c0.699-0.224,1.395-0.522,2.086-0.903c4.558-2.514,7.554-10.55,4.734-15.124
		c-0.88-1.427-3.084-1.178-3.55,0.464c-1.112,3.911,0.567,8.027-3.399,10.869c-3.67,2.63-8.581,0.434-11.922-1.624
		c-1.362-0.839-2.897,1.125-1.712,2.219c1.145,1.056,2.402,1.978,3.729,2.725c-1.103,0.109-2.192,0.254-3.231,0.429
		c-2.414,0.407-1.355,3.969,1.001,3.633c3.85-0.55,8.532-0.877,11.697,1.828c3.802,3.251,2.673,8.531,3.837,12.79
		c0.5,1.829,3.276,1.885,3.746,0c1.269-5.087-0.804-12.13-4.664-15.709C41.261,51.919,40.459,51.42,39.629,50.99z"/>
	<path d="M89.526,68.092c-3.22-2.08-8.149-6.104-12.156-6.343c-3.895-0.232-6.508,2.564-8.543,5.639
		c-2.201-4.268-5.173-8.97-9.877-9.636c-5.001-0.709-7.616,6.305-9.062,9.793c-0.386,0.931,1.158,1.557,1.614,0.68
		c1.237-2.382,4.708-10.221,9.315-6.403c2.811,2.33,4.521,7.346,5.786,10.501c0.666,1.66,2.834,2.185,3.875,0.506
		c2.705-4.361,4.72-8.232,9.885-5.039c2.512,1.553,4.788,3.098,7.666,3.852C90.207,72.213,91.36,69.277,89.526,68.092z"/>
	<path d="M169.531,53.452c-3.184-1.399-8.963-0.024-11.136-3.368c-1.91-2.939,0.179-8.867,1.153-11.776
		c0.531-1.588-1.732-2.367-2.582-1.089c-0.133,0.198-0.263,0.404-0.394,0.605c-0.186-1.53-1.811-2.96-3.584-1.976
		c-7.063,3.922-11.725,2.041-19.249-0.869c-5.455-2.11-11.253-3.129-16.779-5.045c-0.642-0.223-1.608,0.002-2.046,0.541
		c-6.708,8.263-13.032,11.12-21.661,2.748c-0.453-0.439-0.962-0.367-1.308-0.074c-0.512-0.944-1.719-1.458-2.638-0.426
		c-2.791,3.135-4.664,6.138-8.864,7.706c-4.567,1.705-9.329-1.804-12.73-4.303c-0.708-0.52-1.97-0.325-2.532,0.327
		c-6.254,7.251-10.393,3.388-15.494-1.449c-1.244-1.18-3.022,0.613-1.873,1.873c2.96,3.247,5.667,6.864,10.064,8.062
		c2.819,0.768,8.798-4.416,9.986-3.543c8.808,6.472,19.602,3.148,24.124-6.48c3.86,4.872,7.352,8.185,13.802,8.085
		c3.779-0.059,10.816-8.496,11.855-8.163c3.494,1.121,7.038,2.049,10.571,3.039c4.388,1.229,6.612,5.849,10.817,7.069
		c6.32,1.833,10.683-1.746,16.046-4.734c-2.351,3.978-3.996,8.307-1.838,12.883c1.471,3.118,5.781,5.251,9.86,5.839
		c-2.772,2.763-6.641,4.408-8.466,7.522c-2.748-2.652-5.939-4.84-9.88-4.78c-4.202,0.064-7.342,3.828-9.871,6.676
		c-0.387,0.435-0.529,0.9-0.534,1.346c-2.489-5.163-5.932-10.154-11.979-10.877c-4.266-0.51-7.506,3.317-9.72,7.222
		c-2.278-4.98-5.76-9.607-11.669-9.352c-6.199,0.268-9.793,7.737-9.898,13.075c-0.035,1.753,2.252,1.794,2.833,0.383
		c1.433-3.484,2.692-7.541,6.559-9.051c5.457-2.131,8.689,8.049,9.738,11.267c0.582,1.787,3.221,2.398,4.19,0.548
		c1.676-3.197,3.739-8.609,7.969-9.115c3.876-0.463,6.38,6.756,7.585,9.339c1.393,2.982,5.52,0.755,4.88-2.135
		c0.661,0.769,1.855,1.082,2.879,0.179c2.033-1.796,4.128-3.925,6.788-4.717c3.764-1.121,7.959,4.744,9.928,7.059
		c1.249,1.469,3.703,0.597,4.176-1.102c1.006-3.618,2.348-5.145,5.541-7.001c1.812-1.053,3.505-2.256,4.463-4.161
		c0.452-0.898,0.317-1.853-0.099-2.657c0.113-0.04,0.251-0.051,0.359-0.095C170.772,57.724,172.012,54.543,169.531,53.452z"/>
	<path d="M175.668,43.282c0.447-0.489,0.727-1.149,0.593-1.964c-0.542-3.304,1.428-8.51-0.469-11.458
		c-1.727-2.687-4.396-2.802-7.15-2.462c0.498-6.147-0.726-12.568-7.693-14.244c-6.246-1.502-14.64,2.486-18.646,7.777
		c-1.948-4.509-4.782-8.707-9.77-10.046c-5.107-1.372-9.376,3.611-12.207,7.743c-2.069-2.809-4.771-5.656-8.286-5.206
		c-3.677,0.47-5.534,5.139-8.588,6.866c-0.466,0.264-0.735,0.657-0.86,1.088c-3.457-3.938-7.233-6.45-12.699-7.265
		c-3.06-0.456-15.125,4.997-16.014,4.188c-7.299-6.655-14.103-1.129-20.112,4.16c-0.617-4.005-2.201-8.159-6.415-9.436
		c-3.187-0.966-8.252,0.842-10.72,3.758c-5.407-2.307-11.431-2.914-16.549,0.871c-5.36,3.964-6.768,12.761-3.281,18.406
		c-3.191,1.97-7.351,3.245-9.194,6.546c-1.752,3.14,0.953,6.21,3.512,8.506C4.848,53.632-1.634,58.882,0.372,66.178
		c0.94,3.419,3.847,4.902,7.201,5.152c-1.4,13.189-0.314,27.176-0.588,40.224c-0.279,13.276-2.657,30.863,3.917,42.973
		c0.518,0.954,1.427,1.242,2.286,1.098c-0.292,20.679,47.937,23.031,59.724,23.34c29.295,0.767,72.007-0.998,97.064-18.495
		c0.814-0.569,1.274-1.307,1.482-2.085c1.786,0.31,3.84-0.681,3.923-3.057c0.849-24.568,4.233-49.022,3.154-73.62
		c-0.015-0.337-0.101-0.618-0.205-0.883c4.644-3.431,8.307-8.366,10.44-14.341C192.131,57.077,186.741,42.317,175.668,43.282z
		 M168.857,153.603c-0.783-0.188-1.665-0.062-2.564,0.563c-21.118,14.705-54.817,16.077-79.456,17.231
		c-23.864,1.118-57.532,2.702-71.048-20.554c-0.116-0.2-0.28-0.329-0.46-0.405c0.108-8.215-0.549-16.566-1.113-24.923
		c18.578,18.568,48.626,22.7,73.67,23.389c25.909,0.713,59.333-2.579,81.705-17.448C169.129,138.832,168.82,146.212,168.857,153.603
		z M168.595,124.854c-44.258,20.23-114.335,29.774-154.349-4.663c-0.121-0.104-0.248-0.148-0.373-0.219
		c-0.263-4.6-0.45-9.193-0.395-13.757c0.003-0.226,0.009-0.458,0.012-0.685c18.322,19.781,48.858,24.262,74.422,25.509
		c27.537,1.344,57.463-2.542,82.812-14.215c-0.218,2.572-0.466,5.143-0.66,7.715C169.599,124.542,169.112,124.618,168.595,124.854z
		 M182.802,66.09c-3.857,10.799-14.573,16.687-25.579,15.876c-0.43-0.272-0.963-0.401-1.574-0.255
		c-8.038,1.923-13.157,7.181-20.958-3.379c-0.934-1.264-3.118-2.08-4.314-0.556c-6.746,8.597-16.392,9.248-24.028,2.047
		c-1.275-1.202-3.258-0.943-4.188,0.54c-3.19,5.092-8.674,8.558-14.191,3.91c-1.97-1.66-4.536,0.869-2.83,2.83
		c7.871,9.051,14.027,6.703,19.94-1.554c9.953,7.303,18.931,7.457,27.247-1.624c7.183,7.657,14.954,7.478,24.634,1.701
		c5.934,1.11,11.596,0.305,16.545-1.97c-0.598,8.51-1.368,17.022-2.131,25.538C125.631,129.092,57.389,134.73,16.61,101.91
		c-1.049-0.844-2.229-0.699-3.054-0.105c0.217-10.093,0.555-20.894-1.886-30.712c2.853-0.517,5.607-1.69,7.422-3.15
		c-2.573,13.933,6.655,16.554,16.83,12.092c-0.281,14.624,12.84,16.363,22.957,5.481c6.577,5.566,12.691,4.134,21.707,4.282
		c2.437,0.04,2.826-3.483,0.563-4.162c-8.154-2.447-13.568,1.74-20.577-5.8c-0.901-0.969-2.871-1.105-3.747,0
		c-1.216,1.719-2.598,3.291-4.145,4.718c-7.197,7.337-12.565-0.822-11.495-8.156c0.291-1.994-1.59-4.047-3.632-2.792
		c-6.621,4.07-14.652,4.984-14.894-5.824c-0.026-1.18-1.152-1.83-2.123-1.714c0.148-0.975-0.461-2.026-1.633-1.983
		c-1.44,0.053-5.463,1.613-8.767,2.06c-0.308-0.831-0.566-1.682-0.928-2.491c-0.103-0.229-0.491-0.169-0.538,0.07
		c-0.165,0.834-0.266,1.689-0.404,2.532c-1.613-0.06-2.795-0.63-2.959-2.181c-0.527-4.998,7.045-8.859,10.584-10.555
		c1.071-0.513,1.282-2.244,0.388-3.013c-3.31-2.849-6.469-5.658-2.265-8.9c1.568-1.21,3.078-2.421,4.5-3.766
		c1.056,0.181,2.248-0.757,2.272-1.896c0.115-5.315-2.185-10.098,2.332-14.356c3.171-2.989,7.956-3.246,12.272-2.336
		c-0.063,0.259-0.182,0.508-0.198,0.775c-0.054,0.863,0.777,1.643,1.619,1.619c1.104-0.032,2.041-0.47,2.929-1.036
		c0.187,0.08,0.394,0.148,0.575,0.23c0.993,0.454,1.759-0.704,1.107-1.415c1.26-0.947,2.549-1.866,4.205-1.983
		c3.396-0.241,5.058,4.412,5.909,6.893c0.264,0.769,1.181,1.016,1.811,0.752c0.423,0.546,1.101,0.89,1.848,0.65
		c7.191-2.308,9.97-9.311,17.827-2.127c0.692,0.633,1.899,0.962,2.731,0.352c8.96-6.559,17.258-6.959,25.45,1.313
		c1.276,1.289,2.897,0.151,2.963-1.245c0.259,0.032,0.532,0.017,0.828-0.085c2.182-0.748,3.585-2.14,5.043-3.904
		c3.735-4.519,5.993-0.307,8.995,3.322c0.799,0.966,2.411,0.595,2.993-0.386c2.325-3.915,6.022-10.702,11.94-7.937
		c3.151,1.473,5.104,5.561,6.786,8.657c-0.161,1.228,1.047,2.506,2.317,1.681c4.334-2.813,7.591-6.475,12.729-7.963
		c8.128-2.353,9.276,6.054,8.228,11.976c-0.316,1.781,0.981,2.934,2.702,2.702c3.97-0.535,4.718,0.037,4.579,3.466
		c-0.096,2.378,0.1,4.632,0.639,6.949c0.155,0.665,0.506,1.086,0.933,1.338c-0.409,0.125-0.806,0.206-1.228,0.373
		c-1.546,0.61-1.754,2.817,0,3.349c4.655,1.409,9.561,0.711,11.794,6.068C185.109,57.62,184.193,62.197,182.802,66.09z"/>
</g>
<g>
</g>
<g>
</g>
<g>
</g>
<g>
</g>
<g>
</g>
<g>
</g>
<g>
</g>
<g>
</g>
<g>
</g>
<g>
</g>
<g>
</g>
<g>
</g>
<g>
</g>
<g>
</g>
<g>
</g>
</svg>
