<?xml version="1.0" encoding="iso-8859-1"?>
<!-- Generator: Adobe Illustrator 16.0.0, SVG Export Plug-In . SVG Version: 6.00 Build 0)  -->
<!DOCTYPE svg PUBLIC "-//W3C//DTD SVG 1.1//EN" "http://www.w3.org/Graphics/SVG/1.1/DTD/svg11.dtd">
<svg version="1.1" id="Capa_1" xmlns="http://www.w3.org/2000/svg" xmlns:xlink="http://www.w3.org/1999/xlink" x="0px" y="0px"
	 width="193.238px" height="193.238px" viewBox="0 0 193.238 193.238" style="enable-background:new 0 0 193.238 193.238;"
	 xml:space="preserve">
<g>
	<path d="M193.032,123.585c-0.934-6.107-5.163-11.234-10.5-14.141c-5.096-2.775-11.552-3.383-16.643-0.291
		c-1.968,1.195-3.48,2.932-4.641,4.915c-1.191-11.288-10.801-18.887-19.905-25.236c-15.898-11.087-25.828-24.037-38.551-38.421
		c-19.482-22.026-51.987-29.687-76.5-11.2C7.515,53.374-0.971,79.245,0.088,102.025c0.769,16.537,14.003,42.931,34.318,37.699
		c3.117,31.472,58.987,24.742,77.738,9.474c6.022,7.612,20.246,18.237,28.879,10.036c1.104-1.051,1.166-2.661,0.51-3.953
		c-1.063-2.096-2.303-3.816-3.794-5.295c2.208-1.086,4.339-2.311,6.488-3.559c6.259,0.539,12.753-0.732,19.008-1.043
		c-1.689,3.641-2.306,7.676-0.606,11.562c2.065,4.717,6.851,7.069,11.776,7.442c4.767,0.359,9.476-1.965,12.039-5.97
		c3.159-4.935,1.632-11.157-0.719-16.245C190.681,137.23,194.137,130.8,193.032,123.585z M34.379,134.898
		c-7.211-3.457-13.93-5.287-19.211-12.373c-5.533-7.426-6.728-17.348-6.855-26.299c-0.287-20.278,9.511-42.54,26.452-54.088
		c26.603-18.135,53.863,2.499,70.177,23.12c7.05,8.911,13.186,17.607,22.521,24.264c11.927,8.503,23.721,14.131,27.562,29.445
		c0.512,2.041,2.311,2.59,3.863,2.112c-0.043,0.329-0.065,0.657-0.093,0.985c-5.214,0.019-10.966,1.211-16.208,2.796
		c0.163-3.171-0.765-6.113-3.841-8.007c-2.625-1.617-6.1-1.188-8.88-0.312c-3.494,1.101-8.165,3.448-10.509,6.603
		c-11.754-12.172-28.963-19.198-45.503-20.877C54.85,100.337,35.639,115.265,34.379,134.898z M130.07,145.958
		c-2.705,0.763-3.362,4.673-0.794,6.076c2.019,1.103,3.465,2.298,4.728,3.821c-1.458,0.123-3.152-0.557-5.498-1.133
		c-5.492-1.348-9.802-4.92-13.395-9.123c-0.086-0.101-0.193-0.141-0.287-0.217c-0.05-2.349-2.617-4.642-4.958-2.975
		c-12.945,9.219-64.843,23.543-67.436-3.654c-1.968-20.641,20.743-29.932,37.302-27.337c16.291,2.552,32.5,12.037,44.082,23.541
		c1.499,1.489,4.036-0.428,2.931-2.261c-0.952-1.579-2.012-3.077-3.118-4.537c3.694-1.995,7.615-6.464,11.737-5.355
		c1.207,0.324,1.428,2.041,1.247,4.088c-0.184,0.07-0.385,0.138-0.566,0.207c-2.273,0.875-2.526,4.438-0.51,5.248
		c-0.255,0.916-0.504,1.74-0.68,2.283c-3.197,0.191-4.235,4.52-0.819,5.797c1.856,0.692,4.175,0.479,6.2,0.801
		C137.028,143.099,133.872,144.884,130.07,145.958z M174.405,157.696c-8.904-0.239-7.189-10.151-4.833-15.813
		c0.552-1.326-1-2.508-2.213-2.234c-0.535-1.219-1.645-2.172-3.413-2.18c-4.942-0.024-10.119,0.756-15.166,1.705
		c-3.018-3.631-5.634-3.879-9.323-4.164c0.478-0.959,0.954-2.004,1.391-3.092c3.138-0.482,6.269-1.016,9.416-1.438
		c3.248-0.434,6.518-0.491,9.77-0.754c1.42,1.34,4.22,1.134,4.665-1.109c1.048-0.949,1.138-2.52,0.514-3.9
		c0.424-3.652,1.06-7.496,4.191-9.549c3.019-1.979,6.988-0.977,9.964,0.694c3.452,1.938,5.89,5.237,6.66,9.11
		c1.099,5.529-3.34,10.594-7.101,13.941c-1.186,1.055-1.295,2.943-0.551,4.264C181.639,148.958,183.289,157.933,174.405,157.696z"/>
</g>
<g>
</g>
<g>
</g>
<g>
</g>
<g>
</g>
<g>
</g>
<g>
</g>
<g>
</g>
<g>
</g>
<g>
</g>
<g>
</g>
<g>
</g>
<g>
</g>
<g>
</g>
<g>
</g>
<g>
</g>
</svg>
