<?xml version="1.0" encoding="iso-8859-1"?>
<!-- Generator: Adobe Illustrator 16.0.0, SVG Export Plug-In . SVG Version: 6.00 Build 0)  -->
<!DOCTYPE svg PUBLIC "-//W3C//DTD SVG 1.1//EN" "http://www.w3.org/Graphics/SVG/1.1/DTD/svg11.dtd">
<svg version="1.1" id="Capa_1" xmlns="http://www.w3.org/2000/svg" xmlns:xlink="http://www.w3.org/1999/xlink" x="0px" y="0px"
	 width="192.93px" height="192.93px" viewBox="0 0 192.93 192.93" style="enable-background:new 0 0 192.93 192.93;"
	 xml:space="preserve">
<g>
	<path d="M178.878,41.029c-17.178-25.26-46.883-34.748-76.047-36.686c0.266-0.031,0.523-0.087,0.789-0.117
		c1.377-0.153,1.415-2.065,0-2.17C51.957-1.781,9.874,42.378,1.396,90.666c-9.166,52.205,27.917,92.896,78.414,99.662
		c51.784,6.939,98.265-33.432,110.47-81.757C196.12,85.444,192.303,60.769,178.878,41.029z M183.399,106.674
		c-10.013,45.973-52.896,80.418-99.945,77.934c-50.952-2.691-84.418-46.067-75.457-95.334c8.248-45.339,44.814-76.47,88.484-83.99
		c0.035,0.426,0.232,0.84,0.732,0.97c28.755,7.505,56.612,13.242,75.474,38.395C185.979,62.375,187.982,85.632,183.399,106.674z"/>
	<path d="M108.139,23.041c1.714-0.497,1.426-3.319-0.443-3.191c-20.472,1.397-46.172,4.899-62.147,19.158
		C28.12,54.563,18.06,80.766,21.388,104.094c6.778,47.521,54.901,77.463,100.307,60.41
		C186.164,140.292,181.875,28.437,108.139,23.041z M48.449,141.554c-0.14-0.193-0.262-0.4-0.379-0.608
		c-0.064-0.113-0.095-0.166-0.114-0.196c0.002-0.005-0.003-0.026-0.028-0.097c-0.075-0.202-0.126-0.412-0.174-0.622
		c-0.011-0.137-0.013-0.274-0.011-0.411c0.001-0.055-0.004-0.052-0.007-0.063c0.011-0.035,0.019-0.059,0.042-0.157
		c0.026-0.115,0.033-0.158,0.037-0.19c0.008-0.012,0.011-0.007,0.032-0.052c0.026-0.057,0.174-0.276,0.218-0.356
		c0.168-0.192,0.352-0.373,0.547-0.536c0.428-0.358,1.924-0.85,3.071-0.951c2.38-0.212,4.749-0.123,7.116,0.176
		c1.142,0.144,1.794-0.806,1.858-1.795c1.056-2.023,0.699-4.385,0.645-6.751c-0.035-1.501-0.122-3.001-0.221-4.501
		c1.071,1.712,2.646,2.868,5.019,2.675c1.514-0.123,2.872-0.908,3.828-2.044c-0.532,2.12-0.322,4.732-0.072,6.8
		c-1.14,0.836-1.525,2.668,0.087,3.497c2.939,1.512,7.317,3.328,9.17,6.261c0.142,0.226,0.332,0.809,0.327,0.755
		c0.046,0.48,0.041,0.25-0.081,0.481c-0.211,0.396-0.866,0.801-1.586,1.131c-2.332,1.07-8.176,1.39-9.602-1.005
		c-0.373-0.626-0.958-0.773-1.482-0.636c0.721-1.587-1.475-3.267-3.099-2.008c-2.812,2.18-6.045,3.94-9.689,3.804
		c-1.137-0.042-2.382-0.401-3.313-0.878C49.689,142.817,48.823,142.071,48.449,141.554z M59.469,104.247
		c0.776-0.414,1.195-1.461,0.398-2.346C45.382,85.814,40.48,42.942,71.493,43.457c38.377,0.636,24.805,46.025,5.722,61.624
		c-1.691,1.383-0.853,3.393,0.673,4.221c2.448,2.787,6.421,4.996,6.599,8.912c0.344,7.547-7.629,0.878-10.464-0.589
		c-0.632-0.327-1.227-0.262-1.718-0.012c-0.01-0.244,0.022-0.515-0.028-0.731c-0.128-0.544-0.692-0.97-1.249-0.95
		c-0.126,0.004-0.252,0.009-0.379,0.013c-0.59,0.02-1.267,0.314-1.535,0.881c-0.88,1.847-0.862,3.945-1.777,5.761
		c-1.249,2.481-3.57-1.076-4.072-1.86c-0.917-1.433-0.526-3.952-0.451-5.535c0.062-1.297-1.304-2.221-2.495-1.901
		c-2.213,0.592-4.279,0.878-6.346,1.015c0.833-1.027,1.632-2.071,2.369-3.102c1.226-1.71,2.413-3.581,3.179-5.541
		C59.769,105.015,59.575,104.635,59.469,104.247z M106.809,50.884c-3.735-4.247-5.051-9.944-8.267-14.501
		c3.207-1.624,6.651-2.873,10.23-3.176c0.979,2.823,2.056,5.61,3.064,8.423c1.118,3.119,1.593,6.256,2.321,9.412
		c-1.667,0.468-3.338,0.915-4.995,1.432c-0.806,0.252-1.655,0.506-2.517,0.774C107.262,52.688,107.524,51.697,106.809,50.884z
		 M110.561,57.54c4.503-1.869,9.134-3.537,13.818-4.929c0.404,2.196,1.019,4.323,1.48,6.511c-7.366,3.824-15.543,7.46-23.987,6.128
		c-0.624-0.098-1.079,0.278-1.263,0.737c-0.109-1.438-0.304-2.851-0.583-4.233C103.672,60.95,107.178,58.944,110.561,57.54z
		 M123.231,102.955c-4.668-5.214-10.971-9.923-15.846-13.938c-0.295-0.242-0.605-0.398-0.919-0.491
		c0.09-0.19,0.195-0.368,0.282-0.56c6.05,5.195,13.567,8.047,21.978,5.163c0.718-0.246,1.357-0.861,1.668-1.584
		c4.355-0.903,8.665-1.361,13.043-1.795c0.627,0.622,1.638,0.756,2.183-0.222c1.607-0.159,3.226-0.322,4.865-0.511
		c0.081,2.476,0.113,4.952,0.184,7.43c0.062,2.162-7.699,2.622-9.296,2.931C135.323,100.557,129.27,101.723,123.231,102.955z
		 M135.091,104.892c6.369,3.321,10.061,9.411,14.709,14.618c-1.527,2.469-3.344,4.688-5.32,6.804
		c-5.774-7.228-12.029-14.123-18.144-21.065c2.616-0.462,5.233-0.914,7.851-1.366C134.352,104.282,134.622,104.647,135.091,104.892z
		 M104.666,107.586c-0.207,0.143-0.393,0.327-0.516,0.609c-1.547,3.563-2.772,7.21-3.879,10.896
		c-0.035-0.008-0.071-0.02-0.107-0.027c-2.94-0.698-4.028,3.479-1.233,4.475c0.015,0.005,0.029,0.011,0.045,0.017
		c-0.479,1.713-0.945,3.433-1.42,5.156c-0.934,3.384-1.992,6.721-3.146,10.034c-0.246,0.705-4.094-0.114-6.765-0.69
		c1.967-11.849,4.934-23.473,9.223-34.704c0.152-0.398,0.11-0.733-0.029-1.009c2.79-2.984,5.3-6.17,7.385-9.641
		c4.128,3.335,9.966,7.289,14.448,11.731c-0.312,0.861,0.394,2.102,1.609,1.878c0.047-0.01,0.094-0.017,0.14-0.025
		c4.881,5.513,7.182,11.713,1.458,18.396c-7.946-7.575-14.713-16.321-19.513-26.246c-0.444-0.918-2.012-0.264-1.652,0.696
		C101.82,102.086,103.16,104.891,104.666,107.586z M94.83,156.665c-2.648-1.759-5.539-3.2-8.075-5.078
		c4.24-4.6,9.413-8.004,15.263-10.381c1.888-0.767,1.202-3.742-0.865-3.138c-0.858,0.25-1.717,0.522-2.574,0.808
		c0.573-1.671,1.176-3.332,1.696-5.02c0.033,0.119,0.062,0.237,0.139,0.354c2.093,3.136,4.765,5.611,7.672,7.818
		c-0.148,0.146-0.308,0.266-0.433,0.467C104.279,147.894,98.557,151.512,94.83,156.665z M102.542,132.566
		c-0.536-0.683-1.396-0.468-1.909,0.064c0.77-2.548,1.516-5.103,2.231-7.669c9.503,3.555,20.619,9.03,16.232,20.188
		C113.173,141.5,106.901,138.108,102.542,132.566z M86.988,111.271c0.106-0.067,0.219-0.085,0.323-0.169
		c1.834-1.482,3.599-3.019,5.31-4.596c-1.254,3.349-2.422,6.729-3.503,10.14C88.878,114.74,88.108,112.929,86.988,111.271z
		 M128.91,86.077c-0.348,0.111-0.708,0.199-1.049,0.321c-0.872-1.157-1.722-2.316-2.623-3.464c0.043-0.019,0.082-0.013,0.125-0.035
		c2.219-1.105,4.272-2.463,6.221-3.975c-0.589,1.251-1.205,2.49-1.844,3.717c-0.179,0.343-0.999,1.981-0.846,1.894
		c-0.05,0.073-0.116,0.138-0.149,0.215C128.542,85.227,128.653,85.718,128.91,86.077z M143.512,83.996
		c-4,0.014-8.11,0.415-11.966,1.339c1.219-1.52,2.047-3.951,2.741-5.34c0.888-1.773,1.855-3.695,2.562-5.669
		c0.818-0.778,1.631-1.566,2.437-2.361c1.789,0.02,3.579,0.04,5.368,0.061C144.503,76.083,144.056,80.02,143.512,83.996z
		 M122.625,78.214c-0.315,0.183-0.535,0.409-0.733,0.641c-0.662-0.772-1.339-1.528-2.027-2.274
		c5.655-7.604,12.194-13.871,21.384-13.114C135.128,68.525,129.552,74.195,122.625,78.214z M123.229,88.497
		c-0.135,0.079-0.289,0.135-0.421,0.217c-0.288,0.176-0.511,0.394-0.682,0.635c-5.183,0.149-9.729-2.29-13.683-5.772
		c0.279-0.858,0.593-1.694,0.821-2.586c0.442-1.731-2.182-2.979-2.975-1.254c-0.186,0.405-0.404,0.778-0.599,1.175
		c-1.621-1.713-3.131-3.548-4.532-5.371c-0.27-0.352-0.607-0.544-0.959-0.664c0.38-2.69,0.595-5.365,0.464-7.961
		c0.124,0.195,0.321,0.356,0.631,0.428c0.647,0.15,1.289,0.207,1.934,0.305c-0.373,1.05-0.168,2.263,1.106,2.949
		C111.982,74.715,117.877,81.628,123.229,88.497z M103.562,84.883c-5.092,8.649-12.083,15.495-19.999,21.92
		c7.78-7.409,13.327-17.301,15.749-27.269C100.595,81.404,102.017,83.21,103.562,84.883z M127.382,155.295
		c-25.051,15.358-55.062,9.733-75.924-7.496c0.642,0.152,1.285,0.301,1.933,0.364c4.472,0.447,8.891-1.688,12.189-4.593
		c-0.024,0.163-0.027,0.336,0.005,0.517c1.037,5.616,10.578,4.613,14.265,2.997c2.446-1.073,3.98-3.599,3.053-6.232
		c-1.557-4.418-6.778-7.165-10.675-9.112c0.18-1.324,0.382-2.645,0.673-3.95c0.337-1.511,1.308-2.571,1.818-3.994
		c0.168-0.468,0.097-0.878-0.096-1.218c1.751,1.271,3.45,2.574,5.621,3.179c1.5,0.418,3.073,0.197,4.573-0.056
		c0.893-0.15,1.46-0.533,1.926-1.007c-1.301,4.765-2.482,9.561-3.433,14.398c-0.273,1.393,0.59,2.462,1.976,2.595
		c1.625,0.153,3.179,0.537,4.729,0.931c-3.479,2.012-6.567,4.602-8.835,8.034c-0.543,0.822-0.42,2.263,0.375,2.902
		c3.813,3.073,8.597,4.877,12.255,8.117c1.13,1.001,2.886,0.888,3.692-0.476c3.69-6.232,10.918-9.774,14.312-16.269
		c0.038-0.071,0.033-0.139,0.062-0.211c2.356,1.563,4.778,3.054,7.132,4.627c0.797,0.533,2.021,0.181,2.468-0.646
		c0.941-1.746,1.668-3.571,2.115-5.417c0.256,0.068,0.532,0.096,0.85,0.021c7.531-1.778,16.437-3.722,22.873-8.215
		c1.602-1.118,0.671-3.954-1.394-3.304c-3.858,1.214-7.439,3.306-11.225,4.764c-3.465,1.335-7.041,2.369-10.62,3.35
		c0.067-1.815-0.185-3.615-0.838-5.345c4.599-1.958,9.408-3.38,13.967-5.445c2.269-1.028,0.288-4.562-1.977-3.383
		c-4.361,2.271-8.991,3.964-13.354,6.232c-0.305-0.46-0.589-0.926-0.964-1.369c-4.201-4.955-10.431-8.323-16.72-10.367
		c0.843-3.008,1.703-6.011,2.642-8.987c3.97,6.243,8.796,11.931,13.767,17.541c0.715,0.808,1.979,0.674,2.714,0
		c5.196-4.768,6.846-9.403,6.302-13.828c4.334,5.174,8.921,10.166,12.958,15.556c0.793,1.06,2.229,1.442,3.262,0.42
		c3.261-3.222,6.286-6.555,8.562-10.555c0.499-0.876,0.336-1.915-0.341-2.641c-4.308-4.623-7.936-11.342-13.397-14.975
		c4.107-0.716,8.214-1.436,12.312-2.204c0.769-0.144,1.22-0.936,1.258-1.652c0.218-4.075,0.162-8.151,0.395-12.224
		c0.072-1.255-1.022-1.97-2.108-2.109c-1.614-0.208-3.327-0.354-5.079-0.45c0.901-4.48,0.699-9.277,0.643-13.738
		c-0.012-0.905-0.754-1.686-1.675-1.675c-1.28,0.014-2.559,0.029-3.839,0.044c1.764-1.722,3.547-3.403,5.411-4.946
		c1.339-1.109,0.502-3.28-0.981-3.715c-13.363-3.916-22.495,3.569-29.525,14.027c-2.348-2.31-4.844-4.448-7.583-6.256
		c6.633-0.58,13.084-3.202,19.172-5.974c0.565-0.258,1.031-1.075,0.971-1.692c-0.344-3.479-1.715-6.677-2.002-10.186
		c-0.107-1.307-1.19-2.248-2.526-1.924c-2.72,0.661-5.428,1.334-8.125,2.049c-0.026-6.298-4.27-13.263-6.267-18.839
		c-0.209-0.583-0.71-1.076-1.375-1.047c-5.084,0.225-10.089,1.684-14.79,3.58c-1.408,0.568-1.95,2.127-0.879,3.328
		c4.286,4.807,5.956,11.374,10.444,16.04c0.292,0.304,0.611,0.424,0.929,0.463c-2.401,0.782-4.845,1.705-6.873,3.077
		c-3.678-9.419-12.236-16.554-27.072-18.12c-34.698-3.663-32.954,47.05-14.883,64.375c-1.386,0.483-2.411,2.153-3.313,3.188
		c-2.473,2.832-4.883,6.627-8.191,8.537c-2.454,1.416-1.474,5.572,1.474,5.443c3.664-0.161,7.098-0.755,10.511-1.713
		c-0.116,0.236-0.195,0.511-0.217,0.83c-0.21,3.223-0.499,6.451-0.574,9.681c-0.032,1.451-0.179,2.898-0.048,4.271
		c-3.697-0.443-7.54-0.243-10.561,2.126c-1.603,1.259-2.171,3.172-1.966,5.049c-7.338-8.116-12.901-17.903-15.729-28.781
		C21.553,86.82,31.7,56.528,51.903,40.976c15.326-11.799,35.819-12.625,53.923-17.316c-1.204,1.324-0.516,4.168,1.872,4.457
		C171.974,35.888,177.941,124.3,127.382,155.295z"/>
</g>
<g>
</g>
<g>
</g>
<g>
</g>
<g>
</g>
<g>
</g>
<g>
</g>
<g>
</g>
<g>
</g>
<g>
</g>
<g>
</g>
<g>
</g>
<g>
</g>
<g>
</g>
<g>
</g>
<g>
</g>
</svg>
