<?xml version="1.0" encoding="iso-8859-1"?>
<!-- Generator: Adobe Illustrator 16.0.0, SVG Export Plug-In . SVG Version: 6.00 Build 0)  -->
<!DOCTYPE svg PUBLIC "-//W3C//DTD SVG 1.1//EN" "http://www.w3.org/Graphics/SVG/1.1/DTD/svg11.dtd">
<svg version="1.1" id="Capa_1" xmlns="http://www.w3.org/2000/svg" xmlns:xlink="http://www.w3.org/1999/xlink" x="0px" y="0px"
	 width="181.655px" height="181.655px" viewBox="0 0 181.655 181.655" style="enable-background:new 0 0 181.655 181.655;"
	 xml:space="preserve">
<g>
	<path d="M173.451,87.625c-0.022-14.577-2.929-29.104-8.563-41.696c2.652-4.413,3.97-9.499,3.257-14.702
		c-0.979-7.147-7.203-10.959-13.93-11.427c-2.59-0.18-5.223,0.184-7.8,0.781c-10.679-9.005-24.421-14.003-41.058-12.601
		c-0.873-1.422-1.932-2.747-3.218-3.895c-6.937-6.194-14.744-4.581-21.432-0.218c-9.664,1.958-20.076,7.634-21.073,16.659
		C46.177,26.984,34.16,36.005,24.71,48.797c-8.58,11.614-12.744,25.659-13.15,39.9c-5.179,3.446-7.924,10.476-7.936,17.947
		c-0.021,13.485,8.075,25.916,20.828,30.528c0.445,0.161,0.858,0.253,1.279,0.362c16.052,22.596,45.614,34.835,73.887,33.904
		c0.866,3.681,3.055,6.897,6.825,8.646c8.09,3.75,17.946,0.027,25.537-3.244c6.798-2.93,14.332-7.914,15.649-15.815
		c0.416-2.493,0.119-4.864-0.693-7.028c12.455-10.881,20.367-26.445,24.06-43.382c1.679-0.312,3.252-1.023,4.523-2.405
		C180.611,102.672,176.946,93.986,173.451,87.625z M156.77,30.311c0.249,0.154,0.521,0.332,0.679,0.427
		c0.165,0.171,0.331,0.349,0.441,0.462c0.139,0.22,0.287,0.434,0.409,0.663c0.068,0.201,0.134,0.403,0.191,0.606
		c0.068,0.237,0.116,0.478,0.165,0.72c0.042,0.464,0.044,0.931,0.036,1.397c-1.084-1.645-2.226-3.234-3.426-4.763
		c0.063,0.015,0.105,0.027,0.198,0.047C155.716,29.924,156.466,30.209,156.77,30.311z M13.661,111.161
		c-0.404-1.608-0.646-3.288-0.708-4.95c0.738,4.016,1.769,7.963,3.064,11.808C14.942,115.784,14.207,113.332,13.661,111.161z
		 M28.235,125.814c-0.578-0.993-1.117-2.004-1.632-3.022c0.578,0.123,1.177,0.138,1.76,0.062c0.019,0.327,0.083,0.648,0.094,0.977
		C28.475,124.392,28.355,125.124,28.235,125.814z M114.307,171.631c1.567-0.548,3.14-1.085,4.709-1.628
		c0.374,0.255,0.797,0.438,1.27,0.548C118.261,171.127,116.15,171.58,114.307,171.631z M129.864,166.767
		c0.027-0.114,0.081-0.23,0.101-0.345c0.292-0.139,0.585-0.271,0.874-0.44c1.043-0.61,1.316-0.729,1.17-0.701
		c0.756-0.325,1.383-0.947,1.629-1.845c0.05-0.184,0.029-0.314,0.064-0.487c0.961-0.494,1.917-0.999,2.855-1.538
		C134.965,163.486,132.271,165.405,129.864,166.767z M163.443,83.234c-5.499,0.945-11.047,3.236-11.977,9.357
		c-0.793,5.221,2.172,9.988,6.048,13.347c0.597,0.895,1.478,1.571,2.495,1.911c0.666,0.438,1.4,0.837,2.169,1.21
		c-3.128,12.783-9.101,24.777-17.973,34.401c-1.033,1.121-2.108,2.175-3.207,3.19c-0.311-0.215-0.604-0.447-0.931-0.645
		c-1.665-1.004-3.301-1.655-4.914-2.115c-0.485-0.763-1.268-1.374-2.415-1.512c-13.525-1.636-29.255,6.338-32.847,20.09
		c-24.281,0.666-49.833-10.169-65.175-27.642c2.901-3.609,3.81-9.654,3.366-14.312c-1.021-10.709-5.084-22.033-11.647-30.693
		c-0.082-1.061-0.68-2.088-1.915-2.467c-0.197-0.06-0.379-0.086-0.573-0.14c-0.652-0.355-1.329-0.509-1.998-0.474
		c-0.564-0.098-1.105-0.145-1.644-0.187c1.175-11.899,5.174-23.596,11.581-33.562c7.08-11.013,17.585-18.698,29.223-24.84
		c3.843,6.225,14.11,7.498,20.422,8.119c7.073,0.696,14.814-0.544,20.421-5.161c4.053-3.337,6.056-8.214,6.127-13.147
		c11.207,0.939,21.073,4.182,29.345,9.795c0.027,0.17,0.039,0.337,0.086,0.509c0.083,0.305,0.208,0.599,0.302,0.902
		c-0.277,0.435-0.461,0.947-0.394,1.601c0.768,7.545,2.378,18.504,10.002,22.438c3.423,1.767,7.096,1.433,10.275-0.146
		c1.073,2.45,2.073,4.996,2.944,7.709c2.201,6.855,3.517,14.07,3.957,21.373C164.151,82.414,163.771,82.788,163.443,83.234z"/>
	<path d="M68.875,108.879c-3.274-0.596-5.877,1.889-5.211,5.211c0.167,0.835,0.331,1.67,0.499,2.504
		c-1.346-0.101-2.752,1.039-2.336,2.684c2.991,11.815,12.935,19.693,25.037,20.308c2.199,0.112,3.431-1.778,3.684-3.684
		C92.423,121.79,82.277,111.318,68.875,108.879z"/>
	<path d="M75.284,55.362c-1.425-2.095-3.656-2.512-5.535-1.575c-0.853-0.875-2.178-1.323-3.426-0.608
		c-13.915,7.966-19.08,24.602-4.651,34.971c1.585,1.139,4.127,0.648,5.414-0.699C75.276,78.882,83.016,66.733,75.284,55.362z"/>
	<path d="M133.122,71.818c-3.958-8.615-12.433-17.215-22.118-18.647c-2.765-0.408-5.846,1.142-5.725,4.36
		c0.01,0.26,0.062,0.501,0.076,0.759c-3.476,6.555-1.75,16.165,1.058,22.372c3.735,8.256,14.955,16.297,24.271,11.557
		C138.603,88.19,136.063,78.219,133.122,71.818z"/>
</g>
<g>
</g>
<g>
</g>
<g>
</g>
<g>
</g>
<g>
</g>
<g>
</g>
<g>
</g>
<g>
</g>
<g>
</g>
<g>
</g>
<g>
</g>
<g>
</g>
<g>
</g>
<g>
</g>
<g>
</g>
</svg>
