<?xml version="1.0" encoding="iso-8859-1"?>
<!-- Generator: Adobe Illustrator 16.0.0, SVG Export Plug-In . SVG Version: 6.00 Build 0)  -->
<!DOCTYPE svg PUBLIC "-//W3C//DTD SVG 1.1//EN" "http://www.w3.org/Graphics/SVG/1.1/DTD/svg11.dtd">
<svg version="1.1" id="Capa_1" xmlns="http://www.w3.org/2000/svg" xmlns:xlink="http://www.w3.org/1999/xlink" x="0px" y="0px"
	 width="188.812px" height="188.811px" viewBox="0 0 188.812 188.811" style="enable-background:new 0 0 188.812 188.811;"
	 xml:space="preserve">
<g>
	<path d="M161.081,21.149c-0.214-1.643-1.192-3.229-3.123-4.007c-2.087-0.84-4.236-1.558-6.418-2.209
		c3.829-3.269,7.83-6.302,11.385-9.971c1.98-2.043,0.019-5.677-2.817-4.839c-6.583,1.945-12.229,7.302-16.964,12.751
		c-16.881-3.3-35.443-2.46-51.767-1.918c-20.716,0.689-44.741,2.341-63.999,10.99c-1.997-2.031-5.562,0.286-4.145,3.129
		c13.396,26.879,30.473,82.938,66.543,88.339c1.037,21.445,0.827,42.803,1.444,64.271c-8.021,0.655-16.057,1.246-24.052,2.086
		c-5.514,0.579-5.586,8.133,0,8.624c8.381,0.738,16.85,0.318,25.249,0.067c9.079-0.271,19.382,0.85,27.999-2.155
		c4.202-1.465,4.299-7.187,0-8.613c-5.998-1.991-12.531-1.552-18.902-0.931c0.941-20.822,2.2-43.072-4.786-62.949
		c36.741-1.389,59.556-57.929,68.901-86.684C166.806,23.515,164.005,21.214,161.081,21.149z M143.419,23.172
		c4.124,0.863,8.167,1.838,12.05,2.999c0.017,0.005,0.032,0.005,0.049,0.01c-1.558,4.275-3.498,9.505-5.793,15.197
		c-1.788,0.423-3.692,0.491-5.506,0.628c-1.026,0.078-1.694,0.599-2.081,1.262c-1.197-3.282-3.605-6.101-6.57-8.121
		C137.852,30.986,140.446,26.999,143.419,23.172z M129.936,47.3c0.902-2.349,1.889-4.634,2.942-6.876
		c1.85,1.608,3.229,3.701,3.861,6.646c1.446,6.75-6.816,9.06-11.786,9.247c-0.583,0.022-1.079-0.02-1.581-0.057
		c-0.499-1.255-2.041-1.98-3.458-0.977c-5.344-3.364,0.41-14.095,5.089-18.889c0.896,0.295,1.754,0.615,2.59,0.953
		c-1.047,2.816-1.888,5.698-2.409,8.643C124.626,49.137,128.797,50.268,129.936,47.3z M91.085,103.669
		c-17.34-3.062-29.495-24.025-37.794-37.611C45.761,53.73,39.057,40.9,31.567,28.548c31.228-8.874,70.699-12.278,104.455-6.753
		c-2.403,3.354-4.56,6.927-6.351,10.665c-1.389-0.357-2.795-0.604-4.195-0.589c-1.334,0.015-2.087,0.962-2.196,1.996
		c-3.992,2.321-7.51,5.78-9.562,9.942c-21.833-3.331-48.526-11.023-68.492,0.921c-2.099,1.256-0.714,4.94,1.709,4.053
		c14.003-5.123,26.144-3.832,40.501-1.095c8.184,1.56,16.309,3.186,24.501,2.154c-0.01,0.104-0.041,0.202-0.049,0.306
		c-0.36,4.4,1.289,7.413,3.955,9.332c-0.919,1.225-1.722,2.539-2.344,4.014c-1.305,3.094-2.754,7.278-0.351,10.056
		c0.942,1.089,2.881,1.025,3.833,0c1.994-2.146,1.249-5.054,1.951-7.756c0.378-1.455,1.07-2.842,1.889-4.151
		c2.129,0.496,4.443,0.644,6.738,0.478c8.28-0.598,15.897-6.176,15.381-15.077c-0.008-0.134-0.039-0.262-0.051-0.395
		c0.364,0.24,0.785,0.429,1.329,0.469c0.845,0.063,1.916,0.14,3.05,0.184C135.684,74.484,116.624,108.179,91.085,103.669z"/>
</g>
<g>
</g>
<g>
</g>
<g>
</g>
<g>
</g>
<g>
</g>
<g>
</g>
<g>
</g>
<g>
</g>
<g>
</g>
<g>
</g>
<g>
</g>
<g>
</g>
<g>
</g>
<g>
</g>
<g>
</g>
</svg>
