<?xml version="1.0" encoding="iso-8859-1"?>
<!-- Generator: Adobe Illustrator 16.0.0, SVG Export Plug-In . SVG Version: 6.00 Build 0)  -->
<!DOCTYPE svg PUBLIC "-//W3C//DTD SVG 1.1//EN" "http://www.w3.org/Graphics/SVG/1.1/DTD/svg11.dtd">
<svg version="1.1" id="Capa_1" xmlns="http://www.w3.org/2000/svg" xmlns:xlink="http://www.w3.org/1999/xlink" x="0px" y="0px"
	 width="188.676px" height="188.677px" viewBox="0 0 188.676 188.677" style="enable-background:new 0 0 188.676 188.677;"
	 xml:space="preserve">
<g>
	<path d="M49.396,24.531c-0.88,1.004-0.461,2.73,0.643,3.189c6.922,13.657,29.15,18.022,42.459,19.721
		c13.76,1.756,40.983,4.184,46.001-13.563C148.414-1.184,62.301,9.802,49.396,24.531z M53.451,26.945
		c10.942-3.939,21.434-7.408,33.116-9.243c11.524-1.81,45.219-6.084,47.159,11.479C136.43,53.671,67.03,41.458,53.451,26.945z"/>
	<path d="M43.433,24.795c-0.499,1.124-0.079,2.14,0.65,2.723c0.27,1.328,0.701,2.589,1.223,3.809
		c-1.463,7.319,0.322,14.604,4.323,20.877c-8.827,9.901-8.949,23.217-8.565,36.259c0.483,16.399,0.925,33.276,2.485,49.605
		c1.137,11.896,5.274,21.044,12.124,27.518c14.267,26.073,59.178,32.428,76.731,6.755c0.338-0.495,0.397-0.971,0.284-1.382
		c3.649-2.717,6.595-6.311,8.35-11.172c4.397-12.18,3.721-25.517,3.744-38.262c0.04-20.763,0.918-41.9-6.498-61.65
		c-0.013-0.034-0.039-0.052-0.053-0.085l0.001-0.001c4.002-6.476,5.511-13.841,8.238-20.86c0.066-0.174,0.082-0.335,0.067-0.486
		c0.523-1.63,0.899-3.378,1.065-5.286C151.568-12.35,57.521-6.939,43.433,24.795z M64.869,171.893
		c5.036,2.474,10.882,4.123,17.549,4.899c11.813,1.374,29.347,3.148,42.509-1.695C108.497,190.385,81.498,186.26,64.869,171.893z
		 M134.237,57.453c-0.533,0.82-0.422,1.607-0.022,2.231c-0.145,0.377-0.199,0.807-0.029,1.321
		c8.341,25.183,5.666,56.215,3.854,82.456c-1.967,28.501-23.573,29.857-47.879,28.57c-27.087-1.435-39.873-13.697-41.859-40.439
		c-0.854-11.5-0.705-23.041-1.59-34.559c-1.094-14.233-1.84-29.447,5.41-42.134c1.49,0.308,3.179-1.113,2.093-2.697
		c-0.083-0.121-0.145-0.253-0.227-0.374c0.373-0.882-0.296-1.698-1.141-1.885c-2.487-4.225-4.175-8.864-4.587-13.704
		c9.978,12.849,33.97,18.462,47.049,20.047c12.328,1.494,31.957,1.393,43.366-7.068C137.328,52.042,135.935,54.839,134.237,57.453z
		 M47.365,26.672c15.304-23.371,95.584-35.127,95.898,4.034C143.578,70.161,61.006,51.76,47.365,26.672z"/>
	<path d="M99.451,25.041c-0.017-0.026-0.026-0.055-0.044-0.081c-3.377-5.145-10.104-5.939-15.842-5.097
		c-0.031-0.005-0.044-0.029-0.078-0.03c-1.301-0.05-2.178-0.68-3.502-0.546c-0.937,0.095-1.827,0.249-2.697,0.613
		c-1.557,0.652-2.982,1.606-3.788,3.135c-2.002,3.797,1.714,7.161,4.559,9.069c2.221,1.489,4.744,2.363,7.09,3.61
		c1.588,0.844,3.303,1.512,5.06,1.902c2.562,0.569,5.363,0.387,7.554-1.175c1.352-0.964,2.239-2.245,2.733-3.654
		c0.083,0.057,0.131,0.127,0.231,0.177c7.678,3.818,16.144,4.458,24.596,4.553c1.78,0.02,2.719-1.628,2.45-3.217
		C125.498,20.85,109.459,16.718,99.451,25.041z M96.24,32.746c-2.946,2.741-7.993-0.775-10.662-2.008
		c-1.941-0.897-3.91-1.939-5.591-3.272c-0.571-0.453-1.824-1.422-1.886-2.204c-0.052-0.663,0.802-1.083,1.396-1.435
		c0.215-0.127,0.435-0.292,0.654-0.447c0.428,0.586,1.139,0.971,2.046,0.785c4.452-0.914,9.978-1.431,13.505,2.066
		C97.363,27.875,98.136,30.98,96.24,32.746z M100.938,29.773c-0.001-0.017,0.002-0.034,0.001-0.052
		c0.82-0.311,1.612-0.641,2.395-0.97c0.252,0.435,0.613,0.808,1.012,1.006c0.447,0.223,0.904,0.427,1.354,0.646
		c0.039,0.146,0.073,0.285,0.129,0.425c-1.078-0.316-2.148-0.67-3.204-1.118C102.011,29.451,101.428,29.53,100.938,29.773z"/>
	<path d="M108.406,125.555c0.631-2.98-0.735-5.519-3.096-7.273c-2.993-2.225-7.104-2.734-10.7-3.058
		c-2.827-0.255-5.676-0.235-8.509-0.123c-1.703,0.067-3.403,0.189-5.101,0.334c-2.054,0.176-4.828,0-6.253,1.743
		c-0.641,0.784-0.956,2.19,0,2.93c0.643,0.497,1.295,0.72,1.958,0.856c0.881,6.489,4.085,12.478,10.955,14.233
		c5.192,1.327,11.256-0.048,15.649-3.126c-0.078,0.161-0.163,0.316-0.2,0.515c-0.836,4.429-0.954,9.185-4.389,12.495
		c-2.526,2.434-6.651,2.67-9.899,2.084c-7.722-1.394-12.766-7.586-11.157-15.39c0.272-1.316-1.512-2.766-2.518-1.466
		c-7.62,9.855,2.255,20.191,12.101,22.562c12.487,3.008,23.806-7.509,20.271-20.286c-0.344-1.243-1.701-1.806-2.83-1.573
		C106.398,129.569,107.933,127.785,108.406,125.555z M101.369,126.918c-0.197,0.188-0.4,0.371-0.608,0.549
		c-0.089,0.075-0.179,0.148-0.269,0.221c-0.508,0.38-1.042,0.724-1.588,1.045c-0.444,0.26-0.901,0.497-1.365,0.72
		c-0.153,0.074-0.311,0.143-0.467,0.211c-0.069,0.025-0.429,0.174-0.535,0.213c-1.06,0.397-2.158,0.69-3.272,0.892
		c-0.106,0.019-0.213,0.037-0.32,0.053c-0.024,0.004-0.009,0.002-0.027,0.005c-0.261,0.032-0.523,0.056-0.786,0.074
		c-0.54,0.04-1.081,0.045-1.622,0.029c-0.269-0.008-0.538-0.028-0.806-0.051c-0.098-0.01-0.197-0.02-0.295-0.03
		c-0.025-0.004-0.006-0.002-0.048-0.009c-0.586-0.092-1.163-0.235-1.73-0.408c-0.258-0.079-0.512-0.172-0.765-0.269
		c-0.003-0.001-0.001,0-0.004-0.002c-0.12-0.053-0.238-0.108-0.356-0.165c-0.5-0.239-0.975-0.527-1.434-0.838
		c-0.093-0.063-0.185-0.129-0.276-0.195c-0.02-0.016-0.01-0.008-0.026-0.019c-0.021-0.019-0.014-0.015-0.072-0.062
		c-0.226-0.186-0.441-0.383-0.652-0.584c-0.485-0.461-0.921-0.977-1.34-1.497c0.229,0.285-0.288-0.418-0.36-0.524
		c-0.189-0.281-0.363-0.572-0.533-0.865c-0.375-0.647-0.689-1.313-0.929-1.928c-0.32-0.814-0.575-1.654-0.79-2.502
		c0.151-0.014,0.294-0.028,0.448-0.04c1.85-0.149,3.703-0.252,5.557-0.312c2.837-0.093,5.683-0.051,8.509,0.219
		c1.127,0.106,1.288,0.125,2.622,0.379c0.915,0.174,1.82,0.404,2.707,0.689c0.351,0.112,0.695,0.244,1.039,0.375
		c0.008,0.003,0.001,0,0.009,0.003c0.125,0.056,0.248,0.114,0.371,0.176c0.266,0.131,0.522,0.28,0.773,0.436
		c0.095,0.06,0.187,0.122,0.277,0.186c0.003,0.003,0.001,0.001,0.004,0.004c0.162,0.139,0.31,0.293,0.452,0.45
		c0.022,0.034,0.046,0.067,0.068,0.103c0.035,0.057,0.037,0.056,0.06,0.092c0.034,0.102,0.059,0.205,0.082,0.31
		c0.006,0.065,0.013,0.135,0.012,0.187c0,0.031,0.001,0.023,0.001,0.049c-0.035,0.172-0.08,0.344-0.133,0.511
		c-0.013,0.041-0.016,0.054-0.023,0.083c-0.013,0.023-0.019,0.032-0.033,0.064c-0.178,0.362-0.407,0.696-0.644,1.023
		c-0.088,0.109-0.185,0.23-0.239,0.292C101.808,126.487,101.591,126.704,101.369,126.918z"/>
	<path d="M110.77,74.173c-5.04,0.45-10.048,4.056-14.882,5.692c-7.352,2.488-14.934,4.293-22.396,6.407
		c-3.326,0.942-3.141,5.515,0,6.539c10.19,3.325,20.438,6.892,31.024,8.717c0.13,0.022,0.232-0.01,0.355,0
		c-0.012,0.04-0.039,0.067-0.049,0.109c-0.572,2.328-0.606,4.69-0.538,7.064c-8.582,0.283-17.21,0.205-25.704-1.15
		c-2.584-0.412-3.752,3.438-1.102,3.995c9.77,2.051,19.716,2.151,29.654,2.571c1.541,0.065,2.694-1.302,2.75-2.75
		c0.125-3.267,0.345-6.531-0.441-9.73c-0.217-0.883-0.871-1.417-1.624-1.62c0.768-1.441,0.39-3.464-1.706-4.275
		c-1.615-0.625-3.211-1.261-4.801-1.897c0.096-0.193,0.164-0.413,0.188-0.666c0.277-3.011,2.259-5.567,2.176-8.599
		c3.894-1.372,7.843-3.285,9.372-6.439C113.835,76.513,112.925,73.981,110.77,74.173z M98.244,92.629
		c-3.218-1.266-6.438-2.474-9.756-3.467c3.084-0.861,6.166-1.726,9.22-2.693c0.483-0.153,1.021-0.314,1.563-0.478
		C98.783,88.188,98.261,90.411,98.244,92.629z"/>
</g>
<g>
</g>
<g>
</g>
<g>
</g>
<g>
</g>
<g>
</g>
<g>
</g>
<g>
</g>
<g>
</g>
<g>
</g>
<g>
</g>
<g>
</g>
<g>
</g>
<g>
</g>
<g>
</g>
<g>
</g>
</svg>
