<?xml version="1.0" encoding="iso-8859-1"?>
<!-- Generator: Adobe Illustrator 16.0.0, SVG Export Plug-In . SVG Version: 6.00 Build 0)  -->
<!DOCTYPE svg PUBLIC "-//W3C//DTD SVG 1.1//EN" "http://www.w3.org/Graphics/SVG/1.1/DTD/svg11.dtd">
<svg version="1.1" id="Capa_1" xmlns="http://www.w3.org/2000/svg" xmlns:xlink="http://www.w3.org/1999/xlink" x="0px" y="0px"
	 width="196.946px" height="196.946px" viewBox="0 0 196.946 196.946" style="enable-background:new 0 0 196.946 196.946;"
	 xml:space="preserve">
<g>
	<path d="M193.682,148.552c-0.332-0.566-0.772-0.966-1.266-1.24c6.832-24.501-5.324-54.698-21.117-72.978
		c-15.289-17.695-37.896-27.522-60.781-30.412c1.223-4.354-3.299-10.434-5.873-13.451c-2.542-2.98-6.045-4.623-9.935-4.025
		c-3.288,0.505-5.407,3.869-6.209,6.794c-0.841,3.071-0.309,7.025,1.086,10.131c-49.165,4.072-82.312,46.71-78.846,97.211
		c0.088,1.279,0.701,2.176,1.513,2.756c-1.272,0.109-2.549,0.192-3.819,0.312c-2.489,0.231-3.26,2.598-2.387,4.222
		c-1.57-1.007-3.859-0.699-4.672,1.745c-1.856,5.582-1.356,10.831-1.18,16.678c0.068,2.264,1.897,4.375,4.283,4.283
		c62.102-2.381,123.836-0.212,185.919,0.046c0.987,0.004,1.787-0.26,2.423-0.682c1.314,1.181,3.688,0.668,3.902-1.669
		C197.297,162.042,196.926,154.075,193.682,148.552z M95.72,36.618c0.277-1.167,0.424-1.439,0.827-2.107
		c-0.267,0.442,0.011,0.205,0.166,0.01c0.104,0.029,0.227,0.069,0.363,0.144c0.634,0.35,1.618,1.318,2.276,2.202
		c1.315,1.766,2.159,4.282,3.366,6.359c-2.424-0.133-4.82-0.186-7.181-0.142C95.479,40.919,95.213,38.751,95.72,36.618z
		 M17.995,140.582c0.295-51.374,33.652-90.61,86.931-87.527c21.625,1.251,42.311,11.078,57.312,26.548
		c18.668,19.251,18.692,41.117,22.09,65.275c-25.887-5.053-53.243-4.113-79.437-4.076c-29.121,0.04-58.684-0.073-87.792,2.143
		C17.618,142.37,17.989,141.612,17.995,140.582z M190.398,161.965c-60.276-3.629-121.966-5.015-182.238-0.214
		c-0.491-3.744-0.937-7.824-0.578-10.424c0.128-0.927-0.086-1.714-0.471-2.355c0.374,0.208,0.802,0.365,1.323,0.411
		c29.804,2.647,60.11,0.639,89.993,0.339c29.182-0.292,58.524,2.443,87.654,1.597c0.222,0.173,0.474,0.291,0.736,0.391
		c1.278,3.441,2.657,6.804,3.72,10.277C190.488,161.982,190.447,161.968,190.398,161.965z"/>
</g>
<g>
</g>
<g>
</g>
<g>
</g>
<g>
</g>
<g>
</g>
<g>
</g>
<g>
</g>
<g>
</g>
<g>
</g>
<g>
</g>
<g>
</g>
<g>
</g>
<g>
</g>
<g>
</g>
<g>
</g>
</svg>
