<?xml version="1.0" encoding="iso-8859-1"?>
<!-- Generator: Adobe Illustrator 16.0.0, SVG Export Plug-In . SVG Version: 6.00 Build 0)  -->
<!DOCTYPE svg PUBLIC "-//W3C//DTD SVG 1.1//EN" "http://www.w3.org/Graphics/SVG/1.1/DTD/svg11.dtd">
<svg version="1.1" id="Capa_1" xmlns="http://www.w3.org/2000/svg" xmlns:xlink="http://www.w3.org/1999/xlink" x="0px" y="0px"
	 width="194.742px" height="194.742px" viewBox="0 0 194.742 194.742" style="enable-background:new 0 0 194.742 194.742;"
	 xml:space="preserve">
<g>
	<path d="M187.189,90.165c-0.172-0.181-0.375-0.318-0.59-0.432c2.165-2.101,4.149-4.16,5.888-6.101c2.05-2.285,1.828-5.011,0-7.316
		c-14.613-18.434-30.712-33.413-54.146-37.741c-0.022-20.364-19.38-27.043-42.639-30.271C74.705,5.39,51.96,10.716,54.182,36.039
		c0.16,1.824,0.417,3.643,0.719,5.458C29.971,47.18,1.44,75.102,9.645,100.734c-23.793,37.623-1.837,91.052,46.893,86.102
		c3.471-0.354,5.23-2.862,4.755-6.242c-2.659-18.932-12.086-35.599-13.042-54.682c2.216-0.026,4.437-0.147,6.65-0.459
		c10.705-1.511,27.124-6.327,33.791-16.417c11.439,1.991,19.564-0.778,25.641-6.297c7.508,12.217,18.246,15.051,29.604,12.831
		c6.911,19.103,2.404,34.313-9.502,50.684c-1.789,2.46-0.251,5.623,1.875,7.152c21.084,15.154,40.075,4.162,49.583-17.597
		C192.842,139.909,201.095,104.857,187.189,90.165z M50.715,177.21c-36.18-0.3-49.158-38.9-38.232-70.136
		c0.958,1.646,2.067,3.274,3.382,4.877c5.952,7.248,14.082,11.515,22.893,13.188C38.811,143.495,47.037,159.519,50.715,177.21z
		 M57.854,114.864c-11.666,2.859-24.554,0.83-33.082-7.964C4.349,85.84,37.127,58.57,56.084,47.254
		c4.659,19.327,16.007,38.055,24.522,55.542C73.202,107.335,67.306,112.547,57.854,114.864z M90.458,98.788
		c-1.335-0.253-2.505-0.026-3.484,0.482c-6.201-20.303-36.401-72.319-12.727-80.172c14.489-4.806,55.257-0.707,54.322,19.782
		c-0.474,10.393-6.224,21.477-9.849,31.027C113,84.977,111.902,102.85,90.458,98.788z M121.775,94.685
		c-0.146-0.268-0.316-0.489-0.484-0.712c6.943-11.697,10.295-27.882,14.608-41.278c0.879-2.73,1.434-5.232,1.847-7.634
		c18.578,6.457,32.034,19.575,44.264,34.619C166.992,95.15,135.791,120.298,121.775,94.685z M146.324,167.168
		c10.552-16.833,15.82-35.789,6.583-54.293c10.654-4.237,21.263-11.849,29.76-19.47C185.266,116.5,180.711,184.689,146.324,167.168z
		"/>
</g>
<g>
</g>
<g>
</g>
<g>
</g>
<g>
</g>
<g>
</g>
<g>
</g>
<g>
</g>
<g>
</g>
<g>
</g>
<g>
</g>
<g>
</g>
<g>
</g>
<g>
</g>
<g>
</g>
<g>
</g>
</svg>
