<?xml version="1.0" encoding="iso-8859-1"?>
<!-- Generator: Adobe Illustrator 16.0.0, SVG Export Plug-In . SVG Version: 6.00 Build 0)  -->
<!DOCTYPE svg PUBLIC "-//W3C//DTD SVG 1.1//EN" "http://www.w3.org/Graphics/SVG/1.1/DTD/svg11.dtd">
<svg version="1.1" id="Capa_1" xmlns="http://www.w3.org/2000/svg" xmlns:xlink="http://www.w3.org/1999/xlink" x="0px" y="0px"
	 width="189.581px" height="189.58px" viewBox="0 0 189.581 189.58" style="enable-background:new 0 0 189.581 189.58;"
	 xml:space="preserve">
<g>
	<path d="M108.377,1.275C60.099-8.943,24.231,44.359,44.506,85.669c-8.54,0.291-17.054,3.208-21.803,10.78
		c-4.354,6.943-3.552,15.984,0.303,22.928c3.736,6.729,10.925,11.129,18.686,10.015c1.294-0.187,2.521-0.588,3.713-1.077
		c2.052,16.327,8.045,34.639,16.267,48.48c0.356,0.601,0.836,0.97,1.348,1.24c0.143,0.313,0.337,0.606,0.652,0.819
		c16.073,10.884,43.9,16.032,60.327,3.019c0.648-0.514,0.957-1.197,1.057-1.918c0.654,0.125,1.343,0.098,1.996-0.269
		c5.795-3.265,7.342-14.164,9.368-20.011c2.992-8.635,5.11-17.02,6.627-25.791c3.064,0.253,6.189-0.071,9.101-0.992
		c7.064-2.232,12.793-7.883,14.556-15.137c2.156-8.873-2.133-17.478-7.653-24.323C190.252,55.256,147.562,9.57,108.377,1.275z
		 M105.931,10.146c26.543,3.861,52.892,27.907,53.48,53.554c-0.758-0.062-1.559,0.128-2.34,0.692
		c-13.208,9.537-28.433-2.9-39.674-9.476c-8.417-4.924-18.039-6.725-27.683-5.99c-7.554,0.576-15.014,1.996-22.577,2.525
		c-3.994,0.279-7.935,0.072-11.819-0.908c-2.609-0.658-3.979-2.211-4.597-4.207C57.217,23.381,76.792,5.909,105.931,10.146z
		 M129.538,154.666c-1.937,5.522-7.431,14.406-7.185,20.928c-0.62-0.193-1.286-0.241-1.979,0.051
		c-15.55,6.529-36.288,6.062-52.462,0.488c0.22-0.6,0.317-1.266,0.116-2.018c-4.343-16.306-10.258-33.681-16.949-49.281
		c0.533-0.438,1.077-0.869,1.576-1.338c1.873-1.758,3.439-3.863,4.886-5.992c1.146,6.967,5.304,12.89,12.196,15.713
		c-0.632,0.312-1.085,0.939-1.03,1.93c0.214,3.975,1.062,7.891,1.989,11.76c0.954,3.977,1.514,11.078,5.4,13.348
		c1.2,0.699,3.166,0.117,3.422-1.393c0.725-4.283-1.944-9.419-3.046-13.549c-0.97-3.634-1.904-7.281-3.313-10.77
		c-0.045-0.11-0.124-0.19-0.183-0.289c0.27,0.064,0.512,0.166,0.789,0.222c8.63,1.753,14.624-2.778,18.275-9.216
		c0.458,0.781,0.965,1.52,1.489,2.238c-0.517,0.244-0.946,0.721-1.014,1.35c-0.605,5.682,0.39,11.716,1.034,17.352
		c0.308,2.692,0.002,12.776,4.709,12.549c1.481-0.072,2.985-1.549,2.412-3.135c0.274,0.893-0.065,1.326,0.315-0.107
		c0.32-1.205-0.084-2.496-0.336-3.672c-0.605-2.834-1.166-5.68-1.725-8.523c-0.854-4.337-2.016-8.626-2.931-12.947
		c4.205,4.137,9.933,6.463,17.197,5.606c2.497-0.294,4.754-1.013,6.779-2.046c-1.202,3.279-2.369,6.572-3.648,9.816
		c-1.199,3.043-4.661,7.615-3.746,10.988c0.473,1.738,2.296,2.206,3.786,1.54c3.304-1.476,4.003-8.091,4.894-11.169
		c1.374-4.75,2.728-9.63,3.416-14.551c1.462-1.408,2.731-3.008,3.758-4.776c0.882,1.251,1.871,2.453,3.116,3.526
		c1.899,1.641,4.104,2.799,6.441,3.572C135.08,140.094,132.132,147.272,129.538,154.666z M149.673,96.338
		c7.174,7.935,14.298,23.006,0.156,28.145c-2.067,0.751-4.161,1.025-6.218,0.887c-0.424-0.303-1.01-0.391-1.578-0.25
		c-1.732-0.318-3.434-0.875-5.031-1.857c-2.745-1.684-4.379-4.45-5.341-7.525c0.325-2.939,0.195-5.949-0.466-8.859
		c-0.153-0.678-0.476-1.168-0.855-1.576c-0.446-2.65-4.871-3.242-5.343-0.284c-0.03,0.192-0.044,0.388-0.071,0.582
		c-0.524,0.587-0.895,1.333-0.927,2.253c-0.292,8.18-1.106,16.372-9.895,19.561c-10.272,3.727-16.888-6.683-17.901-15.361
		c-0.637-5.461-7.802-5.432-8.468,0c-2.746,22.391-24.452,14.826-24.62-4.199c-0.016-1.788-1.676-2.736-3.13-2.553
		c-0.668-0.465-1.486-0.67-2.426-0.412c-2.802,0.769-3.846,3.365-5.227,5.679c-1.223,2.048-2.616,3.949-4.232,5.7
		c-2.188,2.371-4.572,4-7.423,4.633c-1.623,0.361-3.68-0.148-5.268-1.057c-1.858-1.062-3.335-2.822-4.564-5.047
		c-2.235-4.041-2.411-9.354-0.332-13.244c3.375-6.313,12.079-8.632,19.465-9.427c0.154-0.017,0.262-0.085,0.404-0.116
		c1.875-0.221,3.574-1.772,2.711-3.91c-4.147-10.263-5.489-21.219-4.348-31.597c7.635,5.156,18.547,3.914,27.25,3.098
		c18.352-1.719,30.276-0.741,46.625,9.416c10.254,6.369,24.875,11.24,35.628,4.791c-1.289,5.033-3.66,10.036-7.366,14.867
		c-0.224,0.291-0.389,0.589-0.519,0.889C148.464,91.068,147.56,94.002,149.673,96.338z"/>
</g>
<g>
</g>
<g>
</g>
<g>
</g>
<g>
</g>
<g>
</g>
<g>
</g>
<g>
</g>
<g>
</g>
<g>
</g>
<g>
</g>
<g>
</g>
<g>
</g>
<g>
</g>
<g>
</g>
<g>
</g>
</svg>
