<?xml version="1.0" encoding="iso-8859-1"?>
<!-- Generator: Adobe Illustrator 16.0.0, SVG Export Plug-In . SVG Version: 6.00 Build 0)  -->
<!DOCTYPE svg PUBLIC "-//W3C//DTD SVG 1.1//EN" "http://www.w3.org/Graphics/SVG/1.1/DTD/svg11.dtd">
<svg version="1.1" id="Capa_1" xmlns="http://www.w3.org/2000/svg" xmlns:xlink="http://www.w3.org/1999/xlink" x="0px" y="0px"
	 width="190.157px" height="190.156px" viewBox="0 0 190.157 190.156" style="enable-background:new 0 0 190.157 190.156;"
	 xml:space="preserve">
<g>
	<path d="M189.527,86.143c-3.075-17.749-20.429-29.746-35.411-36.979C117.95,31.703,64.035,25.668,27.095,43.906
		C17.866,48.463,9.954,55.438,6.917,65.502c-0.348,1.153-0.19,2.14,0.255,2.93c-20.617,31.227,6.696,63.434,37.825,76.941
		c38.298,16.617,90.714,18.131,124.251-9.664C183.434,123.953,192.722,104.584,189.527,86.143z M9.666,83.904
		c1.21-6.743,3.811-13.488,7.007-19.961c0.187-0.379,0.233-0.76,0.223-1.135c6.69-10.888,21.921-14.44,33.707-16.767
		c20.283-4.004,41.994-2.838,62.233,0.693c27.558,4.808,69.018,20.295,66.728,50.274c-6.073,7.089-10.902,12.948-21.364,13.365
		c-6.491,0.259-12.824-1.832-19.249-2.331c-10.04-0.78-17.844,1.484-24.325,8.411c-0.065,0.062-0.14,0.089-0.203,0.164
		c-11.766,14.047-21.689,20.388-38.77,10.3c-8.732-5.157-16.29-12.17-24.81-17.669c-6.105-3.94-12.746-5.692-19.926-6.107
		c-4.145-0.239-8.187,0.24-12.319-0.472C10.591,101.291,8.985,92.776,9.666,83.904z M174.185,113.874
		c-20.14,36.903-74.663,37.073-109.754,27.742c-17.741-4.717-35.317-13.425-47.293-27.643c-2.181-2.589-3.834-5.261-5.098-7.983
		c9.243,6.251,22.503,1.88,32.798,6.649c14.858,6.885,25.267,20.514,41.354,25.276c14.019,4.15,25.745-7.21,31.796-18.454
		c11.701-9.235,26.279-2.591,40.214-2.085c6.239,0.227,12.021-1.687,16.77-5.076C174.702,112.826,174.476,113.341,174.185,113.874z"
		/>
	<path d="M107.58,65.605c-1.105-0.336-2.279-0.643-3.479-0.932c-0.231-0.155-0.494-0.291-0.829-0.368
		c-9.993-2.316-28.386-4.718-31.264,9.138c-2.111,10.165,7.398,18.812,16.364,21.15c5.979,1.559,12.083,0.378,17.652-2.002
		c6.05-2.587,14.793-8.203,14.709-15.698C120.659,70.358,112.731,67.171,107.58,65.605z M102.725,86.944
		c-4.11,1.907-8.879,2.333-13.245,1.202c-5.232-1.356-11.825-6.777-10.866-12.882c0.543-3.458,3.222-5.338,6.651-6.298
		c0.057,0.007,0.101,0.035,0.16,0.039c5.689,0.389,11.233,0.349,16.845,1.571c3.405,0.741,10.494,2.205,11.822,6.094
		C115.535,80.894,105.526,85.644,102.725,86.944z"/>
	<path d="M30.022,78.578c-0.487-1.026-0.996-2.023-1.376-3.096c-0.487-1.375-0.37-2.726-1.151-3.986c-0.614-0.99-2.2-1.103-2.786,0
		c-0.73,1.374-0.658,2.843-0.267,4.344c-0.574,2.099-1.69,4.047-1.794,6.255c-0.169,3.579,4.027,4.878,6.764,5.491
		c1.202,0.269,2.503-0.562,2.468-1.88C31.81,83.13,31.12,80.891,30.022,78.578z"/>
	<path d="M48.501,67.135c-1.987-1.858-4.259-3.002-6.816-3.877c-2.478-0.848-5.347-1.939-7.928-2.27
		c-1.55-0.199-2.283,2.034-1.241,2.996c0.04,0.037,0.092,0.056,0.133,0.092c-0.325,0.59-0.285,1.373,0.451,1.705
		c2.564,1.159,3.254,3.779,5.333,5.448c2.99,2.399,6.82,0.551,9.682-1.097C49.155,69.532,49.4,67.976,48.501,67.135z M39.386,67.294
		c-0.275-0.325-0.556-0.625-0.838-0.926c1.754,0.473,3.442,1.033,4.989,1.886C42.08,68.842,40.709,68.857,39.386,67.294z"/>
	<path d="M50.008,83.47c-0.725-1.019-1.551-1.962-2.289-2.971c-0.498-0.68-0.832-1.598-1.623-1.999
		c-0.741-0.376-1.43-0.246-2.058,0.266c-1.287,1.048-0.646,2.548,0.195,3.785c0.032,1.337-0.146,2.693,0.068,4.041
		c0.507,3.207,2.967,5.114,5.682,6.564c1.274,0.681,3.023-0.152,2.974-1.707C52.861,88.461,51.721,85.878,50.008,83.47z"/>
	<path d="M161.848,80.011c-0.795-0.837-1.843-1.502-2.794-2.146c-1.297-0.877-2.208-2.075-3.357-3.107
		c-1.314-1.182-4.051-0.056-3.264,1.9c0.606,1.511,1.61,2.78,2.77,3.904c-1.55,3.508,3.196,7.415,5.599,9.06
		c1.511,1.035,3.443-0.357,3.486-2.001C164.365,84.754,163.875,82.144,161.848,80.011z"/>
	<path d="M153.701,93.054c-2.065-0.946-4.156-1.61-6.358-2.161c-2.119-0.53-4.237-1.571-6.422-1.54
		c-0.387,0.006-0.709,0.115-0.99,0.268c-0.131-0.047-0.24-0.122-0.373-0.166c-2.594-0.854-3.484,2.997-1.1,3.985
		c2.743,1.137,4.668,3.492,7.286,4.819c2.674,1.355,5.506,0.746,7.957-0.764C155.209,96.568,155.537,93.896,153.701,93.054z"/>
</g>
<g>
</g>
<g>
</g>
<g>
</g>
<g>
</g>
<g>
</g>
<g>
</g>
<g>
</g>
<g>
</g>
<g>
</g>
<g>
</g>
<g>
</g>
<g>
</g>
<g>
</g>
<g>
</g>
<g>
</g>
</svg>
