<?xml version="1.0" encoding="iso-8859-1"?>
<!-- Generator: Adobe Illustrator 16.0.0, SVG Export Plug-In . SVG Version: 6.00 Build 0)  -->
<!DOCTYPE svg PUBLIC "-//W3C//DTD SVG 1.1//EN" "http://www.w3.org/Graphics/SVG/1.1/DTD/svg11.dtd">
<svg version="1.1" id="Capa_1" xmlns="http://www.w3.org/2000/svg" xmlns:xlink="http://www.w3.org/1999/xlink" x="0px" y="0px"
	 width="188.766px" height="188.766px" viewBox="0 0 188.766 188.766" style="enable-background:new 0 0 188.766 188.766;"
	 xml:space="preserve">
<g>
	<path d="M138.23,33.982C120.589,22.455,86.433,5.166,63.255,10.228c-0.643-0.862-1.849-1.253-2.702-0.205
		c-0.326,0.4-0.553,0.81-0.847,1.213c-0.212,0.072-0.442,0.108-0.651,0.185c-1.327,0.486-1.793,2.007-1.408,3.131
		c-17.756,34.571,70.325,77.214,96.561,61.69C175.426,63.685,149.701,41.477,138.23,33.982z M154.514,68.153
		c-7.837,15.235-47.628-4.034-56.653-8.511c-15.099-7.49-41.932-23.896-35.737-43.86c18.034-0.623,36.349,5.736,52.692,12.66
		C126.943,33.58,163.825,50.055,154.514,68.153z"/>
	<path d="M124.828,12.039C102.402,0.264,70.319-7.075,49.104,10.395c-0.684-0.42-1.685-0.341-1.823,0.625
		c-0.045,0.315-0.036,0.626-0.074,0.941c-0.06,0.056-0.127,0.098-0.187,0.154c-0.968,0.904-0.748,2.054-0.045,2.784
		c-0.114,1.859-0.107,3.705-0.014,5.539c-9.042,20.018-4.772,43.993,7.174,63.008c-5.346,4.771-7.181,11.56-6.59,18.551
		c-12.424-1.949-28.319,5.321-27.729,19.563c0.184,4.455,1.779,8.654,4.193,12.574c-15.892,41.353,60.01,71.259,86.738,44.385
		c1.045-1.05,0.981-2.303,0.396-3.269c12.128-2.07,21.081-9.916,21.571-27.734c0.041-1.478-0.646-2.463-1.587-3.062
		c0.554-0.783,1.086-1.569,1.578-2.344c4.507-7.095,5.053-15.684,3.193-23.662c5.915-8.218,9.728-17.84,11.663-27.754
		c10.005-3.912,17.991-11.286,20.717-23.182C173.966,42.69,142.929,21.545,124.828,12.039z M27.254,138.687
		c6.448,7.9,15.813,14.406,22.913,19.081c12.864,8.471,36.436,18.58,55.113,18.051C81.037,195.729,22.086,172.192,27.254,138.687z
		 M126.75,119.312c-4.069,3.986-8.811,7.203-13.755,9.985c-4.737,2.665-10.243,3.622-14.612,6.812
		c-2.299,1.68-1.534,5.172,1.45,5.354c11.453,0.698,24.23-9.519,31.598-17.469c0.162-0.176,0.303-0.366,0.463-0.543
		c-0.257,5.358-2.066,10.35-5.091,15.213c-3.926,6.312-10.712,8.48-15.725,13.404c-1.77,1.738-0.569,5.438,2.147,5.186
		c4.255-0.396,8.074-2.522,11.37-5.4c-4.568,30.7-49.548,11.891-66.685,1.928c-11.348-6.599-23.18-15.436-29.3-27.353
		c-6.951-13.533,10.228-17.465,19.194-22.342c1.606,10.56,8.495,21.171,17.195,25.652c3.134,1.613,5.412-2.588,2.7-4.618
		c-10.263-7.687-20.734-26.778-11.595-38.681c9.056,13.116,21.834,23.491,36.33,27.912c2.987,0.911,4.438-3.216,2.035-4.828
		C78.78,99.002,65.674,89.554,56.226,72.666c-7.065-12.627-7.69-26.122-7.104-39.82c6.947,23.686,29.108,43.887,49.682,54.604
		c12.659,6.594,30.97,8.948,45.758,4.356C140.226,102.034,134.786,111.441,126.75,119.312z M141.496,88.41
		c-14.169,5.429-31.363-0.614-44.004-7.133c-24.496-12.632-44.99-38.356-47.473-66.265c31.598-28.214,102.577,5.194,112.398,42.622
		C166.136,71.81,153.457,83.827,141.496,88.41z"/>
	<path d="M143.782,61.656c-4.81-13.694-17.595-24.35-32.788-22.947c-1.351,0.125-2.397,0.976-3.067,2.045
		c-2.703-9.36-11.042-14.716-21.488-16.118c-1.069-0.144-1.757,0.452-2.065,1.257c-0.393-0.08-0.829,0.055-1.136,0.521
		c-9.951,15.091,11.681,22.751,23.291,22.993c0.388,0.008,0.743-0.118,1.073-0.297c1.862,6.6,6.002,11.846,12.284,15.294
		c6.462,3.547,17.111,6.716,22.891,1.055C143.716,64.537,144.23,62.936,143.782,61.656z M84.819,28.571
		c0.258,0.294,0.568,0.547,0.996,0.669c4.247,1.212,8.343,2.096,12.119,4.516c3.854,2.469,5.534,6.53,6.062,10.827
		C95.037,43.765,81.013,39.261,84.819,28.571z M114.269,47.109c-0.105,0.682,0.026,1.376,0.407,2.056
		c-0.521,0.598-0.874,1.319-0.975,2.086c-0.91-1.445-1.677-2.997-2.261-4.649C112.41,46.749,113.339,46.929,114.269,47.109z"/>
</g>
<g>
</g>
<g>
</g>
<g>
</g>
<g>
</g>
<g>
</g>
<g>
</g>
<g>
</g>
<g>
</g>
<g>
</g>
<g>
</g>
<g>
</g>
<g>
</g>
<g>
</g>
<g>
</g>
<g>
</g>
</svg>
