<?xml version="1.0" encoding="iso-8859-1"?>
<!-- Generator: Adobe Illustrator 16.0.0, SVG Export Plug-In . SVG Version: 6.00 Build 0)  -->
<!DOCTYPE svg PUBLIC "-//W3C//DTD SVG 1.1//EN" "http://www.w3.org/Graphics/SVG/1.1/DTD/svg11.dtd">
<svg version="1.1" id="Capa_1" xmlns="http://www.w3.org/2000/svg" xmlns:xlink="http://www.w3.org/1999/xlink" x="0px" y="0px"
	 width="195.118px" height="195.118px" viewBox="0 0 195.118 195.118" style="enable-background:new 0 0 195.118 195.118;"
	 xml:space="preserve">
<g>
	<path d="M177.552,37.218c-6.59-13.097-19.192-25.738-35.192-23.483c-7.974,1.124-13.889,5.434-17.673,11.329
		c0.223-1.645,0.513-3.309,0.895-4.999c1.189-5.265-5.208-7.85-8.251-4.769c-0.303-0.285-0.642-0.555-1.058-0.789
		C85.618-2.716,48.692-4.789,16.448,9.282c-0.901,0.393-1.295,1.094-1.384,1.853c-1.724,0.451-3.169,2.561-2.063,4.421
		C46.828,72.43-24.842,160.535,57.949,190.822c33.34,12.197,77.174-2.008,89.841-37.167c5.031-13.964,5.41-27.86,2.633-41.63
		c13.109,1.811,22.878-14.194,27.061-24.463C183.456,72.897,184.836,51.695,177.552,37.218z M104.237,19.615
		c-3.002,1.022-6.048,1.961-9.379,2.372c-9.886,1.218-20.534-1.163-30.133-3.072c-11.451-2.277-22.747-5.34-34.254-7.155
		C55.707,7.014,80.528,9.093,104.237,19.615z M45.007,172.893c-30.104-17.764-17.872-60.217-13.916-87.828
		c3.343-23.329,3.725-46.285-8.596-66.157c23.894,6.184,73.492,26.347,91.792,7.061c-4.642,34.656,22.79,61.597,26.664,95.71
		C147.195,176.665,86.201,197.202,45.007,172.893z M135.15,50.464c0.267-0.96,1.126-2.529,1.352-2.806
		c0.742-0.914,1.15-1.07,1.945-1.287c0.422-0.116,1.716-0.111,2.089-0.048c1.416,0.239,2.66,0.738,3.601,1.2
		c3.017,1.482,5.451,3.562,7.749,6.005c4.204,4.47,7.709,11.192,6.726,16.661c-1.438,7.999-11.04,10.854-18.527,12.175
		c-2.26-4.915-4.577-9.762-6.741-14.619c0.998-0.465,1.792-1.493,1.6-2.881C134.289,60.156,133.858,55.103,135.15,50.464z
		 M168.983,82.085c-3.709,12.311-10.266,16.633-20.646,21.469c-0.887-3.004-1.865-6.003-3.02-8.994
		c-0.597-1.541-1.236-3.058-1.876-4.576c9.729-2.064,20.226-6.777,22.7-17.253c2.062-8.726-2.521-17.538-8.134-23.913
		c-5.034-5.718-12.646-10.955-20.59-9.864c-7.854,1.079-9.362,9.221-9.096,16.2c-0.813-2.386-1.565-4.786-2.168-7.221
		c0.024-0.095,0.079-0.155,0.098-0.257c2.109-11.687,5.661-24.289,19.761-24.647c13.35-0.34,22.288,14.285,25.148,25.461
		C173.948,59.382,172.166,71.522,168.983,82.085z"/>
	<path d="M109.416,69.912c-1.692-2.104-3.979-1.352-5.25,0.329C87.988,59.635,67.361,54.413,48.292,56.74
		c-1.296,0.158-2.277,0.788-2.938,1.632c-0.917,0.12-1.717,0.683-1.87,1.804c-3.589,26.377-13.526,54.143-5.432,80.6
		c7.035,22.997,36.666,34.392,58.834,31.409C144.403,165.797,130.553,96.208,109.416,69.912z M97.668,76.022
		c-12.402,2.518-27.743-3.371-38.352-11.097C72.675,65.575,86.358,69.073,97.668,76.022z M98.156,163.576
		c-29.798,7.465-54.35-15.023-55.327-43.379c-0.636-18.473,4.38-36.773,5.459-55.223h0.003c0.628-0.045,1.275-0.029,1.908-0.061
		c11.302,15.712,38.958,25.431,56.674,17.029C118.036,107.979,133.715,154.668,98.156,163.576z"/>
</g>
<g>
</g>
<g>
</g>
<g>
</g>
<g>
</g>
<g>
</g>
<g>
</g>
<g>
</g>
<g>
</g>
<g>
</g>
<g>
</g>
<g>
</g>
<g>
</g>
<g>
</g>
<g>
</g>
<g>
</g>
</svg>
