<?xml version="1.0" encoding="iso-8859-1"?>
<!-- Generator: Adobe Illustrator 16.0.0, SVG Export Plug-In . SVG Version: 6.00 Build 0)  -->
<!DOCTYPE svg PUBLIC "-//W3C//DTD SVG 1.1//EN" "http://www.w3.org/Graphics/SVG/1.1/DTD/svg11.dtd">
<svg version="1.1" id="Capa_1" xmlns="http://www.w3.org/2000/svg" xmlns:xlink="http://www.w3.org/1999/xlink" x="0px" y="0px"
	 width="189.423px" height="189.423px" viewBox="0 0 189.423 189.423" style="enable-background:new 0 0 189.423 189.423;"
	 xml:space="preserve">
<g>
	<path d="M182.779,74.288c-10.704-17.868-34.34-26.668-54.313-26.884c-11.437-22.78-59.128-26.583-69.276-1.243
		c-11.569-14.012-28.864-19.213-45.679-9.69c-14.805,8.385,2.296,26.67,5.872,36.061c5.267,13.832-7.851,28.525-14.263,39.699
		c-5.424,9.451-6.162,18.374-3.968,28.872c3.897,18.646,22.015,21.674,37.927,18.581c26.524-5.156,46.031-26.479,73.987-25.442
		c22.516,0.835,40.896,15.669,61.161-0.928C191.491,119.176,193.614,92.375,182.779,74.288z M94.857,35.603
		c17.199,0.932,25.39,11.46,29.014,26.339c-0.173,0.086-0.352,0.12-0.519,0.246c-17.472,13.135-45.55,20.201-59.549-1.705
		c-0.188-0.294-0.448-0.487-0.73-0.626C65.728,42.942,77.548,34.665,94.857,35.603z M149.799,134.282
		c-16.17-0.365-30.527-8.302-47.146-7.436c-13.72,0.715-25.737,8.627-37.42,14.97c-13.163,7.146-34.104,16.635-48.858,9.296
		c-12.697-6.316-9.726-25.339-4.933-35.184c3.508-7.206,8.788-13.487,11.897-20.904c4.532-10.812,4.699-20.356-0.258-30.91
		c-2.413-5.137-5.862-9.607-7.822-14.986c-5.15-14.135,25.233-8.581,29.141-6.702c5.036,2.422,9.225,5.796,13.285,9.55
		c-0.467,3.059-0.531,6.398,0.005,10.111c0.252,1.746,1.678,2.133,2.969,1.714c3.758,28.209,55.419,21.813,67.876,3.569
		c0.327-0.479,0.452-0.992,0.495-1.509c0.556-0.361,0.993-0.902,1.166-1.636c0.738-3.139,0.862-6.074,0.571-8.841
		c17.619,1.844,34.085,8.155,44.971,23.02C190.636,98.745,176.089,134.877,149.799,134.282z"/>
</g>
<g>
</g>
<g>
</g>
<g>
</g>
<g>
</g>
<g>
</g>
<g>
</g>
<g>
</g>
<g>
</g>
<g>
</g>
<g>
</g>
<g>
</g>
<g>
</g>
<g>
</g>
<g>
</g>
<g>
</g>
</svg>
