<?xml version="1.0" encoding="iso-8859-1"?>
<!-- Generator: Adobe Illustrator 16.0.0, SVG Export Plug-In . SVG Version: 6.00 Build 0)  -->
<!DOCTYPE svg PUBLIC "-//W3C//DTD SVG 1.1//EN" "http://www.w3.org/Graphics/SVG/1.1/DTD/svg11.dtd">
<svg version="1.1" id="Capa_1" xmlns="http://www.w3.org/2000/svg" xmlns:xlink="http://www.w3.org/1999/xlink" x="0px" y="0px"
	 width="192.285px" height="192.285px" viewBox="0 0 192.285 192.285" style="enable-background:new 0 0 192.285 192.285;"
	 xml:space="preserve">
<g>
	<path d="M178.827,42.667c-15.944-25.293-47.939-39.819-77.01-40.914c-1.672-0.063-2.75,0.793-3.268,1.94
		C58.656-3.556,21.397,21.515,6.635,59.354c-15.466,39.645-3.329,86.185,30.503,111.981c38.433,29.306,94.017,24.369,126.912-10.066
		C193.819,130.105,202.167,79.691,178.827,42.667z M73.754,178.513C27.309,166.786,1.988,123.093,11.287,76.75
		c3.967-19.767,15.033-38.258,31.149-50.444c19.456-14.713,43.306-15.728,66.691-14.463c1.324,0.072,2.114-0.695,2.419-1.662
		c50.444,7.259,81.231,53.389,68.456,103.595C167.842,161.561,121.684,190.613,73.754,178.513z"/>
	<path d="M101.816,26.729c-0.837-0.097-1.458,0.287-1.883,0.852C63.677,26.71,34.281,59.794,30.531,94.609
		c-4.341,40.304,22.868,68.179,62.147,71.361c39.542,3.201,68.665-26.414,71.737-64.508
		C167.572,62.329,139.757,31.132,101.816,26.729z M92.678,159.408C55.824,157.886,31.913,129.16,37.2,92.902
		c4.968-34.079,31.452-54.75,63.227-61.455c0.213,0.12,0.434,0.233,0.714,0.273C178.836,42.788,173.573,162.751,92.678,159.408z"/>
	<path d="M145.318,94.462c-0.246,0.645-0.438,1.308-0.654,1.963c0.654-5.154-0.47-9.908-5.617-13.317
		c0.273-1.369,0.487-2.75,0.564-4.145c1.537-27.634-31.343-40.05-51.079-23.595c-5.199-8.783-12.617-12.97-22.85-7.626
		c-5.554,2.901-9.36,9.438-12.247,14.68c-4.081,7.41,6.108,15.198,2.19,22.971c-2.861,5.677-9.913,9.947-9.963,16.982
		c-0.046,6.507-0.223,12.897,1.722,19.169c2.381,7.676,9.372,9.662,16.382,9.059c0.177,4.185,1.238,8.154,4.138,11.418
		c2.741,3.084,8.431,5.441,12.498,4.269c0.529-0.151,0.888-0.47,1.114-0.853c1.248,1.857,2.553,3.689,3.871,5.516
		c0.754,1.044,2.302,1.492,3.288,0.424c1.181-1.279,2.067-2.605,2.745-3.958c10.717,1.984,21.435,2.482,32.328,2.592
		c0.944,0.009,1.537-0.619,1.872-1.426c1.986-4.777,2.006-10.033,2.256-15.137c0.035-0.716-0.345-1.336-0.885-1.76
		c2.252,1.12,4.475,2.303,6.646,3.6c0.958,0.573,2.388,0.26,2.917-0.765c1.418-2.745,1.964-5.213,1.868-7.453
		c0.925,0.43,1.913,0.784,3.075,0.979c1.04,0.174,2.165-0.258,2.44-1.386c2.497-10.256,2.182-20.947,5.76-30.994
		C150.689,92.887,146.346,91.769,145.318,94.462z M52.724,117.535c-2.928-9.737,0.538-18.106,6.112-25.894
		c3.848-5.376,4.885-8.394,3.419-14.804c-1.901-8.312-3.916-12.095,2.132-19.876c6.937-8.924,15.408-7.033,22.201,0.363
		c-1.3,2.334,1.964,5.087,4.346,3.099c23.76-19.834,56.738,8.845,35.475,34.119c-5.149,6.121-18.334,4.304-25.688,5.695
		c-6.548,1.239-11.566,6.194-16.2,10.59C77.701,117.297,58.193,135.72,52.724,117.535z M124.057,112.307
		c-5.549-2.413-11.699-4.133-16.512-5.491c0.024-0.065,0.04-0.13,0.064-0.195c0.123-0.33,0.162-0.636,0.14-0.916
		c3.074-0.513,6.341-0.833,9.938-1.185c2.379-0.233,4.612-0.844,6.677-1.764C123.771,105.815,123.892,109.258,124.057,112.307z
		 M99.83,134.948c-1.792-0.329-3.464-0.912-5.324-1.107c-0.022-0.002-0.037,0.009-0.059,0.007c0.486-7.996,0.008-15.937,0.966-23.92
		c2.066-1.233,4.173-2.087,6.335-2.774c-0.282,0.728-0.185,1.567,0.42,2.152C99.879,117.614,99.586,126.339,99.83,134.948z
		 M70.854,139.07c-2.399-2.26-3.413-5.665-3.85-8.927c2.272-0.44,4.474-1.098,6.433-1.889c1.144,5.083,3.373,9.658,6.055,14.022
		C76.355,141.45,73.521,141.582,70.854,139.07z M87.153,146.428c-4.588-6.038-8.674-12.215-11.013-19.512
		c1.394-0.838,2.722-1.855,3.998-2.978c0.021,0.022,0.024,0.049,0.046,0.072C85.849,129.889,91.795,138.747,87.153,146.428z
		 M90.875,131.756c-1.84-3.957-4.645-7.682-7.632-10.804c1.947-1.997,3.791-4.061,5.574-5.828c1.252-1.242,2.494-2.306,3.735-3.248
		C91.343,118.411,90.693,125.13,90.875,131.756z M122.357,146.139c-10.029,0.098-20.086,0.188-30.068-0.857
		c0.88-2.748,0.923-5.577,0.329-8.373c0.424,0.014,0.849-0.124,1.179-0.409c0.103,0.06,0.2,0.125,0.328,0.155
		c2.541,0.608,4.547,1.883,7.179,2.303c0.061,0.011,0.113-0.008,0.172-0.003c0.072,0.01,0.14,0.037,0.213,0.038
		c0.042,0,0.085,0.001,0.128,0.001c0.112,0.001,0.196-0.036,0.299-0.05c0.049-0.008,0.096-0.013,0.144-0.024
		c0.168-0.034,0.324-0.078,0.461-0.147c6.057-1.923,13.991-2.575,20.649-2.917C123.48,139.353,123.394,142.77,122.357,146.139z
		 M125.576,131.146c-5.074-0.011-10.187,0.891-15.181,1.703c-2.01,0.326-4.395,0.526-6.551,1.154
		c0.126-4.051,0.247-8.088,0.601-12.089c0.158,0.151,0.343,0.285,0.575,0.38c7.076,2.907,14.225,5.62,21.086,8.962
		C125.929,131.212,125.758,131.146,125.576,131.146z M133.641,130.46c-8.869-4.673-18.353-7.893-27.717-11.449
		c-0.466-0.178-0.856-0.13-1.178,0.027c0.323-2.645,0.792-5.27,1.466-7.868C116.773,114.886,137.448,118.528,133.641,130.46z
		 M140.289,123.973c-1.16-0.199-2.023-0.551-2.877-1.05c-1.783-3.836-5.697-6.835-10.391-9.224c0.093-2.256,0.211-4.507,0.452-6.754
		c0.241-2.248,1.058-4.517,1.233-6.772c4.155-3.113,7.283-7.61,9.114-12.641c7.541,6.401-0.13,21.203-2.349,29.171
		c-0.386,1.385,1.699,1.941,2.138,0.589c1.275-3.935,3.452-8.523,5.087-13.15C141.469,110.67,141.03,117.418,140.289,123.973z"/>
	<path d="M93.355,69.835c0.263-0.443,0.216-1.041-0.447-1.191c-0.46-0.104-0.915-0.207-1.369-0.309
		c-0.442-0.349-0.873-0.682-1.274-0.981c-1.053-0.785-2.064-0.493-2.738,0.223c-2.823-0.376-5.601-0.283-8.434,1.082
		c-4.506,2.172-6.846,7.552-7.246,12.271c-0.559,6.596,5.757,10.301,11.47,10.944c5.699,0.641,12.472-0.868,15.918-5.808
		C103.286,80.258,98.124,73.986,93.355,69.835z M95.125,83.23c-1.714,3.178-6.736,3.79-9.91,3.756
		c-3.363-0.036-7.57-1.193-8.334-4.919c-0.61-2.974,1.618-7.214,3.674-9.184c1.595-1.528,3.937-2.302,6.332-2.612
		c0.146,0.491,0.402,0.962,0.895,1.333C90.598,73.718,97.491,78.84,95.125,83.23z"/>
</g>
<g>
</g>
<g>
</g>
<g>
</g>
<g>
</g>
<g>
</g>
<g>
</g>
<g>
</g>
<g>
</g>
<g>
</g>
<g>
</g>
<g>
</g>
<g>
</g>
<g>
</g>
<g>
</g>
<g>
</g>
</svg>
