<?xml version="1.0" encoding="iso-8859-1"?>
<!-- Generator: Adobe Illustrator 16.0.0, SVG Export Plug-In . SVG Version: 6.00 Build 0)  -->
<!DOCTYPE svg PUBLIC "-//W3C//DTD SVG 1.1//EN" "http://www.w3.org/Graphics/SVG/1.1/DTD/svg11.dtd">
<svg version="1.1" id="Capa_1" xmlns="http://www.w3.org/2000/svg" xmlns:xlink="http://www.w3.org/1999/xlink" x="0px" y="0px"
	 width="191.274px" height="191.274px" viewBox="0 0 191.274 191.274" style="enable-background:new 0 0 191.274 191.274;"
	 xml:space="preserve">
<g>
	<path d="M174.148,35.414C155.542,9.422,128.104,5.676,98.4,6.246c-23.538-2.381-49.45,5-67.62,19.926
		C9.514,43.641,0.098,67.868,0,95.009c-0.198,54.703,42.213,94.866,96.723,90.071c45.085-3.965,85.109-40.94,93.29-85.183
		C194.251,76.982,187.519,54.09,174.148,35.414z M182.501,101.016c-7.151,39.046-42.469,68.895-80.251,76.276
		c-49.968,9.762-90.467-26.188-94.891-74.962C5.14,77.86,13.001,54.241,30.572,36.987C48.673,19.212,73.576,15.243,97.63,12.168
		c29.298,0.865,54.092,4.155,72.355,29.904C182.185,59.272,186.268,80.445,182.501,101.016z"/>
	<path d="M140.114,32.388c-11.495-7.774-26.789-9.862-40.317-8.987c-0.625,0.04-1.105,0.267-1.519,0.557
		C27.711,0.716-9.83,123.395,50.208,159.299c35.79,21.403,80.286,0.771,100.883-31.349C169.87,98.666,171.463,53.589,140.114,32.388
		z M67.49,159.618c-35.32-7.745-45.47-47.477-38.854-78.591c3.352-15.765,11.397-30.491,23.65-41.031
		C66.472,27.793,85.082,27.41,102.67,29.901c0.662,0.094,1.282-0.174,1.763-0.589c17.639,1.091,34.236,6.084,44.748,21.613
		c9.702,14.334,9.716,33.359,5.878,49.582C145.729,139.937,108.327,168.574,67.49,159.618z"/>
	<path d="M139.693,47.944c-3.633-5.585-13.599-8.837-19.895-7.061c-12.494,3.524-18.067,16.421-30.078,20.743
		c0.486-1.23,0.954-2.463,1.396-3.702c2.275-6.377,6.141-22.796-5.227-24.117C75.248,32.57,69.422,49.809,66.597,57.271
		c-4.749,12.545-9.26,29.8-3.253,42.665c0.367,0.785,1.629,0.226,1.383-0.583c-3.421-11.236,0.457-24.876,3.749-35.708
		c1.761-5.793,4.17-11.378,7.062-16.69c2.838-5.211,12.808-15.416,14.258-2.669c1.34,11.778-10.326,28.285-15.021,38.607
		c-3.362,7.391-7.632,15.6-9.079,23.917c-4.537-8.865-7.126-17.038-7.502-28.595C57.809,66.34,55.273,55.97,42.373,53.288
		c-2.541-0.528-3.559,3.091-1.072,3.89c0.111,0.036,0.197,0.085,0.305,0.121c-0.482,0.064-0.935,0.358-1.13,0.968
		c-6.32,19.727,3.047,45.952,9.76,64.283c4.072,11.121,13.92,38.941,30.336,35.147c19.801-4.576-5.44-34.466-9.755-41.735
		c-0.441-0.742-0.832-1.438-1.251-2.158c0.001-0.006,0.004-0.009,0.005-0.014c0.673-4.648,1.864-9.162,3.359-13.597
		c0.189,0.09,0.345,0.207,0.578,0.258c14.244,3.157,17.18,15.957,24.14,26.757c4.496,6.977,11.153,9.308,19.044,10.293
		c18.703,2.335,20.751-19.544,20.977-32.784c0.178-10.493,1.553-19.827,3.897-30.071C143.623,65.662,144.952,56.027,139.693,47.944z
		 M77.697,136.434c2.988,5.055,11.404,16.643-0.244,17.211c-13.857,0.677-23.212-34.149-26.078-43.312
		c-4.582-14.65-11.95-35.88-8.178-51.318c0.119-0.485,0-0.88-0.231-1.177c13.972,5.797,9.21,21.785,11.378,34.098
		c1.218,6.917,4.421,12.651,7.854,18.739C67.119,119.401,72.601,127.811,77.697,136.434z M132.766,102.171
		c-0.059,7.829-0.032,15.972-3.164,23.296c-5.727,13.391-23.204,5.363-28.727-3.207c-7.633-11.844-10.641-23.624-25.933-27.013
		c-0.078-0.017-0.14,0.007-0.216-0.004c3.975-10.199,9.278-20.035,13.546-30.086c0.417,0.446,1.027,0.702,1.812,0.47
		c5.791-1.718,10.057-4.666,14.542-8.661c3.799-3.384,7.142-6.827,11.438-9.65c9.71-6.379,21.326,1.428,22.485,11.683
		C140.123,72.933,132.875,87.866,132.766,102.171z"/>
	<path d="M122.487,81.586c-5.055-7.098-15.354-7.868-22.194-2.853c-1.098,0.804-1.233,2.337-0.71,3.405
		c-3.252,5.487-4.195,12.383-0.773,18.064c4.757,7.902,16.839,6.271,22.694,0.746C126.801,95.948,126.489,87.205,122.487,81.586z
		 M118.369,96.729c-3.607,4.612-12.428,5.595-15.882,0.396c-2.574-3.875-1.728-9.667,0.104-14.19
		c5.19-2.046,10.29-3.799,14.783,0.741C120.677,87.014,121.291,92.995,118.369,96.729z"/>
</g>
<g>
</g>
<g>
</g>
<g>
</g>
<g>
</g>
<g>
</g>
<g>
</g>
<g>
</g>
<g>
</g>
<g>
</g>
<g>
</g>
<g>
</g>
<g>
</g>
<g>
</g>
<g>
</g>
<g>
</g>
</svg>
