<?xml version="1.0" encoding="iso-8859-1"?>
<!-- Generator: Adobe Illustrator 16.0.0, SVG Export Plug-In . SVG Version: 6.00 Build 0)  -->
<!DOCTYPE svg PUBLIC "-//W3C//DTD SVG 1.1//EN" "http://www.w3.org/Graphics/SVG/1.1/DTD/svg11.dtd">
<svg version="1.1" id="Capa_1" xmlns="http://www.w3.org/2000/svg" xmlns:xlink="http://www.w3.org/1999/xlink" x="0px" y="0px"
	 width="195.931px" height="195.931px" viewBox="0 0 195.931 195.931" style="enable-background:new 0 0 195.931 195.931;"
	 xml:space="preserve">
<g>
	<path d="M40.784,122.361c-1.203,0.961-1.812,1.638-3.361,1.716c-0.055,0.003-0.072,0.048-0.123,0.056
		c-1.579-1.944-2.428-4.081-2.035-6.684c0.381-2.524,1.819-4.062,3.078-6.139c0.528-0.871-0.565-2.095-1.457-1.457
		c-5.01,3.585-3.838,10.74-0.405,14.997c-0.19,0.619,0.08,1.378,0.942,1.417c2.305,0.105,3.431-0.607,4.867-2.398
		C43.154,122.79,41.861,121.502,40.784,122.361z"/>
	<path d="M83.056,121.735c-1.87-0.488-3.964-0.175-5.871-0.06c-0.963-0.058-1.412,0.69-1.372,1.438
		c-0.039,0.749,0.409,1.497,1.372,1.439c1.907,0.115,4.001,0.43,5.871-0.06C84.423,124.136,84.423,122.094,83.056,121.735z"/>
	<path d="M79.063,113.038c-0.45-0.472-0.901-0.942-1.354-1.413c-0.212-0.222-0.443-0.349-0.679-0.427
		c-1.262-1.115-2.537-2.215-3.802-3.322c-1.152-1.012-2.688,0.524-1.678,1.678c1.107,1.264,2.206,2.54,3.322,3.801
		c0.077,0.236,0.204,0.467,0.426,0.68c0.471,0.45,0.942,0.902,1.413,1.354C78.261,116.87,80.614,114.522,79.063,113.038z"/>
	<path d="M46.504,113.266c-0.949-0.521-2.327,0.045-3.274,0.3c-0.881,0.238-1.092,1.079-0.877,1.768
		c-0.434,0.259-0.868,0.519-1.308,0.769c-1.118,0.636-0.138,2.171,0.983,1.682c1.429-0.625,2.941-1.229,4.244-2.095
		C47.078,115.154,47.592,113.863,46.504,113.266z"/>
	<path d="M195.806,110.207c-1.623-4.293-4.389-8.446-8.008-10.34c0.174-2.774-0.885-6.475-2.153-8.429
		c-1.393-2.145-4.386-2.08-6.603-1.617c-3.261,0.683-6.044,3.31-8.883,4.896c-0.141,0.078-0.219,0.183-0.325,0.276
		c-1.035-1.451-2.129-2.872-3.379-4.234c-1.16-1.263-3.026-0.475-3.544,0.936c-0.019,0.05-0.105,0.119-0.192,0.19
		c-0.088-0.476-0.34-0.955-0.864-1.36c-3.76-2.901-9.387-6.693-14.33-4.304c-1.538,0.744-2.661,1.898-3.521,3.26
		c-0.11-11.292,1.495-22.396,2.926-33.605c0.37-0.222,0.711-0.472,1.07-0.704c1.055,0.356,2.285,0.009,2.582-1.42
		c0.035-0.17,0.047-0.336,0.079-0.505c0.373-0.301,0.765-0.583,1.121-0.899c1.036-0.922,0.406-2.423-0.684-2.835
		c0.305-6.192-1.799-11.763-7.867-15.051c-7.797-4.226-17.657-2.589-25.95-1.116c-1.526,0.271-1.166,2.775,0.363,2.689
		c11.239-0.633,29.724-0.041,28.979,14.373c-0.296,0.081-0.598,0.164-0.894,0.246c-1.353-0.589-3.15-0.292-3.847,1.053
		c-12.855,3.511-25.156,6.548-39.078,7.198c-12.799,0.6-24.605-3.878-36.759-4.607c-1.374-3.716-1.471-7.45-1.377-11.315
		c4.226-0.863,8.455-1.697,12.714-2.395c5.916-0.967,12.287-0.753,18.024-2.457c1.373-0.408,1.416-2.43,0-2.817
		c-10.42-2.847-23.639,1.008-33.995,3.001c-1.103,0.212-1.956,1.433-1.919,2.521c0.182,5.425,0.487,10.502,2.885,15.442
		c0.385,0.793,1.142,1.067,1.889,0.988c1.3,1.615,3.074,2.888,5.163,3.896c-0.554,4.15,1.283,9.742,1.896,13.059
		c1.538,8.31,3.383,16.515,5.33,24.736c0.059,0.247,0.167,0.452,0.298,0.632c-24.627-7.455-58.51,8.587-55.979,30.161
		c-2.85-1.223-5.639-2.411-8.818-1.215c-3.875,1.457-4.783,7.085-5.437,10.509c-0.106,0.555-0.016,1.099,0.251,1.551
		c-3.922,3.88-6.803,8.605-6.966,14.433c-0.245,8.773,9.181,13.468,16.186,15.745c1.604,0.521,3.092-0.854,3.158-2.405
		c0.115-2.719,0.998-4.99,2.046-7.18c0.798,1.093,1.727,2.031,2.711,2.901c-16.78,12.604,21.096,23.588,27.915,24.624
		c20.788,3.157,52.962-0.99,58.098-25.756c0.357-1.726-0.728-2.955-2.03-3.391c1.733-1.115,3.088-2.697,3.671-4.982
		c0.301-1.182,0.248-2.741-0.09-4.362c1.913,0.483,3.912,0.579,5.921,0.137c1.232-0.271,2.521-0.698,3.728-1.289
		c-1.368,7.632-2.279,15.301-2.417,23.412c-0.02,1.163,0.877,2.561,2.099,2.756c17.051,2.734,41.567,7.428,56.523-4.329
		c15.54-12.218,11.695-36.2,6.353-52.587c-0.152-0.467-0.396-0.803-0.67-1.083c3.139-2.191,5.335-5.384,9.981-4.411
		C194.626,113.128,196.422,111.838,195.806,110.207z M172.093,98.028c1.967-0.981,9.179-6.379,10.294-3.129
		c0.428,1.249,0.493,2.61,0.624,3.942c-1.566,0.103-3.229,0.604-4.981,1.657c-1.265,0.759-2.32,1.722-3.284,2.763
		c-0.898-1.801-1.855-3.509-2.868-5.173C171.95,98.062,172.019,98.065,172.093,98.028z M164.927,95.472
		c2.614,3.117,4.636,6.467,6.522,10.143c0.238,0.466,0.578,0.715,0.941,0.861c-2.653,4.687-3.424,10.601-2.803,15.811
		c-1.763,0.653-3.511,1.313-5.255,1.968c-0.775-5.461-1.253-10.939-1.841-16.407c0.709-0.806,0.431-1.895-0.284-2.589
		c-0.305-2.605-0.644-5.207-1.085-7.801C162.424,96.747,163.796,96.25,164.927,95.472z M161.355,125.354
		c-3.559,1.303-7.112,2.529-10.725,3.496c0.036-1.457,0.026-2.916,0.048-4.373c1.935-4.961,4.574-9.452,8.22-13.256
		C159.573,115.949,160.293,120.671,161.355,125.354z M148.967,89.794c3.22-1.918,8.068,2,10.402,3.845
		c-0.774,0.37-1.443,0.696-1.675,0.87c-0.841,0.629-1.19,1.388-0.993,2.438c0.571,3.058,1.031,6.127,1.473,9.195
		c-3.295,2.617-5.674,6.119-7.404,9.984c0.014-5.215,0.001-10.43,0.014-15.64c0.003-1.244-1.041-2.281-2.283-2.282
		c-1.534-0.001-3.04,0.009-4.524,0.07C144.806,94.999,146.07,91.52,148.967,89.794z M146.213,102.805
		c-0.001,9.017-0.079,18.046,0.167,27.058c-2.969,0.598-6.005,0.964-9.131,1.04c0.604-8.976,0.577-17.853-0.681-26.767
		C139.72,103.147,142.908,102.862,146.213,102.805z M53.107,102.55c20.645-4.721,37.171,6.18,42.802,25.076
		c-0.434-0.24-0.932-0.354-1.41-0.218c-10.644,3.014-19.611,7.92-30.883,9.422c-12.66,1.686-25.84,0.447-38.002-3.311
		c-0.144-0.045-0.262-0.027-0.395-0.045C25.551,117.077,35.946,106.475,53.107,102.55z M100.3,125.089
		c4.562-0.06,8.439,2.003,11.613,6.24c-1.872,3.035-3.979,5.904-6.318,8.605c-3.03,3.664-6.423,6.333-10.074,7.908
		c-0.749-0.137-1.562,0.177-2.078,0.762c-5.577,1.73-11.682,0.993-17.969-2.562c-0.599-0.339-1.46-0.409-2.052,0
		c-2.819,1.945-5.582,3.153-8.267,3.779c-0.161-0.161-0.338-0.298-0.497-0.462c-0.53-0.546-1.503,0.16-1.109,0.803
		c-5.67,0.767-10.901-1.493-15.263-6.979c18.186,2.119,38.676-0.31,48.323-12.816c0.123,0.524,0.274,1.03,0.381,1.565
		c0.484,2.442,4.605,1.906,4.362-0.591C101.136,129.119,100.754,127.065,100.3,125.089z M97.173,162.159
		c-10.609,0.765-20.454-2.557-28.536-9.17c3.06-1.141,6.067-2.169,9.172-1.011c5.952,2.22,11.3,2.206,16.121,0.711
		C95.356,155.781,97.325,158.702,97.173,162.159z M21.212,150.853c-2.704,4.802-5.393,8.961-6.419,14.126
		c-5.034-1.978-9.724-5.057-9.893-11.044c-0.117-4.172,2.565-8.327,5.462-11.771c1.691,0.33,2.812,0.546,1.505,3.083
		c-1.302,2.526-1.679,4.386-0.811,7.129c0.221,0.699,0.897,1.344,1.683,1.28c2.822-0.225,4.92-0.74,7.178-2.537
		c0.387-0.309,0.864-0.382,1.374-0.364C21.268,150.794,21.234,150.812,21.212,150.853z M18.319,147.83
		c-4.922,4.025-2.114-4.154-1.842-6.202c0.079-0.592-0.384-1.149-0.833-1.452c-0.839-0.566-1.67-0.86-2.503-1.098
		c0.187-0.196,0.385-0.409,0.566-0.597c1.047-1.083-0.358-3.082-1.659-2.149c-0.318,0.228-0.621,0.476-0.934,0.711
		c0.568-2.548,1.583-5.127,4.281-5.473c1.8-0.23,4.016-0.018,5.964,0.241c0.579,2.603,1.63,5.265,3.354,7.975
		c0.207,0.325,0.847,0.233,0.794-0.216c-0.076-0.638-0.101-1.246-0.15-1.869c4.799,1.924,10.762,3.578,17.23,4.692
		c-0.051,0.049-0.106,0.07-0.155,0.13c-2.872,3.48-5.385,8.829-10.39,9.336c-4.5,0.456-5.524-5.882-9.018-5.882
		C21.249,145.977,19.669,146.726,18.319,147.83z M104.602,161.437C97.976,192.189,20.655,189,25.62,165.328
		c11.964,8.604,33.96,4.633,46.771,3.479c3.186-0.287,3.24-4.786,0-4.99c-14.142-0.887-39.193,6.671-48.624-7.526
		c0.528-1.207,0.99-2.458,1.281-3.819c0.015-0.072-0.002-0.135,0.006-0.206c1.914,1.198,3.834,2.717,5.086,3.144
		c6.622,2.253,12.621-5.972,14.871-10.895c0.283-0.619,0.132-1.292-0.223-1.795c0.031,0.005,0.062,0.008,0.093,0.012
		c3.174,5.724,6.825,9.38,13.095,11.613c2.964,1.056,5.757,0.391,8.484-0.561c8.376,9.493,19.479,14.111,32.669,12.684
		c0.967-0.105,1.888-0.596,2.134-1.625c0.259-1.084,0.349-2.089,0.358-3.06c0.006-0.002,0.011,0.001,0.018,0
		c1.052-0.165,2.105-0.397,3.119-0.709C104.715,161.203,104.633,161.29,104.602,161.437z M101.208,158.355
		c-0.643-2.497-1.901-4.802-3.245-7.315c2.2-1.123,4.266-2.577,6.227-4.237c0.924,1.992,2.467,3.967,2.803,6.072
		C107.524,156.206,103.877,157.569,101.208,158.355z M117.084,144.724c-2.967,1.136-5.787,0.543-8.504-0.922
		c-0.198-0.216-0.389-0.449-0.6-0.633c3.557-3.802,6.694-8.259,9.429-12.818c0.508-0.847,0.301-1.851-0.33-2.557
		c-5.19-5.809-10.243-6.756-17.885-6.687c-3.664-10.923-11.192-17.523-20.179-20.811c0.875-0.167,1.632-0.804,1.523-1.865
		c-0.745-7.229-1.776-14.367-2.885-21.547c-0.538-3.486-0.398-8.975-1.283-13.458c9.16,1.918,20.382,1.25,26.432,1.163
		c11.206-0.161,26.019-0.991,37.808-5.652c-1.679,11.971-2.374,23.783-0.044,35.865c0.136,0.701,0.628,1.085,1.199,1.227
		c-0.139,0.835-0.258,1.668-0.345,2.479c-0.64,0.062-1.289,0.08-1.922,0.176c-1.303-3.828-2.133-7.774-3.747-11.503
		c-0.246-0.568-1.053-0.988-1.652-0.948c-4.856,0.325-8.974,2.28-13.262,4.452c-0.55,0.278-0.923,0.968-0.903,1.575
		c0.12,3.706,0.777,7.351,1.717,10.933c-0.743-0.988-1.959-1.384-3.209-0.745c-3.575,1.828-6.812,4.17-10.333,6.09
		c-1.492,0.812-1.654,2.896-0.524,4.066c6.189,6.411,9.824,15.147,17.25,20.339c-0.75,2.905-1.421,5.769-2.053,8.627
		C120.733,142.336,119.181,143.921,117.084,144.724z M131.905,103.149c1.716,8.455,2.32,17.013,2.957,25.585
		c-2.937-4.946-5.795-9.957-8.371-15.096c0.319-0.206,0.519-0.581,0.379-1.085c-1.718-6.195-2.88-12.411-3.265-18.836
		c-0.104-1.764,8.868-4.949,10.013-1.54c0.829,2.47,1.347,4.926,2.247,7.319c-0.976,0.294-1.947,0.636-2.914,1.082
		C131.993,101.021,131.716,102.218,131.905,103.149z M130.588,130.634c-0.788-0.095-1.573-0.18-2.375-0.319
		c-0.253-0.044-0.441,0.038-0.628,0.114c-0.094-0.155-0.192-0.31-0.356-0.442c-6.043-4.849-9.221-12.388-13.904-18.542
		c1.774-1.082,3.559-2.152,5.322-3.254C122.191,115.921,126.271,123.327,130.588,130.634z M164.896,170.669
		c-9.777,2.927-20.856,1.787-30.829,0.718c-1.688-0.181-9.441,0.294-9.404-3.222c0.046-4.285,0.368-8.56,0.691-12.829
		c0.268-3.53,0.413-7.066,0.544-10.602c0.064-0.142,0.15-0.271,0.205-0.419c0.208-0.559,0.124-1.11-0.116-1.592
		c0.114-3.184,0.219-6.367,0.397-9.544c0.46-0.165,0.85-0.51,1.112-0.938c0.062,0.036,0.075,0.101,0.148,0.13
		c1.613,0.62,3.238,1.091,4.868,1.493c0.551,0.92,1.091,1.843,1.647,2.761c1.418,2.345,4.85,0.566,4.203-1.734
		c14.179,1.456,28.639-3.96,41.547-10.19C183.309,142.548,186.288,164.266,164.896,170.669z M185.971,109.553
		c-2.793,1.53-4.734,4.153-7.615,5.683c-1.717,0.912-0.948,3.264,0.629,3.616c-0.008,0.076-0.04,0.138-0.043,0.217
		c-2.15,0.652-4.25,1.383-6.337,2.126c0.219-5.654,2.304-11.336,6.376-15.347c4.368-4.301,8.278-1.377,10.944,2.522
		C188.592,108.48,187.288,108.831,185.971,109.553z"/>
	<path d="M129.801,13.91c0.98-1.218,1.142-3.357-0.536-4.157c-9.623-4.589-19.814-4.575-29.489-0.131
		c-0.869,0.399-1.386,1.507-1.386,2.417c0.002,8.677,0.171,17.631,2.417,26.081c-1.288-0.181-2.555-0.3-3.731-0.283
		c-1.226,0.016-1.205,1.812,0,1.886c1.299,0.08,2.535,0.288,3.746,0.558c-0.091,0.535-0.078,1.077,0.104,1.578
		c-0.525,0.167-1.054,0.317-1.578,0.489c-1.357,0.445-1.674,1.618-2.58,2.078c-0.546,0.277-0.281,1.146,0.308,1.134
		c0.849-0.018,1.487,0.92,2.695,0.684c2.384-0.468,4.733-0.987,7.082-1.605c0.598-0.157,1.333-0.315,2.111-0.478
		c2.067,1.831,3.4,4.182,5.397,6.132c1.496,1.462,3.487-0.374,2.724-2.103c-0.864-1.951-2.277-3.595-3.974-4.992
		c2.617-0.712,5.128-1.722,6.214-3.435c0.872-1.374-0.314-2.764-1.682-2.93c-1.081-0.131-2.31,0.329-3.455,0.788
		c0.246-5.026,1.025-9.896,0.362-14.841c4.118-0.036,8.353,0.062,12.127,1.685c1.553,0.667,3.89-0.057,3.73-2.14
		C130.245,20.206,128.42,15.625,129.801,13.91z M111.474,17.724c-1.664-0.012-2.876,1.631-2.452,3.218
		c1.368,5.123,0.433,10.145-0.021,15.267c-1.552,0.106-3.047,0.385-4.477,0.917c-0.674-7.706-0.572-15.485-0.546-23.217
		c6.688-2.674,13.984-2.762,20.735-0.302c-0.244,1.711-0.022,3.423,0.25,5.17C120.585,17.724,115.972,17.756,111.474,17.724z"/>
</g>
<g>
</g>
<g>
</g>
<g>
</g>
<g>
</g>
<g>
</g>
<g>
</g>
<g>
</g>
<g>
</g>
<g>
</g>
<g>
</g>
<g>
</g>
<g>
</g>
<g>
</g>
<g>
</g>
<g>
</g>
</svg>
