<?xml version="1.0" encoding="iso-8859-1"?>
<!-- Generator: Adobe Illustrator 16.0.0, SVG Export Plug-In . SVG Version: 6.00 Build 0)  -->
<!DOCTYPE svg PUBLIC "-//W3C//DTD SVG 1.1//EN" "http://www.w3.org/Graphics/SVG/1.1/DTD/svg11.dtd">
<svg version="1.1" id="Capa_1" xmlns="http://www.w3.org/2000/svg" xmlns:xlink="http://www.w3.org/1999/xlink" x="0px" y="0px"
	 width="187.743px" height="187.743px" viewBox="0 0 187.743 187.743" style="enable-background:new 0 0 187.743 187.743;"
	 xml:space="preserve">
<g>
	<path d="M186.293,152.965c-0.172-1.379-1.046-2.62-2.846-3.022c-1.943-0.434-3.898-0.788-5.852-1.157
		c0.029-0.047,0.068-0.072,0.094-0.124c4.792-9.759,1.194-16.072-5.398-20.279c0.646-0.477,1.057-1.253,0.782-2.415
		c-0.625-2.647-0.396-5.381-1.196-8.028c-0.712-2.359-2.186-4.346-3.949-6.023c-0.063-0.061-0.131-0.079-0.196-0.127
		c1.195-1.716,1.234-4.475-0.645-8.724c-4.326-9.779-12.201-16.885-20.786-22.959c-12.175-8.613-25.328-17.944-38.984-25.052
		c4.892-6.789,9.77-13.564,13.919-20.902c4.087-7.224,12.815-22.012,4.647-29.363c-9.935-8.94-20.441,4.594-24.092,12.528
		c-4.41,9.584-6.244,19.808-8.473,29.912c-9.658,0.94-16.721,7.173-23.767,14.448c-5.632,5.816-11.103,12.613-19.326,14.506
		c-4.581,1.055-9.744,0.975-13.599,4.1c-5.756,4.666-9.658,13.314-8.011,20.768c-25.401-0.346-39.869,41.355-17.69,55.461
		c0.516,0.328,0.97,0.018,1.152-0.423c8.096,2.271,17.892,0.481,26.018,0.147c16.236-0.667,32.449-1.894,48.677-2.728
		c28.908-1.485,58.718-2.503,87.356,2.752c-9.444,4.258-18.592,9.241-28.527,12.601c-15.378,5.2-31.509,7.996-47.659,9.206
		c-32.415,2.43-64.864-5.108-91.381-24.063c-1.895-1.354-4.184,1.67-2.473,3.205c24.639,22.104,56.975,29.104,89.279,28.671
		c29.175-0.393,70.993-7.213,93.394-27.675C188.399,156.708,187.811,154.182,186.293,152.965z M165.732,114.11
		c2.692,3.134,3.576,7.822,2.628,11.857c-0.024,0.107,0.01,0.179-0.005,0.28c-2.895-1.334-6.085-2.395-9.27-3.248
		c0.145-0.276,0.247-0.577,0.228-0.936c-0.156-2.988-0.688-5.611-1.834-8.238c2.996,0.483,5.849,0.5,7.918-0.297
		C165.463,113.727,165.571,113.923,165.732,114.11z M44.143,82.999c5.285-1.698,10.359-1.559,15.244-4.542
		C71.496,71.062,78.59,56.021,92.29,51.729c-0.98,4.077-2.092,8.117-3.55,12.065c-0.017,0.046-0.006,0.084-0.02,0.129
		c-0.795,0.409-1.559,0.834-2.248,1.282c-1.472,0.956-0.197,3.09,1.364,2.333c0.744-0.361,1.492-0.685,2.244-0.988
		c1.048,0.43,2.376,0.246,3.021-0.918c0.018-0.032,0.033-0.065,0.05-0.097c0.298-0.076,0.595-0.154,0.895-0.216
		c1.548,1.614,4.142,1.918,5.996-0.121c0.081,0.014,0.161,0.017,0.242,0.033c3.323,0.637,5.913,3.862,8.93,5.242
		c2.249,1.029,4.644-1.083,3.422-3.422c-2.043-3.91-5.541-5.706-9.453-6.173c0.361-0.505,0.714-1.017,1.075-1.522
		c9.037,6.078,18.554,11.575,27.528,17.657c11.862,8.04,26.97,15.139,31.993,29.771c3.301,9.611-22.969-4.973-23.206-5.161
		c-4.593-3.667-7.8-9.165-11.402-13.758c-5.992-7.641-12.829-11.689-22.58-10.61c-1.852,0.205-3.727,1.012-5.412,2.189
		c-0.681-0.195-1.357-0.399-2.064-0.55c-1.425-0.305-1.947,1.671-0.596,2.162c0.183,0.066,0.345,0.15,0.524,0.219
		c-1.729,1.734-3.075,3.826-3.632,5.947c-1.152,4.385-1.356,8.827-2.25,13.266c-1.703,1.504-3.258,2.658-4.677,3.49
		c-0.842-0.878-2.275-0.741-2.966,0.305c-0.232,0.351-0.427,0.727-0.609,1.11c-2.508,0.452-4.367-0.629-5.538-3.339
		c-1.018-1.774-1.768-3.75-2.603-5.614c-6.494-14.503-17.137-4.388-23.717,4.289c-0.315,0.415-0.26,0.862-0.023,1.212
		c-0.343-0.245-0.776-0.359-1.281-0.196c-4.21,1.354-7.864,2.667-12.366,2.907C23.834,105.485,37.855,85.018,44.143,82.999z
		 M126.732,113.766c-0.165-0.127-0.339-0.233-0.504-0.363c-0.177-1.87-0.495-3.722-0.901-5.55c3.631-1.569,8.039-3.52,9.355-7.438
		c2.422,2.405,4.644,4.608,6.554,6.325c-1.375,1.306-2.501,2.843-4.177,3.902c-2.621,1.659-5.795,1.668-8.7,0.929
		C126.897,111.2,126.158,112.754,126.732,113.766z M122.981,100.209c-3.13-7.674-8.333-14.296-15.536-18.222
		c3.378-0.509,7.479,1.463,11.751,4.53c-0.935,0.828-0.617,2.901,0.993,2.813l1.458-0.079c0.353,0.044,0.62-0.056,0.845-0.206
		c2.005,1.649,4.017,3.453,5.984,5.312c-1.841,0.602-3.697,2.253-4.896,3.488C122.923,98.521,122.787,99.392,122.981,100.209z
		 M101.849,117.146c-0.034,0.006-0.068,0.006-0.102,0.013c-1.63,0.288-3.141,0.719-4.582,1.219
		c-0.663-1.066-1.482-2.024-2.226-2.688c-1.79-1.599-4.118-2.032-6.439-2.077c0.356-0.913,0.674-1.849,0.883-2.799
		c1.164-0.36,2.342-0.804,3.542-1.331c1.557-0.685,2.711-1.768,3.605-3.093c1.555,0.875,3.064,1.825,4.525,2.875
		c1.069,0.77,2.063,1.737,3.077,2.67c-0.905,1.537-1.667,3.179-2.293,4.729C101.764,116.851,101.807,117,101.849,117.146z
		 M102.852,106.191c-1.587-0.94-3.258-1.74-4.969-2.444c1.198-3.124,1.615-6.911,2.146-10.359c3.5,0.93,6.929,2.362,9.156,5.357
		c1.502,2.019,2.102,4.402,2.429,6.85c-1.93,0.329-3.598,1.424-5.018,2.952C105.349,107.657,104.008,106.878,102.852,106.191z
		 M100.546,90.49c0.282-1.318,0.628-2.529,1.107-3.549c0.665-1.414,1.449-2.463,2.312-3.259c8.924,5.469,13.34,14.895,16.161,24.93
		c-0.88-0.635-1.771-1.242-2.696-1.769c-0.326-0.185-0.634-0.305-0.949-0.451c-0.43-3.672-1.74-7.206-4.07-10.134
		C109.561,92.677,104.937,91.229,100.546,90.49z M123.771,101.658c0.343,0.327,0.964-0.107,0.677-0.523
		c-0.4-0.581-0.557-0.512,0.024-0.891c0.617-0.402,1.195-0.834,1.841-1.193c1.534-0.854,3.306-1.185,4.473-2.481
		c0.714,0.695,1.418,1.389,2.11,2.073c-1.267,1.335-2.446,2.773-3.832,3.989c-1.296,1.138-2.816,2.021-4.33,2.876
		c-0.428-1.546-0.906-3.076-1.482-4.563C123.396,101.2,123.553,101.449,123.771,101.658z M137.764,114.522
		c1.873-0.665,3.938-1.884,5.452-3.474c0.645,0.908,1.199,1.874,1.61,2.918c0.673,1.71,0.513,3.604,1.185,5.258
		c0.53,1.303,2.283,1.424,2.772,0c0.921-2.686-0.63-6.267-2.492-8.902c1.945,0.939,4.527,1.908,7.235,2.645
		c-0.026,0.297-0.008,0.607,0.13,0.931c1.153,2.696,1.377,5.197,1.258,8.085c-2.316-0.512-4.557-0.935-6.589-1.291
		c-5.26-0.921-10.896-1.255-15.854-3.371c-1.665-0.711-3.204-1.724-4.712-2.814C131.084,115.618,134.437,115.706,137.764,114.522z
		 M38.046,108.819c2.38,0.074,4.93-0.37,7.328-1.04c0.09,0.149,0.209,0.284,0.401,0.371c4.724,2.148,9.076,4.75,12.997,8.169
		c1.939,1.691,3.439,3.74,4.914,5.788c-2.59-0.323-5.202-0.477-7.819-0.424C52.453,114.701,45.309,110.834,38.046,108.819z
		 M51.206,121.995c-1.064,0.119-2.128,0.225-3.188,0.414c-4.141,0.738-7.963,2.592-11.156,5.146
		c-1.754-3.802-2.764-7.698-2.957-11.996c-0.082-1.829,0.189-3.625,0.424-5.413c0.024,0.009,0.037,0.025,0.061,0.033
		C41.543,112.432,47.112,115.957,51.206,121.995z M53.395,102.308c0.472,0.329,1.137,0.405,1.594-0.081
		c2.228-2.368,5.435-5.543,8.63-7.023c-0.842,5.852-1.195,10.831-6.451,15.032c-0.253,0.202-0.361,0.454-0.373,0.709
		c-2.673-1.616-5.495-2.979-8.405-4.14c1.797-0.675,3.395-1.43,4.594-2.12C53.913,104.151,53.909,103.024,53.395,102.308z
		 M61.153,113.938c-0.823-0.663-1.682-1.268-2.551-1.855c6.023-3.722,9.583-10.555,9.096-17.623
		c1.817,0.292,3.475,1.589,4.742,4.508c0.617,1.421,1.214,2.987,1.901,4.509c-0.274,0.16-0.526,0.366-0.711,0.675
		c-2.377,3.959-4.046,7.983-7.193,11.469c-1.56,1.728,0.863,4.182,2.561,2.561c3.185-3.041,5.85-6.679,7.756-10.663
		c0.221,0.276,0.405,0.589,0.649,0.84c1.825,1.875,3.763,2.803,5.786,3.116c-0.34,1.534-0.731,3.047-1.399,4.396
		c-1.761,3.553-4.689,6.318-7.972,8.464c-1.237-0.389-2.486-0.737-3.744-1.044C67.96,119.612,64.217,116.408,61.153,113.938z
		 M29.175,113.697c0.06,1.745,0.238,3.451,0.428,4.945c0.533,4.19,2.222,7.944,4.701,11.261c-3.129,3.322-5.313,7.437-5.91,11.942
		c-2.133-4.81-3.164-9.761-3.107-15.229C25.337,121.81,27.086,117.715,29.175,113.697z M9.853,152.348
		c-11.537-16.945-2.79-43.041,17.77-46.492c-17.167,8.425-22.642,29.327-11.656,44.727C13.833,151.009,11.756,151.539,9.853,152.348
		z M18.585,150.093c0.032-0.265-0.005-0.551-0.203-0.852c-8.967-13.61-3.944-24.636,5.036-34.341
		c-4.188,10.175-1.841,22.891,4.192,31.875c0.23,0.343,0.531,0.521,0.844,0.604c0.103,0.665,0.22,1.331,0.394,2.001
		C25.385,149.45,21.912,149.626,18.585,150.093z M54.334,148.238c2.476-2.594,5.243-4.333,8.869-5.187
		c4.989-1.174,9.198,1.358,13.773,2.718c1.615,0.48,2.98-1.719,1.678-2.882c-8.683-7.755-21.473-4.248-27.972,4.236
		c-0.35,0.457-0.346,0.944-0.167,1.381c-2.622,0.184-5.245,0.357-7.867,0.546c-3.079,0.221-6.437,0.24-9.873,0.27
		c3.04-11.35,6.233-18.39,19.042-21.04c10.131-2.096,21.596,0.016,31.14,4.197c-0.442,1.457-0.676,2.993-0.811,4.561
		c-6.29-4.82-17.679-5.634-24.613-5.159c-8.656,0.591-15.254,5.331-16.229,14.172c-0.143,1.297,1.982,1.557,2.259,0.306
		c2.067-9.345,10.746-11.15,19.106-10.682c7.216,0.405,12.865,4.35,19.512,5.847c0.159,1.603,0.416,3.224,0.894,4.874
		C73.492,146.94,63.912,147.577,54.334,148.238z M78.262,125.941c3.019-2.016,5.589-4.533,7.754-7.604
		c0.42-0.596,0.833-1.29,1.234-2.021c2.066,0.132,4.072,0.459,5.528,2.046c0.401,0.438,0.689,0.941,0.933,1.469
		c-4.153,2.152-7.279,5.265-9.249,8.994C82.451,127.741,80.375,126.792,78.262,125.941z M100.354,145.489
		c0.592-1.977,1.655-4.878,3.738-5.058c2.025-0.175,3.978,3.155,4.991,4.488c0.065,0.087,0.152,0.143,0.23,0.213
		C106.323,145.239,103.338,145.355,100.354,145.489z M111.801,145.049c0.277-0.331,0.411-0.786,0.225-1.37
		c-1.12-3.506-3.854-7.215-7.933-7.101c-4.441,0.124-6.003,5.493-6.54,9.039c-1.191,0.056-2.385,0.104-3.574,0.161
		c-0.519-5.501,1.525-10.864,7.26-12.756c6.709-2.212,10.386,3.312,13.7,7.995c0.819,1.158,3.091,0.915,2.946-0.798
		c-0.74-8.717-9.847-13.635-17.833-11.501c-7.908,2.113-10.834,10.028-9.059,17.21c-1.937,0.106-3.873,0.235-5.81,0.342
		c-0.773-4.402-0.238-8.559,1.373-12.168c1.84,0.599,3.229-1.797,1.701-3.045c2.003-2.919,4.883-5.262,8.379-6.92
		c0.547,0.091,1.086-0.195,1.403-0.657c1.229-0.486,2.51-0.913,3.879-1.219c5.119-1.142,10.518-0.076,14.875,2.76
		c6.265,4.078,6.099,11.173,7.481,17.623c0.386,1.794,3.035,1.668,3.492,0c0.877-3.194,0.896-6.226,0.312-9.033
		c11.101,0.849,18.904,6.192,27.457,12.205C141.025,144.577,126.391,144.576,111.801,145.049z M175.334,148.338
		c-0.334-0.06-0.67-0.101-1.004-0.157c-0.723-6.796-7.555-11.841-13.67-14.309c-12.432-5.017-26.975-5.989-38.251-13.557
		c-0.522-0.35-1.103,0.433-0.662,0.858c6.521,6.304,14.915,9.452,23.479,11.995c5.287,1.569,10.562,3.096,15.568,5.445
		c4.638,2.178,6.812,5.04,8.527,8.78c-2.798-0.41-5.604-0.747-8.414-1.05c0.093-0.405,0.037-0.834-0.261-1.222
		c-7.392-9.638-20.92-14.004-32.682-13.825c-0.187,0.003-0.348,0.039-0.487,0.1c-3.178-9.24-13.464-15.332-23.691-14.472
		c0.902-1.289,1.757-2.293,2.592-3.174c0.409,0.287,0.813,0.582,1.253,0.8c1.595,0.793,3.306-0.812,2.438-2.438
		c-0.165-0.309-0.433-0.573-0.647-0.862c0.921-0.523,1.803-0.795,2.66-0.896c0.021,0.238,0.041,0.479,0.065,0.714
		c0.284,2.705,3.826,2.832,4.342,0.322c1.853,1.04,3.64,2.698,5.476,4.409c0.245,0.701,0.772,1.124,1.404,1.293
		c1.243,1.133,2.52,2.229,3.867,3.114c4.643,3.049,8.978,4.03,14.375,5.04c13.129,2.455,37.711,3.346,33.663,22.395
		C175.219,147.893,175.26,148.123,175.334,148.338z"/>
</g>
<g>
</g>
<g>
</g>
<g>
</g>
<g>
</g>
<g>
</g>
<g>
</g>
<g>
</g>
<g>
</g>
<g>
</g>
<g>
</g>
<g>
</g>
<g>
</g>
<g>
</g>
<g>
</g>
<g>
</g>
</svg>
