<?xml version="1.0" encoding="iso-8859-1"?>
<!-- Generator: Adobe Illustrator 16.0.0, SVG Export Plug-In . SVG Version: 6.00 Build 0)  -->
<!DOCTYPE svg PUBLIC "-//W3C//DTD SVG 1.1//EN" "http://www.w3.org/Graphics/SVG/1.1/DTD/svg11.dtd">
<svg version="1.1" id="Capa_1" xmlns="http://www.w3.org/2000/svg" xmlns:xlink="http://www.w3.org/1999/xlink" x="0px" y="0px"
	 width="179.892px" height="179.892px" viewBox="0 0 179.892 179.892" style="enable-background:new 0 0 179.892 179.892;"
	 xml:space="preserve">
<g>
	<path d="M150.102,111.667c-16.976-15.903-38.453-33.825-60.61-43.006c22.859-25.037-22.627-59.729-43.736-68.5
		c-1.421-0.59-2.706,0.537-3.064,1.854c-2.658-3.017-8.649-0.997-7.067,3.49c4.2,11.919,11.423,22.197,18.602,32.503
		c-10.083-6.062-20.264-11.895-31.006-16.879c-4.29-1.99-8.038,2.806-4.98,6.455c7.234,8.633,13.678,17.83,20.143,27.022
		c-9.857-5.358-19.45-11.138-28.975-17.17c-2.165-1.371-4.838,1.98-2.773,3.594c13.222,10.329,27.321,19.436,42.053,27.461
		c3.17,1.726,7.48-1.9,5.22-5.22c-6.182-9.083-12.284-18.203-18.739-27.072c10.265,5.431,20.261,11.365,30.05,17.634
		c3.408,2.183,7.173-2.039,5.34-5.34c-8.23-14.823-19.607-27.635-26.244-43.32c15.657,12.785,57.823,38.715,36.733,60.991
		c-1.128,1.191-1.325,2.521-0.963,3.665c-0.258,1.807,0.503,3.866,2.615,4.754c17.988,7.563,34.682,20.271,49.792,32.356
		c13.632,10.903,42.779,32.976,38.607,53.462c-2.501,12.283-17.634,11.905-26.411,8.112c-11.966-5.17-21.75-15.333-30.479-24.707
		c-16.523-17.742-30.934-38.602-43.365-59.41c-0.263-0.44-0.647-0.695-1.063-0.837c-1.049-1.031-2.846-1.528-4.24-0.927
		c-7.37,3.178-12.436,6.584-20.811,4.484c-6.704-1.681-12.272-7.131-16.925-11.893C18.376,65.573,10.98,53.808,4.989,41.776
		c-1.314-2.639-5.799-0.774-4.78,2.015c5.978,16.365,14.94,33.671,29.081,44.431c11.578,8.808,28.371,12.405,38.978,0.946
		c13.086,30.72,74.183,122.971,107.629,79.099C190.155,149.564,161.959,122.775,150.102,111.667z"/>
</g>
<g>
</g>
<g>
</g>
<g>
</g>
<g>
</g>
<g>
</g>
<g>
</g>
<g>
</g>
<g>
</g>
<g>
</g>
<g>
</g>
<g>
</g>
<g>
</g>
<g>
</g>
<g>
</g>
<g>
</g>
</svg>
