<?xml version="1.0" encoding="iso-8859-1"?>
<!-- Generator: Adobe Illustrator 16.0.0, SVG Export Plug-In . SVG Version: 6.00 Build 0)  -->
<!DOCTYPE svg PUBLIC "-//W3C//DTD SVG 1.1//EN" "http://www.w3.org/Graphics/SVG/1.1/DTD/svg11.dtd">
<svg version="1.1" id="Capa_1" xmlns="http://www.w3.org/2000/svg" xmlns:xlink="http://www.w3.org/1999/xlink" x="0px" y="0px"
	 width="188.743px" height="188.743px" viewBox="0 0 188.743 188.743" style="enable-background:new 0 0 188.743 188.743;"
	 xml:space="preserve">
<g>
	<path d="M161.224,77.396c6.051-18.763,4.455-38.18-7.299-54.43c-0.183-0.251-0.437-0.463-0.717-0.643
		c-0.049-0.624-0.519-1.247-1.276-1.327c-1.863-0.196-3.455,0.137-5.22,0.709c-2.696,0.875-5.452,1.055-8.203,1.702
		c-0.258,0.06-0.437,0.216-0.643,0.339c-1.386-4.797-3.871-9.197-7.952-12.356c-3.609-2.794-8.036-3.768-12.515-3.898
		c-2.718-0.079-4.212,2.927-5.462,5.543c-0.604-0.102-1.2-0.259-1.808-0.329c-0.778-0.089-1.653,0.504-2.017,1.157
		c-0.694,1.248-1.268,2.526-1.838,3.804c-0.902-2.278-1.846-4.539-2.852-6.768c0.759-0.412,1.182-1.569,0.443-2.318
		c-2.183-2.213-4.554-3.779-7.182-5.445c-3.863-2.448-2.973-3.904-7.251-2.712c-7.518,2.095-14.288,6.371-21.744,8.669
		c-1.556,0.48-2.124,2.112-1.433,3.522c1.736,3.542,3.188,7.208,4.829,10.791c-0.928,0.311-1.868,0.69-2.826,1.182
		c-4.293,2.204-7.289,5.661-9.11,9.68c-2.507-3.321-6.585-5.866-9.813-8.028c-2.829-1.894-11.631-8.353-15.142-6.356
		c-9.733,5.536-12.474,14.393-8.115,24.22c-0.405,0.537-0.801,1.082-1.162,1.648c-1.502,2.354,0.106,4.922,2.371,5.827
		c9.607,3.842,17.032,10.622,21.904,19.524c-0.462,0.598-0.75,1.325-0.727,2.096c1.056,34.737,0.875,88.844,36.584,104.453
		c0.278,0.468,0.504,0.964,0.8,1.42c10.045,15.497,36.788,7.812,51.543,7.45c3.52-0.086,4.784-3.557,3.801-6.05
		c0.757,0.043,1.479-0.332,1.675-1.352c0.579-3,3.372-7.854,4.058-12.105c1.598-9.919,3.491-19.793,5.347-29.665
		c2.05-10.904,4.036-21.821,6.021-32.737c1.196-6.583,4.022-14.791,2.358-21.409c-0.02-0.081-0.065-0.137-0.09-0.213
		c0.372-1.822-0.653-3.917-3.176-4.118c-3.869-0.308-7.839-0.209-11.77-0.043c1.895-6.569,3.791-12.95,6.783-19.195
		c2.882-6.016,5.437-7.368,1.458-13.071c-1.996-2.862-4.963-5.241-8.294-6.784c1.962-3.607,4.297-6.974,6.326-10.525
		c7.231,15.117,9.144,30.159,5.291,47.022C156.576,78.923,160.395,79.969,161.224,77.396z M118.871,11.736
		c3.696,0.118,7.138,1.715,9.853,4.15c5.222,4.683,6.445,12.541,6.787,19.15c0.021,0.399,0.158,0.708,0.337,0.976
		c-0.37,0.731-0.744,1.462-1.068,2.2c-0.285,0.053-0.574,0.083-0.856,0.154c-0.87,0.219-1.626,0.972-1.844,1.843
		c-0.026,0.231-0.106,0.439-0.194,0.642c-0.676-0.399-1.339-0.813-2.034-1.19c-0.393-0.213-0.844-0.313-1.302-0.356
		c1.325-6.085,0.522-12.402,0.332-18.81c-0.023-0.787-0.426-1.714-1.187-2.067c-3.812-1.771-7.801-3.437-11.902-4.56
		C116.595,12.653,117.546,11.693,118.871,11.736z M132.156,87.346c-0.424,1.288-0.853,2.576-1.219,3.881
		c-4.421-0.238-8.823-0.602-13.219-1.011c0.064-2.618-0.138-5.194-0.525-7.734c0.915-13.271,5.549-24.18,12.259-35.99
		c2.791,1.672,5.406,3.559,7.891,5.685C132.616,62.309,130.063,76.6,132.156,87.346z M108.382,25.272
		c0.261-0.36,0.367-0.798,0.287-1.294c0.596-2.487,1.363-4.595,2.346-5.618c0.694,0.441,1.608,0.521,2.225-0.205
		c0.07-0.083,0.136-0.196,0.204-0.289c3.202,0.683,10.65,2.727,10.69,5.117c0.117,7.186,0.742,13.573-1.486,20.584
		c-0.129,0.405-0.088,0.769,0.014,1.108c-5.313,7.712-8.083,16.381-9.004,25.441c-1.435-3.43-3.211-6.745-5.189-9.95
		c0.813-0.174,1.572-0.955,1.321-1.908c-1.671-6.34-2.778-12.697-2.93-19.263C106.831,37.786,107.216,30.897,108.382,25.272z
		 M113.201,89.78c-3.379-0.335-6.758-0.681-10.142-1.017c-0.253-11.132-6.731-22.773-14.2-30.639
		c-0.301-0.317-0.635-0.532-0.98-0.689c0.898-3.075,2.099-6.066,3.521-8.948C101.153,61.185,110.609,73.497,113.201,89.78z
		 M87.859,81.502c-0.34-0.013-0.536,0.023-0.619,0.098c-0.264-0.498-0.653-0.924-1.141-1.198c-0.013-0.654-0.253-1.283-0.638-1.833
		c0.268-4.207,0.307-8.371,0.754-12.573c2.089,3.058,4.208,6.098,6.21,9.225c2.639,4.123,4.217,8.581,5.931,13.082
		c-4.003-0.359-9.704,0.543-10.586-4.734c0.22-0.011,0.53-0.127,1.012-0.489C89.713,82.38,88.938,80.98,87.859,81.502z
		 M105.48,55.609c-3.282-4.66-6.966-9.03-10.727-13.047c0.506-0.811,0.997-1.633,1.531-2.42c0.937-1.381,0.196-3.137-1.045-3.984
		c-1.204-0.821-2.446-1.55-3.705-2.182c-1.086-2.284-2.428-4.326-3.983-6.035c-0.256-3.402-1.926-8.166-2.818-10.902
		c4.723-1.628,9.928-2.699,14.828-3.078c1.5,3.298,2.758,6.72,4.391,9.95C101.009,34.281,101.759,45.269,105.48,55.609z
		 M71.526,12.951c4.099-1.297,7.999-3.02,11.945-4.789c2.003-0.898,6.831-3.972,9.12-2.271c1.834,1.364,4.024,2.158,6.145,3.096
		c-6.459,0.019-13.49,0.559-19.264,3.356c-0.875,0.424-1.68,1.709-1.549,2.7c0.379,2.854,1.618,5.616,2.775,8.236
		c-1.64-0.561-3.393-0.804-5.23-0.717C74.067,19.394,72.838,16.156,71.526,12.951z M69.09,30.805
		c5.415-4.936,11.101-3.396,15.031,0.825c-5.715-0.675-10.966,1.638-13.805,8.884c-4.122,10.521-3.107,24.283,0.195,34.908
		c0.588,1.891,3.204,1.081,2.903-0.8c-1.347-8.425-1.388-17.306,0.304-25.673c0.77-3.809,2.108-7.82,4.924-10.594
		c3.003-2.958,7.618-0.923,11.08,1.17C82.847,50.316,77.764,64.137,79.426,77.08c-2.915,0.163-5.966,0.81-8.606,1.922
		c-1.24-8.164-4.146-15.969-8.258-23.107c0.242-0.38,0.357-0.841,0.233-1.345C60.665,45.899,62.351,36.948,69.09,30.805z
		 M39.657,27.072c3.947,1.853,7.698,4.178,11.141,6.847c2.388,1.851,4.178,4.294,6.67,5.916c-0.475,2.627-0.589,5.339-0.259,8.017
		c-3.899-5.115-8.429-9.75-13.407-13.736c-1.41-1.129-3.027-1.515-4.691-0.605c-3.248,1.776-6.467,3.924-9.259,6.483
		C29.468,33.197,31.513,23.249,39.657,27.072z M52.333,69.718c-3.572-9.469-10.301-16.768-18.345-22.786
		c1.949-2.098,4.311-3.836,6.745-5.353c10.879,8.966,17.587,20.431,22.62,33.246c-3.162-2.024-6.552-3.683-10.452-5
		C52.714,69.761,52.524,69.742,52.333,69.718z M55.75,78.212c4.387,1.791,7.644,4.062,11.84,7.508
		c1.17,16.998,3.545,33.793,6.437,50.596c1.636,9.507,2.855,20.001,5.89,29.621C58.724,144.082,57.388,108.843,55.75,78.212z
		 M152.73,85.892c-2.363,6.002-2.704,13.812-3.817,19.699c-2.079,11-4.189,21.991-6.159,33.011
		c-1.702,9.52-3.364,19.046-4.817,28.606c-0.728,4.78,0.631,7.347,1.133,11.089c-0.489-0.197-1.042-0.319-1.678-0.318
		c-15.42,0.01-39.963,8.62-47.265-9.594c-10.359-25.84-10.832-56.719-16.659-84.039c2.595-0.434,5.172-0.308,7.82-0.43
		c0.142,0.141,0.286,0.275,0.452,0.364c0.114,5.959,4.233,10.295,9.936,10.56c14.093,0.654,27.931,3.904,42.081,3.79
		c2.127-0.018,3.412-1.645,3.616-3.617c0.35-3.355,1.562-6.512,2.492-9.744c0.35,0.138,0.719,0.255,1.162,0.275
		C144.879,85.715,148.826,85.932,152.73,85.892z M150.42,50.905c0.756,1.052-5.334,11.582-6.141,13.616
		c-1.843,4.652-2.957,9.599-3.479,14.571c-0.011,0.002-0.02,0.006-0.03,0.007c-0.448-1.463-1.957-2.081-3.45-1.912
		c1.253-8.364,2.283-16.877,6.303-24.275c0.632-1.161,0.535-2.705-0.47-3.644c-1.954-1.824-4.021-3.461-6.154-5.008
		c0.155-0.303,0.302-0.612,0.448-0.922C142.681,43.181,147.546,46.902,150.42,50.905z M141.526,38.413
		c-0.602-0.137-1.209-0.242-1.815-0.321c0.41-0.982,0.83-1.958,1.293-2.905c1.085-2.227,1.551-4.53,1.363-6.858
		c2.342-0.62,4.377-2.09,6.559-3.304C146.638,29.605,143.603,33.725,141.526,38.413z"/>
</g>
<g>
</g>
<g>
</g>
<g>
</g>
<g>
</g>
<g>
</g>
<g>
</g>
<g>
</g>
<g>
</g>
<g>
</g>
<g>
</g>
<g>
</g>
<g>
</g>
<g>
</g>
<g>
</g>
<g>
</g>
</svg>
