<?xml version="1.0" encoding="iso-8859-1"?>
<!-- Generator: Adobe Illustrator 16.0.0, SVG Export Plug-In . SVG Version: 6.00 Build 0)  -->
<!DOCTYPE svg PUBLIC "-//W3C//DTD SVG 1.1//EN" "http://www.w3.org/Graphics/SVG/1.1/DTD/svg11.dtd">
<svg version="1.1" id="Capa_1" xmlns="http://www.w3.org/2000/svg" xmlns:xlink="http://www.w3.org/1999/xlink" x="0px" y="0px"
	 width="186.153px" height="186.154px" viewBox="0 0 186.153 186.154" style="enable-background:new 0 0 186.153 186.154;"
	 xml:space="preserve">
<g>
	<path d="M126.95,117.675c27.805-26.325,6.638-67.869-18.777-88.484C75.847,2.969,33.68,7.692,10.12,42.607
		c-41.377,61.32,54.336,137.875,103.244,89.22c0.089,0.125,0.141,0.253,0.266,0.373c19.463,18.579,42.529,32.419,67.897,41.31
		c2.289,0.802,4.596-1.277,4.624-3.522C186.485,142.54,147.202,129.688,126.95,117.675z M41.423,127.616
		C17.375,111.981,2.875,79.728,15.408,52.56c36.491-79.107,154.811,13.067,102.408,62.1c-1.312,1.228-1.557,2.627-1.166,3.847
		C94.98,139.145,68.292,145.083,41.423,127.616z M116.108,128.902c1.643-1.868,3.224-3.892,4.735-6.078
		c15.361,9.752,51.685,21.279,57.255,41.639c-22.092-8.354-43.09-20.547-61.455-35.275
		C116.472,129.048,116.289,128.983,116.108,128.902z"/>
	<path d="M40.464,34.804c-27.63,9.572-22.915,46.948-10.215,65.983c15.369,23.037,51.654,39.43,70.53,14.107
		c0.876,0.467,1.911,0.56,2.882-0.142C147.469,83.141,78.624,21.583,40.464,34.804z M81.168,101.533
		c-0.06-0.013-0.101-0.049-0.164-0.059c-6.914-1.044-14.587-0.714-21.527-0.136c-1.102,0.092-2.245,0.397-3.253,0.859
		c-13.344-9.019-17.748-20.996-8.073-35.681c1.5-2.277-0.97-4.19-3.04-3.593c-4.341-7.029-5.237-12.285,4.922-12.334
		c11.131-0.054,22.5,4.313,32.287,9.223c9.272,4.652,19.089,11.133,23.788,20.709c2.355,4.803,1.271,9.818-1.542,14.102
		C98.494,103.868,90.309,102.36,81.168,101.533z M99.77,109.711c-0.343,0.291-0.585,0.622-0.742,0.972
		c-23.504,20.483-52.955,5.735-67.494-18.688c-11.496-19.311-6.358-51.825,20.045-53.17c16.466-0.839,38.343,11.584,50.215,27.538
		c-5.259-4.614-11.559-8.302-16.831-11.069c-11.779-6.18-27.249-12.486-40.812-10.256c-12.79,2.103-7.655,14.434-2.06,21.142
		c-11.005,16.748-3.315,32.836,13.518,42.796c1.903,1.126,3.65-0.063,4.243-1.66c0.858-0.082,1.716-0.152,2.577-0.19
		c2.342-0.14,4.696-0.119,7.041-0.114c3.025,0.006,6.358-0.015,9.364,0.383c0.245,0.076,0.467,0.181,0.753,0.203
		c4.262,0.328,9.199,2.805,13.528,1.658c5.108-1.354,8.991-4.485,12.735-8.095c0.978-0.941,1.852-1.97,2.644-3.049
		C106.839,102.18,104.029,106.097,99.77,109.711z"/>
	<path d="M72.413,74.423c-1.991-6.546-9.58-10.601-16.171-8.707c-1.608,0.462-2.306,1.628-2.357,2.851
		c-5.047,3.765-8.699,10.352-5.711,16.386c2.978,6.014,14.057,8.174,19.493,4.781C72.657,86.621,74.031,79.742,72.413,74.423z
		 M64.115,83.54c-2.11,2.036-8.404-0.096-9.744-2.208c-1.34-2.114,1.232-6.16,3.096-9.007c3.333,0.314,6.75,0.221,8.105,3.984
		C66.455,78.757,66.013,81.708,64.115,83.54z"/>
</g>
<g>
</g>
<g>
</g>
<g>
</g>
<g>
</g>
<g>
</g>
<g>
</g>
<g>
</g>
<g>
</g>
<g>
</g>
<g>
</g>
<g>
</g>
<g>
</g>
<g>
</g>
<g>
</g>
<g>
</g>
</svg>
