<?xml version="1.0" encoding="iso-8859-1"?>
<!-- Generator: Adobe Illustrator 16.0.0, SVG Export Plug-In . SVG Version: 6.00 Build 0)  -->
<!DOCTYPE svg PUBLIC "-//W3C//DTD SVG 1.1//EN" "http://www.w3.org/Graphics/SVG/1.1/DTD/svg11.dtd">
<svg version="1.1" id="Capa_1" xmlns="http://www.w3.org/2000/svg" xmlns:xlink="http://www.w3.org/1999/xlink" x="0px" y="0px"
	 width="192.863px" height="192.863px" viewBox="0 0 192.863 192.863" style="enable-background:new 0 0 192.863 192.863;"
	 xml:space="preserve">
<g>
	<path d="M191.262,122.338c-17.173-13.109-42.416-11.968-62.168-5.346c0.278-2.257-1.511-3.776-3.746-3.432
		c-40.936,6.315-81.281,0.176-121.678-6.934c-2.201-0.387-4.106,1.286-3.582,3.582c2.053,8.99,5.781,16.794,14.332,20.112
		c4.935,10.486,39.073,11.539,48.255,12.497c13.617,1.419,41.477,5.022,56.384-2.964c1.345,1.159,3.478,1.341,4.465-0.694
		c1.664-3.428,2.664-6.943,3.434-10.526c21.145,2.048,42.564,5.034,63.491-0.062C193.613,127.8,193.433,123.996,191.262,122.338z
		 M119.818,132.046c-7.012,1.385-13.615,3.905-20.982,4.634c-10.758,1.064-21.674,0.67-32.437-0.05
		c-11.369-0.761-22.669-2.49-33.766-5.053c-4.871-1.125-12.615-5.819-17.515-4.057c-3.697-4.405-6.408-9.034-8.19-14.461
		c38.4,6.513,76.649,11.938,115.522,6.93C121.762,124.065,121.117,128.133,119.818,132.046z M176.014,124.036
		c0.777-0.325,1.476-0.767,1.991-1.419c0.768,0.29,1.535,0.585,2.278,0.924C178.863,123.745,177.438,123.885,176.014,124.036z"/>
	<path d="M131.336,156.034c-0.517-2.177-3.322-3.336-5.215-2.122c-4.517,2.897-9.385,5.042-14.167,7.364
		c1.067-3.471,2.037-6.979,3.289-10.467c0.931-2.592-1.809-4.437-4.055-4.053c-13.316,2.277-24.39,7.994-34.917,15.956
		c-1.73-3.053-3.951-5.784-5.605-9.028c-1.138-2.232-3.988-1.681-5.245,0c-2.415,3.231-5.379,5.55-7.89,8.429
		c-2.543-3.442-5.137-6.742-5.993-11.206c-0.429-2.235-3.485-2.809-4.963-1.311c-12.617,12.788-22.111,6.229-33.415-2.163
		c-2.006-1.488-5.114,0.982-4.256,3.272c2.946,7.866,6.436,15.354,12.07,21.649c1.367,1.526,4.117-0.55,2.863-2.209
		c-3.035-4.019-5.055-8.345-6.711-12.887c10.64,6.788,19.561,8.493,30.113-0.243c1.887,4.328,4.947,8.025,7.536,12.109
		c1.205,1.901,4.265,2.159,5.409,0c1.87-3.533,4.686-6.085,7.357-8.832c1.736,2.617,3.651,5.228,4.542,8.079
		c0.756,2.418,3.378,2.818,5.208,1.375c9.083-7.161,18.623-12.481,29.553-15.313c-1.552,4.39-2.97,8.832-5.03,12.996
		c-1.54,3.112,1.746,7.271,5.082,5.082c5.751-3.772,12.075-6.36,18.062-9.641c-0.041,2.725-0.462,5.425-0.641,8.195
		c-0.3,4.662,6.775,4.552,7.188,0C131.982,165.826,132.553,161.168,131.336,156.034z"/>
	<path d="M39.403,82.577c-6.122-3.617-13.469-6.788-20.66-7.025c-0.771-0.026-1.502,0.438-1.891,1.085
		c-2.503,4.167-5.308,8.5-5.807,13.431c-0.08,0.797,0.51,1.72,1.196,2.085c4.911,2.613,9.516,6.246,15.305,6.286
		c0.5,0.003,0.863-0.282,1.081-0.657c-0.28,1.897,0.279,3.197,2.441,3.121c1.108-0.039,1.916-0.933,2.013-1.903
		c0.045,0.309,0.121,0.17,0.763-1.124c0.722-1.458,1.527-2.866,2.345-4.271c1.437-2.469,2.878-4.96,4.131-7.529
		C40.934,84.819,40.669,83.325,39.403,82.577z M28.837,96.776c-0.069-0.46-0.364-0.859-0.937-0.946
		c-4.887-0.746-7.991-4.334-11.839-6.961c0.62-3.117,2.536-5.959,3.984-8.803c5.154,0.55,10.151,2.742,14.557,5.481
		C32.8,88.36,29.771,93.255,28.837,96.776z"/>
	<path d="M76.388,89.607c-6.473-2.952-13.394-6.883-20.668-7.092c-1.027-0.029-1.899,0.719-2.19,1.667
		c-1.779,5.796-2.788,12.708-0.902,18.579c0.544,1.693,3.067,1.004,2.662-0.733c-1.222-5.248,0.309-9.956,1.978-14.78
		c5.157,0.739,10.416,3.476,15.011,5.979c-0.635,3.186-2.071,6.256-2.983,9.42c-1.772-0.314-3.515-0.801-5.23-1.342
		c-0.854-0.269-1.695-0.585-2.541-0.878c-0.482-0.079-0.967-0.133-1.454-0.163c-0.108-0.01-0.139,0.004-0.219,0.003
		c-0.008-0.003-0.014-0.008-0.022-0.01c-0.06-0.017-0.12-0.034-0.18-0.051c-0.942-0.265-2.147,0.146-2.6,1.058
		c-2.971,5.979,11.45,7.623,14.518,7.615c1.664-0.005,2.904-1.348,2.966-2.966c0.184-4.772,2.925-9.266,3.129-14.086
		C77.697,91.003,77.164,89.96,76.388,89.607z"/>
	<path d="M119.322,78.215c-6.016-2.533-16.047-1.663-22.085,0.359c-1.457,0.488-2.343,1.898-1.947,3.431
		c1.338,5.183,1.25,10.358,3.144,15.465c0.447,1.205,1.896,1.169,2.442,0.363c4.819,3.76,14.431,2.596,19.993,2.335
		c1.46-0.069,2.453-0.904,2.948-2.245C125.645,92.979,124.873,80.553,119.322,78.215z M110.524,93.668
		c-2.949-0.179-6.909-0.904-9.023-0.662c-0.37,0.042-0.749,0.182-1.095,0.386c-0.494-3.231-0.558-6.598-0.005-9.775
		c4.553-0.942,9.294-0.976,13.902-0.539c3.092,0.294,2.877,0.927,3.599,3.859c0.491,1.995,1.065,4.749,0.734,7.04
		C115.933,93.887,113.228,93.833,110.524,93.668z"/>
	<path d="M44.559,45.204c-1.928-3-4.577-5.551-6.904-8.233c-3.37-3.884-4.09-7.077-4.294-12.053c-0.1-2.435-2.932-2.922-4.271-1.157
		c-4.101,5.407-0.76,12.448,2.882,17.122c2.088,2.678,4.426,5.161,6.325,7.981c2.536,3.767-0.029,5.701,0.394,9.509
		c0.199,1.791,1.744,3.49,3.725,2.838C49.282,58.951,47.609,49.949,44.559,45.204z"/>
	<path d="M79.631,50.492c-4.257-9.536-11.569-15.401-1.455-24.248c1.635-1.43-0.465-3.995-2.272-2.945
		c-7.002,4.067-10.579,9.983-8.071,18.005c1.124,3.596,3.353,6.836,5.018,10.19c2.626,5.29,0.446,7.778-2.199,12.359
		c-1.588,2.75,1.535,5.705,4.24,4.24C81.312,64.617,82.421,56.741,79.631,50.492z"/>
	<path d="M134.373,20.586c-0.848-2.183-4.328-3.376-5.569-0.728c-2.195,4.683-1.882,9.351-5.47,13.553
		c-3.108,3.639-7.425,6.095-11.303,8.805c-5.733,4.008-10.529,10.005-6.731,17.024c0.796,1.47,3.306,0.848,3.203-0.868
		c-0.55-9.145,8.612-11.771,15.016-16.259C129.658,37.811,137.514,28.679,134.373,20.586z"/>
</g>
<g>
</g>
<g>
</g>
<g>
</g>
<g>
</g>
<g>
</g>
<g>
</g>
<g>
</g>
<g>
</g>
<g>
</g>
<g>
</g>
<g>
</g>
<g>
</g>
<g>
</g>
<g>
</g>
<g>
</g>
</svg>
