<?xml version="1.0" encoding="iso-8859-1"?>
<!-- Generator: Adobe Illustrator 16.0.0, SVG Export Plug-In . SVG Version: 6.00 Build 0)  -->
<!DOCTYPE svg PUBLIC "-//W3C//DTD SVG 1.1//EN" "http://www.w3.org/Graphics/SVG/1.1/DTD/svg11.dtd">
<svg version="1.1" id="Capa_1" xmlns="http://www.w3.org/2000/svg" xmlns:xlink="http://www.w3.org/1999/xlink" x="0px" y="0px"
	 width="184.924px" height="184.924px" viewBox="0 0 184.924 184.924" style="enable-background:new 0 0 184.924 184.924;"
	 xml:space="preserve">
<g>
	<path d="M171.502,70.21C154.621,19.959,90.411-2.458,42.275,0.213c-0.686,0.038-1.163,0.363-1.471,0.797
		c-1.453,0.038-2.932,0.128-4.451,0.301c-1.566,0.179-2.427,1.358-2.615,2.587C2.028,21.935-0.321,78.177,0.81,109.419
		c1.057,29.212,10.928,81.774,50.94,74.89c1.685-0.291,3.292-0.697,4.863-1.154c0.946,0.518,2.157,0.816,3.18,0.902
		c11.734,0.971,27.817-9.006,38.303-13.406c24.472-10.268,57.677-28.344,64.892-56.448c0.04-0.013,0.076-0.005,0.117-0.022
		c9.791-4.091,18.054-11.707,20.658-22.252C186.305,81.636,179.92,74.264,171.502,70.21z M49.852,177.421
		c-35.969,8.453-41.563-51.86-42.15-74.101c-0.765-28.938,2.694-76.325,27.716-96.54c0.286,0.079,0.577,0.153,0.936,0.136
		C78.7,4.922,90.613,52.172,92.011,86.147C93.299,117.496,86.712,168.758,49.852,177.421z M163.841,110.172
		c0.181-1.121,0.332-2.254,0.429-3.406c0.128-1.529-2.292-2.209-2.938-0.797c-12.029,26.314-32.382,44.45-59.113,55.801
		c-2.091,0.888-15.259,5.648-26.907,10.074c20.235-20.572,24.031-60.584,23.078-85.698C97.338,58.448,86.972,17.885,60.231,5.054
		c18.896,1.93,37.337,6.769,54.596,15.081c23.236,11.19,37.188,28.347,49.695,49.27c-0.974,1.396-0.748,3.787,1.374,4.53
		c0.625,0.219,1.132,0.489,1.703,0.731c0.324,0.566,0.649,1.122,0.973,1.693c0.768,1.357,2.316,1.362,3.347,0.643
		C184.188,85.731,176.155,102.305,163.841,110.172z"/>
	<path d="M45.096,62.49c-0.564-0.613-1.865-0.368-2.001,0.528c-0.336,2.22,0.568,4.332,0.166,6.622
		c-0.511,2.913-2.616,5.129-5.291,6.219c-1.56,0.636-0.96,3.157,0.714,2.59c3.029-1.026,5.7-2.937,6.923-5.993
		C46.746,69.611,47.339,64.926,45.096,62.49z"/>
	<path d="M75.929,50.283c-0.98-1.54-3.16-1.553-4.137,0c-2.807,4.459-5.144,9.219-6.478,14.233c-0.425-0.692-1.314-1.082-2.15-0.572
		c0.034-0.088,0.09-0.167,0.12-0.258c0.313-0.967-0.684-1.873-1.616-1.616c-2.393,0.658-3.791,3.039-6.418,3.157
		c-2.492,0.112-4.586-2.822-5.866-4.557c-1.026-1.39-3.342-0.137-2.37,1.385c1.78,2.79,4.104,5.99,7.645,6.456
		c1.772,0.233,3.81-0.255,5.493-1.244c-3.257,4.521-5.535,10.894-3.131,15.489c-4.929,1.42-9.315,4.783-11.088,9.175
		c-0.791-1.726-1.67-3.411-2.666-5.051c-1.565-2.576-3.285-6.743-6.423-7.551c-1.399-0.36-2.574,0.896-2.263,2.263
		c0.544,2.392,2.936,3.907,4.517,5.692c2.492,2.813,4.296,6.547,5.606,10.03c0.124,0.33,0.332,0.552,0.566,0.727
		c0.206,1.23,0.594,2.496,1.24,3.79c0.962,1.927,3.448,0.75,3.646-0.987c0.426-3.74,0.272-7.586,2.825-10.623
		c1.701-2.023,4.02-3.48,6.419-4.702c0.509,0.394,1.06,0.768,1.704,1.095c1.258,0.639,3.306-0.441,2.659-2.045
		c-0.215-0.533-0.464-1.04-0.713-1.546c-0.038-0.279-0.144-0.544-0.353-0.74c-0.872-1.73-1.739-3.416-1.859-5.468
		c-0.217-3.722,1.659-7.072,3.93-9.876c-0.521,2.681-0.769,5.424-0.584,8.242c0.124,1.882,3.21,2.57,3.499,0.473
		c0.981-7.12,2.771-13.326,6.111-19.386c5.255,10.007,7.145,20.894,7.538,32.203c-6.546-0.784-10.344-4.115-13.979-10.153
		c-1.091-1.813-3.6-0.231-2.773,1.621c3.91,8.757,9.459,12.965,19.153,13.346c1.258,0.049,2.315-1.09,2.312-2.312
		C86.008,76.491,83.82,62.677,75.929,50.283z"/>
	<path d="M26.131,36.051c-1.354-1.058-3.272-0.771-3.835,1.012c-3.735,11.821-5.895,23.734-6.074,36.143
		c-0.021,1.469,1.538,2.78,2.993,2.28c5.575-1.914,12.637-3.737,15.048-9.664c0.757-1.861-1.952-3.156-3.221-1.875
		c-2.952,2.98-6.242,4.559-9.93,5.896c0.366-9.498,1.899-18.788,4.563-27.906c6.106,6.565,8.661,15.147,11.16,23.784
		c0.472,1.633,3.171,1.375,3.04-0.411C39.05,54.082,35.222,43.158,26.131,36.051z"/>
	<path d="M65.493,28.418c-4.144-10.735-17-13.37-27.166-13.08c-1.547,0.044-2.418,1.158-2.594,2.594
		c-1.785,14.534,5.977,26.356,13.153,38.259c1.021,1.694,3.297,0.214,2.572-1.503c-4.731-11.2-10.674-21.946-10.562-34.263
		c7.585-0.132,15.394,1.73,19.713,8.552C66,37.491,58.244,46.21,52.304,51.649c-2.504,2.293,1.098,5.613,3.634,3.634
		C63.999,48.991,69.398,38.535,65.493,28.418z"/>
	<path d="M36.553,94.432c-4.126,17.639-1.475,36.203-7.087,53.446c-13.713-15.306-13.469-47.506,5.738-57.467
		c1.665-0.863,0.504-3.493-1.26-2.989c-26.705,7.633-23.225,51.605-5.191,66.424c1.448,1.19,3.295,0.703,3.965-1.047
		c7.11-18.574,4.561-38.074,7.383-57.39C40.434,93.131,37.106,92.068,36.553,94.432z"/>
	<path d="M57.346,94.752c-2.834-1.479-5.344,2.805-2.505,4.286c0.283,0.147,0.539,0.315,0.814,0.468
		c-14.372,14.213-15.471,47.381-12.042,65.227c0.285,1.486,1.984,2.211,3.33,1.892C80.103,158.73,88.543,111.032,57.346,94.752z
		 M48.415,160.592c-2.925-20.097,2.193-40.941,9.985-59.38C80.624,116.541,73.823,152.35,48.415,160.592z"/>
	<path d="M110.198,32.92c-1.886-2.228-5.042-5.426-8.334-4.741c-3.365,0.7-3.635,4.759-3.51,7.521c0.069,1.515,2.228,1.494,2.336,0
		c0.078-1.089,0.178-4.657,1.825-4.79c2.075-0.167,4.644,2.455,6.072,3.621C109.723,35.457,111.155,34.051,110.198,32.92z"/>
	<path d="M112.329,50.48c-1.046,0.874-2.081,1.033-3.384,0.706c-2.488-0.625-4.68-2.271-2.634-4.749
		c0.991-1.199-0.578-2.855-1.734-1.734c-1.274,1.236-2.166,2.679-1.986,4.512c0.187,1.905,1.467,3.462,3.159,4.217
		c3.074,1.37,6.154,1.71,8.604-0.927C115.626,51.132,113.729,49.31,112.329,50.48z"/>
	<path d="M132.443,44.789c-1.486-3.401-3.542-7.715-7.236-9.214c-3.134-1.272-5.578,0.82-7.255,3.306
		c-1.112,1.651,1.48,3.068,2.622,1.533c1.475-1.981,2.814-2.536,4.662-0.745c1.883,1.826,3.222,4.442,4.536,6.681
		C130.807,48.115,133.223,46.572,132.443,44.789z"/>
	<path d="M129.745,121.195c-1.393,1.279-2.562,2.705-3.65,4.246c-1.028,1.455-1.984,1.711-3.714,1.306
		c-0.328-0.077-0.656-0.255-0.979-0.458c0.314-0.207,0.639-0.395,0.91-0.684c1.131-1.205-0.418-3.465-1.84-2.385
		c-1.09,0.83-2.633,0.401-3.619,1.393c-1.835,1.844,0.977,3.85,2.277,4.796c2.304,1.678,5.418,2.213,7.995,0.813
		c2.422-1.315,3.629-4.295,5.347-6.302C134.075,122.045,131.595,119.499,129.745,121.195z"/>
	<path d="M129.841,103.581c-1.845-1.269-3.705-2.815-6.047-2.959c-2.61-0.159-4.664,1.546-6.385,3.31
		c-1.208,1.237-2.363,3.146-0.964,4.668c1.009,1.096,2.854,0.559,4.025,1.451c1.402,1.068,3.021-1.197,1.84-2.386
		c-0.571-0.574-1.245-0.933-1.964-1.224c0.095-0.094,0.187-0.194,0.279-0.289c1.1-1.127,2.285-1.994,3.891-1.596
		c1.438,0.357,2.844,1.09,4.244,1.586C130.345,106.705,131.077,104.432,129.841,103.581z"/>
	<path d="M150.461,111.279c-2.959,1.238-6.485,2.992-9.731,2.098c-0.088-1.984-0.084-3.992,1.281-5.579
		c1.214-1.411-0.715-3.409-2.065-2.065c-2.477,2.471-2.599,5.606-2.723,8.93c-0.021,0.562,0.341,1.305,0.882,1.538
		c4.934,2.122,9.117,0.3,13.48-2.251C152.973,113.137,152.021,110.628,150.461,111.279z"/>
</g>
<g>
</g>
<g>
</g>
<g>
</g>
<g>
</g>
<g>
</g>
<g>
</g>
<g>
</g>
<g>
</g>
<g>
</g>
<g>
</g>
<g>
</g>
<g>
</g>
<g>
</g>
<g>
</g>
<g>
</g>
</svg>
