<?xml version="1.0" encoding="iso-8859-1"?>
<!-- Generator: Adobe Illustrator 16.0.0, SVG Export Plug-In . SVG Version: 6.00 Build 0)  -->
<!DOCTYPE svg PUBLIC "-//W3C//DTD SVG 1.1//EN" "http://www.w3.org/Graphics/SVG/1.1/DTD/svg11.dtd">
<svg version="1.1" id="Capa_1" xmlns="http://www.w3.org/2000/svg" xmlns:xlink="http://www.w3.org/1999/xlink" x="0px" y="0px"
	 width="195.419px" height="195.419px" viewBox="0 0 195.419 195.419" style="enable-background:new 0 0 195.419 195.419;"
	 xml:space="preserve">
<g>
	<path d="M46.158,77.032c-0.152,0-0.152,0.235,0,0.235C46.31,77.267,46.31,77.032,46.158,77.032z"/>
	<path d="M144.679,80.175c-0.259-0.706-0.568-1.371-0.905-2.012c0.938-0.592,1.639-1.558,1.649-3.003
		c0.128-16.435,4.628-37.729-2.324-53.346c-6.52-14.645-22.093-17.592-36.622-19.28C86.487,0.212,67.657-5.239,55.24,13.823
		c-8.88,13.632-2.372,40.537,1.339,55.496c-3.283,1.504-3.072,5.856-0.754,7.5c-7.607,28.272-7.372,57.03-5.21,86.124
		c0.995,13.405,0.404,24.004,14.727,28.854c16.609,5.626,36.356,3.521,53.321,1.489c11.916-1.426,20.583-3.146,24.922-14.89
		c5.896-15.955,5.542-35.333,5.713-52.053C149.45,111.561,149.865,94.299,144.679,80.175z M109.819,9.88
		c14.671,1.981,26.733,7.311,28.57,23.202c1.46,12.637-0.146,25.858-0.482,38.637c-7.078-4.907-17.479-6.231-25.178-7.187
		c-14.737-1.83-31.658-1.517-46.74,2.033c-3.555-1.918-3.525-3.657-4.588-10.156c-1.512-9.242-2.263-18.56-2.309-27.919
		C58.944-1.715,90.544,7.277,109.819,9.88z M138.104,166.36c-2.516,15.282-8.021,17.587-23.032,19.53
		c-13.397,1.735-27.241,2.476-40.594,0.238c-8.702-1.457-14.654-3.44-15.631-12.95c-0.853-8.312-1.117-16.773-1.589-25.115
		c-1.33-23.479-0.891-47.628,2.347-70.958c16.745-5.334,71.824-14.201,78.34,8.386C144.982,109.89,142.166,141.688,138.104,166.36z"
		/>
	<path d="M134.605,32.587c-0.492-2.944-5.285-2.863-5.844,0c-0.955,4.889-1.924,9.779-3.242,14.587
		c-0.407,1.485-0.042,3.457,1.188,4.494c0.144,0.122,0.263,0.255,0.39,0.393c0.867,0.941,2.457,1.379,3.678,0.972
		c0.327-0.109,2.188-0.8,0.426-0.177c2.069-0.731,3.232-2.265,3.391-4.454C134.964,43.257,135.459,37.696,134.605,32.587z"/>
	<path d="M136.478,131.519c-0.647-3.094-0.559-6.468-0.775-9.617c-0.252-3.652-0.836-7.303-1.252-10.939
		c-0.408-3.557-5.123-3.557-5.531,0c-0.361,3.151-0.727,6.3-1.126,9.446c-0.465,3.661-0.146,7.492-0.903,11.11
		C125.211,139.539,138.157,139.539,136.478,131.519z"/>
</g>
<g>
</g>
<g>
</g>
<g>
</g>
<g>
</g>
<g>
</g>
<g>
</g>
<g>
</g>
<g>
</g>
<g>
</g>
<g>
</g>
<g>
</g>
<g>
</g>
<g>
</g>
<g>
</g>
<g>
</g>
</svg>
