<?xml version="1.0" encoding="iso-8859-1"?>
<!-- Generator: Adobe Illustrator 16.0.0, SVG Export Plug-In . SVG Version: 6.00 Build 0)  -->
<!DOCTYPE svg PUBLIC "-//W3C//DTD SVG 1.1//EN" "http://www.w3.org/Graphics/SVG/1.1/DTD/svg11.dtd">
<svg version="1.1" id="Capa_1" xmlns="http://www.w3.org/2000/svg" xmlns:xlink="http://www.w3.org/1999/xlink" x="0px" y="0px"
	 width="197.051px" height="197.051px" viewBox="0 0 197.051 197.051" style="enable-background:new 0 0 197.051 197.051;"
	 xml:space="preserve">
<g>
	<path d="M17.257,117.73c-0.281,0-0.281,0.436,0,0.436C17.538,118.166,17.538,117.73,17.257,117.73z"/>
	<path d="M4.614,124.145c-0.161,0-0.161,0.248,0,0.248S4.775,124.145,4.614,124.145z"/>
	<path d="M195.928,136.864c0.019-3.456-5.241-5.352-7.062-1.87c-0.309,0.59-0.661,1.137-1.005,1.69
		c-0.153-0.126-0.253-0.274-0.443-0.383c-14.895-8.432-31.34-12.672-48.297-13.967c4.151-4.54,7.849-9.509,11.342-14.55
		c8.205-11.841,14.176-26.733,10.851-41.2c-0.288-1.252-1.6-2.237-2.877-2.191c-27.937,1.018-50.698,31.13-51.144,57.769
		c-0.06,3.512,5.043,3.378,5.36,0c1.275-13.573,7.988-25.22,16.791-35.313c4.697-5.385,29.322-25.576,26.118-7.164
		c-3.598,20.683-22.784,37.438-37.884,50.183c-1.385,1.169-1.438,3.369-0.626,4.849c-0.349-0.633,1.266,5.604,2.438,9.866
		c-5.497-1.35-11.225-1.818-16.76-3.12c-5.286-1.244-10.495-3.015-15.658-4.733c4.268-4.707,9.973-6.735,16.578-7.579
		c3.501-0.448,3.634-5.249,0-5.549c-9.825-0.809-18.951,5.685-22.982,14.301c-0.825,1.764,0.604,3.304,2.059,3.288
		c0.157,0.122,0.278,0.265,0.48,0.357c11.081,5.096,25.606,11.292,37.979,8.363c0.339-0.08,0.621-0.223,0.864-0.399
		c1.406,0.318,3.09-0.767,2.696-2.653c-2.347-11.282,2.032-12.844,9.283-19.407c0.624-0.564,1.189-1.187,1.792-1.772
		c0.241,0.28,0.547,0.513,0.986,0.603c14.886,3.04,29.29,6.743,42.956,13.241c-25.393,6.096-49.558,12.365-76.639,13.084
		c-31.279,0.828-63.091-4.255-90.901-18.861c0.064-0.35,0.114-0.702,0.155-1.048c0.048-0.407-0.021-0.795-0.15-1.163
		c14.458-5.259,28.984-7.946,44.717-9.27c14.793-1.242,30.678,1.163,45.05-2.665c1.645-0.438,1.632-2.86,0-3.306
		c-29.213-7.97-72.358-2.513-98.833,13.106c-0.773-0.386-1.926,0.144-2.03,1.189c-0.001,0.006,0,0.011-0.001,0.018
		c-1.602,1.102-1.343,2.904-0.23,3.869c-0.894,41.211,52.136,52.63,85.034,53.644c34.888,1.075,92.6-8.646,108.25-45.822
		c0.493-0.283,1.016-0.539,1.499-0.83C197.622,140.301,197.309,137.986,195.928,136.864z M92.924,178.912
		c-31.958,0.589-74.719-8.687-87.048-41.752c0.834,0.282,1.715,0.437,2.692,0.303c-0.582,0.151-0.364,0.135,0.651-0.046
		c0.126-0.034,0.218-0.108,0.332-0.155c23.242,18.136,54.893,22.062,83.568,22.854c25.629,0.708,58.743-0.958,85.187-10.52
		C157.33,171.667,122.51,178.366,92.924,178.912z"/>
	<path d="M83.1,128.698c-17.568-6.068-38.277,1.493-55.912,3.914c-2.536,0.348-1.939,4.697,0.605,4.469
		c8.613-0.775,17.064-2.333,25.586-3.769c10.063-1.696,19.132-1.208,29.2-0.758C84.896,132.659,85.108,129.39,83.1,128.698z"/>
	<path d="M135.257,134.824c-2.693,0.091-2.692,4.082,0,4.176c3.406,0.119,6.796,0.247,10.141,0.954c1.784,0.377,3.54,1,5.158,1.833
		c1.374,0.708,2.03,1.524,3.665,1.334c1.098-0.128,1.97-0.812,1.995-1.995C156.377,133.438,139.905,134.667,135.257,134.824z"/>
	<path d="M39.032,96.429c-6.766-2.491-9.29-8.543-12.109-14.682c-3.076-6.699-7.126-13.019-14.091-16.151
		c-5.951-2.676-11.18,5.67-5.219,8.929c12.786,6.99,13.294,27.656,30.715,27.106C41.428,101.536,41.792,97.446,39.032,96.429z"/>
	<path d="M75.376,98.992C62.793,93.409,61.231,86.78,64.089,74.549c1.615-6.909,1.077-12.842-1.357-19.464
		c-4.768-12.973-18.306-31.15-30.96-37.267c-2.804-1.356-6.412,0.856-5.448,4.188c2.345,8.108,9.789,13.571,15.283,19.705
		c9.721,10.854,14.64,21.515,11.935,35.93c-2.917,15.545,5.405,22.494,19.962,25.794C76.067,104.016,78,100.156,75.376,98.992z"/>
	<path d="M94.778,12.592c-0.166-3.67-5.076-5.249-7.028-1.904c-8.545,14.648,6.182,23.294,13.946,33.824
		c8.268,11.212-1.036,19.213-6.973,27.905c-3.984,5.833-3.646,12.34-2.057,18.843c0.707,2.892,5.33,2.295,5.204-0.704
		c-0.693-16.396,17.729-22.372,16.791-39.559C113.774,34.719,95.515,28.947,94.778,12.592z"/>
</g>
<g>
</g>
<g>
</g>
<g>
</g>
<g>
</g>
<g>
</g>
<g>
</g>
<g>
</g>
<g>
</g>
<g>
</g>
<g>
</g>
<g>
</g>
<g>
</g>
<g>
</g>
<g>
</g>
<g>
</g>
</svg>
