<?xml version="1.0" encoding="iso-8859-1"?>
<!-- Generator: Adobe Illustrator 16.0.0, SVG Export Plug-In . SVG Version: 6.00 Build 0)  -->
<!DOCTYPE svg PUBLIC "-//W3C//DTD SVG 1.1//EN" "http://www.w3.org/Graphics/SVG/1.1/DTD/svg11.dtd">
<svg version="1.1" id="Capa_1" xmlns="http://www.w3.org/2000/svg" xmlns:xlink="http://www.w3.org/1999/xlink" x="0px" y="0px"
	 width="183.173px" height="183.172px" viewBox="0 0 183.173 183.172" style="enable-background:new 0 0 183.173 183.172;"
	 xml:space="preserve">
<g>
	<path d="M119.006,70.87c-8.507-5.386-16.32-10.534-23.104-18.021C84.617,40.392,75.103,26.854,61.23,17
		C41.942,3.3-4.303,13.904,7.998,44.302c0.045,0.11,0.119,0.188,0.175,0.286c-0.908,1.328-1.718,2.767-2.419,4.267
		c-9.388,11.34-5.516,31.281-0.835,43.573c7.166,18.816,21.613,34.385,36.939,46.951c27.36,22.433,73.901,44.389,108.479,25.571
		c0.854-0.464,1.303-1.105,1.482-1.787c0.103-0.048,0.197-0.046,0.301-0.105c6.043-3.458,9.509-7.437,10.527-11.47
		c0.517,0.057,1.087-0.01,1.712-0.262C218.804,129.387,139.85,84.068,119.006,70.87z M149.042,157.792
		c-0.581,0.445-0.9,0.997-1.101,1.57c-0.254,0.051-0.503,0.065-0.765,0.184c-33.828,15.267-73.613-4.02-100.28-25.208
		C33.44,123.647,22.004,110.356,14.11,95.075c-4.122-7.979-6.411-16.939-6.98-25.871C6.799,64.01,7.941,59.033,8.648,54.012
		c0.624-1.394,1.338-2.755,2.213-4.058c10.042-16.659,21.792,1.929,23.352,8.472c1.673,7.015,1.023,14.019,3.586,20.858
		c4.818,12.853,18.278,25.395,28.542,33.816c12.444,10.21,25.445,15.301,41.167,18.099
		C116.463,132.792,172.17,140.066,149.042,157.792z M151.676,135.174c-10.061-5.354-21.796-7.595-32.906-9.394
		c-19.632-3.179-35.082-7.55-50.847-20.438c-12.476-10.2-24.03-24.146-26.159-40.354c-1.426-10.852-3.329-17.34-12.092-24.241
		c-2.169-1.708-4.249-2.759-6.232-3.312c0.981-5.591,4.953-8.764,10.844-7.831C40.572,30.6,45.02,35.58,47.636,41.049
		c-1.684,3.548-3.069,7.819-1.083,11.53c2.095,3.914,6.253,7.086,10.255,8.846c0.023,0.01,0.045,0.009,0.069,0.018
		c-2.756,3.116-6.303,7.755-3.972,11.806c2.58,4.483,8.102,3.843,12.534,2.572c4.463,8.637,12.084,17.307,21.266,21.094
		c2.283,3.631,5.645,7,8.933,9.645c2.603,2.093,5.532,3.91,8.819,4.677c3.885,0.907,7.68-0.25,10.128-3.027
		c9.201,5.776,20.536,7.963,30.569,11.882c5.812,2.27,11.785,4.818,16.2,9.362c4.046,4.163,2.066,8.814-0.975,12.644
		C158.495,139.618,155.61,137.267,151.676,135.174z M75.096,68.533c5.147,5.277,11.178,11.328,17.35,15.534
		c0.077,0.624,0.441,1.203,1.157,1.375c5.743,1.381,11.726,4.168,15.589,8.779c1.274,1.521,1.978,3.109,2.413,4.997
		c0.323,1.404,0.27,2.668-0.263,4.194c-0.007,0.018-0.004,0.011-0.01,0.025c-0.086,0.185-0.182,0.364-0.281,0.541
		c-0.325,0.585-0.213,0.375-0.327,0.513c-0.601,0.721-0.449,0.608-1.509,1.121c0.604-0.292-0.432,0.114-0.616,0.161
		c-0.773,0.196,0.142,0.046-0.681,0.092c-1.276,0.071-1.428,0.001-2.526-0.281c-6.494-1.673-10.488-8.099-14.872-12.759
		c-1.09-1.158-2.564-0.987-3.567-0.191c-7.919-5.042-15.139-10.687-17.92-20.393c-0.389-1.359-1.674-1.931-2.988-1.697
		c-0.844,0.151-8.512,2.123-7.921-0.881c0.47-2.389,1.91-4.579,3.182-6.602c1.062-1.69-0.695-3.537-2.312-3.288
		c-0.058-0.242-0.156-0.486-0.354-0.721c-2.097-2.494-4.975-4.22-6.879-6.874c-1.879-2.619-1.203-5.242,0.195-7.739
		c5.572-0.653,9.147,1.423,13.097,5.13c0.003,0.022-0.004,0.039-0.001,0.061C66.302,57.23,69.768,63.071,75.096,68.533z
		 M168.835,140.597c9.193-21.448-35.539-32.026-51.825-37.508c0.707-4.036-0.785-8.39-3.193-11.592
		c-4.676-6.217-11.749-8.517-19.202-9.275c-2.194-5.538-7.417-9.919-11.701-13.799C76.729,62.823,71.15,56.721,68.33,48.726
		c-0.168-0.477-0.456-0.783-0.784-0.974c-1.423-3.095-3.328-5.851-6.361-7.616c-1.978-1.151-4.195-1.471-6.442-1.53
		c-0.532-0.014-1.248-0.02-2.013,0.015c-2.8-8.808-10.431-14.826-19.599-15.868c-8.865-1.008-14.112,6.345-14.225,14.301
		c-2.235,0.264-4.286,1.206-6.133,2.598c2.639-17.2,19.087-25.595,36.091-20.812c13.576,3.819,23.993,17.686,32.59,28.025
		c9.946,11.961,18.737,20.676,31.704,29.057c15.509,10.025,31.368,19.616,45.653,31.381
		C171.275,117.57,182.541,131.172,168.835,140.597z"/>
</g>
<g>
</g>
<g>
</g>
<g>
</g>
<g>
</g>
<g>
</g>
<g>
</g>
<g>
</g>
<g>
</g>
<g>
</g>
<g>
</g>
<g>
</g>
<g>
</g>
<g>
</g>
<g>
</g>
<g>
</g>
</svg>
