<?xml version="1.0" encoding="iso-8859-1"?>
<!-- Generator: Adobe Illustrator 16.0.0, SVG Export Plug-In . SVG Version: 6.00 Build 0)  -->
<!DOCTYPE svg PUBLIC "-//W3C//DTD SVG 1.1//EN" "http://www.w3.org/Graphics/SVG/1.1/DTD/svg11.dtd">
<svg version="1.1" id="Capa_1" xmlns="http://www.w3.org/2000/svg" xmlns:xlink="http://www.w3.org/1999/xlink" x="0px" y="0px"
	 width="189.324px" height="189.324px" viewBox="0 0 189.324 189.324" style="enable-background:new 0 0 189.324 189.324;"
	 xml:space="preserve">
<g>
	<path d="M180.612,92.478c-0.182,0.278-0.385,0.528-0.568,0.803c0.155-1.017,0.049-2.07-0.438-2.942
		c-5.15-9.224-23.717-10.852-32.85-12.45c-5.722-1.001-11.486-1.756-17.273-2.354c7.004-7.726,18.857-14.851,23.102-20.569
		c11.644-15.691,4.979-36.226-10.402-46.876c-3.918-2.712-8.288,2.457-6.207,6.208c5.227,9.424,14.176,17.304,10.564,29.024
		c-2.438,7.917-10.842,14.017-16.757,19.283c-4.011,3.57-7.929,7.602-10.327,12.056c-10.013-0.7-20.061-0.956-30.056-0.971
		c-0.667-0.001-1.336,0.024-2.004,0.027c-0.675-11.705,6.645-25.675,7.485-36.993C95.99,21.775,86.948,6.088,70.484,5.927
		c-3.176-0.031-5.323,4.327-2.716,6.558c8.139,6.968,16.702,9.162,16.772,21.664c0.053,9.435-3.866,18.771-5.472,27.99
		c-0.731,4.195-0.864,8.131-0.335,11.726c-9.386,0.302-18.777,1.012-28.099,2.192c-6.026-8.586-10.265-19.083-14.826-28.017
		c-4.814-9.429-17.053-28.758-30.039-19.342c-2.645,1.918-2.685,6.408,0.957,7.324c7.51,1.889,11.185,2.942,15.752,9.797
		c5.113,7.675,8.707,16.393,13.155,24.458c1.393,2.526,2.903,4.992,4.527,7.354c-2.345,0.396-4.703,0.726-7.033,1.191
		c-9.129,1.82-25.211,5.393-29.557,15.099c-2.324-0.094-4.617,2.385-3.059,4.808c0.697,1.083,1.481,2.11,2.239,3.155
		c-3.52,54.251,47.553,83.396,98.328,81.418c24.47-0.953,49.452-9.147,67.817-25.662c13.57-12.201,24.465-37.196,17.098-55.604
		c0.963-1.565,1.898-3.15,2.74-4.811C191.48,91.812,183.935,87.388,180.612,92.478z M175.917,127.693
		c-2.338,9.812-8.672,17.942-15.971,24.611c-15.585,14.241-38.354,19.974-58.867,21.323c-45.848,3.017-83.172-20.814-91.685-63.816
		c39.082,40.49,127.69,45.284,167.353,4.134C177.02,118.408,177.057,122.898,175.917,127.693z M176.439,98.182
		c-39.043,50.007-123.073,39.049-166.988,0.167c13.035-5.33,25.768-8.857,38.83-11.072c6.525,6.159,14.526,10.271,24.442,10.389
		c3.116,0.037,3.922-4.94,0.748-5.529c-5.499-1.022-10.068-3.311-13.989-6.418c7.607-0.863,15.386-1.343,23.443-1.532
		c2.628,3.412,6.471,6.113,11.713,7.911c2.017,0.692,2.977-2.187,1.378-3.269c-2.121-1.435-3.741-3.026-5.015-4.721
		c8.738,0,17.494,0.289,26.222,0.914c0.262,2.183,0.982,4.438,2.328,6.772c1.558,2.704,6.276,0.882,5.145-2.169
		c-0.492-1.327-0.592-2.648-0.492-3.965c6.607,0.616,13.2,1.369,19.743,2.422c10.828,1.744,21.321,7.859,31.771,9.034
		c0.504,0.057,0.949-0.03,1.371-0.162C176.807,97.309,176.594,97.724,176.439,98.182z"/>
	<path d="M163.092,103.109c-18.776-4.777-42.515-3.733-61.325,0.819c-0.479-0.565-1.187-0.938-2.177-0.862
		c-24.981,1.907-48.217,4.961-73.306,0.873c-2.731-0.445-3.955,3.641-1.162,4.215c23.043,4.734,52.537,8.399,75.26,0.766
		c0.537-0.18,0.932-0.514,1.26-0.896c0.234,0.042,0.476,0.071,0.742,0.034c10.914-1.523,21.645-0.604,32.578,0.09
		c9.222,0.585,19.03,2.854,28.131,0.837C166.064,108.326,165.951,103.835,163.092,103.109z"/>
</g>
<g>
</g>
<g>
</g>
<g>
</g>
<g>
</g>
<g>
</g>
<g>
</g>
<g>
</g>
<g>
</g>
<g>
</g>
<g>
</g>
<g>
</g>
<g>
</g>
<g>
</g>
<g>
</g>
<g>
</g>
</svg>
