<?xml version="1.0" encoding="iso-8859-1"?>
<!-- Generator: Adobe Illustrator 16.0.0, SVG Export Plug-In . SVG Version: 6.00 Build 0)  -->
<!DOCTYPE svg PUBLIC "-//W3C//DTD SVG 1.1//EN" "http://www.w3.org/Graphics/SVG/1.1/DTD/svg11.dtd">
<svg version="1.1" id="Capa_1" xmlns="http://www.w3.org/2000/svg" xmlns:xlink="http://www.w3.org/1999/xlink" x="0px" y="0px"
	 width="193.573px" height="193.573px" viewBox="0 0 193.573 193.573" style="enable-background:new 0 0 193.573 193.573;"
	 xml:space="preserve">
<g>
	<path d="M192.829,104.677c-1.443-10.455-5.298-24.356-15.138-30.034c-7.602-4.387-13.066-0.285-16.749,5.683
		c-0.093-2.871-0.378-5.654-0.901-8.303c-0.788-3.983-5.209-4.333-7.828-2.289c-1.476-1.105-3.161-2.037-4.703-2.968
		c-4.235-2.557-8.854-4.513-13.614-5.842c-0.017-0.005-0.031,0.001-0.049-0.003c-1.404-9.21-5.603-18.266-10.888-24.613
		c-3.796-4.559-8.566-8.081-13.814-10.831c-0.774-0.986-1.674-1.928-2.839-2.774c-4.342-3.151-10.77-2.838-15.782-4.039
		c-1.07-0.256-2.035-0.206-2.904,0.029c-3.558-0.545-7.109-0.91-10.553-1.025c-19.78-0.66-35.973,7.166-44.585,19.605
		c-3.198,1.401-6.247,2.985-8.612,5.746c-3.7,4.319-3.944,9.842-2.476,15.026c-1.893,0.551-3.698,1.262-5.173,1.931
		c-3.904,1.769-7.348,4.433-8.685,8.639c-0.041,0.13-0.018,0.241-0.043,0.367c-1.99,0.116-3.421,2.01-3.629,4.021
		C2.13,72.505,0.03,73.396,0.005,75.79c-0.512,49.913,40.235,108.237,96.239,99.225c21.933-3.528,37.13-17.749,47.934-36.494
		c0.162-0.281,0.323-0.589,0.485-0.875c0.045,0.062,0.069,0.143,0.118,0.202c8.588,10.867,29.949,12.345,39.939,2.998
		C194.101,132.07,194.452,116.436,192.829,104.677z M134.341,67.108c2.927,1.459,5.732,3.104,8.391,5.056
		c1.055,0.774,2.017,1.729,2.979,2.68c-4.714,3.229-9.783,5.827-15.145,7.833C133.261,78.014,134.373,72.635,134.341,67.108z
		 M33.903,60.352c5.202-5.479,14.296-16.126,9.549-21.595c7.45-7.412,18.912-11.658,33.613-11.622
		c2.38,0.006,4.763,0.209,7.138,0.505c0.667,0.998,1.714,1.798,3.248,2.159c0.167,0.039,0.337,0.062,0.504,0.098
		c0.006,0.394,0.06,0.777,0.171,1.122c2.312,7.181,10.012,10.915,16.558,13.34c2.66,0.985,6.402-1.078,6.885-3.909
		c0.078-0.459,0.13-0.909,0.192-1.364c0.926,0.758,1.859,1.507,2.727,2.337c7.247,6.949,8.603,14.237,8.477,21.959
		c-0.008-0.013-0.014-0.026-0.022-0.039c-1.697-2.634-5.895-3.713-8.173-1.053c-3.131,3.654-5.247,7.653-4.963,12.579
		c0.233,4.042,2.105,7.733,2.756,11.688c0.042,0.257,0.157,0.429,0.235,0.645c-24.674,3.763-52.587-1.111-76.922-8.466
		C34.037,72.115,33.456,65.97,33.903,60.352z M20.433,66.739c1.785-0.667,3.831-0.867,5.808-1.196
		c0.578,3.633,1.589,7.359,3.167,11.159c-5.56-1.823-10.788-3.758-15.793-5.71C15.049,68.794,18.095,67.613,20.433,66.739z
		 M140.435,117.88c-5.796,17.35-16.232,33.252-32.478,42.196c-21.488,11.83-50.927,0.505-68.133-13.677
		C19.859,129.944,8.45,102.589,6.244,77.23C41.879,96.75,108.865,112.87,146.669,87.977
		C144.885,97.958,143.677,108.177,140.435,117.88z M177.774,132.822c-8.113,8.911-20.35-1.051-29.327-2.442
		c5.068-10.526,9.467-23.178,11.424-35.439c7.32,3.708,13.266,9.38,10.657,18.263c-1.624,5.53-8.537,10.338-14.315,7.638
		c-2.205-1.031-3.741,1.757-1.869,3.198c3.806,2.931,6.754,4.279,11.889,2.988c4.98-1.252,9.021-5.362,11.379-9.748
		c6.693-12.455-3.234-24.457-14.123-29.715c3.141-4.076,7.13-7.467,10.485-4.288c5.964,5.652,7.984,15.973,8.869,23.736
		C183.787,115.291,183.757,126.251,177.774,132.822z"/>
	<path d="M76.358,72.079c-0.821-4.357-1.518-8.741-3.282-12.834c-1.659-3.849-4.313-7.174-6.772-10.534
		c-1.996-2.727-6.885-3.738-8.648,0c-0.807,1.712-1.462,3.442-1.862,5.193c-0.82,0.45-1.437,1.239-1.375,2.245
		c0.315,5.123-0.154,9.869,1.907,14.708c2.533,5.949,9.844,7.045,15.476,7.204C75.074,78.153,76.907,74.992,76.358,72.079z"/>
	<path d="M98.587,60.623c-0.224-1.589-1.283-2.678-2.607-3.296c0.878-2.077-1.021-4.946-3.346-3.342
		c-1.817,1.253-3.853,1.492-5.732,2.931c-3.834,2.937-5.022,6.829-5.59,11.509c-0.363,2.998,2.661,5.001,5.221,5.221
		c0.809,0.069,1.643,0.015,2.455,0.018c2.54,0.01,4.076-1.819,5.507-3.613C96.74,67.236,99.124,64.434,98.587,60.623z"/>
</g>
<g>
</g>
<g>
</g>
<g>
</g>
<g>
</g>
<g>
</g>
<g>
</g>
<g>
</g>
<g>
</g>
<g>
</g>
<g>
</g>
<g>
</g>
<g>
</g>
<g>
</g>
<g>
</g>
<g>
</g>
</svg>
