<?xml version="1.0" encoding="iso-8859-1"?>
<!-- Generator: Adobe Illustrator 16.0.0, SVG Export Plug-In . SVG Version: 6.00 Build 0)  -->
<!DOCTYPE svg PUBLIC "-//W3C//DTD SVG 1.1//EN" "http://www.w3.org/Graphics/SVG/1.1/DTD/svg11.dtd">
<svg version="1.1" id="Capa_1" xmlns="http://www.w3.org/2000/svg" xmlns:xlink="http://www.w3.org/1999/xlink" x="0px" y="0px"
	 width="191.051px" height="191.051px" viewBox="0 0 191.051 191.051" style="enable-background:new 0 0 191.051 191.051;"
	 xml:space="preserve">
<g>
	<path d="M175.775,11.496c0.062-3.4-1.575-7.023-4.786-8.243c-1.352-0.514-2.854-0.548-4.282-0.668
		c-1.458-0.123-2.758-0.79-4.235-1.273c-2.087-0.682-3.645,1.222-3.488,3.039c-7.26,8.261-12.128,18.631-17.233,28.705
		c-0.354-0.358-0.769-0.664-1.319-0.824c-15.625-4.514-29.47,3.864-35.929,16.279c-10.09-13.645-29.426-14.379-43.5-7.346
		c-9.986-9.466-24.538-9.628-35.826-1.756c-10.187,7.104-14.669,21.107-5.508,30.893c0.009,0.009,0.018,0.011,0.027,0.02
		c-1.032-0.145-2.148,0.302-2.399,1.51c-7.02,33.766,29.367,56.474,59.406,55.204c0.761-0.031,1.326-0.337,1.774-0.741
		c-0.32,11.253,1.668,23.313-7.537,31.47c-6.718,5.953-14.391,9.251-18.534,17.278c-0.63,0.631-1.016,1.539-1.058,2.508
		c-0.134,0.761,0.037,1.417,0.443,1.94c0.242,0.458,0.553,0.884,1.022,1.202c20.569,13.974,57.708,12.026,80.399,4.618
		c2.283-0.745,3.055-2.715,2.731-4.492c1.903-0.219,3.659-2.526,2.501-4.57c-4.937-8.723-11.531-16.166-20.063-21.481
		c-4.316-2.689-10.844-1.968-11.241-8.249c-0.434-6.835,1.102-13.627,1.143-20.451c34.876-4.452,62.104-27.225,60.774-64.744
		c-0.005-0.139-0.069-0.234-0.086-0.365c-0.189-7.385-4.291-13.4-10.894-15.948c6.346-9.722,11.985-19.927,17.782-29.962
		C176.618,13.73,176.432,12.463,175.775,11.496z M101.168,57.683c0.024,0.041,0.054,0.069,0.077,0.109
		c-1.32,6.824-0.525,14.127,3.081,20.849c-2.93,0.584-5.895,1.078-8.911,1.439c-15.336,1.836-30.54,0.664-45.446-2.366
		c0.63-0.481,1.079-1.271,0.959-2.142C46.945,46.71,86.215,32.029,101.168,57.683z M21.103,71.014
		c1.5,0.062,2.834-1.774,2.086-3.429c-9.077-20.075,16.442-33.628,31.967-22.837c-9.609,7.259-14.619,18.881-7.928,32.376
		c-7.966-1.744-15.846-3.988-23.61-6.582c-0.969-0.324-1.774,0.227-2.173,0.994C21.362,71.338,21.242,71.167,21.103,71.014z
		 M103.809,121.925c-2.069,0.561-2.085,3.513-0.482,4.335c-3.28,9.062-3.649,18.876-2.257,28.404
		c0.158,1.079,1.375,2.241,2.431,2.431c13.087,2.347,20.52,10.846,28.296,20.428c-0.229,0.018-0.462,0.036-0.706,0.092
		c-23.437,5.266-48.576,6.574-71.436-1.51c6.315-7.57,15.506-11.688,21.469-19.769c6.518-8.831,2.099-22.456,1.108-32.17
		c-0.177-1.732-2.041-2.205-3.041-1.35c-0.39-0.888-1.199-1.566-2.487-1.521c-27.539,0.961-56.3-18.12-55.153-47.65
		c0.146,0.174,0.332,0.327,0.573,0.445c23.322,11.349,47.49,15.873,73.294,13.761c21.175-1.734,46.715-7.343,65.854-17.859
		C157.68,100.711,133.308,113.921,103.809,121.925z M161.822,61.119c-0.003,0.075-0.039,0.126-0.039,0.204
		c0.003,0.305-0.032,0.58-0.032,0.882c-18.299,3.876-35.238,11.338-53.452,15.526c-0.021-0.108-0.007-0.207-0.048-0.319
		c-3.494-9.646-2.078-19.066,3.449-27.615c6.104-9.44,16.625-11.916,27.077-11.058c-1.099,2.045-2.245,4.044-3.428,6.006
		c-0.86,0.317-1.559,1.176-1.353,2.21c-0.054,0.084-0.102,0.173-0.156,0.256c-0.991,1.519,0.168,3.054,1.593,3.369
		c2.273,4.089,6.419,6.813,11.504,6.301c1.92-0.193,2.858-1.552,2.848-2.921c0.847,0.399,1.94,0.272,2.714-0.79
		c0.865-1.187,1.651-2.429,2.486-3.637C159.697,51.718,161.619,55.857,161.822,61.119z M148.769,50.992
		c-0.104,0.24-0.137,0.467-0.17,0.693c-0.442-0.342-0.967-0.619-1.662-0.707c-1.941-0.245-3.705-0.272-5.574-0.933
		c-0.921-0.326-1.651-0.976-2.259-1.744c10.368-10.871,17.531-25.503,24.272-38.861c0.332,1.334,0.486,2.755,1.095,3.975
		c0.645,1.293,1.685,1.966,2.876,2.32C160.764,27.271,154.049,38.805,148.769,50.992z M167.842,10.098
		c-0.194-0.507-0.38-1.007-0.573-1.494c0.274,0.025,0.551,0.05,0.819,0.075c0.309,0.029,0.433,0.054,1.038,0.243
		c-0.268-0.084,0.098,0.166,0.057,0.105c0.402,0.606,0.537,1.363,0.62,2.143C168.932,11.215,168.181,10.983,167.842,10.098z"/>
	<path d="M109.971,1.029c-6.115-0.277-12.161-2.524-17.87,0.651c-5.12,2.848-5.452,10.285-6.059,15.284
		c-0.028,0.229-0.002,0.425,0.043,0.607c-3.017,2.996-5.352,5.412-10.536,5.255c-3.95-0.12-7.758-1.552-11.676-1.968
		c-8.597-0.913-12.277,4.86-13.03,12.741c-0.201,2.104,3.062,2.426,3.598,0.487c1.372-4.96,2.966-7.981,8.367-7.631
		c3.891,0.252,7.641,1.801,11.539,2.159c7.511,0.69,15.889-2.959,17.245-11.112c0.187-1.126-0.435-2.053-1.29-2.393
		c1.265-3.559,3.103-8.059,6.48-9.138c3.868-1.236,9.283,0.528,13.19,1.052c15.009,2.016,21.623,10.239,29.697,22.038
		c1.083,1.582,3.722,1.079,3.72-1.007C143.369,12.322,123.778,1.654,109.971,1.029z"/>
</g>
<g>
</g>
<g>
</g>
<g>
</g>
<g>
</g>
<g>
</g>
<g>
</g>
<g>
</g>
<g>
</g>
<g>
</g>
<g>
</g>
<g>
</g>
<g>
</g>
<g>
</g>
<g>
</g>
<g>
</g>
</svg>
