<?xml version="1.0" encoding="iso-8859-1"?>
<!-- Generator: Adobe Illustrator 16.0.0, SVG Export Plug-In . SVG Version: 6.00 Build 0)  -->
<!DOCTYPE svg PUBLIC "-//W3C//DTD SVG 1.1//EN" "http://www.w3.org/Graphics/SVG/1.1/DTD/svg11.dtd">
<svg version="1.1" id="Capa_1" xmlns="http://www.w3.org/2000/svg" xmlns:xlink="http://www.w3.org/1999/xlink" x="0px" y="0px"
	 width="188.931px" height="188.932px" viewBox="0 0 188.931 188.932" style="enable-background:new 0 0 188.931 188.932;"
	 xml:space="preserve">
<g>
	<path d="M170.285,42.841C153.817,18.512,126.726,7.45,98.966,1.427c-1.012-0.22-1.752,0.263-2.131,0.946
		C52.057-6.043,15.699,30.425,3.961,70.843c-13.854,47.703,9.567,93.796,55.658,111.076c50.12,18.79,108.572-9.342,125.492-59.702
		C194.315,94.823,185.917,65.936,170.285,42.841z M180.738,117.399c-12.631,52.015-72.07,75.569-119.899,60.096
		C15.181,162.724-3.85,116.289,7.973,71.949C19.161,29.992,54.51,5.109,96.68,4.022c0.181,0.507,0.564,0.953,1.247,1.168
		c24.398,7.689,46.416,13.657,63.85,33.743C180.187,60.145,187.335,90.231,180.738,117.399z"/>
	<path d="M157.885,133.231c-5.623,3.84-10.686,5.254-13.413,11.739c-1.691,4.024-11.736,5.029-15.474,8.907
		c-1.527,1.585-2.634,3.951-3.37,5.985c-0.101,0.279-11.456-1.424-13.165-1.49c-9.438-0.369-18.336,4.172-24.201,11.309
		c-1.456,1.773,0.782,4.09,2.537,2.537c10.402-9.206,22.642-10.691,35.485-5.87c1.43,0.537,2.762-0.593,3.229-1.834
		c3.48-9.218,8.819-10.995,17.787-12.423c1.226-0.195,1.823-1.464,1.937-2.543c0.775-7.424,7.159-8.465,11.525-12.589
		C162.702,135.129,160.134,131.695,157.885,133.231z"/>
	<path d="M169.641,83.661c-0.264-0.804-0.89-3.546-2.131-4.095c-7.519-3.323-6.54-10.664-6.844-17.405
		c-0.083-1.834-2.507-2.093-3.109-0.421c-0.02,0.056-0.033,0.111-0.054,0.167c-1.741-0.547-2.24-0.196-1.5-2.687
		c0.358-1.205-0.417-2.592-1.644-2.896c-2.627-0.649-4.902-1.259-5.737-4.082c-0.726-2.457-0.576-5.373-0.915-7.916
		c-0.148-1.112-1.967-1.649-2.176-0.295c-0.038,0.248-0.081,0.494-0.121,0.74c-0.068-0.028-0.124-0.069-0.201-0.087
		c-6.548-1.518-13.034-2.322-12.479-11.059c0.063-1.018-0.726-1.78-1.601-2.102c-11.696-4.305-14.212-9.985-26.754-8.068
		c-16.265,2.485-33.197,20.725-45.419,0.361c-1.001-1.668-3.949-0.566-3.23,1.362c0.509,1.364,1.117,2.58,1.774,3.727
		c-0.545-0.087-1.107,0.153-1.214,0.837c-1.78,11.316-9.254,16.436-20.257,17.027c-1.805,0.097-3.41,1.794-2.802,3.679
		c0.601,1.862,1.533,2.72,2.487,3.697c-5.517,2.969-10.407,6.995-16.434,9.047c-2.252,0.767-2.501,3.469-0.628,4.802
		c6.467,4.603,0.391,9.89-0.811,14.977c-0.232,0.984,0.125,1.735,0.707,2.203c-0.027,0.175-0.02,0.362,0.031,0.555
		c2.57,9.758,4.275,18.426-3.92,26.397c-0.897,0.873-1.035,2.653,0,3.503c6.211,5.095,10.435,13.478,14.64,20.197
		c5.674,9.065,11.712,18.477,15.547,28.506c0.886,2.314,4.622,1.352,3.765-1.038c-0.019-0.054-0.043-0.105-0.062-0.158
		c6.625-0.177,11.534-2.093,14.076,6.562c0.364,1.24,1.817,1.868,2.952,1.201c8.372-4.92,10.893,1.836,18.603,2.132
		c2.313,0.09,2.901-3.771,0.554-4.093c-3.74-0.513-6.148-3.15-9.649-4.08c-3.585-0.952-6.522-0.136-9.53,1.44
		c-3.851-8.44-9.162-6.496-17.913-5.481c-5.599-14.479-14.338-28.234-23.045-40.925c-1.405-2.048-2.93-3.999-4.51-5.911
		c-1.024-1.239,2.328-2.259,3.35-5.708c2.411-8.135,1.344-15.499-1.996-23.146c0.276-0.246,0.521-0.548,0.671-0.977
		c2.821-8.072,7.696-11.794,2.605-17.599c5.589-2.766,10.387-6.796,16.156-9.335c1.349-0.594,1.435-2.332,0.91-3.469
		c-0.308-0.667-0.705-1.178-1.109-1.666c10.754-1.962,18.208-9.443,17.944-21.387c3.668,5.156,9.128,7.783,16.243,8.549
		c4.972,0.536,9.883-1.57,14.101-3.896c2.314-1.276,4.366-4.777,6.752-5.685c3.862-1.468,8.874-1.891,12.823-2.404
		c5.788-0.751,7.949,3.52,12.741,5.33c6.618,2.5,5.82,5.353,8.071,11.199c2.208,5.734,10.901,4.985,15.592,3.805
		c-0.363,2.351-0.562,4.691,0.049,7.088c0.757,2.971,3.41,4.7,6.18,5.638c0.014,3.205,1.715,6.235,5.151,5.886
		c-0.752,3.953-0.483,7.797,1.224,11.803c0.709,1.663,2.953,3.632,4.496,4.453c3.767,2.002,4.374,8.826,5.361,12.456
		c2.462,9.055-6.309,10.676-9.01,18.14c-2.575,7.116-2.528,12.818,1.128,19.444c0.876,1.588,3.24,0.483,2.845-1.199
		c-2.602-11.053,0.531-19.721,10.579-25.761c0.779-0.47,1.425-1.411,1.353-2.359C173.793,96.438,171.739,90.058,169.641,83.661z"/>
	<path d="M87.765,53.227c-2.437-2.448-5.071-4.929-7.368-7.533c-0.112-0.422-0.333-0.818-0.688-1.086
		c-0.781-0.589-1.284-0.689-2.24-0.549c-0.927,0.136-1.379,1.117-1.465,1.924c-0.026,0.245,0.041,0.493,0.06,0.739
		c-0.415-0.289-0.967-0.402-1.56-0.126c-16.897,7.87-32.924,36.585-5.255,41.155c1.612,0.266,3.108-0.661,3.157-2.405
		c0.334-11.721,5.216-21.312,14.842-28.119C88.576,56.289,89,54.467,87.765,53.227z M67.655,82.298
		c-8.134-2.241-10.887-7.716-6.925-16.387c3.078-6.736,8.996-12.908,15.292-16.718c0.27-0.164,0.435-0.367,0.554-0.583
		c1.074,2.278,3.462,4.492,5.485,6.295C73.481,61.972,68.649,71.192,67.655,82.298z"/>
	<path d="M142.822,63.026c-0.261-0.558-0.98-0.912-1.572-0.901c-2.176,0.039-4.348,0.417-6.475,0.854
		c-0.16,0.033-0.354,0.071-0.532,0.105c-3.749-9.034-10.859-16.481-20.897-19.263c-2.155-0.597-3.726,2.084-2.645,3.634
		c-0.197-0.174-0.383-0.362-0.583-0.532c-1.33-1.132-3.248,0.719-1.94,1.94c8.961,8.369,14.945,22.181,6.487,33.081
		c-0.848,1.092-0.978,2.85,0.463,3.592c5.547,2.858,12.917,2.327,18.988,2.375c1.074,0.009,2.26-0.782,2.475-1.884
		c0.668-3.429,0.844-6.963,0.587-10.467c0.611,0.082,1.222,0.238,1.655,0.317c1.396,0.255,2.781,0.473,4.201,0.532
		c0.967,0.04,1.758-0.833,1.765-1.765C144.829,70.565,144.566,66.775,142.822,63.026z M131.902,82.783
		c-4.004,0.011-8.031-0.103-11.967-0.8c6.249-11.718,0.805-25.281-8.662-34.006c0.088,0.058,0.141,0.135,0.243,0.184
		C125.328,54.747,133.87,67.347,131.902,82.783z M136.788,72.197c-0.301-1.913-0.722-3.806-1.291-5.649
		c0.082-0.018,0.163-0.041,0.246-0.059c1.415-0.306,2.852-0.514,4.296-0.624c0.825,2.206,1.106,4.502,1.184,6.843
		C139.742,72.499,138.236,72.194,136.788,72.197z"/>
	<path d="M118.732,109.681c-9.509-2.659-11.901-8.657-15.123-17.076c-1.811-4.731-6.07-9.143-11.089-10.434
		c0.006-0.018,0.009-0.037,0.015-0.055c0.487-1.348-1.695-2.266-2.314-0.976c-5.352,11.153-2.778,26.154,4.798,35.759
		c8.397,10.646,19.047,7.412,25.209-3.538C121.025,111.948,120.308,110.122,118.732,109.681z M106.182,118.881
		c-4.159-0.06-7.502-4.598-9.495-7.687c-4.693-7.273-6.949-17.128-5.083-25.76c3.996,1.457,5.796,3.112,7.188,7.455
		c0.913,2.847,1.644,5.793,2.82,8.546c2.58,6.039,6.93,9.786,12.692,12.032C112.383,116.363,109.883,118.934,106.182,118.881z"/>
	<path d="M48.512,106.921c-2.091-0.006-2.054,3.092,0,3.218c16.198,0.993,27.853,14.441,27.713,30.232
		c-3.394,0.649-7.08,0.015-10.585-0.413c0.134-12.515-7.077-28.525-20.694-30.263c-2.584-0.33-2.967,3.28-1.212,4.474
		c4.817,3.274,8.948,5.463,12.364,10.504c3.554,5.244,4.464,11.567,3.947,17.742c-0.129,1.537,1.344,2.67,2.735,2.734
		c5.463,0.257,11.461,1.826,16.757-0.174c1.178-0.445,1.868-1.284,1.95-2.561C82.711,123.129,67.889,106.975,48.512,106.921z"/>
	<path d="M135.094,137.87c-1.612-1.576-3.55-2.889-5.143-4.487c0.192-0.185,0.417-0.349,0.603-0.535
		c2.417-2.431,4.023-5.731,3.132-9.168c-1.24-4.786-7.457-6.827-11.557-8.034c-0.646-0.189-1.341,0.023-1.818,0.48
		c-6.79,6.518-14.18,9.853-23.646,9.941c-1.673,0.017-2.462,1.73-1.796,3.129c1.947,4.088,3.445,8.368,5.415,12.446
		c0.237,0.492,0.587,0.754,0.964,0.896c0.079,0.357,0.308,0.695,0.767,0.745c6.188,0.675,13.061-0.827,19.051-3.764
		c1.796,1.986,3.489,5.899,6.164,6.701c3.466,1.038,6.595-4.525,8.082-6.676C135.658,139.044,135.512,138.279,135.094,137.87z
		 M103.624,141.568c0.333-0.545,0.461-1.224,0.122-1.948c-1.467-3.135-2.645-6.392-3.982-9.579
		c5.847-0.527,11.274-2.175,16.327-5.469c2.36-1.537,4.911-5.427,7.746-4.519c2.757,0.883,6.522,2.629,6.675,5.954
		c0.085,1.851-0.906,3.585-2.354,5.133c-0.018-0.029-0.042-0.05-0.06-0.079c-0.548-0.957-2.091-0.782-2.361,0.31
		c-0.148,0.594-0.017,1.181,0.218,1.761c-2.013,1.577-4.266,2.856-5.807,3.722C115.206,139.632,109.36,141.555,103.624,141.568z
		 M127.275,143.428c-1.744-1.382-3.067-3.18-4.633-4.782c1.759-0.964,3.447-2.017,4.974-3.21c1.456,1.42,3.381,2.699,4.69,3.706
		C131.123,141.071,128.804,144.64,127.275,143.428z"/>
	<path d="M145.841,102.154c-2.084-2.037-4.526-3.635-7.226-4.737c-1.645-0.672-3.706-1.589-5.283-0.371
		c-0.469,0.362-0.398,1.19,0,1.566c0.172,0.162,0.38,0.277,0.581,0.399c-0.414-0.205-0.789-0.458-1.244-0.62
		c-1.554-0.552-2.172,1.865-0.673,2.442c2.424,0.933,3.893,3.071,6.119,4.29c2.409,1.318,5.134,0.354,7.433-0.693
		C146.405,104.04,146.459,102.76,145.841,102.154z M137.654,101.484c-0.95-0.802-1.923-1.479-2.949-2.078
		c0.818,0.318,1.715,0.51,2.507,0.783c1.693,0.586,3.293,1.467,4.749,2.528C140.455,103.061,139.162,102.759,137.654,101.484z"/>
	<path d="M101.265,60.783c-1.049-1.252-3.158-2.138-4.792-1.827c-1.57,0.299-1.251,2.403,0,2.862
		c0.915,0.336,1.72,0.296,2.464,0.979c1.288,1.181,0.833,3.295,0.281,4.946c-1.395-0.152-2.368-0.662-2.532-2.352
		c-0.133-1.374-0.062-2.875-1.115-3.921c-0.764-0.758-2.221,0.281-1.533,1.183c0.865,1.133,0.091,3.433,0.394,4.814
		c0.583,2.659,3.489,3.241,5.799,3.305c0.705,0.02,1.187-0.477,1.425-1.085C102.802,66.765,103.44,63.378,101.265,60.783z"/>
	<path d="M77.957,100.485c-1.884-1.809-4.819-4.315-7.496-2.482c-1.062,0.728-1.736,2.92-2.404,3.893
		c-1.004-0.576-2.057-1.066-3.255-1.365c-1.126-0.278-1.578,1.386-0.477,1.73c1.118,0.35,2.103,0.879,3.034,1.506
		c0.108,0.157,0.26,0.271,0.46,0.323c0.539,0.391,1.068,0.802,1.586,1.25c0.938,0.81,1.897,1.797,3.089,2.225
		c3.433,1.233,4.978-3.444,5.795-5.826C78.433,101.318,78.271,100.788,77.957,100.485z M73.678,105.314
		c-0.492,0.344-1.619-0.684-1.974-0.944c-0.586-0.43-1.16-0.852-1.736-1.259c0.258-0.36,0.489-0.756,0.687-1.158
		c0.333-0.679,0.683-1.473,1.328-1.91c1.018-0.691,2.636,0.765,3.596,1.712C75.182,103.014,74.685,104.609,73.678,105.314z"/>
	<path d="M52.079,82.718c-2.684,0.075-5.252,1.064-7.934,1.381c-0.122-0.942-0.303-1.864-0.634-2.787
		c-0.305-0.853-0.774-1.684-0.975-2.574c1.65-1.042,3.996-2.515,4.774-0.182c0.526,1.578,0.986,3.121,2.559,3.953
		c0.961,0.508,1.79-0.898,0.852-1.458c-1.719-1.026-1.258-3.443-2.475-4.857c-1.918-2.229-5.525,0.028-7.402,1.105
		c-0.308,0.177-0.546,0.55-0.524,0.914c0.146,2.489,1.649,4.569,1.716,7.134c0.016,0.601,0.5,1.141,1.125,1.125
		c3.151-0.079,5.858-1.761,8.917-2.065C53.14,84.301,53.186,82.687,52.079,82.718z"/>
	<path d="M51.686,128.882c-0.147-0.86-0.713-1.624-1.247-2.287c-0.77-0.955-2.365-3.374-3.711-3.329
		c-2.971,0.101-5.953,0.132-8.917,0.352c-0.693,0.053-1.245,0.789-0.831,1.448c2.537,4.049,5.986,7.268,9.469,10.494
		c0.375,0.347,0.907-0.185,0.56-0.559c-0.564-0.61-1.146-1.229-1.725-1.849c0.52-0.06,0.977-0.38,1.086-1.046
		c0.01-0.06-0.006-0.061-0.01-0.091c0.136-0.081,0.294-0.117,0.499-0.142c0.671-0.081,1.351-0.068,2.024-0.124
		C50.489,131.615,51.999,130.713,51.686,128.882z M43.526,131.199c-1.538-1.733-2.939-3.571-4.044-5.571
		c2.053,0.105,4.11,0.162,6.163,0.23c1.057,0.036,1.822,1.426,2.569,2.452c0.092,0.126,0.157,0.278,0.246,0.417
		C46.505,129.034,43.779,128.655,43.526,131.199z"/>
	<path d="M101.155,150.408c-1.474-1.687-1.854-7.63-4.84-7.473c-2.919,0.153-5.653,1.627-8.567,1.78
		c-1.075,0.056-1.713,1.352-0.896,2.162c0.606,0.601,3.284,3.06,5.187,3.729c-0.13,0.195-0.196,0.443-0.192,0.696
		c-0.001,0.01-0.003,0.019-0.003,0.029c0,0.01,0.003,0.019,0.003,0.028c-0.01,0.568,0.356,1.1,0.943,1.05
		c2.192,0.787,5.166,0.252,7.442,0.227C101.423,152.625,101.888,151.25,101.155,150.408z M93.898,149.985
		c0.04-0.132,0.08-0.265,0.097-0.437c0.074-0.765-0.85-1.066-1.396-0.744c-0.048-0.036-0.103-0.071-0.192-0.104
		c-0.252-0.182-0.493-0.377-0.725-0.585c-0.456-0.389-0.882-0.813-1.309-1.233c-0.004-0.004-0.007-0.008-0.011-0.011
		c1.641-0.346,3.268-0.839,4.883-1.189c0.766-0.166,0.768-0.283,1.07,0.189c0.545,0.851,0.795,1.954,1.113,2.904
		c0.134,0.4,0.313,0.761,0.479,1.131C96.553,149.812,95.163,149.772,93.898,149.985z"/>
	<path d="M108.293,36.264c-1.973-2.045-3.774-4.78-6.942-4.203c-2.192,0.4-3.683,2.935-5.332,4.226
		c-0.62,0.486-0.405,1.336,0.115,1.795c-0.751,0.43-0.567,1.843,0.529,1.924c1.715,0.126,2.619,2.024,3.87,2.983
		c1.617,1.239,3.467,1.249,5.369,0.723c0.527-0.146,0.877-0.627,0.889-1.168c0.038-1.762,0.255-3.073,1.502-4.421
		C108.787,37.59,108.805,36.794,108.293,36.264z M100.383,39.774c-0.761-0.779-1.581-1.351-2.554-1.632
		c1.129-0.521,1.99-1.783,2.818-2.606c1.104-1.099,2.01-1.158,3.166,0.003c0.609,0.613,1.228,1.215,1.846,1.819
		c-0.81,1.28-1.162,2.626-1.244,4.17C102.729,41.797,101.696,41.117,100.383,39.774z"/>
	<path d="M154.812,86.537c-1.037-1.103-2.418-1.743-3.775-2.363c-2.012-0.919-3.915-1.97-5.873-2.986
		c-0.679-0.352-1.402,0.514-0.831,1.077c0.127,0.125,0.276,0.223,0.408,0.343c-0.045,1.508-0.089,3.015-0.134,4.523
		c-0.009,0.272,0.43,0.272,0.422,0c-0.043-1.463-0.087-2.927-0.13-4.39c2.018,1.774,4.489,2.949,6.698,4.462
		c2.408,1.649,2.047,4.297,1.391,6.791c-2.181-1.648-3.653-3.875-5.585-5.882c-1.02-1.059-2.587,0.529-1.604,1.604
		c2.421,2.649,4.08,5.588,7.296,7.426c0.752,0.43,1.586,0.01,1.862-0.757C156.012,93.44,157.303,89.184,154.812,86.537z"/>
	<path d="M147.949,115.13c-1.582-1.452-5.502-4.437-6.929-1.097c-0.422,0.988-0.445,2.066-0.471,3.127
		c-0.005,0.203-0.011,0.407-0.019,0.61c-0.003,0.066-0.039,0.404-0.042,0.482c-0.001,0.004-0.002,0.008-0.003,0.011
		c-0.097,0.099-0.268,0.357-0.062,0.18c-0.011,0.029-0.014,0.041-0.01,0.038c-0.495,0.525-0.312,1.354,0.264,1.729
		c0.008,0.005,0.015,0.004,0.022,0.009c-0.861,0.553-0.206,2.126,0.81,1.736c0.559-0.216,0.732-0.327,0.997,0.194
		c0.139,0.273,0.434,1.042,0.447,1.181c0.172,1.686,1.89,2.077,3.22,1.507c1.537-0.661,2.051-2.274,2.631-3.685
		c0.413-1.003,0.765-2.043,0.9-3.123C149.877,116.645,148.893,115.997,147.949,115.13z M145.615,121.728
		c-0.122,0.264-0.291,0.422-0.493,0.568c-0.011-0.013-0.023-0.026-0.032-0.037c-0.434-0.658-0.603-1.422-1.226-1.992
		c-0.38-0.348-0.811-0.483-1.25-0.522c0.522-1.007,0.622-2.696,0.685-3.39c0.03-0.332,0.069-0.578,0.188-0.99
		c0.006-0.02,0.006-0.021,0.011-0.037c1.01,0.153,2.501,1.65,3.442,2.611C146.76,119.247,146.155,120.561,145.615,121.728z"/>
	<path d="M58.386,51.153c-1.286-1.312-2.585-2.6-3.919-3.863c-0.31-0.293-0.91-0.37-1.208,0c-0.883,1.098-1.038,2.364-1.083,3.739
		c-0.051,1.562,0.462,3.958-0.619,5.26c-0.044,0.052-0.025,0.11-0.052,0.165c-0.401-0.084-0.803-0.149-1.209-0.144
		c-0.547,0.006-0.707,0.902-0.133,0.984c1.303,0.187,2.411,1.123,3.712,1.396c1.643,0.345,3.135-0.3,4.403-1.291
		c0.568-0.443,1.783-1.579,1.79-2.372c0.006-0.593,0.012-1.187,0.018-1.78C60.094,52.433,58.887,51.665,58.386,51.153z
		 M57.101,56.223c-1.339,1.28-2.729,0.992-4.157,0.597c0.579-0.937,0.727-2.02,0.791-3.143c0.071-1.248-0.179-3.068,0.321-4.375
		c1.331,1.378,2.679,2.736,4.048,4.079c0.221,0.216,0.232-0.432,0.24,0.299C58.354,54.786,57.881,55.476,57.101,56.223z"/>
	<path d="M43.761,96.805c-3.684-1.59-7.329-1.838-11.3-1.791c-0.547,0.007-1.053,0.465-1.032,1.032
		c0.087,2.37,0.217,4.751,0.267,7.134c0.02,0.925,1.29,0.948,1.469,0.138c0.058,0.326,0.222,0.645,0.507,0.843
		c0.865,0.601,2.18,0.687,3.197,0.927c1.352,0.319,2.679,0.418,4.013-0.019c1.502-0.49,1.659-1.385,1.989-2.729
		c0.394-1.604,1.352-2.811,1.479-4.51C44.377,97.459,44.112,96.956,43.761,96.805z M40.288,102.229
		c-2.073,1.071-4.552-1.116-6.616-0.029c-0.198,0.104-0.335,0.249-0.425,0.413c0.048-1.839,0.132-3.674,0.206-5.506
		c2.862,0.064,5.672,0.321,8.324,1.444C41.414,99.811,40.7,100.96,40.288,102.229z"/>
</g>
<g>
</g>
<g>
</g>
<g>
</g>
<g>
</g>
<g>
</g>
<g>
</g>
<g>
</g>
<g>
</g>
<g>
</g>
<g>
</g>
<g>
</g>
<g>
</g>
<g>
</g>
<g>
</g>
<g>
</g>
</svg>
