<?xml version="1.0" encoding="iso-8859-1"?>
<!-- Generator: Adobe Illustrator 16.0.0, SVG Export Plug-In . SVG Version: 6.00 Build 0)  -->
<!DOCTYPE svg PUBLIC "-//W3C//DTD SVG 1.1//EN" "http://www.w3.org/Graphics/SVG/1.1/DTD/svg11.dtd">
<svg version="1.1" id="Capa_1" xmlns="http://www.w3.org/2000/svg" xmlns:xlink="http://www.w3.org/1999/xlink" x="0px" y="0px"
	 width="193.148px" height="193.148px" viewBox="0 0 193.148 193.148" style="enable-background:new 0 0 193.148 193.148;"
	 xml:space="preserve">
<g>
	<path d="M158.098,36.101c-0.18-3.005-3.449-3.863-5.316-2.58c-5.49-5.453-12.748-8.563-19.305-12.738
		c-1.258-0.801-2.588-0.469-3.612,0.343c-0.071-0.374-0.245-0.715-0.469-1.02c1.519-4.719,1.886-9.658,3.519-14.435
		c0.853-2.492-1.748-4.546-4.031-4.032C105.426,6.912,80.88,4.097,57.452,0.051c-1.729-0.299-3.513,0.734-3.495,2.663
		c0.069,7.319-0.565,14.125,1.63,21.179c0.014,0.044,0.044,0.073,0.062,0.114c-4.541,10.527-9.385,20.738-14.65,30.91
		c-0.132-0.024-0.26-0.036-0.392-0.06c-2.754-0.518-3.888,3.369-1.165,4.226c0.024,0.008,0.049,0.014,0.073,0.022
		c-12.34,41.878,3.259,87.785-4.107,130.72c-0.515,3,3.38,4.417,4.728,2.081c7.759,2.94,21.421-0.275,29.74-0.169
		c12.137,0.153,25.953,2.649,37.843,0.032c3.33-0.733,3.289-5.907,0-6.667c-4.768-1.104-9.864-1.488-15.038-1.564
		c0.313-0.093,0.613-0.261,0.846-0.584c1.917-2.658,4.243-4.573,7.384-5.582c3.399-1.093,6.647-0.004,10.064-0.037
		c0.054,0,0.087-0.046,0.14-0.053c-0.243,3.024-0.526,6.049-0.923,9.066c-0.425,3.229,4.947,3.884,5.639,0.764
		c0.022-0.105,0.037-0.209,0.06-0.314c0.209-0.057,0.413-0.078,0.63-0.189c10.501-5.452,21.591-9.838,31.8-15.842
		c1.205-0.709,1.724-1.76,1.771-2.829c0.789-0.436,1.394-1.221,1.41-2.455C152.068,122.443,160.656,79.065,158.098,36.101z
		 M147.633,37.392c-4.039-0.866-8.186-1.333-12.183-1.378c0.233-2.384,0.111-4.787-0.545-6.918
		C139.377,31.525,144.025,33.954,147.633,37.392z M128.99,33.731c-0.061,2.634-0.168,5.262-1.301,7.881
		c-1.312,3.035-3.602,5.429-6.213,7.433C123.666,43.769,126.094,38.642,128.99,33.731z M59.065,6.03
		c21.303,4.494,44.499,8.225,65.953,3.385c-0.783,3.302-1.39,6.653-2.158,9.967c-21.371,0.793-42.449,2.983-64.057,2.707
		c-0.316-0.004-0.656,0.057-0.995,0.154C57.482,16.778,58.342,11.437,59.065,6.03z M41.28,187.73
		c9.78-41.212-2.519-85.184,3.147-127.184c21.394,5.917,47.472,8.072,68.704,1.911c-2.215,14.371-2.557,28.848-2.318,43.365
		c-0.38-0.629-1.002-1.126-1.926-1.21c-44.714-4.044-67.913,41.913-49.633,79.483C52.741,184.241,45.56,184.938,41.28,187.73z
		 M111.322,174.555c-1.622-0.747-3.293-1.14-4.965-1.241c1.539-0.113,3.077-0.223,4.615-0.307c0.182-0.01,0.337-0.057,0.478-0.117
		C111.416,173.445,111.362,173.999,111.322,174.555z M111.601,170.676c-0.175-0.105-0.374-0.187-0.627-0.201
		c-4.861-0.267-9.729-0.751-14.597-0.889c-0.144-2.561-0.262-5.124-0.367-7.688c1.283,1.081,2.38,2.572,4.136,2.924
		c0.989,0.198,1.803-0.425,1.876-1.429c0.263-3.643,2.133-7.538,3.576-11.017c2.207,0.289,4.295,1.146,6.436,1.542
		C112.033,159.511,111.909,165.097,111.601,170.676z M104.713,149.468c-0.672-0.04-1.127,0.471-1.355,1.032
		c-1.37,3.38-3.143,7.085-3.916,10.773c-1.587-1.114-2.708-3.104-4.732-3.614c-1.053-0.266-2.003,0.5-2.05,1.562
		c-0.185,4.174-0.311,8.354-0.592,12.521c-0.081,1.201,1.067,2.216,2.211,2.212c2.716-0.01,5.433-0.165,8.147-0.354
		c-4.618,0.949-8.885,3.906-11.566,7.799c-0.668,0.97-0.022,1.866,0.851,2.137c-7.382-0.052-14.893,0.486-21.836,0.567
		c-1.993,0.022-4.667-0.035-7.588-0.032c-0.013-0.062-0.003-0.119-0.027-0.184c-13.637-36.933,4.223-75.505,46.625-74.394
		c0.969,0.025,1.596-0.41,1.965-1.007c0.037,1.797,0.097,3.596,0.148,5.395c-35.411-7.117-57.828,40.449-39.214,67.16
		c1.404,2.015,4.238,0.304,3.251-1.901c-3.006-6.715-4.644-13.825-4.713-20.904c3.7,1.382,7.436,2.307,10.696,5.295
		c5.627,5.158,2.866,11.451-2.2,15.709c-1.044,0.878,0.341,2.673,1.459,1.891c6.129-4.286,9.825-9.941,6.104-17.198
		c-2.502-4.879-9.698-9.524-15.838-10.388c0.527-5.742,2.094-11.404,4.935-16.748c3.185-5.993,7.404-10.012,12.29-12.856
		c3.856,6.527,10.737,17.491,2.303,22.75c-5.437,3.39-10.972,0.333-13.856-4.581c-0.343-0.585-1.384-0.533-1.523,0.198
		c-1.761,9.251,10.91,11.397,17.093,8.305c11.312-5.66,5.252-20.599-1.203-28.168c6.152-2.909,13.182-4.315,20.498-5.533
		c0.268,8.526,0.571,17.058,0.768,25.587c-3.451-1.248-6.19-2.217-8.242-5.915c-1.645-2.963-1.875-6.399-2.535-9.65
		c-0.597-2.94-2.053-6.943-5.34-3.815c-0.838,0.797,0.43,2.061,1.266,1.266c0.886-0.844,0.617-1.16,0.625-0.385
		c0.012,0.951,0.15,1.912,0.194,2.865c0.127,2.727,0.551,5.425,1.315,8.049c1.623,5.574,6.627,11.154,12.795,11.252
		c0.027,1.585,0.094,3.172,0.105,4.757C109.621,150.225,107.146,149.614,104.713,149.468z M113.565,56.406
		c-23.337,0.344-45.014,2.737-68.257-0.826c3.933-5.887,7.702-11.865,11.478-17.857c6.742-10.7,13.812-8.376,25.435-8.162
		c14.172,0.262,30.68,0.958,43.975-4.975c0.499-0.055,0.979-0.208,1.382-0.568l0.002-0.001
		C120.754,33.76,117.004,45.079,113.565,56.406z M145.478,163.986c-0.296,0.088-0.597,0.205-0.899,0.383
		c-9.029,5.295-18.447,9.919-27.35,15.419c6.736-40.281-3.354-81.481,3.039-121.982c0.09-0.572,0.02-1.082-0.139-1.543
		c5.263-2.741,9.826-6.284,12.754-11.614c0.677-1.229,1.242-2.653,1.689-4.158c5.846,0.428,11.268,2.206,16.821,3.819
		C150.627,84.198,142.539,124.239,145.478,163.986z"/>
</g>
<g>
</g>
<g>
</g>
<g>
</g>
<g>
</g>
<g>
</g>
<g>
</g>
<g>
</g>
<g>
</g>
<g>
</g>
<g>
</g>
<g>
</g>
<g>
</g>
<g>
</g>
<g>
</g>
<g>
</g>
</svg>
