<?xml version="1.0" encoding="iso-8859-1"?>
<!-- Generator: Adobe Illustrator 16.0.0, SVG Export Plug-In . SVG Version: 6.00 Build 0)  -->
<!DOCTYPE svg PUBLIC "-//W3C//DTD SVG 1.1//EN" "http://www.w3.org/Graphics/SVG/1.1/DTD/svg11.dtd">
<svg version="1.1" id="Capa_1" xmlns="http://www.w3.org/2000/svg" xmlns:xlink="http://www.w3.org/1999/xlink" x="0px" y="0px"
	 width="191.381px" height="191.381px" viewBox="0 0 191.381 191.381" style="enable-background:new 0 0 191.381 191.381;"
	 xml:space="preserve">
<g>
	<path d="M163.223,123.692c-17.09-14.048-40.028-30.308-62.465-34.171c1.644-1.741,3.213-3.589,4.772-5.02
		c1.239-1.136,1.532-3.315,0.61-4.728C83.844,45.605,39.2,34.768,10.424,7.471c-3.589-3.405-8.901,1.536-6.22,5.148
		c-21.406,35.639,44.83,78.814,66.096,97.626c1.216,1.075,2.617,1.202,3.824,0.786c6.394,38.097,83.411,102.304,114.176,60.269
		C200.393,154.777,173.693,132.298,163.223,123.692z M7.815,15.983C26.401,32.769,48.97,44.268,69.85,57.879
		c5.867,3.824,11.521,7.872,16.938,12.315c2.071,1.755,4.058,3.601,5.961,5.537c2.366,2.301,7.448,3.035,5.549,5.165
		c-2.483,2.787-8.005,7.383-6.712,11.583c0.03,0.096,0.091,0.161,0.129,0.25c-0.645,1.636-1.375,3.236-2.827,4.583
		c-2.487,2.306-6.701,2.903-9.921,3.168c-2.395,0.196-3.334,2.349-2.819,4.058c-0.191,0.049-0.393,0.053-0.573,0.133
		C52.099,83.593,1.547,53.081,7.815,15.983z M162.551,175.548c-11.959,1.045-24.25-5.859-34.06-11.779
		c-19.683-11.877-43.631-33.469-48.363-57.096c4.702,0.107,9.316-0.73,13.153-3.67c1.665-1.276,3.269-3.051,4.525-5.047
		c15.828,3.051,30.828,12.444,44.193,21.014c14.551,9.33,35.598,23.268,40.311,41.139
		C185.053,170.516,169.934,174.903,162.551,175.548z"/>
	<path d="M83.048,81.629c-18.555-14.444-44.83-24.521-58.782-44.015c-0.652-0.911-1.958-0.351-1.769,0.746
		c1.638,9.548,13.202,16.807,20.263,22.216c11.841,9.072,24.463,17.177,36.697,25.707C82.204,88.199,85.701,83.694,83.048,81.629z"
		/>
</g>
<g>
</g>
<g>
</g>
<g>
</g>
<g>
</g>
<g>
</g>
<g>
</g>
<g>
</g>
<g>
</g>
<g>
</g>
<g>
</g>
<g>
</g>
<g>
</g>
<g>
</g>
<g>
</g>
<g>
</g>
</svg>
