<?xml version="1.0" encoding="iso-8859-1"?>
<!-- Generator: Adobe Illustrator 16.0.0, SVG Export Plug-In . SVG Version: 6.00 Build 0)  -->
<!DOCTYPE svg PUBLIC "-//W3C//DTD SVG 1.1//EN" "http://www.w3.org/Graphics/SVG/1.1/DTD/svg11.dtd">
<svg version="1.1" id="Capa_1" xmlns="http://www.w3.org/2000/svg" xmlns:xlink="http://www.w3.org/1999/xlink" x="0px" y="0px"
	 width="185.43px" height="185.43px" viewBox="0 0 185.43 185.43" style="enable-background:new 0 0 185.43 185.43;"
	 xml:space="preserve">
<g>
	<path d="M161.563,155.267c-7.985-23.85-17.387-47.222-24.97-71.231c-8.219-26.023-10.786-52.193-16.554-78.568
		c-0.166-0.759-0.648-1.289-1.248-1.63c1.193-1.401,0.761-4.067-1.521-3.821C54.691,6.755-5.948,73.935,28.873,137.003
		c22.657,41.037,105.362,71.953,137.147,24.358C168.287,157.968,164.795,154.774,161.563,155.267z M150.87,146.276
		c-0.036,0.02-0.071,0.027-0.106,0.048c-32.625,18.476-81.958,12.391-101.191-22.447c-22.447-40.66,27.661-90.193,63.844-103.25
		c0.091,4.183,0.521,8.44,1.106,12.713c-13.809,1.154-42.568,10.12-34.081,29.289c7.563,17.082,29.775,21.597,46.892,21.828
		c0.95,3.186,1.904,6.375,2.916,9.569c-7.334,1.698-14.691,12.362-18.856,17.991c-4.613,6.235-11.968,16.28-9.692,24.73
		c5.903,21.927,32.102,10.761,46.396,3.741C149.007,142.426,149.917,144.366,150.87,146.276z M146.047,136.027
		c-10.419,3.163-37.066,12.752-36.722-3.208c0.161-7.543,7.411-15.999,11.844-21.502c3.084-3.828,8.016-7.477,10.895-11.656
		C136.119,111.954,140.724,124.193,146.047,136.027z M126.03,80.139c-12.726-2.579-26.963-8.038-35.821-16.916
		c-14.399-14.431,15.409-21.787,25.044-25.037C117.742,52.737,122.275,67.31,126.03,80.139z M94.39,172.604
		c-23.286-5.213-45.009-19.905-57.371-40.363c-14.987-24.802-7.832-57.76,7.585-80.357c16.105-23.606,43.927-36.185,69.845-46.063
		c-0.618,3.456-0.922,7.014-1.016,10.628c-42.729,6.898-91.708,63.994-71.332,107.72c19.078,40.939,75.28,49.044,112.069,28.487
		c0.98,1.837,1.941,3.688,2.967,5.492C138.347,173.546,118.943,178.102,94.39,172.604z"/>
	<path d="M116.025,91.316c-0.811-0.544-1.625-0.998-2.437-1.507c-0.068-0.049-0.139-0.085-0.21-0.13
		c-14.655-9.132-29.59-12.711-47.111-12.775c-1.85-0.007-3.107,1.215-3.732,2.841c-6.108,15.886-7.373,48.593,12.553,55.862
		c10.382,3.788,16.817-0.566,22.922-9.025c6.979-9.671,13.636-21.133,16.751-32.771C116.334,94.299,117.529,92.325,116.025,91.316z
		 M78.731,129.477c-16.077-4.073-14.078-31.251-9.786-44.716c12.94,0.537,26.676,2.396,39.108,6.567
		c-0.037,0.098-0.106,0.155-0.137,0.26C104.589,102.686,93.187,133.138,78.731,129.477z"/>
</g>
<g>
</g>
<g>
</g>
<g>
</g>
<g>
</g>
<g>
</g>
<g>
</g>
<g>
</g>
<g>
</g>
<g>
</g>
<g>
</g>
<g>
</g>
<g>
</g>
<g>
</g>
<g>
</g>
<g>
</g>
</svg>
