<?xml version="1.0" encoding="iso-8859-1"?>
<!-- Generator: Adobe Illustrator 16.0.0, SVG Export Plug-In . SVG Version: 6.00 Build 0)  -->
<!DOCTYPE svg PUBLIC "-//W3C//DTD SVG 1.1//EN" "http://www.w3.org/Graphics/SVG/1.1/DTD/svg11.dtd">
<svg version="1.1" id="Capa_1" xmlns="http://www.w3.org/2000/svg" xmlns:xlink="http://www.w3.org/1999/xlink" x="0px" y="0px"
	 width="192.204px" height="192.204px" viewBox="0 0 192.204 192.204" style="enable-background:new 0 0 192.204 192.204;"
	 xml:space="preserve">
<g>
	<path d="M185.18,89.553c8.853-9.976,7.426-34.402,5.844-44.526c-2.852-18.239-16.651-28.844-33.338-19.052
		c-2.906-9.716-9.81-12.072-19.61-9.012c-5.616-11.135-14.96-10.199-24.302-3.039C105.51,0.007,89.955,4.37,81.222,17.833
		c-0.086,0.133-0.104,0.268-0.156,0.403C74.798,5.669,65.064,7.332,55.96,16.058C43.758,2.289,18.731,6.075,21.798,27.217
		c-8.832-9.346-19.425-9.31-21.389,5.969c-1.785,13.888,2.36,31.301,10.684,43.384c-3.69-0.081-7.036,1.259-9.184,5.368
		c-5.078,9.717,2.475,25.096,5.752,34.074c11.431,31.322,32.819,49.136,62.392,55.572c3.177,1.299,6.588,1.839,10.05,1.716
		c2.281,0.287,4.605,0.513,6.97,0.682c-0.41,2.745-0.009,5.729,0.288,8.382c0.227,2.03,1.52,3.697,3.719,3.72
		c6.865,0.068,13.9,1.831,20.615-0.337c1.486-0.48,2.586-1.771,2.574-3.381c-0.021-2.95,0.736-6.681,0.779-10.185
		c0.73,0.354,1.619,0.46,2.647,0.139c34.704-10.837,77.69-23.927,73.253-69.098C190.395,97.562,188.331,93.013,185.18,89.553z
		 M7.96,45.205c-0.83-5.245-1.164-10.932-0.045-16.152c1.631-7.611,9.971,0.777,12.814,3.214c1.577,1.352,3.413,0.117,3.439-1.463
		c1.049-0.025,2.097-0.713,2.029-1.967c-0.949-17.455,18.5-18.941,26.691-6.258c1.052,1.629,3.615,2.273,5.027,0.648
		c5.902-6.793,12.663-12.099,18.918-0.838c1.391,2.504,5.548,1.099,5.301-1.443c0.844,0.513,1.931,0.577,2.7-0.325
		c6.604-7.743,18.271-16.698,24.781-0.767c0.928,2.271,3.451,3.18,5.402,1.426c5.08-6.985,11.158-6.806,18.23,0.539
		c0.576,1.496,2.211,2.937,3.96,2.249c10.597-4.168,11.835-0.374,16.515,8.089c1.306,2.361,4.092,1.313,4.756-0.722
		c0.08-0.024,0.147-0.01,0.229-0.043c17.327-7.081,24.124,5.123,25.426,21.018c0.561,6.857-0.117,13.803-1.488,20.521
		c-0.82,4.026-3.047,7.674-4.625,11.385c-3.146-1.492-6.723-2.422-10.594-2.777c-7.586-0.695-4.175-7.712-10.634-10.679
		c-4.757-2.185-8.976-1.696-13.353-0.167c-2.365-12.754-10.393-19.329-22.846-13.525c-6.353-14.3-18.812-7.845-22.511,4.847
		C91.426,51.407,81.697,46.709,70.95,59.4c-12.11-9.636-24.423-5.761-30.666,8.211c-11.767-6.043-19.048-1.059-19.279,11.571
		c-1.202-0.522-2.448-1.009-3.706-1.423C11.941,67.969,9.679,56.072,7.96,45.205z M21.172,128.367
		c-6.512-10.86-28.09-57.347,1.49-41.86c1.873,0.981,4.596-0.201,4.46-2.56c-0.462-8.03,5.911-13.721,13.164-9.095
		c1.79,1.142,4.004-0.024,4.619-1.879c2.741-12.939,10.779-15.049,24.113-6.33c1.175,1.177,3.63,1.449,4.758,0
		c18.729-24.055,29.116,19.7,25.688,34.074c-0.224,0.94-0.043,1.733,0.311,2.41c-1.711,1.472-3.273,3.152-4.626,5.004
		c-1.313-5.19-4.062-9.8-9.604-10.319c-8.211-0.769-12.007,6.119-13.834,13.147c-10.383-9.957-23.189-4.664-19.849,10.733
		c-5.364-1.061-10.826-1.151-14.416,3.729c-4.622,6.284,6.66,12.957,10.489,14.864c4.314,2.148,3.705,7.747,5.209,12.05
		c1.006,2.878,2.499,5.471,4.218,7.918C42.896,153.498,30.449,143.839,21.172,128.367z M119.958,160.355
		c-2.312,1.035-5.799,1.845-7.344,4.084c-1.785-1.562-4.733-0.22-4.733,2.18c0,2.43,0.475,4.667,0.268,7.135
		c-0.159,1.894-0.396,3.776-0.605,5.663c-4.318,0.571-8.703-0.144-13.062-0.544c-0.178-2.304-0.415-4.733-1.231-6.468
		c-0.146-0.31-0.292-0.619-0.438-0.93c-0.346-0.735-0.91-1.135-1.538-1.319c1.297-1.919-0.014-4.982-2.913-4.293
		c-16.89,4.021-30.312-10.776-31.534-26.801c-0.114-1.495-0.896-2.525-2.308-3.032c-7.874-2.819-12.126-11.144,0.43-8.198
		c1.829,0.429,3.952-1.255,3.249-3.249c-0.46-1.306-0.919-2.61-1.379-3.915c5.897-9.909,10.585-10.512,14.064-1.806
		c1.193,1.853,4.886,1.976,5.255-0.687c0.676-4.883,1.275-8.938,4.657-12.968c7.772-9.26,9.099,13.344,9.064,14.172
		c-0.155,3.728,5.188,4.165,6.265,0.848c2.571-7.918,8.097-14.53,16.771-15.685c10.535-1.402,9.361,10.041,9.144,16.805
		c-0.071,2.248,3.205,3.405,4.448,1.57c3.066-1.414,5.632-2.346,9.104-2.382c7.518-0.081-0.717,11.008-1.646,12.182
		c-1.392,1.756-1.316,5.248,1.503,5.693c2.482,0.392,14.169,1.408,11.703,5.758c-2.493,4.396-9.043,7.048-13.232,9.374
		C129.391,156.055,124.682,158.241,119.958,160.355z M177.955,129.667c-6.705,14.56-21.045,21.898-36.186,27.125
		c1.593-1.056,3.149-2.166,4.656-3.351c3.528-2.772,8.58-7.095,7.598-12.204c-1.01-5.252-6.659-7.393-11.825-8.516
		c2.903-4.676,4.774-10.123,1.483-15.039c-3.523-5.262-9.946-3.789-15.158-1.253c1.271-8.58-2.635-16.983-12.627-18.435
		c-3.199-0.466-6.209-0.096-8.98,0.882c0.936-8.991-1.289-21.151-5.648-30.87c0.084-0.489,0.168-0.979,0.254-1.468
		c0.795-8.506,5.345-9.601,13.652-3.287c0.606,2.213,3.287,3.354,5.278,2.148c10.062-6.098,15.54,0.168,16.024,10.676
		c0.143,3.101,3.08,4.467,5.738,3.293c7.711-3.406,12.395-0.821,14,7.584c0.299,1.558,2.156,3.029,3.758,2.861
		C186.273,87.055,186.375,111.383,177.955,129.667z"/>
</g>
<g>
</g>
<g>
</g>
<g>
</g>
<g>
</g>
<g>
</g>
<g>
</g>
<g>
</g>
<g>
</g>
<g>
</g>
<g>
</g>
<g>
</g>
<g>
</g>
<g>
</g>
<g>
</g>
<g>
</g>
</svg>
