<?xml version="1.0" encoding="iso-8859-1"?>
<!-- Generator: Adobe Illustrator 16.0.0, SVG Export Plug-In . SVG Version: 6.00 Build 0)  -->
<!DOCTYPE svg PUBLIC "-//W3C//DTD SVG 1.1//EN" "http://www.w3.org/Graphics/SVG/1.1/DTD/svg11.dtd">
<svg version="1.1" id="Capa_1" xmlns="http://www.w3.org/2000/svg" xmlns:xlink="http://www.w3.org/1999/xlink" x="0px" y="0px"
	 width="193.542px" height="193.543px" viewBox="0 0 193.542 193.543" style="enable-background:new 0 0 193.542 193.543;"
	 xml:space="preserve">
<g>
	<path d="M104.773,1.047C60.054-7.44,24.685,37.228,45.513,78.684c-3.754,3.197-5.655,9.301-5.586,13.871
		c0.079,5.25,2.385,10.637,6.043,14.381c2.702,2.766,7.703,5.561,11.562,3.443c0.73-0.399,1.29-0.889,1.775-1.416
		c7.572,28.68,19.594,56.611,32.642,82.672c1.03,2.059,3.59,2.31,5.446,1.429c18.713-8.876,25.951-33.593,31.435-51.797
		c3.883-12.892,6.575-26.119,9.056-39.34c1.069-5.7,3.013-12.131,3.302-18.251C171.836,50.131,143.494,8.396,104.773,1.047z
		 M54.156,72.338c-0.944,0.185-1.716,0.868-1.57,2.099c1.048,8.814,2.661,17.597,4.687,26.323c-0.34,1.718-1.08,3.32-2.654,3.674
		c-1.367,0.308-3.913-2.414-4.992-3.689c-2.055-2.428-3.073-5.803-3.208-8.924c-0.093-2.152,0.121-4.089,0.746-6.155
		c0.36-1.188,0.969-2.237,1.553-3.301c0.695-0.145,1.315-0.694,1.349-1.527c0.823-20.491-5.63-41.154,8.787-58.687
		C69.252,9.505,87.224,6.774,102.533,9.173c14.606,2.288,28.946,9.988,37.468,22.244c10.427,14.998,5.383,29.94-1.569,44.441
		c-1.054-0.062-2.181,0.366-2.812,1.248c-14.536-3.493-27.561,3.925-42.366,5.187c-9.698,0.827-26.258-6.532-34.4-11.042
		C56.762,70.09,55.079,70.922,54.156,72.338z M124.27,126.875c-4.245,17.91-10.075,46.196-27.06,57.203
		C81.182,149.82,70.775,114.111,58.613,78.446c10.4,1.88,20.346,6.083,30.57,8.771c14.625,3.845,28.519-5.953,43.544-4.384
		C127.547,95.802,127.239,114.348,124.27,126.875z"/>
	<path d="M112.14,111.054c1.967-1.813,3.949-3.612,5.962-5.37c1.674-1.461-0.526-4.303-2.371-3.071
		c-2.066,1.379-4.041,2.897-5.96,4.492c-1.021-1.804-2.02-3.621-3-5.454c2.364-2.201,4.745-4.385,7.087-6.609
		c1.617-1.535-0.528-4.418-2.409-3.122c-2.424,1.671-4.752,3.463-7.018,5.333c-0.409-0.771-0.815-1.539-1.227-2.311
		c-1.014-1.896-3.694-0.233-2.833,1.656c0.452,0.995,0.894,2.019,1.334,3.049c-1.42,1.239-2.855,2.457-4.231,3.749
		c-0.858-2.544-1.583-5.154-2.16-7.839c1.123-0.963,2.247-1.926,3.368-2.893c1.413-1.218-0.443-3.607-1.988-2.577
		c-0.976,0.651-1.895,1.364-2.828,2.061c-0.894-0.252-2.069,0.436-2.114,1.607c-4.021,3.247-7.691,6.872-11.218,10.66
		c-2.583-5.144-5.07-10.371-7.383-15.762c-0.639-1.489-3.076-0.42-2.595,1.094c1.918,6.046,4.044,12.302,6.433,18.571
		c-0.502,0.559-1.011,1.107-1.511,1.669c-0.868,0.974,0.454,2.296,1.428,1.428c0.319-0.284,0.647-0.556,0.966-0.839
		c1.176,3.004,2.415,6,3.722,8.977c-0.825,0.871-1.649,1.743-2.474,2.608c-1.687,1.768,0.909,4.364,2.677,2.677
		c0.506-0.482,1.028-0.948,1.536-1.429c3.163,6.821,6.71,13.455,10.725,19.645c-0.071,0.077-0.135,0.161-0.207,0.238
		c-1.779,1.911,0.659,4.574,2.64,3.363c1.413,2.018,2.875,3.981,4.399,5.875c-2.928,3.163-5.313,6.91-7.081,10.576
		c-1.013,2.101,2.01,3.936,3.16,1.847c1.969-3.576,4.25-6.462,6.886-8.906c0.929,1.048,1.868,2.082,2.838,3.078
		c1.691,1.738,4.519-0.488,3.32-2.562c-0.717-1.242-1.438-2.467-2.157-3.7c2.326-1.576,4.884-2.943,7.75-4.155
		c2.312-0.977,0.476-3.964-1.556-3.691c-3.218,0.435-6.098,1.759-8.686,3.572c-1.33-2.267-2.657-4.522-3.983-6.775
		c1.465-1.575,2.898-3.181,4.323-4.799c0.566-0.645,1.167-1.277,1.764-1.911c1.755,2.928,3.56,5.809,5.429,8.583
		c1.416,2.102,4.476,0.296,3.378-1.976c-1.693-3.508-3.523-6.923-5.373-10.314c1.308-1.455,2.555-2.952,3.567-4.585
		c1.216-1.962-1.219-4.47-3.194-3.194c-1.171,0.756-2.19,1.68-3.163,2.658c-1.353-2.474-2.688-4.95-3.974-7.444
		c1.441-1.501,2.955-2.933,4.452-4.381c1.833,3.123,3.97,6.007,6.679,8.367c2.034,1.772,4.512-0.851,2.9-2.9
		C115.936,117.074,113.992,114.089,112.14,111.054z M81.878,107.095c3.507-3.044,7.039-6.057,10.567-9.075
		c0.528,2.801,1.168,5.585,1.977,8.338c-2.858,2.803-5.67,5.656-8.429,8.557C84.593,112.329,83.225,109.721,81.878,107.095z
		 M92.488,126.529c-1.451-2.536-2.881-5.086-4.297-7.644c2.637-2.457,5.29-4.896,7.939-7.34c0.793,2.23,1.654,4.438,2.593,6.622
		C96.495,120.849,94.402,123.639,92.488,126.529z M104.663,130.234c-0.556,0.709-1.106,1.421-1.661,2.121
		c-1.373,1.729-2.747,3.451-4.145,5.154c-1.438-2.451-2.869-4.902-4.288-7.354c1.9-2.663,3.979-5.177,6.136-7.622
		C101.946,125.142,103.265,127.711,104.663,130.234z M101.99,114.448c-0.927-1.942-1.793-3.913-2.608-5.907
		c1.463-1.35,2.907-2.72,4.367-4.072c0.81,1.91,1.647,3.82,2.553,5.691C104.821,111.542,103.373,112.96,101.99,114.448z"/>
</g>
<g>
</g>
<g>
</g>
<g>
</g>
<g>
</g>
<g>
</g>
<g>
</g>
<g>
</g>
<g>
</g>
<g>
</g>
<g>
</g>
<g>
</g>
<g>
</g>
<g>
</g>
<g>
</g>
<g>
</g>
</svg>
