<?xml version="1.0" encoding="iso-8859-1"?>
<!-- Generator: Adobe Illustrator 16.0.0, SVG Export Plug-In . SVG Version: 6.00 Build 0)  -->
<!DOCTYPE svg PUBLIC "-//W3C//DTD SVG 1.1//EN" "http://www.w3.org/Graphics/SVG/1.1/DTD/svg11.dtd">
<svg version="1.1" id="Capa_1" xmlns="http://www.w3.org/2000/svg" xmlns:xlink="http://www.w3.org/1999/xlink" x="0px" y="0px"
	 width="174.814px" height="174.814px" viewBox="0 0 174.814 174.814" style="enable-background:new 0 0 174.814 174.814;"
	 xml:space="preserve">
<g>
	<path d="M172.113,62.621c-9.353-11.352-21.754-21.009-33.031-30.379c-0.106-0.089-0.219-0.119-0.328-0.188
		c0.382-2.409-1.707-4.342-3.854-4.413c1.018-8.511-0.246-15.651-2.731-24.266c-0.721-2.502-3.222-3.818-5.707-3.24
		C88.653,8.922,48.874,3.265,10.629,0.62C8.11,0.446,6.001,3.31,6.784,5.668c2.492,7.516,4.271,17.426,9.667,22.384
		c-1.075-0.988-2.981,0.313-2.096,1.618c0.314,0.464,0.629,0.928,0.943,1.392c0.219,0.324,0.519,0.507,0.836,0.619
		c-4.348,1.651-6.533,7.556-8.336,11.485C4.913,49.45,2.714,56.164,2.83,63.14c0.011,0.667,0.224,1.169,0.506,1.598
		c-0.2,0.722-0.162,1.52,0.23,2.188c-1.204,0.574-2.09,1.712-1.962,3.53c2.295,32.604,8.704,64.804,8.757,97.558
		c-1.764,2.08-0.874,5.966,2.708,6.151c35.705,1.846,71.695-0.569,107.309-3.146c2.559-0.185,4.132-1.783,4.812-3.69
		c1.001,1.386,3.02,2.029,4.774,0.515c0.061-0.052,0.12-0.103,0.181-0.155c1.552,1.628,4.729,1.605,5.637-1.23
		c0.491-1.537,0.876-3.099,1.241-4.662c7.705-6.627,15.408-13.248,23.15-19.836c0.745-0.634,1.078-1.4,1.236-2.188
		c0.083-0.136,0.187-0.241,0.25-0.402c8.895-22.349,8.171-45.316,9.961-68.911c0.047-0.614-0.023-1.148-0.146-1.641
		C173.238,67.528,174.028,64.945,172.113,62.621z M153.513,56.222c-3.253-0.473-6.508-0.493-9.395,0.007
		c-0.036,0.006-0.065,0.021-0.102,0.028c0.096-0.482,0.003-0.997-0.289-1.43c0.084-2.027-0.898-4.314-1.278-6.228
		c-0.393-1.982-0.576-3.98-0.722-5.983C145.547,47.203,149.433,51.803,153.513,56.222z M133.711,44.146
		c0.533,4.323,1.891,8.756,4.315,12.019c0.442,0.594,0.957,1.045,1.549,1.305c-4.335,1.643-7.839,4.416-10.756,7.89
		C129.865,58.086,131.324,51.009,133.711,44.146z M16.351,9.12c35.413,3.4,73.523,10.597,108.273,1.162
		c1.519,5.632,1.913,11.459,1.091,17.497c-0.057,0.333,0.021,0.613,0.026,0.923c-35.64-0.168-70.98-1.561-106.579,0.966
		C21.151,25.24,18.454,15.566,16.351,9.12z M118.06,113.302c-6.87-0.697-13.22,3.496-17.371,8.924
		c-2.551,3.336-4.773,6.839-7.929,9.658c-5.501,4.914-13.991,2.949-20.364,1.532c-2.039-0.454-3.593,0.903-3.794,2.89
		c-1.223,12.088,2.199,20.622,12.29,26.338c-21.634,1.327-43.27,2.604-64.909,3.916c1.611-21.409-0.293-42.538-2.617-63.712
		c7.076,5.823,15.17,7.65,23.372,0.679c8.22-6.986,13.454-18.796,19.282-28.23c4.045,0.665,8.09,1.334,12.137,1.984
		c15.689,2.519,32.864,6.011,48.491,2.228c0.709-0.172,1.261-0.576,1.734-1.058C118.029,90.008,117.954,101.65,118.06,113.302z
		 M20.044,90.121c-0.131-2.83-0.068-5.652,0.038-8.48c0.142,0.341,0.286,0.683,0.425,1.025c0.037,1.438,0.078,2.875,0.192,4.298
		c0.174,3.562,0.565,7.124,1.151,10.707c-0.345-0.139-0.692-0.24-1.043-0.289c0-0.036,0.018-0.062,0.017-0.099
		C20.737,94.863,20.44,92.481,20.044,90.121z M24.132,48.832c1.259,0.735,2.424,1.616,3.513,2.616
		c-0.295,0.032-0.57,0.158-0.822,0.339c-0.154-0.094-0.299-0.202-0.455-0.292c-0.563-0.321-1.357-0.382-1.992-0.121
		C24.216,50.523,24.127,49.673,24.132,48.832z M119.232,73.014c-0.487-0.938-1.306-1.673-2.582-1.853
		c-15.554-2.184-31.461-2.013-47.14-3.864c-9.83-1.16-19.583-2.39-29.351-3.281c-1.556-11.104-10.554-20.508-21.523-22.89
		c-0.035-0.008-0.062,0.005-0.096-0.002c1.567-2.473,2.813-5.142,2.011-7.787c35.518,2.916,70.813,5.452,106.497,5.682
		c-3.951,10.179-5.264,21.154-4.488,32.154C121.262,71.264,119.997,71.875,119.232,73.014z M139.967,135.367
		c-0.871-0.585-1.872-0.911-3.01-0.882c-0.223-0.51-0.466-1.012-0.75-1.496c1.759,0.183,3.51,0.425,5.247,0.767
		C140.945,134.284,140.459,134.828,139.967,135.367z M148.634,139.548c0.21-0.717,0.181-1.379-0.015-1.977
		c0.191-0.666,0.248-1.32,0.123-1.938c1.116,0.352,2.237,0.663,3.348,1.068C150.899,137.587,149.787,138.6,148.634,139.548z
		 M161.809,70.457c-2.441,21.149-0.415,42.783-4.014,63.778c-0.011-0.003-0.022,0.002-0.032-0.001
		c0.104-1.498-0.541-3.08-2.312-3.741c-9.541-3.562-18.637-4.293-28.138-2.128c0.452-17.266,0.457-34.57-0.104-51.683
		c0.041-0.05,0.094-0.073,0.133-0.128c4.421-6.143,9.564-10.383,16.956-12.325c6.765-1.778,12.472,1.737,18.562,3.658
		C162.325,68.58,161.929,69.421,161.809,70.457z"/>
</g>
<g>
</g>
<g>
</g>
<g>
</g>
<g>
</g>
<g>
</g>
<g>
</g>
<g>
</g>
<g>
</g>
<g>
</g>
<g>
</g>
<g>
</g>
<g>
</g>
<g>
</g>
<g>
</g>
<g>
</g>
</svg>
