<?xml version="1.0" encoding="iso-8859-1"?>
<!-- Generator: Adobe Illustrator 16.0.0, SVG Export Plug-In . SVG Version: 6.00 Build 0)  -->
<!DOCTYPE svg PUBLIC "-//W3C//DTD SVG 1.1//EN" "http://www.w3.org/Graphics/SVG/1.1/DTD/svg11.dtd">
<svg version="1.1" id="Capa_1" xmlns="http://www.w3.org/2000/svg" xmlns:xlink="http://www.w3.org/1999/xlink" x="0px" y="0px"
	 width="194.954px" height="194.954px" viewBox="0 0 194.954 194.954" style="enable-background:new 0 0 194.954 194.954;"
	 xml:space="preserve">
<g>
	<path d="M189.969,68.634c-6.163-44.806-49.699-62.482-89.514-67.298C70.075-2.339,21.71-0.465,8.26,33.6
		c-12.865,32.584,7.983,78.575,44.145,80.539c-3.656,4.534-7.499,8.877-11.516,13.104c-7.459,7.85-16.034,15.455-20.392,25.586
		c-9.67,22.481,21.336,32.487,36.997,37.239c18.976,5.758,47.233,9.056,63.408-5.536c15.403-13.895,11.861-34.375,4.154-51.473
		c0.68-0.279,1.301-0.71,1.771-1.317C162.696,136.595,195.146,106.279,189.969,68.634z M112.504,177.692
		c-13.12,9.918-33.747,6.728-48.412,3.277c-10.52-2.476-21.982-6.24-30.502-13.028c-7.413-5.907-2.02-13.509,2.467-19.181
		c8.156-10.312,18.905-18.618,25.6-30.033c8.703-2.254,16.817-1.512,25.82,1c10.291,2.872,16.944,9.859,26.131,14.272
		c0.08,0.037,0.16,0.04,0.24,0.072C120.354,147.881,126.977,166.752,112.504,177.692z M55.364,107.923
		c2.678-3.436,5.683-6.205,8.879-8.392c0.337,3.735,1.216,7.563,2.206,10.932c-0.879,0.188-1.756,0.389-2.617,0.644
		c-0.067-0.829-0.44-1.656-1.132-2.161c-0.028-1.163-1.667-1.653-2.434-0.859c-0.112,0.115-0.225,0.198-0.337,0.302
		C58.379,108.333,56.864,108.154,55.364,107.923z M70.176,101.409c-0.033-1.737,0.099-3.491,0.134-5.234
		c3.623-1.554,7.386-2.433,11.142-2.699c-0.699,2.349-0.993,4.925-1.418,7.201c-0.57,3.053-0.922,6.103-0.933,9.179
		c-2.762-0.262-5.543-0.326-8.288-0.063C70.485,107.008,70.23,104.223,70.176,101.409z M117.602,120.28
		c-1.968,0.511-3.011,2.436-3.041,4.465c-2.254-2.243-5.017-4.143-7.981-5.794c1.746-2.033,3.539-4.026,5.32-6.029
		c0.608-0.685,1.269-1.375,1.934-2.081C115.456,113.678,116.743,116.827,117.602,120.28z M106.897,109.062
		c-1.763,2.462-3.392,4.978-4.915,7.583c-2.291-1.035-4.618-1.958-6.875-2.771c1.152-2.642,2.52-5.159,4.099-7.626
		c1.389-2.17,3.485-4.203,4.42-6.604c2.144,1.495,4.112,3.272,5.9,5.265C108.631,106.333,107.795,107.81,106.897,109.062z
		 M93.777,103.074c-1.508,2.917-2.725,5.957-3.67,9.086c-0.163-0.053-0.339-0.113-0.5-0.166c-1.899-0.616-3.866-1.079-5.854-1.467
		c0.477-3.294,1.091-6.543,1.985-9.772c0.682-2.461,1.627-4.731,1.958-7.126c3.48,0.389,6.877,1.311,10.078,2.717
		C96.029,98.188,94.986,100.737,93.777,103.074z M169.001,107.198c-10.636,12.729-26.288,14.86-41.567,13.796
		c-5.149-37.311-60.135-52.065-77.809-14.39c-30.173-9.421-47.4-53.739-25.897-79.024C40.308,8.085,73.86,8.689,96.924,10.688
		c30.538,2.647,62.565,13.181,78.029,41.708C184.293,69.625,181.339,92.434,169.001,107.198z"/>
</g>
<g>
</g>
<g>
</g>
<g>
</g>
<g>
</g>
<g>
</g>
<g>
</g>
<g>
</g>
<g>
</g>
<g>
</g>
<g>
</g>
<g>
</g>
<g>
</g>
<g>
</g>
<g>
</g>
<g>
</g>
</svg>
