<?xml version="1.0" encoding="iso-8859-1"?>
<!-- Generator: Adobe Illustrator 16.0.0, SVG Export Plug-In . SVG Version: 6.00 Build 0)  -->
<!DOCTYPE svg PUBLIC "-//W3C//DTD SVG 1.1//EN" "http://www.w3.org/Graphics/SVG/1.1/DTD/svg11.dtd">
<svg version="1.1" id="Capa_1" xmlns="http://www.w3.org/2000/svg" xmlns:xlink="http://www.w3.org/1999/xlink" x="0px" y="0px"
	 width="188.59px" height="188.59px" viewBox="0 0 188.59 188.59" style="enable-background:new 0 0 188.59 188.59;"
	 xml:space="preserve">
<g>
	<path d="M43.348,37.064c-0.226,0-0.226,0.35,0,0.35S43.574,37.064,43.348,37.064z"/>
	<path d="M163.385,108.948c1.947-4.484,2.39-9.552,0.767-15.262c-0.858-3.022-4.947-2.181-5.21,0.705
		c-2.192,24.098-30.696,29.084-50.578,31.169c-16.47,1.728-43.838,2.979-58.897-7.653c0.005-5.778-1.945-12.867-2.98-16.704
		c19.253,11.481,46.978,12.201,67.874,10.083c18.349-1.86,53.375-12.13,51.625-36.603c-0.115-1.623-1.671-2.627-3.024-2.331
		c2.674-3.609,4.557-7.795,5.247-12.699c0.189-1.354-0.661-2.611-1.744-3.215c5.005-5.42,6.498-12.539,0.788-21.705
		c1.938-3.154,2.332-6.769,0.58-10.941c-8.87-21.126-47.624-17.532-65.029-16.085c-23.42,1.948-62.037,7.79-75.514,30.177
		c-1.504,2.499,2.251,5.56,4.12,3.179c13.348-17.002,40.98-21.766,60.988-25.058c18.901-3.11,53.898-8.502,68.951,7.034
		c15.691,16.194-38.749,21.962-45.462,22.652c-19.015,1.955-37.747,1.1-56.771,0.778c-2.211-0.037-3.053,2.359-2.19,3.918
		c-8.283,4.875-22.58,14.472-21.644,24.704c0.648,7.079,2.892,14.146,4.95,21.142c-0.061,0.272,0.003,0.556,0.238,0.808
		c0.803,2.749,1.568,5.488,2.181,8.209c0.232,1.031,1.367,5.997,1.623,10.262c-0.207,0.328-0.255,0.746,0.015,1.162
		c0.009,0.015,0.023,0.027,0.032,0.042c0.054,3.246-0.552,5.771-2.741,5.226c-9.785-2.445-12.794-13.082-13.809-21.62
		c-2.107-17.73,0.51-37.206,3.498-54.724c0.38-2.226-2.75-3.176-3.429-0.945c-5.608,18.402-8.398,40.303-4.974,59.347
		c0.138,0.77,0.38,1.645,0.609,2.504c-28.107-0.805-28.684,36.725-13.767,53.051c18.238,19.963,53.515,18.723,78.1,20.346
		c27.191,1.795,64.008,7.247,87.176-11.224C198.862,149.639,188.982,119.094,163.385,108.948z M60.289,52.21
		c0.071-0.057,0.1-0.126,0.156-0.188c17.103,3.227,85.314,2.746,103.844-13.774C169.78,75.54,74.487,67.61,45.449,64.016
		C49.821,59.444,55.938,55.682,60.289,52.21z M43.234,66.6c27.625,6.405,58.322,7.457,86.261,4.319
		c9.07-1.019,22.979-4.196,32.141-10.414C141.192,98.112,72.519,89.039,40.218,73.428C40.601,70.957,41.69,68.693,43.234,66.6z
		 M40.469,78.616c-0.125-0.501-0.208-0.991-0.275-1.476c18.885,14.402,49.268,16.03,71.71,15.128
		c15.073-0.606,36.789-4.74,48.452-16.829c-4.637,8.216-7.977,14.566-16.774,19.94c-10.62,6.486-24.062,8.719-36.221,9.861
		c-20.394,1.916-43.056,0.168-62.015-8.351C43.774,90.783,41.995,84.732,40.469,78.616z M44.878,126.773
		c2.344-0.607,3.594-2.469,4.174-4.942c20.478,16.633,78.142,16.715,103.672-0.733c-5.863,24.758-39.884,26.725-60.821,26.515
		c-16.738-0.168-60.34-3.36-61.579-27.088C34.046,125.178,38.977,128.302,44.878,126.773z M178.458,148.392
		c-3.226,12.777-19.062,18.026-30.082,20.74c-18.597,4.579-38.854,2.646-57.729,1.141c-17.399-1.389-34.619-1.195-51.72-5.305
		c-10.343-2.485-20.171-7.289-26.759-15.858c-10.784-14.025-2.944-33.205,12.508-38.897c1.153,3.076,2.712,6.29,4.735,9.106
		c-0.194,0.024-0.378,0.104-0.486,0.327C16.348,145.354,72.211,153.3,85.95,154.399c21.652,1.732,75.093-1.303,72.327-34.386
		c-0.081-0.971-0.692-1.712-1.46-2.145c0.58-0.523,1.095-1.08,1.62-1.629c0.018,0.006,0.03,0.016,0.047,0.022
		C173.016,121.27,182.432,132.641,178.458,148.392z"/>
</g>
<g>
</g>
<g>
</g>
<g>
</g>
<g>
</g>
<g>
</g>
<g>
</g>
<g>
</g>
<g>
</g>
<g>
</g>
<g>
</g>
<g>
</g>
<g>
</g>
<g>
</g>
<g>
</g>
<g>
</g>
</svg>
