<?xml version="1.0" encoding="iso-8859-1"?>
<!-- Generator: Adobe Illustrator 16.0.0, SVG Export Plug-In . SVG Version: 6.00 Build 0)  -->
<!DOCTYPE svg PUBLIC "-//W3C//DTD SVG 1.1//EN" "http://www.w3.org/Graphics/SVG/1.1/DTD/svg11.dtd">
<svg version="1.1" id="Capa_1" xmlns="http://www.w3.org/2000/svg" xmlns:xlink="http://www.w3.org/1999/xlink" x="0px" y="0px"
	 width="192.569px" height="192.568px" viewBox="0 0 192.569 192.568" style="enable-background:new 0 0 192.569 192.568;"
	 xml:space="preserve">
<g>
	<path d="M138.247,91.548c-4.293-20.68,3.603-44.94-19.14-54.992c-0.045-0.034-0.064-0.077-0.112-0.11
		c-0.952-0.658-1.868-1.23-2.778-1.786c1.5-2.817,2.293-6.141,3.675-8.978c2.621-5.383,6.178-10.303,10.911-13.995
		c2.185-1.703,1.422-5.68-0.885-6.867c-4.658-2.397-8.999-4.313-14.249-4.807c-1.579-0.149-3.166,0.98-3.944,2.263
		c-5.307,8.732-7.054,18.499-5.074,28.076c-26.084-6.866-30.044,37.249-35.225,58.17c-5.047,20.378-32.412,27.086-41.024,46.171
		c-9.093,20.15,6.653,39.388,23.913,47.647c19.697,9.425,46.584,11.331,67.992,9.71c22.7-1.72,38.731-19.264,42.176-41.316
		C168.083,127.678,142.629,112.661,138.247,91.548z M115.92,15.129c0.646-1.84,1.428-3.699,2.354-5.593
		c0.581,0.134,1.141,0.327,1.704,0.512C118.527,11.66,117.167,13.345,115.92,15.129z M147.446,168.698
		c-7.138,11.926-20.786,14.448-33.438,14.912c-17.554,0.644-36.303-1.749-52.926-7.424c-25.001-8.535-31.88-34.253-12.265-52.052
		c9.923-9.005,23.247-15.897,28.937-28.697c8.302-18.673,3.875-62.862,31.679-56.751c0.744,1.067,1.903,1.236,2.956,0.798
		c0.054,0.018,0.103,0.027,0.157,0.044c0.169,0.8,0.619,1.539,1.461,2.018c20.544,11.691,11.829,33.218,15.341,52.454
		c2.979,16.322,14.713,27.044,22.719,40.928C158.676,146.394,153.606,158.406,147.446,168.698z"/>
</g>
<g>
</g>
<g>
</g>
<g>
</g>
<g>
</g>
<g>
</g>
<g>
</g>
<g>
</g>
<g>
</g>
<g>
</g>
<g>
</g>
<g>
</g>
<g>
</g>
<g>
</g>
<g>
</g>
<g>
</g>
</svg>
