<?xml version="1.0" encoding="iso-8859-1"?>
<!-- Generator: Adobe Illustrator 16.0.0, SVG Export Plug-In . SVG Version: 6.00 Build 0)  -->
<!DOCTYPE svg PUBLIC "-//W3C//DTD SVG 1.1//EN" "http://www.w3.org/Graphics/SVG/1.1/DTD/svg11.dtd">
<svg version="1.1" id="Capa_1" xmlns="http://www.w3.org/2000/svg" xmlns:xlink="http://www.w3.org/1999/xlink" x="0px" y="0px"
	 width="193.394px" height="193.394px" viewBox="0 0 193.394 193.394" style="enable-background:new 0 0 193.394 193.394;"
	 xml:space="preserve">
<g>
	<path d="M165.982,103.126c-5.738-6.833-12.856-12.918-20.775-17.012c0.382-0.245,0.668-0.624,0.741-1.161
		c3.04-22.202-34.459-47.377-42.759-20.772c-0.464-2.269-0.844-4.496-1.206-6.524c-2.578-14.442,1.621-47.464-14.194-55.929
		C72.072-6.684,59.704,17.744,58.718,29.167c-1.816,21.048,4.105,42.617,12.641,61.896c-32.57-4.831-63.24,26.403-56.18,64.365
		c2.916,15.678,19.14,39.626,34.282,20.551c6.394-8.055,7.255-18.957,7.41-28.799c0.326-20.63-0.21-34.738,21.973-43.251
		c2.012-0.772,2.242-2.919,1.273-4.187c1.741,0.507,3.464,1.074,5.149,1.735c4.131,2.733,8.415,5.265,12.592,7.896
		c-1.039,12.202,3.566,23.265,8.354,34.426c3.663,8.54,25.596,48.739,0.561,42.353c-14.2-3.623-20.475-27.374-23.988-39.187
		c-3.442-11.574-6.712-24.924-5.904-37.09c0.259-3.896-5.539-3.733-5.966,0c-2.671,23.362,8.539,76.904,36.134,82.757
		c10.44,2.216,17.573-4.015,18.064-12.869c10.452,6.399,20.788,11.056,32.932,13.551c0.953,0.195,2.123,0.063,2.797-0.739
		c4.206-5.007,7.16-12.503,7.756-19.015c0.146-1.595-1.172-2.795-2.511-3.298c-0.449-0.17-0.797-0.455-1.1-0.796
		c3.651,0.489,7.176-1.641,9.747-8.162C182.733,141.022,180.227,120.09,165.982,103.126z M104.798,67.747
		c3.669-11.168,12.556-13.691,22.292-7.901c9.382,5.58,12.632,14.718,14.764,24.678c-9.121-3.939-19.148-5.147-29.278-1.83
		c-0.534-0.865-1.377-1.589-2.314-2.499c-3.053-2.966-4.833-7.256-6.051-11.723C104.463,68.336,104.68,68.105,104.798,67.747z
		 M50.977,126.249c-1.187,8.113,0.723,64.496-19.352,47.554c-9.115-7.693-10.834-24.292-10.475-35.278
		c0.39-11.949,6.789-22.572,15.312-30.48c11.238-10.427,26.482-12.423,40.63-9.105C62.317,102.162,53.181,111.185,50.977,126.249z
		 M95.703,100.089c-5.298-3.376-10.464-6.952-16.212-9.499c-0.799-0.354-1.627-0.268-2.342,0.043
		C71.077,74.37,66.476,57.075,65.116,39.821c-0.905-11.482,0.324-24.45,10.59-31.48c15.042-10.3,16.98,11.991,17.795,20.887
		c1.535,16.763,1.412,34.368,8.727,49.884c3.954,8.389,4.12,7.686,0.527,17.86C99.67,105.713,102.061,104.143,95.703,100.089z
		 M151.854,186.312c-9.108-1.955-18.122-5.381-26.231-9.835c-0.228-0.125-0.449-0.186-0.66-0.201
		c-0.038-0.288-0.057-0.57-0.107-0.862c-3.969-22.441-20.826-41.538-23.717-64.373c1.243,0.114,2.509-0.558,3.207-1.624
		c0.052-0.079,0.099-0.168,0.15-0.248c5.854,27.885,22.95,56.44,48.326,70.058c-0.688,2.442-0.999,4.956-0.969,7.069
		C151.852,186.303,151.854,186.308,151.854,186.312z M154.539,174.936c-24.869-16.614-35.76-43.383-47.118-70.287
		c-0.062-0.146-0.152-0.231-0.23-0.343c0.81-1.685,1.558-3.448,2.233-5.254c0.246,0.356,0.57,0.686,1.005,0.961
		c21.471,13.55,28.947,37.6,41.654,58.413c1.078,1.768,2.316,3.467,3.65,4.988c0.036,0.122,0.026,0.229,0.079,0.357
		c1.182,2.819,1.388,5.207,1.932,7.207C156.444,172,155.387,173.375,154.539,174.936z M163.459,162.487
		c-9.35-7.383-15.839-24.632-20.963-34.954c-7.019-14.138-15.253-24.727-28.707-33.267c-0.947-0.601-1.866-0.637-2.655-0.346
		c0.809-2.784,1.436-5.547,1.855-8.144c20.232-4.14,38.28,8.062,49.9,23.868c4.901,6.667,8.045,14.283,9.761,22.335
		C173.359,135.309,169.797,167.492,163.459,162.487z"/>
</g>
<g>
</g>
<g>
</g>
<g>
</g>
<g>
</g>
<g>
</g>
<g>
</g>
<g>
</g>
<g>
</g>
<g>
</g>
<g>
</g>
<g>
</g>
<g>
</g>
<g>
</g>
<g>
</g>
<g>
</g>
</svg>
