<?xml version="1.0" encoding="iso-8859-1"?>
<!-- Generator: Adobe Illustrator 16.0.0, SVG Export Plug-In . SVG Version: 6.00 Build 0)  -->
<!DOCTYPE svg PUBLIC "-//W3C//DTD SVG 1.1//EN" "http://www.w3.org/Graphics/SVG/1.1/DTD/svg11.dtd">
<svg version="1.1" id="Capa_1" xmlns="http://www.w3.org/2000/svg" xmlns:xlink="http://www.w3.org/1999/xlink" x="0px" y="0px"
	 width="190.381px" height="190.381px" viewBox="0 0 190.381 190.381" style="enable-background:new 0 0 190.381 190.381;"
	 xml:space="preserve">
<g>
	<path d="M189.824,125.937c-5.883-25.16-38.788-19.335-58.027-24.035c-29.909-7.307-68.047-90.356-100.69-40.268
		c-0.195,0.298-0.323,0.591-0.421,0.879C22.51,50.225,12.266,35.679,6.933,41.25c-9.336,9.752-2.253,20.954,8.372,29.57
		C5.606,77.802-3.22,87.311,1.148,100.052c4.956,14.454,23.983,22.8,36.819,28.01c36.823,14.946,77.316,23.085,117.065,22.233
		C168.876,149.999,194.475,145.826,189.824,125.937z M13.434,47.863c-0.459-0.672-0.932-1.341-1.402-2.011
		c3.159,2.192,5.831,5.793,8.201,9.657c-2.331-2.372-4.259-5.079-6.608-7.514C13.563,47.932,13.496,47.915,13.434,47.863z
		 M177.213,139.66c-4.445,2.768-10.888,3.426-15.924,3.989c-6.892,0.771-13.811,0.237-20.713,0.579
		c-28.489,1.41-60.081-7.317-86.818-16.209c-14.547-4.839-30.001-10.998-41.38-21.602c-12.519-11.665-4.608-24.233,5.826-33.36
		c8.288,6.036,17.905,10.444,23.575,11.561c1.379,0.272,2.374-1.655,1.001-2.374c-0.479-0.251-0.951-0.526-1.429-0.782
		c1.37-0.875,1.852-3.056,0.044-4.255c-1.601-1.061-4.485-5.307-7.971-10.565c1.304,0.259,2.764-0.117,3.75-1.463
		c27.085-36.967,62.726,29.733,86.999,41.195c16.566,7.822,36.401,2.224,52.797,10.808
		C186.407,122.125,185.027,134.795,177.213,139.66z"/>
</g>
<g>
</g>
<g>
</g>
<g>
</g>
<g>
</g>
<g>
</g>
<g>
</g>
<g>
</g>
<g>
</g>
<g>
</g>
<g>
</g>
<g>
</g>
<g>
</g>
<g>
</g>
<g>
</g>
<g>
</g>
</svg>
