<?xml version="1.0" encoding="iso-8859-1"?>
<!-- Generator: Adobe Illustrator 16.0.0, SVG Export Plug-In . SVG Version: 6.00 Build 0)  -->
<!DOCTYPE svg PUBLIC "-//W3C//DTD SVG 1.1//EN" "http://www.w3.org/Graphics/SVG/1.1/DTD/svg11.dtd">
<svg version="1.1" id="Capa_1" xmlns="http://www.w3.org/2000/svg" xmlns:xlink="http://www.w3.org/1999/xlink" x="0px" y="0px"
	 width="185.252px" height="185.253px" viewBox="0 0 185.252 185.253" style="enable-background:new 0 0 185.252 185.253;"
	 xml:space="preserve">
<g>
	<path d="M153.948,56.167c-5.66-18.36-26.504-18.516-42.358-15.576c-0.072-0.053-0.127-0.116-0.207-0.165
		c-1.036-0.628-2.197-0.795-3.393-0.719c0.371-3.443,0.604-6.979,1.481-10.309c0.729-2.765,1.353-5.489,1.793-8.259
		c9.726,1.188,19.081,0.511,28.984,0.426c1.153-0.01,2.587-0.857,2.765-2.105c2.198-15.38-18.385-20.462-29.995-19.302
		C89.292,2.527,85.32,25.331,91.357,44.604c-0.072,0.074-0.114,0.169-0.178,0.249c-1.184-0.049-2.369-0.057-3.557,0.025
		c-2.825,0.197-2.721,3.985,0,4.311c1.347,0.161,2.686,0.379,4.021,0.625c0.289,0.221,0.638,0.382,1.026,0.496
		c-0.361,0.522-0.736,1.037-1.069,1.572c-1.704,2.736,2.342,4.84,4.188,2.448c0.821-1.064,1.728-2.019,2.683-2.914
		c1.025,0.272,2.061,0.509,3.076,0.806c3.874,1.13,8.342,3.765,12.388,3.699c3.036-0.049,3.524-3.623,1.42-5.244
		c-2.326-1.792-5.957-2.548-9.21-3.204c0.119-0.152,0.167-0.36,0.267-0.527c1.757-0.285,3.538-0.4,4.971-1.399
		c0.08-0.056,0.139-0.127,0.212-0.187c0.109,0.011,0.2,0.058,0.316,0.053c10.728-0.415,27.715-0.271,33.806,10.436
		c-17.597,4.597-36.494,5.396-54.578,5.601c-10.722,0.122-21.4-0.667-31.955-2.558c-6.863-1.23-12.049-5.217-18.214-7.266
		c-0.265-0.231-0.519-0.475-0.751-0.756c6.566-2.946,13.329-4.483,20.607-5.266c7.788-0.839,15.926,0.295,23.423-2.187
		c2.421-0.801,2.426-4.108,0-4.908c-15.374-5.069-37.303-0.295-51.23,7.168c-1.929,1.034-2.386,3.534-1.405,5.358
		c1.87,3.477,3.435,4.451,5.635,4.927c0.802,3.321,3.636,5.854,7.546,7.778c3.651,22.563,4.833,45.502,7.747,68.165
		c1.601,12.446,2.294,40.361,15.201,47.511c0.572,0.317,1.164,0.423,1.735,0.402c0.293,0.171,0.552,0.365,0.925,0.478
		c16.268,4.906,34.197,6.86,50.805,2.659c1.44-0.364,2.353-1.204,2.825-2.227c1.868,0.286,3.731-0.531,4.149-3.019
		c3.546-21.113,7.557-41.443,12.947-62.208c4.292-16.53,7.953-34.635,5.948-51.817c0.755-0.275,1.548-0.488,2.291-0.783
		c1.265-0.501,2.03-1.417,2.391-2.439C153.404,59.922,154.629,58.381,153.948,56.167z M137.537,15.74
		c-9.229-0.245-18.851-1.236-27.876-2.745c-0.238-0.22-0.485-0.436-0.711-0.662c-1.284-1.284-2.458-2.656-3.551-4.092
		c1.743-0.945,3.708-1.716,5.972-2.236C117.979,4.489,136.534,6.25,137.537,15.74z M101.893,34.146
		c-0.919,6.416-0.479,8.752-6.334,9.322c-1.508-7.693-1.979-16.209,0.265-23.259c1.208,0.654,2.417,1.308,3.625,1.962
		c1.218,0.659,2.507,1.493,3.849,1.969C102.892,27.477,102.372,30.8,101.893,34.146z M103.779,19
		c-0.673-0.303-1.349-0.589-1.959-0.884c-1.416-0.682-2.854-1.322-4.285-1.972c1.104-2.056,2.549-3.894,4.35-5.47
		c0.812,1.219,1.685,2.397,2.61,3.549c0.058,0.072,0.118,0.151,0.177,0.224c-0.43,0.602-0.713,1.34-0.742,2.226
		C103.903,17.454,103.831,18.226,103.779,19z M128.688,123.768c-4.303,15.944-10.247,33.556-9.113,50.354
		c-0.251,0.024-0.503,0.048-0.77,0.116c-15.49,3.918-30.913,1.377-46.349-1.389c-0.27-0.049-0.497,0.007-0.749,0.005
		c-1.929-6.143-4.778-11.979-6.273-18.384c-2.735-11.715-4.029-23.784-5.402-35.712c-1.989-17.275-3.294-35.25-7.616-52.239
		c10.075,2.739,22.2,3.337,26.887,3.672c19.645,1.403,42.323,1.216,61.924-4.507C138.717,85.542,133.921,104.371,128.688,123.768z"
		/>
</g>
<g>
</g>
<g>
</g>
<g>
</g>
<g>
</g>
<g>
</g>
<g>
</g>
<g>
</g>
<g>
</g>
<g>
</g>
<g>
</g>
<g>
</g>
<g>
</g>
<g>
</g>
<g>
</g>
<g>
</g>
</svg>
