<?xml version="1.0" encoding="iso-8859-1"?>
<!-- Generator: Adobe Illustrator 16.0.0, SVG Export Plug-In . SVG Version: 6.00 Build 0)  -->
<!DOCTYPE svg PUBLIC "-//W3C//DTD SVG 1.1//EN" "http://www.w3.org/Graphics/SVG/1.1/DTD/svg11.dtd">
<svg version="1.1" id="Capa_1" xmlns="http://www.w3.org/2000/svg" xmlns:xlink="http://www.w3.org/1999/xlink" x="0px" y="0px"
	 width="194.72px" height="194.719px" viewBox="0 0 194.72 194.719" style="enable-background:new 0 0 194.72 194.719;"
	 xml:space="preserve">
<g>
	<path d="M191.195,141.913c-3.301-1.039-6.699-1.958-10.096-2.874c5.303-11.915-1.601-24.255-14.191-27.957
		c-3.247-0.955-6.611-1.261-9.92-1.021c-0.616-5.938-4.24-11.341-9.209-14.711c2.482-9.972-7.783-20.971-16.639-23.568
		c-8.386-2.46-16.258,0.427-21.851,6c-0.538-1.847-1.22-3.565-1.968-4.946c-3.271-6.049-9.822-9.814-16.199-11.706
		c-12.589-3.736-28.349,2.348-26.32,17.497c0.02,0.15,0.084,0.265,0.127,0.397c-0.548,0.073-1.096,0.114-1.642,0.242
		c-6.96-17.307-12.703-35.411-22.569-51.353c-4.113-6.646-17.815-19.224-24.104-7.53C11.388,30.102,24.267,46.5,29.16,53.679
		c7.143,10.478,15.697,22.416,26.246,29.966c-3.092,3.414-3.985,8.098-3.529,12.763c-4.692-3.472-10.528-5.333-16.261-4.354
		c-11.018,1.882-15.527,11.856-13.517,21.949c-3.917,0.278-7.775,1.656-11.09,3.818c-5.072,3.308-9.323,8.958-9.03,15.255
		c0.189,4.071,2.417,7.226,5.492,9.427c-1.057,0.354-2.144,0.664-3.19,1.031c-1.335,0.468-1.989,1.438-2.158,2.468
		c-1.413,0.467-2.545,1.808-1.97,3.501c2.351,6.936,6.798,18.288,13.367,22.137c3.552,2.079,10.326,0.044,14.094-0.257
		c10.128-0.807,20.258-1.568,30.397-2.22c38.416-2.466,76.614-2.018,113.617,9.707c4.021,1.274,6.431-2.477,5.813-5.679
		c7.394-5.607,13.049-17.45,16.654-24.148C195.615,146.214,194.251,142.874,191.195,141.913z M42.612,59.982
		c-7.22-9.679-15.234-19.873-19.332-31.368c-2.119-5.944,1.748-8.403,6.965-4.102c5.564,4.586,8.798,12.527,11.723,18.903
		c4.588,10.002,7.467,20.94,11.777,31.117C49.824,69.82,46.186,64.772,42.612,59.982z M152.214,117.206
		c1.272,0.761,3.04,0.615,3.962-0.57c2.062-0.146,4.156-0.125,6.264,0.193c12.172,1.838,13.963,10.534,12.265,20.565
		c-12.642-3.081-25.794-5.404-39.236-6.869c0.071-0.513,0.091-1.021,0.113-1.528c0.261-0.135,0.503-0.314,0.678-0.599
		C139.936,122.422,145.721,118.648,152.214,117.206z M134.816,123.221c-1.772-5.764-6.383-10.713-11.871-13.443
		c0.162-0.409,0.256-0.87,0.201-1.417c-0.148-1.509-0.445-2.935-0.844-4.295c3.646-3.615,8.58-5.657,14.129-5.652
		c1.424,0.001,2.633,0.215,3.754,0.517c0.717,1.632,2.385,2.296,3.883,1.87c3.061,2.452,4.496,6.496,5.699,10.715
		C143.619,113.576,138.186,117.625,134.816,123.221z M115.174,105.469c-0.33,0.693-0.695,1.362-0.967,2.093
		c-9.329-0.369-17.591,4.519-21.598,12.468c-2.83-5.461-7.893-9.817-13.668-12.585c0.14-0.189,0.247-0.415,0.306-0.683
		c2.001-9.124,9.701-13.291,18.534-13.519C106.607,93.014,112.031,98.326,115.174,105.469z M113.309,113.501
		c4.153,0.005,8.068,1.84,11.069,4.613c3.541,3.271,3.952,7.546,4.952,11.796c-11.348-1.02-22.835-1.501-34.315-1.347
		c-0.046-0.831-0.147-1.647-0.29-2.45C97.697,118.109,104.525,113.491,113.309,113.501z M127.829,78.855
		c3.774,0.713,7.101,2.975,9.293,6.093c1.575,2.243,1.887,4.613,2.04,7.019c-0.061-0.008-0.119-0.031-0.18-0.039
		c-7.502-0.915-14.252,1.827-19.084,6.741c-2.479-4.024-6.148-7.056-10.32-9.069c0.477-1.311,0.714-2.755,0.77-4.25
		C114.553,80.263,120.703,77.508,127.829,78.855z M68.635,78.626c0.399-11.119,11.678-12.974,20.58-10.577
		c4.808,1.295,9.076,4.297,11.659,8.556c2.172,3.582,1.349,7.041,1.024,10.55c-6.087-1.032-12.399-0.135-17.349,2.925
		c0.303-0.939,0.187-2.039-0.72-3.078c-3.966-4.543-9.493-7.68-15.251-8.113C68.592,78.796,68.631,78.727,68.635,78.626z
		 M62.707,87.065c5.514-3.671,12.375,1.057,16.636,4.425c0.749,0.592,1.544,0.806,2.291,0.781c-0.723,0.665-1.393,1.396-2.005,2.191
		c-0.73-1.347-2.259-1.611-3.454-1.097c-0.472-0.513-0.932-1.038-1.44-1.515c-2.2-2.065-5.27,1.054-3.288,3.288
		c1.519,1.711,2.663,4.135,4.633,5.377c0.139,0.087,0.288,0.104,0.432,0.168c-0.263,0.851-0.517,1.711-0.69,2.64
		c-0.185-0.839-0.78-1.604-1.963-1.995c-3.069-1.018-4.906-4.859-5.286-7.833c-0.3-2.34-3.507-2.428-3.707,0
		c-0.373,4.522,1.346,8.107,4.341,11.039c-0.919-0.133-1.84-0.308-2.753-0.345c-2.511-0.104-4.931,0.179-7.216,0.752
		c-0.33-0.643-0.749-1.24-1.139-1.853C57.241,97.521,57.558,90.493,62.707,87.065z M37.601,98.122
		c7.339-0.708,11.863,3.97,15.399,9.374c-7.45,4.419-11.755,12.805-9.005,22.513c0.461,1.628,3.165,1.364,3.024-0.408
		c-0.671-8.408,2.834-14.389,8.862-17.429c1.644,2.355,5.195,0.896,5.195-1.76c1.689-0.342,3.479-0.535,5.378-0.533
		c5.668,0.007,11.213,2.32,15.47,5.977c4.188,3.596,5.453,8.086,6.558,12.847c-15.25,0.506-30.413,2.049-45.085,4.703
		c-0.933-7.652-6.039-15.443-13.222-18.252c-1.301-0.509-2.639-0.812-3.985-1.004C25.958,106.442,28.997,98.952,37.601,98.122z
		 M14.641,122.797c3.957-2.619,8.786-3.566,13.324-2.056c5.948,1.979,7.985,8.203,10.085,13.626
		c-8.178,1.642-16.174,3.646-23.939,5.988c-2.987-1.866-5.699-4.219-5.89-7.799C8.002,128.463,11.496,124.879,14.641,122.797z
		 M168.714,167.864c-25.874-7.839-52.784-9.799-79.78-9.567c-14.418,0.123-28.817,1.208-43.18,2.372
		c-8.038,0.652-16.069,1.412-24.1,2.142c-7.78,0.707-11.739-7.021-14.927-13.299c57.174-10.87,118.927-16.492,175.698-0.055
		C178.096,155.834,172.961,161.511,168.714,167.864z"/>
</g>
<g>
</g>
<g>
</g>
<g>
</g>
<g>
</g>
<g>
</g>
<g>
</g>
<g>
</g>
<g>
</g>
<g>
</g>
<g>
</g>
<g>
</g>
<g>
</g>
<g>
</g>
<g>
</g>
<g>
</g>
</svg>
