<?xml version="1.0" encoding="iso-8859-1"?>
<!-- Generator: Adobe Illustrator 16.0.0, SVG Export Plug-In . SVG Version: 6.00 Build 0)  -->
<!DOCTYPE svg PUBLIC "-//W3C//DTD SVG 1.1//EN" "http://www.w3.org/Graphics/SVG/1.1/DTD/svg11.dtd">
<svg version="1.1" id="Capa_1" xmlns="http://www.w3.org/2000/svg" xmlns:xlink="http://www.w3.org/1999/xlink" x="0px" y="0px"
	 width="193.746px" height="193.746px" viewBox="0 0 193.746 193.746" style="enable-background:new 0 0 193.746 193.746;"
	 xml:space="preserve">
<g>
	<path d="M185.532,95.12c0.076-0.804-0.048-1.616-0.322-2.361c4.172-5.775,5.669-11.717,4.5-19.182
		c-0.471-3.006-2.949-5.657-4.718-7.932c-5.412-6.959-6.738-6.989-6.673-17.176c0.014-2.147-2.322-4.283-4.514-3.438
		c-4.885,1.883-8.897,2.381-12.872,4.052c-2.253-12.347-11.812-24.325-25.749-18.614c-5.365,2.199-8.654,8.781-8.532,14.379
		c0.136,6.241,3.907,4.426-2.625,5.642c-2.184,0.406-4.71,0.792-6.894,1.715c-5.261-8.891-12.857-13.732-19.02-9.414
		c-0.717-7.683-5.031-14.721-12.494-17.855c-8.209-3.447-13.87,3.197-16.813,10.177c-4.727-5.795-11.6-9.999-19.242-6.503
		c-8.503,3.891-11.09,12.768-6.269,20.641c0.889,1.451,3.475,0.503,2.837-1.196c-2.201-5.867-0.735-12.133,5.441-14.678
		c7.435-3.064,12.868,4.716,15.598,10.343c1.146,2.362,5.071,1.786,5.606-0.732c1.192-5.618,4.156-14.918,11.761-11.641
		c6.602,2.845,7.087,11.075,7.454,17.122c0.04,0.664,0.324,1.21,0.701,1.672c-0.315,0.71-0.636,1.407-0.927,2.212
		c-0.485,1.342,1.433,1.927,2.156,0.909c6.319,1.486,12.64,2.972,18.958,4.459c0.869,2.144,3.543,3.325,5.389,1.423
		c2.643-2.725,9.693-2.764,13.287-3.295c1.926-0.284,2.547-2.462,2.306-4.059c-3.535-23.389,20.896-16.731,20.608,2.976
		c-0.049,3.331,3.718,4.238,5.961,2.469c2.852-2.248,6.758-3.077,10.474-3.962c-0.323,4.148-0.632,9.069,0.868,11.629
		c0.307,0.518,0.719,0.931,1.237,1.238c12.499,7.091,11.109,13.856,5.225,24.368c-26.223,7.755-54.319,7.48-81.329,5.093
		c-26.748-2.364-59.511-7.346-82.438-23.479c0.214-0.509,0.19-1.126-0.257-1.62c-2.084-2.303-5.473-5.631-5.72-8.964
		C8.28,58.68,16.246,57.465,18,57.103c0.79-0.163,1.509-0.92,1.692-1.692c1.06-4.455,3.473-10.778,8.881-11.077
		c5.523-0.305,7.294,6.703,10.682,9.519c1.099,0.913,2.832,0.367,2.861-1.185c0.126-6.661-7.21-12.833-13.543-13.204
		c-7.229-0.423-10.996,7.191-13.04,13.108C10.491,53.25,4.636,54.616,3.16,60.068c-0.762,2.817,0.435,5.305,2.316,7.414
		c-0.318,0.223-0.598,0.5-0.799,0.828c-0.005-0.319-0.026-0.632-0.027-0.952c-0.009-2.636-3.66-2.464-3.974,0
		c-6.857,54.018,39.503,91.467,88.513,100.665c46.812,8.785,105.799-16.13,104.537-71.284
		C193.622,92.164,187.104,90.964,185.532,95.12z M152.78,149.845c-18.857,11.479-42.903,12.245-64.027,8.333
		C45.404,150.15,6.742,116.317,4.75,70.787c0.104,0.157,0.164,0.318,0.312,0.468c20.697,21.159,53.277,28.163,81.476,32.148
		c30.67,4.335,66.009,6.104,95.766-4.214c1.287-0.446,2.145-1.258,2.662-2.211C179.444,119.016,173.442,137.269,152.78,149.845z"/>
	<path d="M91.432,66.605c-0.986-3.926-0.953-7.706-3.533-10.948c-2.049-2.574-6.587-1.965-9.373-1.383
		c-3.721,0.777-6.485,2.89-9.26,5.393c-1.245,1.125-2.883-0.023-4.354-0.121c-2.217-0.146-4.191,0.347-6.307,0.994
		c-1.05,0.321-2.145,1.417-1.994,2.618c0.761,6.067,4.202,6.931,7.483,11.386c1.347,1.826,4.052,0.298,3.056-1.786
		c-1.348-2.82-3.782-4.648-4.712-7.432c1.784-0.178,3.311,0.07,5.39,0.424c3.393,0.578,4.393-0.983,6.879-3.195
		c2.495-2.22,5.094-2.7,8.312-2.749c1.533-0.023,2.428,7.456,3.249,8.975C87.826,71.661,92.2,69.66,91.432,66.605z"/>
	<path d="M160.797,78.398c-0.923-3.357-3.675-5.484-6.261-7.614c-2.305-1.898-4.248-1.089-6.188,0.109
		c-1.764-2.441-3.809-5.285-6.444-5.954c-3.982-1.011-8.267,1.476-11.934,2.701c-1.444,0.483-5.522-2.383-7.308-2.633
		c-1.673-0.234-3.051,0.222-4.518,0.992c-4.072,2.138-5.222,9.499-6.707,13.272c-1.071,2.721,3.287,4.446,4.651,1.961
		c1.689-3.075,2.81-6.822,4.965-9.599c1.305-1.68,6.046,3.798,8.412,3.126c3.228-0.917,6.387-2.016,9.594-2.989
		c1.606-0.487,4.202,4.396,5.236,5.835c1.039,1.446,2.387,2.019,4.152,1.69c0.936-0.175,1.618-0.484,2.285-0.819
		c0.672,0.643,1.251,0.848,2.198-0.11c-0.668,0.675-1.541,1.212-2.264,1.832c-2.29,1.962-2.885,4.125-2.382,6.978
		c0.388,2.203,3.365,3.241,5.153,2.096C156.372,87.395,161.908,82.441,160.797,78.398z"/>
</g>
<g>
</g>
<g>
</g>
<g>
</g>
<g>
</g>
<g>
</g>
<g>
</g>
<g>
</g>
<g>
</g>
<g>
</g>
<g>
</g>
<g>
</g>
<g>
</g>
<g>
</g>
<g>
</g>
<g>
</g>
</svg>
