<?xml version="1.0" encoding="iso-8859-1"?>
<!-- Generator: Adobe Illustrator 16.0.0, SVG Export Plug-In . SVG Version: 6.00 Build 0)  -->
<!DOCTYPE svg PUBLIC "-//W3C//DTD SVG 1.1//EN" "http://www.w3.org/Graphics/SVG/1.1/DTD/svg11.dtd">
<svg version="1.1" id="Capa_1" xmlns="http://www.w3.org/2000/svg" xmlns:xlink="http://www.w3.org/1999/xlink" x="0px" y="0px"
	 width="190.141px" height="190.141px" viewBox="0 0 190.141 190.141" style="enable-background:new 0 0 190.141 190.141;"
	 xml:space="preserve">
<g>
	<g>
		<path d="M113.99,31.962c0.003,0.013,0.016,0.023,0.019,0.036C113.976,31.841,113.973,31.848,113.99,31.962z"/>
		<path d="M143.439,47.774c-4.296-10.141-18.709-11.294-28.396-9.479c-0.314-2.091-0.964-5.748-1.053-6.333
			c-0.3-1.303-2.03-2.408-3.329-1.864c-3.478,1.457-6.944,1.897-10.503,2.981c-2.145,0.653-5.204,4.83-7.28,4.434
			c-6.619-1.265-9.085-1.423-15.5,1.311c-2.92,1.244-6.106-3.024-8.646-3.674c-2.737-0.701-4.725-0.822-7.448-0.031
			c-5.587,1.621-7.252,8.639-7.802,13.914C43.946,32.292,32.537,16.568,20.828,1.241c-0.8-1.047-2.141-1.671-3.393-0.89
			c-4.803,3-8.655,6.335-12.762,10.295c-0.858,0.827-1.061,2.276-0.425,3.294c10.328,16.53,21.418,36.846,35.677,52.712
			c-1.178-0.372-2.501,0.062-3.508,0.865c-1.332,1.062-1.817,3.197-1.997,4.757c-0.282,2.454,0.072,4.909,0.448,7.333
			c0.303,1.955,3.583,1.931,3.909,0c0.262-1.549,0.633-3.073,0.999-4.6c1.508,0.778,3.69-0.398,3.29-2.595
			c-0.193-1.061-0.441-2.239-0.882-3.299c6.634,6.986,13.94,12.978,22.174,17.158c0.124,0.063,0.251,0.087,0.376,0.109
			c1.579,2.498,6.035,1.155,4.96-1.996c-3.805-11.16-8.71-21.782-14.338-32.017c0.523-0.134,0.995-0.48,1.184-1.076
			c2.666-8.411,8.486-13.849,16.611-6.536c1.02,0.918,2.146,0.957,3.359,0.433c7.871-3.392,10.071-3.254,18.016-1.736
			c0.925,0.177,2.04,0.069,2.697-0.713c3.43-4.08,7.657-4.969,12.148-6.429c0.359,2.472,0.312,4.026,2.464,5.823
			c0.344,0.453,0.855,0.771,1.563,0.732c5.035-0.273,9.932-0.309,14.848,0.955c4.971,1.278,8.173,5.314,12.802,7.059
			C143.016,51.624,144.07,49.263,143.439,47.774z M62.486,80.846c-19.49-18.417-34.455-40.12-49.025-62.642
			c-5.193-8.027,3.812-13.498,9.448-5.7c5.498,7.607,10.844,15.31,16.013,23.145C48.335,49.918,56.242,64.969,62.486,80.846z"/>
	</g>
	<path d="M181.166,95.413c-0.926-1.271-2.641-2.035-4.358-1.716c1.534-8.088,0.981-15.495-6.293-20.278
		c-0.217-3.022-0.794-6.08-3.271-8.088c-1.16-0.941-2.564-1.393-4.029-1.685c6.283-7.963,13.134-15.351,21.881-20.873
		c0.979-0.618,1.588-2.115,0.827-3.156c-11.803-16.141-25.718-10.919-36.489,3.466c-12.023,16.057-20.46,34.995-30.886,52.081
		c-1.093,0.673-1.74,2.315-0.703,3.645c2.085,2.672,3.517,4.855,6.432,6.522c0.705,0.402,1.732,0.482,2.43,0
		c6.306-4.363,11.598-9.692,16.457-15.428c1.319,1.97,2.284,4.158,3.829,5.969c1.96,2.297,4.843,1.875,7.295,0.783
		c1.818-0.808,3.928-2.219,5.325-3.617c1.369-1.369,0.735-3.932,0.28-5.576c-0.919-3.317-4.052-5.049-5.99-7.672
		c-0.486-0.658-1.224-0.969-1.977-1.044c2.648-3.579,5.259-7.193,7.929-10.742c3.336,1.076,5.094,1.819,5.156,7.035
		c0.012,0.963,0.519,1.951,1.387,2.418c7.139,3.84,6.061,10.01,4.958,17.044c-0.076,0.486-0.005,0.916,0.126,1.311
		c-23.955,10.349-45.506,19.977-72.255,23.215c-24.458,2.961-49.78,1.2-73.091-6.773c-0.045-0.071-0.06-0.144-0.115-0.212
		c-1.865-2.385-3.792-4.821-5.271-7.47c-2.492-4.459,3.115-7.73,6.766-8.619c1.59-0.388,2.33-2.044,2.011-3.542
		c-0.137-0.644-1.538-5.528-0.933-5.968c0.641-0.466,2.155-0.221,2.886-0.223c2.476-0.007,4.78-0.067,6.716-1.749
		c1.059-0.92,0.539-2.972-0.855-3.238c-3.131-0.597-7.938-1.214-10.997-0.124c-4.426,1.579-3.929,6.874-2.931,10.829
		c-4.069,2.567-8.105,4.594-8.645,10.092c-0.243,2.476,0.964,4.823,2.652,6.912c-1.22-0.513-2.441-1.023-3.648-1.574
		c-2.377-1.086-4.357,1.774-2.716,3.443c-0.005,0.022-0.018,0.035-0.022,0.059c-8.416,48.993,55.95,78.927,95.913,79.27
		c51.651,0.444,76.263-44.773,79.114-90.917C186.258,96.012,183.547,94.807,181.166,95.413z M154.897,90.113
		c-1.412,1.238-3.561,3.001-4.557,1.884c-1.571-1.762-2.817-3.706-4.428-5.418c1.178-1.471,2.342-2.955,3.482-4.46
		C150.805,85.221,154.137,86.884,154.897,90.113z M158.569,62.885c-0.082-0.017-0.168-0.03-0.25-0.049
		c-2.283-0.525-3.333,1.947-2.245,3.425c-10.407,14.044-23.88,31.445-31.709,31.025c4.404-3.479,7.554-11.259,9.527-14.864
		c7.2-13.148,13.629-27.127,22.951-38.958c3.473-4.407,8.328-9.413,14.288-9.598c1.599-0.05,10.948,5.353,8.68,6.773
		c-4.086,2.558-7.674,5.977-11.109,9.314C166.587,52.009,162.949,56.946,158.569,62.885z M111.518,181.937
		c-41.575,3.771-92.911-25.171-97.042-68.988c25.573,14.667,55.806,17.362,84.748,14.855c24.987-2.165,57.516-8.791,78.104-25.141
		C171.988,141.948,156.011,177.901,111.518,181.937z"/>
	<path d="M63.417,95.191c-0.079-1.316-1.038-2.407-2.412-2.412c-3.214-0.013-6.525-0.41-9.725-0.122
		c-2.805,0.253-3.181,3.587-1.163,4.706c-1.345,0.642-1.926,2.652-0.255,3.686c1.781,1.101,2.085,3.938,3.677,5.383
		c3.153,2.862,7.607,0.661,10.684-1.124c0.691-0.401,1.229-1.236,1.179-2.056C65.23,100.448,63.583,97.949,63.417,95.191z
		 M56.151,102.221c-1.024-1.64-1.96-3.367-3.591-4.441c2.166,0.084,4.362-0.043,6.54-0.126c0.446,1.466,1.007,2.9,1.316,4.378
		C58.86,102.925,57.068,103.689,56.151,102.221z"/>
	<path d="M91.705,66.702c-0.386-2.509-3.163-5.612-4.895-7.392c-1.443-1.483-3.601-0.355-3.858,1.377
		c-0.316-2.162-3.358-1.967-3.643,0.246c-0.438,3.4-2.847,5.862-4.4,8.78c-1,1.878,0.301,3.609,2.217,3.864
		c2.087,0.278,4.798,3.895,6.216,5.323c0.911,0.917,2.814,1.12,3.69,0C89.851,75.292,92.438,71.461,91.705,66.702z M82.99,61.582
		c0.463,2.007,2.356,3.585,3.295,5.403c0.989,1.913-0.077,4.18-1.376,6.106c-1.302-1.269-2.709-2.489-4.252-3.38
		C81.92,67.132,82.947,64.516,82.99,61.582z"/>
	<path d="M116.542,60.358c-1.77-1.774-3.537-3.548-5.306-5.323c-1.017-1.021-2.716-1.013-3.733,0
		c-1.782,1.773-3.521,3.319-5.521,4.661c-0.846-0.489-1.948,0.223-1.999,1.251c-1.68,1.07-1.28,3.826,0.684,4.329
		c0.409,0.105,0.82,0.109,1.231,0.095c1.621,3.049,3.481,5.824,5.59,8.752c0.852,1.181,2.298,1.431,3.421,0.441
		c2.113-1.863,4.695-3.089,6.911-4.821c1.801-1.408,1.969-2.42,2.146-4.57C120.129,63.218,117.764,61.584,116.542,60.358z
		 M104.994,64.38c1.598-0.938,3.094-2.362,4.384-3.688c1.777,1.837,3.578,3.657,5.476,5.349c-1.717,1.456-3.624,2.677-5.399,4.066
		C107.733,68.425,106.283,66.459,104.994,64.38z"/>
	<path d="M109.017,97.559c-3.737-3.54-7.975-6.154-12.61-8.353c-1.54-0.731-3.365,0.138-3.406,1.955
		c-0.072,3.169-1.089,6.239-3.2,8.642c-1.71,1.947,1.044,4.772,2.866,2.866c2.183-2.282,3.58-5.033,4.306-8.013
		c2.686,1.496,5.217,3.146,7.549,5.204c-0.915,1.933-2.15,3.762-4.452,3.749c-2.572-0.014-4.774-0.942-7.352-0.269
		c-1.967,0.515-1.845,3.278,0,3.851c2.972,0.924,6.354,1.614,9.469,1.105c4.038-0.659,6.076-5.138,7.434-8.452
		C109.923,99.111,109.565,98.08,109.017,97.559z"/>
</g>
<g>
</g>
<g>
</g>
<g>
</g>
<g>
</g>
<g>
</g>
<g>
</g>
<g>
</g>
<g>
</g>
<g>
</g>
<g>
</g>
<g>
</g>
<g>
</g>
<g>
</g>
<g>
</g>
<g>
</g>
</svg>
