<?xml version="1.0" encoding="iso-8859-1"?>
<!-- Generator: Adobe Illustrator 16.0.0, SVG Export Plug-In . SVG Version: 6.00 Build 0)  -->
<!DOCTYPE svg PUBLIC "-//W3C//DTD SVG 1.1//EN" "http://www.w3.org/Graphics/SVG/1.1/DTD/svg11.dtd">
<svg version="1.1" id="Capa_1" xmlns="http://www.w3.org/2000/svg" xmlns:xlink="http://www.w3.org/1999/xlink" x="0px" y="0px"
	 width="191.049px" height="191.049px" viewBox="0 0 191.049 191.049" style="enable-background:new 0 0 191.049 191.049;"
	 xml:space="preserve">
<g>
	<path d="M158.114,160.829c-4.084-31.145-11.149-62.018-21.075-91.817C129.042,45,115.72,6.691,87.201,0.679
		C57.254-5.635,43.52,33.632,38.88,55.386c-7.487,35.097-7.494,75.074-2.494,110.589c0.08,0.568,0.306,0.959,0.581,1.273
		c-0.112,1.154,0.206,2.344,1.178,3.299c28.214,27.75,89.658,27.471,117.086-1.7c1.484-1.578,1.781-3.291,1.348-4.765
		C157.603,163.371,158.306,162.3,158.114,160.829z M92.952,10.582c11.189,5.709,19.264,17.629,25.415,31.047
		c-0.331,0.043-0.656,0.06-1.011,0.207c-22.901,9.52-43.813,10.286-67.286,3.547C56.524,21.851,69.292-1.49,92.952,10.582z
		 M148.026,161.644c-28.96,22.776-74.63,23.384-104.579,2.031c-0.48-0.343-0.967-0.547-1.447-0.655
		c3.339-28.254,0.205-57.551,2.503-85.989c0.46-5.698,1.549-14.194,3.53-23.309c4.669,1.996,10.036,3.684,15.715,4.968
		c3.289,30.41,0.809,60.798,3.841,91.101c0.304,3.037,4.374,3.016,4.702,0c3.152-28.908,3.85-61.762-4.054-90.19
		c6.746,1.213,13.811,1.78,20.67,1.502c4.255,34.615,5.205,69.529,9.296,104.143c0.39,3.295,5.312,3.497,5.29,0
		c-0.217-34.976-3.556-70.142-10.734-104.393c3.737-0.338,7.362-0.982,10.821-1.911c5.956,21.435,11.518,43.513,21.45,63.5
		c1.343,2.701,5.956,0.787,4.895-2.062c-7.764-20.833-15.391-41.564-22.23-62.726c5.326-1.929,10.092-4.701,13.878-8.548
		c5.186,13.081,8.819,26.752,11.853,37.058c7.161,24.337,12.466,49.513,16.1,74.634
		C149.017,160.999,148.512,161.261,148.026,161.644z"/>
	<path d="M72.146,15.319c-5.433,0-5.433,8.425,0,8.425C77.581,23.744,77.581,15.319,72.146,15.319z"/>
	<path d="M83.186,31.72c-4.212,0-4.212,6.531,0,6.531C87.398,38.25,87.398,31.72,83.186,31.72z"/>
	<path d="M94.225,18.082c-4.717,0-4.717,7.315,0,7.315C98.942,25.396,98.942,18.082,94.225,18.082z"/>
</g>
<g>
</g>
<g>
</g>
<g>
</g>
<g>
</g>
<g>
</g>
<g>
</g>
<g>
</g>
<g>
</g>
<g>
</g>
<g>
</g>
<g>
</g>
<g>
</g>
<g>
</g>
<g>
</g>
<g>
</g>
</svg>
