<?xml version="1.0" encoding="iso-8859-1"?>
<!-- Generator: Adobe Illustrator 16.0.0, SVG Export Plug-In . SVG Version: 6.00 Build 0)  -->
<!DOCTYPE svg PUBLIC "-//W3C//DTD SVG 1.1//EN" "http://www.w3.org/Graphics/SVG/1.1/DTD/svg11.dtd">
<svg version="1.1" id="Capa_1" xmlns="http://www.w3.org/2000/svg" xmlns:xlink="http://www.w3.org/1999/xlink" x="0px" y="0px"
	 width="185.607px" height="185.607px" viewBox="0 0 185.607 185.607" style="enable-background:new 0 0 185.607 185.607;"
	 xml:space="preserve">
<g>
	<path d="M184.877,8.347c-1.463-6.38-9.348-7.976-15.116-6.873c-5.507,1.053-14.463,5.595-15.505,11.646
		c-0.29,1.682,0.237,3.071,1.247,3.948c-0.056,1.325,0.024,2.637,0.341,3.903c-1.732,0.049-3.335,1.225-3.923,3.004
		c-0.556,1.685-2.201,3.183-3.337,4.482c-1.409,1.612-2.695,3.316-3.679,5.213c-2.863-2.143-5.942-3.94-8.899-5.316
		c-1.153-0.536-2.677-0.828-3.807,0c-6.558,4.802-15.812,8.553-20.205,15.784c-1.929,0.187-3.58,2.006-2.25,4.229
		c2.191,3.662,5.289,7.589,8.921,11.074c-5.115,3.402-9.319,8.112-12.29,13.531c-2.2-2.547-4.517-4.892-6.665-6.968
		c-1.271-1.229-3.027-1.378-4.566-0.589c-4.773,2.447-9.14,5.516-12.729,9.528c-2.974,3.322-7.814,9.682-6.319,14.312
		c0.191,0.591,0.504,1.071,0.877,1.469c0.255,4.623,1.833,9.002,4.787,12.545c-1.377,1.367-2.685,2.803-3.871,4.293
		c-1.582,1.986-3.695,4.381-4.153,6.973c-9.126-5.123-22.514-4.635-30.646,1.457c-1.592,1.192-1.689,3.573-0.755,5.016
		c-5.894,7.445-7.587,17.154-1.516,24.51c-1.56,0.91-3.065,1.904-4.507,3.021c-2.254,1.746-4.344,4.031-6.836,5.426
		c-0.062-0.041-0.127-0.078-0.189-0.117c-1.989-1.27-4.008-2.493-6.039-3.694c-1.136-0.671-2.363-1.204-3.553-1.772
		c-0.721-0.346-1.435-0.68-2.194-0.934c-0.827-0.277-1.801-0.162-2.658-0.395c-0.833-0.227-1.507-0.012-2.008,0.4
		c-0.523-0.275-1.16-0.318-1.823,0.115c-3.017,1.969-5.541,3.986-6.956,7.809c-1.072,2.898-0.488,6.033,0.952,8.681
		c1.212,2.229,3.016,4.043,5.1,5.558c-0.785,0.477-1.575,0.942-2.347,1.455c-3.15,2.094-7.367,4.436-7.743,8.538
		c-0.284,3.093,3.308,5.558,6.121,4.663c1.422-0.452,2.301-1.219,3.172-2.326c-0.114,0.15-0.154,0.21,0.103-0.107
		c0.205-0.254,0.416-0.502,0.626-0.752c1.039-1.231,2.125-2.422,3.164-3.654c1.171-1.389,2.308-2.792,3.401-4.23
		c1.424,0.609,2.852,1.148,4.219,1.625c5.758,2.004,12.468,3.266,18.576,2.584c2.679-0.298,5.182-0.863,7.339-2.556
		c2.179-1.709,2.203-4.541,1.202-6.868c-1.575-3.662-6.215-6.189-9.344-8.297c-0.573-0.387-1.167-0.74-1.749-1.113
		c1.188-1.505,2.669-2.852,3.993-4.156c1.661-1.639,3.431-3.099,5.423-4.307c9.65,5.721,21.855,2.68,29.852-4.91
		c7.479-7.099,9.926-17.759,3.588-25.666c2.573-1.271,3.631-4.207,4.991-6.723c0.889-1.643,1.797-3.257,2.755-4.841
		c5.136,2.802,11.69,3.36,17.173,1.616c6.748-2.146,11.177-7.854,11.482-14.918c0.209-4.816-1.427-9.461-3.941-13.766
		c3.868-5.773,7.36-11.798,12.104-16.825c8.312,5.833,18.242,8.318,27.025,1.202c5.078-4.114,6.545-10.703,4.831-16.843
		c-1.112-3.984-3.51-7.523-6.497-10.602c0.082-0.107,0.183-0.162,0.259-0.285c1.104-1.772,2.642-3.121,4.2-4.487
		c1.793-1.572,3.276-3.193,4.737-5.072c0.26-0.334,0.463-0.697,0.638-1.067c0.141,0.13,0.238,0.277,0.388,0.404
		c5.103,4.33,12.549,4.733,18.344,1.616C185.671,24.92,186.581,15.779,184.877,8.347z M41.599,168.62
		c0.105,0.141,0.255,0.338,0.308,0.416c0.149,0.219,0.286,0.446,0.417,0.676c0.089,0.156,0.169,0.317,0.249,0.479
		c-0.389,0.135-0.791,0.236-1.194,0.316c-0.062,0.012-0.153,0.027-0.245,0.041c-0.209,0.022-0.417,0.045-0.627,0.061
		c-1.235,0.09-2.482,0.044-3.716-0.02c-0.671-0.034-1.34-0.094-2.008-0.164c-0.191-0.02-0.381-0.045-0.572-0.067
		c-0.203-0.03-0.762-0.108-0.948-0.138c-3.158-0.506-6.275-1.33-9.323-2.291c-0.746-0.235-1.486-0.491-2.22-0.76
		c-0.364-0.133-0.726-0.271-1.086-0.414c-0.174-0.067-0.347-0.139-0.519-0.209c-1.408-0.608-2.779-1.301-4.099-2.084
		c-0.595-0.352-1.173-0.73-1.739-1.127c-0.083-0.059-0.229-0.168-0.37-0.275c-0.225-0.182-0.448-0.365-0.664-0.555
		c-0.459-0.405-0.915-0.815-1.344-1.252c-0.204-0.209-0.399-0.426-0.588-0.646c-0.02-0.023-0.025-0.027-0.042-0.047
		c-0.025-0.038-0.04-0.061-0.08-0.118c-0.266-0.382-0.491-0.79-0.695-1.208c-0.086-0.24-0.154-0.484-0.215-0.732
		c-0.046-0.187-0.083-0.377-0.121-0.565c-0.002-0.034-0.001-0.047-0.004-0.092c-0.014-0.224-0.012-0.448-0.006-0.673
		c0.002-0.077,0.01-0.154,0.015-0.231c0.087-0.5,0.22-0.991,0.388-1.471c0.03-0.087,0.022-0.073,0.034-0.111
		c0.017-0.036,0.011-0.017,0.038-0.077c0.144-0.314,0.308-0.619,0.477-0.921c0.162-0.256,0.287-0.53,0.375-0.823
		c-0.31,0.742-0.043,0.146,0.029,0c0.172-0.346,0.359-0.685,0.562-1.014c0.306-0.494,0.576-0.82,0.92-1.211
		c0.017,0.012,0.024,0.029,0.042,0.041c0.908,0.623,1.554,1.496,2.505,2.092c0.845,0.53,1.863,0.889,2.762,1.325
		c1.833,0.89,3.729,1.627,5.602,2.431c1.09,0.467,2.162,0.957,3.233,1.45c0.129,0.978,0.538,1.923,1.264,2.649
		c1.397,1.396,3.581,1.65,5.288,0.855C36.74,164.042,39.335,165.835,41.599,168.62z M72.066,138.851
		c-5.696,6.461-14.701,9.079-22.452,4.816c-8.45-4.647-7.613-14.551-3.296-21.758c0.058-0.097,0.067-0.195,0.104-0.293
		c7.713-3.113,15.071-5.314,23.12-1.412C77.944,124.274,77.723,132.437,72.066,138.851z M102.679,102.55
		c-3.675,1.303-7.711,0.953-11.308-0.649c0.653-2.237-2.352-3.95-4.508-2.969c-2.299-2.327-3.583-5.318-4.238-8.556
		c1.124-1.225,1.407-2.483,1.907-4.18c0.627-2.132,1.956-4.083,3.339-5.796c2.348-2.906,5.323-5.156,8.515-7.043
		C103.708,81.021,116.446,97.673,102.679,102.55z M145.791,58.972c-3.176,2.87-8.201,2.179-11.929,1.22
		c-1.445-0.371-2.827-0.915-4.164-1.561c0.605-1.766-0.519-4.007-2.795-3.256c-0.536,0.177-1.04,0.425-1.565,0.628
		c-2.835-2.062-5.395-4.59-7.678-7.228c4.974-5.128,10.346-9.044,16.408-12.716C141.225,40.713,154.684,50.938,145.791,58.972z
		 M170.338,22.384c-4.295,0.234-6.753-2.471-7.568-5.996c1.745-1.244,3.29-2.913,5.077-4.072c2.602-1.687,5.384-1.99,8.201-1.173
		C177.176,16.341,176.411,22.055,170.338,22.384z"/>
</g>
<g>
</g>
<g>
</g>
<g>
</g>
<g>
</g>
<g>
</g>
<g>
</g>
<g>
</g>
<g>
</g>
<g>
</g>
<g>
</g>
<g>
</g>
<g>
</g>
<g>
</g>
<g>
</g>
<g>
</g>
</svg>
