<?xml version="1.0" encoding="iso-8859-1"?>
<!-- Generator: Adobe Illustrator 16.0.0, SVG Export Plug-In . SVG Version: 6.00 Build 0)  -->
<!DOCTYPE svg PUBLIC "-//W3C//DTD SVG 1.1//EN" "http://www.w3.org/Graphics/SVG/1.1/DTD/svg11.dtd">
<svg version="1.1" id="Capa_1" xmlns="http://www.w3.org/2000/svg" xmlns:xlink="http://www.w3.org/1999/xlink" x="0px" y="0px"
	 width="183.938px" height="183.938px" viewBox="0 0 183.938 183.938" style="enable-background:new 0 0 183.938 183.938;"
	 xml:space="preserve">
<g>
	<path d="M151.398,103.153c-9.381-6.299-18.098-11.221-29.528-9.861c-7.09,0.843-13.79,4.041-19.921,8.292
		c-0.093-0.32-0.238-0.63-0.473-0.904C87.717,84.554,71.79,70.814,56.854,55.827c-9.888-9.922-19.562-20.053-29.253-30.166
		c0.533-0.965,0.591-2.202,0.028-3.218c-3.888-7.026-9.442-14.207-15.143-19.855C11.167,1.28,9.356,1.787,8.34,3.122
		C7.554,4.154,6.665,5.083,5.758,5.994C5.52,6.166,5.318,6.367,5.144,6.606c-1.82,1.798-3.657,3.568-4.913,5.892
		c-1.017,1.882,1.574,3.449,2.818,1.878C4.877,19.86,9.747,24.429,14.017,27.98c1.997,1.661,4.139,3.747,6.932,3.119
		c0.889-0.2,2.091-0.369,2.695-1.147c0.023-0.03,0.071-0.099,0.137-0.195C33.33,39.919,42.964,50.002,52.583,60.1
		C67.3,75.547,81.216,91.323,98.162,104.388c-5.221,4.121-9.961,8.866-14.071,13.354c-0.561-0.316-1.46,0.22-1.259,0.975
		c0.048,0.183,0.108,0.361,0.157,0.543c-0.438,1.156,0.042,2.356,0.897,3.095c0.609,2.025,1.239,4.046,1.854,6.066
		c0.909,2.985,2.013,6.508,3.995,8.944c0.559,0.687,1.442,0.546,2.012,0.042c5.998,18.421,15.948,43.181,32.825,44.601
		c20.854,1.756,46.354-19.254,56.71-35.772C192.814,127.839,163.787,111.473,151.398,103.153z M172.135,149.982
		c-9.088,11.312-34.369,32.749-50.385,25.9c-16.652-7.12-24.941-37.504-31.483-52.785c-0.608-1.42-2.79-0.556-2.678,0.823
		c-0.26-0.441-0.519-0.884-0.773-1.319c0.188-0.127,0.382-0.221,0.555-0.416C97.583,110.614,110,99.482,125.954,97.595
		c7.728-0.915,16.565,6.489,22.632,10.37c8.24,5.271,15.995,11.33,23.076,18.074C180.44,134.398,179.549,140.751,172.135,149.982z"
		/>
	<path d="M147.727,155.433c-4.284-18.632-19.387-35.318-38.657-38.601c-2.14-0.364-3.072,2.685-0.911,3.305
		c0.576,0.164,1.141,0.362,1.71,0.545c7.488,15.491,19.399,30.299,35.694,36.915C146.889,158.133,147.995,156.602,147.727,155.433z
		 M111.762,121.309c14.699,5.282,26.885,16.448,31.6,31.472C130.004,146.227,119.131,134.019,111.762,121.309z"/>
	<path d="M100.488,128.392c-1.091-0.86-2.641,0.576-1.564,1.564c0.185,0.17,0.362,0.35,0.547,0.521
		c-0.231,0.108-0.404,0.342-0.299,0.626c5.115,13.762,11.871,27.02,24.754,34.943c1.084,0.667,2.437-0.426,2.107-1.62
		C121.973,149.695,112.333,137.729,100.488,128.392z M100.643,131.589c8.955,8.454,16.977,17.97,21.257,29.544
		C112.098,153.685,106.094,142.509,100.643,131.589z"/>
	<path d="M165.366,138.977c-7.701-15.537-23.769-25.359-40.135-29.729c-2.729-0.729-3.882,3.479-1.163,4.218
		c0.053,0.016,0.105,0.036,0.16,0.052c0.008,0.01,0.003,0.021,0.012,0.031c10.748,12.119,22.297,25.323,39.141,28.012
		C164.918,141.806,166.092,140.442,165.366,138.977z M126.829,114.339c12.876,4.058,25.291,11.854,33.159,22.935
		C146.742,133.79,136.797,123.481,126.829,114.339z"/>
</g>
<g>
</g>
<g>
</g>
<g>
</g>
<g>
</g>
<g>
</g>
<g>
</g>
<g>
</g>
<g>
</g>
<g>
</g>
<g>
</g>
<g>
</g>
<g>
</g>
<g>
</g>
<g>
</g>
<g>
</g>
</svg>
