<?xml version="1.0" encoding="iso-8859-1"?>
<!-- Generator: Adobe Illustrator 16.0.0, SVG Export Plug-In . SVG Version: 6.00 Build 0)  -->
<!DOCTYPE svg PUBLIC "-//W3C//DTD SVG 1.1//EN" "http://www.w3.org/Graphics/SVG/1.1/DTD/svg11.dtd">
<svg version="1.1" id="Capa_1" xmlns="http://www.w3.org/2000/svg" xmlns:xlink="http://www.w3.org/1999/xlink" x="0px" y="0px"
	 width="193.688px" height="193.688px" viewBox="0 0 193.688 193.688" style="enable-background:new 0 0 193.688 193.688;"
	 xml:space="preserve">
<g>
	<path d="M171.763,104.328c-2.395-1.286-4.557,0.314-5.101,2.303c-25.835,5.789-44.069,26.532-59.763,46.648
		c-0.421,0.539-0.647,1.111-0.749,1.683c-6.229-4.806-11.912-10.054-16.803-15.087C62.776,112.519,49.396,75.74,27.894,44.729
		c0.505-0.41,1.01-0.82,1.486-1.265c1.678-1.566,1.378-4.579-0.527-5.826c-0.052-0.113-0.104-0.227-0.188-0.4
		c-0.523-1.179-1.072-2.339-1.641-3.496c-1.354-2.751-2.897-5.409-4.464-8.043c-2.316-3.897-4.877-7.854-8.058-11.111
		c-0.893-0.914-2.254-1.011-3.348-0.432c-4.417,2.34-8.31,4.776-10.812,9.223c-0.906,1.61,0.122,3.057,1.46,3.482
		c0.454,8.743,8.155,17.071,13.846,22.911c1.627,1.67,4.267,1.542,5.91,0c0.107-0.1,0.226-0.187,0.333-0.285
		C48.611,96.083,72.906,152.101,123.423,173.34c21.568,9.069,44.447,10.881,60.45-8.686
		C201.086,143.61,194.79,116.692,171.763,104.328z M165.418,114.055c-6.279,22.087-27.678,42.789-51.119,41.332
		C128.091,137.981,143.747,120.436,165.418,114.055z M151.568,173.161c-14.015,0.35-27.888-5.887-40.08-14.316
		c0.084-0.074,0.164-0.169,0.245-0.256c28.332,6.802,53.578-18.808,60.771-45.14C196.505,132.82,184.309,172.343,151.568,173.161z"
		/>
</g>
<g>
</g>
<g>
</g>
<g>
</g>
<g>
</g>
<g>
</g>
<g>
</g>
<g>
</g>
<g>
</g>
<g>
</g>
<g>
</g>
<g>
</g>
<g>
</g>
<g>
</g>
<g>
</g>
<g>
</g>
</svg>
