<?xml version="1.0" encoding="iso-8859-1"?>
<!-- Generator: Adobe Illustrator 16.0.0, SVG Export Plug-In . SVG Version: 6.00 Build 0)  -->
<!DOCTYPE svg PUBLIC "-//W3C//DTD SVG 1.1//EN" "http://www.w3.org/Graphics/SVG/1.1/DTD/svg11.dtd">
<svg version="1.1" id="Capa_1" xmlns="http://www.w3.org/2000/svg" xmlns:xlink="http://www.w3.org/1999/xlink" x="0px" y="0px"
	 width="191.565px" height="191.565px" viewBox="0 0 191.565 191.565" style="enable-background:new 0 0 191.565 191.565;"
	 xml:space="preserve">
<g>
	<path d="M188.126,110.425c-24.299-4.561-48.337-10.3-73.192-10.39c-3.041-0.012-4.574,2.739-4.152,5.449
		c0.028,0.179,0.061,0.331,0.089,0.508c-8.545-0.776-17.021-2.192-25.565-3.261c-1.196-0.148-2.085,0.348-2.702,1.107
		c-0.619-0.838-1.542-1.374-2.588-1.541c-0.304-0.515-0.681-0.995-1.184-1.364C64.094,90.155,24.012,69.673,8.789,89.603
		c-1.411-1.101-3.928-0.827-4.441,1.308c-7.914,32.928-9.057,70.11,32.288,75.294c37.718,4.728,44.249-26.939,46.486-56.688
		c0.34,0.239,0.726,0.436,1.194,0.533c9.397,1.959,18.898,3.327,28.454,4.12c0.466,1.424,0.99,2.856,1.685,4.386
		c0.045,0.098,0.118,0.146,0.169,0.234c-0.062,1.974,0.934,4.055,3.26,5.014c19.934,8.211,43.575,8.488,64.771,10.512
		c1.438,0.138,3.355-0.94,3.954-2.268c2.531-5.615,4.289-10.984,4.941-17.125C191.754,113.01,189.989,110.774,188.126,110.425z
		 M66.499,102.411c-17.844,2.465-35.227-1.675-52.055-8.349C32.885,88.73,50.267,92.978,66.499,102.411z M40.595,158.138
		C2.36,157.314,8.093,123.155,9.562,95.969c19.815,10.506,42.579,17.279,64.865,12.918C72.985,132.889,70.917,158.79,40.595,158.138
		z"/>
	<path d="M31.688,70.19c-7.527-3.367-14.331-6.927-17.433-15.058c-3.238-8.487,1.49-16.472,1.695-24.862
		c0.053-2.156-2.946-3.59-4.435-1.837c-6.278,7.389-7.404,19.678-4.914,28.809c2.763,10.132,13.359,16.035,22.941,18.04
		C32.464,75.895,34.718,71.546,31.688,70.19z"/>
	<path d="M59.365,51.299c5.84-7.779,5.55-18.344-1.341-25.491c-2.209-2.291-6.72,0.039-5.546,3.228
		c2.169,5.89,5.475,10.559,2.104,16.702c-2.076,3.783-5.669,6.622-8.325,9.98c-5.477,6.926-2.724,14.018,4.24,18.498
		c1.521,0.978,3.702-1.029,2.57-2.57c-2.724-3.706-5.191-6.872-2.154-11.043C53.377,57.221,56.842,54.66,59.365,51.299z"/>
	<path d="M112.591,47.202c-0.269-4.753-6.181-5.153-7.87-1.065c-2.302,5.571-3.079,10.773-9.296,13.256
		c-4.438,1.772-9.455,1.985-14.117,2.835C73.715,63.61,67.68,69.668,71.23,77.635c0.593,1.332,2.56,0.828,2.918-0.382
		c1.424-4.818,2.151-6.419,7.213-7.391c4.271-0.82,8.706-0.691,13.007-1.464C104.438,66.589,113.197,57.934,112.591,47.202z"/>
</g>
<g>
</g>
<g>
</g>
<g>
</g>
<g>
</g>
<g>
</g>
<g>
</g>
<g>
</g>
<g>
</g>
<g>
</g>
<g>
</g>
<g>
</g>
<g>
</g>
<g>
</g>
<g>
</g>
<g>
</g>
</svg>
