<?xml version="1.0" encoding="iso-8859-1"?>
<!-- Generator: Adobe Illustrator 16.0.0, SVG Export Plug-In . SVG Version: 6.00 Build 0)  -->
<!DOCTYPE svg PUBLIC "-//W3C//DTD SVG 1.1//EN" "http://www.w3.org/Graphics/SVG/1.1/DTD/svg11.dtd">
<svg version="1.1" id="Capa_1" xmlns="http://www.w3.org/2000/svg" xmlns:xlink="http://www.w3.org/1999/xlink" x="0px" y="0px"
	 width="184.706px" height="184.706px" viewBox="0 0 184.706 184.706" style="enable-background:new 0 0 184.706 184.706;"
	 xml:space="preserve">
<g>
	<path d="M166.274,115.523c-0.459-0.228-0.908-0.35-1.352-0.43c7.38-9.325,12.931-20.241,15.881-32.454
		c1.206-4.991-5.637-7.309-7.876-3.456c-0.684-1.079-1.824-1.939-3.548-2.142c-24.703-2.901-50.588-1.114-75.482-1.974
		c-27.912-0.965-55.891-3.199-83.812-3.393c-1.287-0.009-2.11,0.915-2.393,1.973c-0.644,0.557-1.068,1.351-0.98,2.408
		c1.293,15.686,7.023,29.287,15.755,40.379c-19.613,5.763-28.329,28.325-14.374,45.75c14.827,18.514,48.998,17.567,70.182,19.226
		c29.466,2.306,65.103,9.865,89.893-10.434C187.417,155.213,190.291,127.386,166.274,115.523z M88.28,84.71
		c26.444,1.292,54.756,4.247,81.101,1.221c0.549-0.063,0.998-0.239,1.442-0.417c-11.639,34.664-43.526,54.78-80.185,54.666
		c-39.43-0.123-67.095-26.131-76.647-62.634C38.415,81.947,63.559,83.502,88.28,84.71z M145.939,141.968
		c-3.457,4.451-10.226,6.346-15.315,7.95c-12.641,3.987-26.2,5.271-39.357,6.216c-9.661,0.694-18.294,0.668-27.744-1.861
		c-7.509-2.01-14.715-5.063-21.462-8.899c-8.226-4.676-6.715-7.204-2.769-13.036c13.78,9.706,30.728,15.508,48.531,16.619
		c20.93,1.308,41.26-4.562,57.744-15.814C147.006,136.063,148.197,139.063,145.939,141.968z M148.267,172.496
		c-19.804,6.431-43.62,2.859-63.945,1.055c-15.805-1.402-31.623-1.813-47.16-5.349c-8.667-1.972-16.995-5.386-23.356-11.731
		c-12.534-12.503-0.66-30.315,12.473-35.548c2.653,2.886,5.517,5.577,8.576,8.053c-10.121,1.337-10.024,14.613-1.436,20.933
		c14.538,10.697,33.382,16.124,51.3,15.473c18.532-0.673,39.37-2.028,56.524-9.616c11.025-4.878,21.342-17.634,11.405-27.971
		c2.429-2.038,4.701-4.249,6.896-6.539c0.326,0.867,0.977,1.657,2.079,2.222C187.056,136.501,169.07,165.741,148.267,172.496z"/>
	<path d="M92.347,0.732c-13.458-3.254-22.829,4.601-20.82,18.354c0.93,6.368,3.156,12.471,4.49,18.755
		c1.874,8.833-1.761,8.595-7.454,13.426c-2.529,2.146-1.06,6.465,1.914,7.25c14.167,3.737,17.177-13.651,15.24-23.35
		c-1.259-6.306-3.569-12.349-4.8-18.67c-1.589-8.162,4.91-8.676,11.429-9.931C95.324,5.994,95.163,1.412,92.347,0.732z"/>
	<path d="M45.671,34.338c-5.139-8.228-13.785-11.724-9.859-22.844c0.9-2.549-2.799-3.806-4.16-1.754
		c-4.676,7.056-4.758,14.241,0.181,21.173c2.179,3.059,4.807,5.736,6.645,9.031c2.291,4.104-1.154,8.369-1.208,12.578
		c-0.035,2.75,3.065,4.431,5.399,3.098C50.181,51.33,49.764,40.891,45.671,34.338z"/>
	<path d="M121.711,12.316c-10.203,1.72-15.678,8.845-14.526,19.179c0.516,4.624,1.835,9.156,1.798,13.829
		c-0.043,5.386-6.903,5.274-9.468,9.131c-1.009,1.518-0.307,3.702,1.201,4.579c9.257,5.383,17.568-6.745,17.476-14.882
		c-0.127-11.279-8.477-21.536,5.274-27.676C125.997,15.344,124.055,11.919,121.711,12.316z"/>
	<path d="M163.951,22.613c-10.934-0.056-18.445,4.855-20.155,15.963c-0.651,4.226-0.3,8.561-1.202,12.747
		c-1.26,5.848-7.293,4.395-11.524,6.644c-2.612,1.39-2.838,5.892,0,7.214c9.959,4.641,19.831-3.801,21.057-13.573
		c0.582-4.642,0.188-9.329,0.527-13.986c0.479-6.586,6.348-8.603,12.03-9.591C167.821,27.485,166.977,22.628,163.951,22.613z"/>
</g>
<g>
</g>
<g>
</g>
<g>
</g>
<g>
</g>
<g>
</g>
<g>
</g>
<g>
</g>
<g>
</g>
<g>
</g>
<g>
</g>
<g>
</g>
<g>
</g>
<g>
</g>
<g>
</g>
<g>
</g>
</svg>
