<?xml version="1.0" encoding="iso-8859-1"?>
<!-- Generator: Adobe Illustrator 16.0.0, SVG Export Plug-In . SVG Version: 6.00 Build 0)  -->
<!DOCTYPE svg PUBLIC "-//W3C//DTD SVG 1.1//EN" "http://www.w3.org/Graphics/SVG/1.1/DTD/svg11.dtd">
<svg version="1.1" id="Capa_1" xmlns="http://www.w3.org/2000/svg" xmlns:xlink="http://www.w3.org/1999/xlink" x="0px" y="0px"
	 width="193.517px" height="193.517px" viewBox="0 0 193.517 193.517" style="enable-background:new 0 0 193.517 193.517;"
	 xml:space="preserve">
<g>
	<path d="M114.937,7.309c-0.747-0.04-1.308,0.307-1.699,0.805C59.776,6.397,5.997,38.212,0.42,94.927
		c-5.288,53.787,40.13,92.212,91.173,91.268c44.392-0.822,87.054-32.965,99.232-75.627C204.559,62.458,163.672,9.941,114.937,7.309z
		 M184.181,108.734c-9.663,39.716-50.112,67.083-89.229,70.527c-48.84,4.301-88.559-31.819-87.497-80.803
		C8.681,41.871,64.816,17.648,113.402,11.47c0.246,0.198,0.537,0.354,0.916,0.413C160.123,18.937,195.616,61.743,184.181,108.734z"
		/>
	<path d="M111.478,22.595c-0.79-0.018-1.37,0.253-1.786,0.655C70.403,21.862,38.185,56.229,29.79,92.443
		c-9.089,39.209,15.289,69.695,54.342,73.57c42.365,4.203,74.418-29.486,81.975-68.919C173.364,59.21,152.029,23.54,111.478,22.595z
		 M159.63,100.489c-7.917,36.242-37.916,62.556-75.499,60.007c-38.817-2.633-57.046-35.516-47.562-71.212
		c9.371-35.273,39.034-56.527,73.626-61.948c0.357,0.241,0.767,0.43,1.282,0.479C150.771,31.544,167.671,63.678,159.63,100.489z"/>
	<path d="M149.396,64.539c0.571-8.455-5.894-16.892-13.316-19.984c-0.489-0.204-0.922-0.054-1.251,0.241
		c-2.043-3.32-4.575-6.299-7.657-8.657c-9.266-7.089-19.646-1.543-26.562,5.874c-0.621,0.666,0.294,1.521,0.977,0.977
		c6.958-5.547,16.244-9.7,24.054-3.329c6.38,5.204,9.158,14.343,10.551,22.121c1.356,7.58,1.529,16.218-2.247,23.167
		c-4.676,8.605-14.651,6.036-22.195,3.042c0.504-1.514,0.896-3.073,1.216-4.656c27.036,9.381,25.346-50.44-5.296-42.092
		c-1.672,0.456-0.92,2.74,0.694,2.516c13.125-1.819,19.927,9.347,20.581,21.114c0.624,11.23-5.906,18.751-15.734,16.935
		c0.51-3.117,0.677-6.32,0.453-9.547c3.59,0.02,7.488-0.252,9.651-3.388c2.721-3.945-0.024-9.662-1.821-13.335
		c-0.382-0.78-1.089-0.916-1.714-0.701c-1.514-4.76-4.955-9.061-9.51-10.777c-2.249-0.847-3.183,2.385-1.519,3.601
		c4.23,3.092,7.563,6.568,7.806,12.124c0.306,6.993-7.376,8.823-12.931,8.776c-10.659-0.091-4.374-13.686,0.882-19.456
		c0.813,0.096,1.337-0.604,1.37-1.36c0.354-0.301,0.694-0.554,1.015-0.747c1.344-0.811,0.169-2.739-1.215-2.077
		c-0.406,0.195-0.811,0.421-1.212,0.667c-6.479-5.983-18.576-5.67-26.354-3.598c-9.594,2.555-15.949,10.294-16.181,20.021
		c-0.391-0.208-0.864-0.274-1.366-0.037c-15.355,7.259-25.839,26.787-19.237,42.985c-13.278,17.813,15.044,47.97,36.251,46.003
		c4.29,2.502,9.841,3.918,13.577,4.28c12.252,1.185,22.576-4.973,26.037-15.436c8.677,3.107,17.431,2.784,24.273-4.515
		c6.127-6.536,9.239-19.407,7.41-28.87C158.465,95.239,157.991,77.183,149.396,64.539z M120.579,61.438
		c0.006-0.055-0.003-0.112,0.002-0.167c0.691,1.915,1.111,3.927,0.66,5.762c-0.739,3.007-4.57,4.033-7.638,4.38
		c-0.021-0.221-0.024-0.441-0.049-0.663C117.255,68.976,120.126,65.891,120.579,61.438z M136.703,48.194
		c3.071,1.797,5.386,4.234,7.12,7.509c0.643,1.214,1.033,2.466,1.321,3.737c-1.053-1.043-2.15-2.042-3.347-2.939
		c-0.728-0.547-1.485-0.335-2.016,0.173C139.045,53.768,138.019,50.904,136.703,48.194z M134.691,89.873
		c0.124-0.114,0.208-0.259,0.327-0.377c-0.292,1.321-0.372,2.678-0.695,4.004c-0.42,1.72-1.154,3.371-1.882,4.995
		c-3.887-3.764-9.636-5.969-14.488-3.975c-0.523,0.215-0.886,0.634-1.063,1.101c-6.797,2.939-10.852,9.853-8.508,17.331
		c0.007,0.023,0.02,0.045,0.027,0.068c-0.729-1.185-1.321-2.538-1.729-4.17c-1.405-5.613,1.375-11.835,5.177-15.807
		c0.405-0.424-0.152-1.227-0.651-0.844c-0.728,0.559-1.417,1.159-2.077,1.783c0.861-1.595,1.623-3.255,2.251-4.98
		C118.521,93.901,127.622,96.411,134.691,89.873z M129.238,116.829c-5.074,3.46-13.359,1.129-16.397-3.919
		c-3.246-5.395,0.498-11.917,5.043-15.216c0.026,0.009,0.043,0.023,0.07,0.031c5.556,1.574,10.445,0.956,13.737,6.669
		C134.047,108.483,133.206,114.123,129.238,116.829z M136.569,113.464c0.053,0.515,0.509,1.015,1.084,0.795
		c0.586-0.224,1.103-0.514,1.652-0.771c-0.162,1.804-0.002,3.668-0.259,5.47c-0.352,2.467-1.271,4.747-2.498,6.898
		c-3.105,5.445-8.99,5.536-14.067,3.476c3.536-1.434,6.705-4.08,9.171-8.32c0.166-0.286,0.195-0.569,0.156-0.835
		C134.202,118.55,135.782,116.152,136.569,113.464z M103.628,72.477c1.869,0.172,3.837,0.059,5.746-0.333
		c-0.091,2.751-0.365,5.499-0.809,8.194c-0.115-0.051-0.226-0.083-0.342-0.137c-0.472-0.218-0.873,0.432-0.412,0.707
		c0.211,0.126,0.404,0.207,0.612,0.325c-2.43,13.408-9.654,25.192-24.907,27.69c-1.193,0.195-0.917,2.221,0.286,2.111
		c0.29-0.027,0.563-0.084,0.849-0.118c-0.353,0.329-0.51,0.834-0.157,1.38c4.079,6.322,11.6,12.604,19.696,15.936
		c-0.092,0.036-0.19,0.056-0.266,0.121c-1.189,1.062-1.629,2.896-2.293,4.324c-0.05,0.108-0.11,0.213-0.162,0.321
		c-0.135-1.606-0.553-3.163-1.385-4.528c-1.644-2.695-4.975-3.881-8.4-3.908c-1.694-4.768-4.096-8.759-8.287-12.397
		c-1.576-1.368-3.343-2.52-5.185-3.545c5.69,1.083,10.957-7.673,13.607-11.46c4.486-6.412,11.276-16.527,10.677-24.888
		C102.88,72.335,103.212,72.439,103.628,72.477z M105.382,128.708c1.049,0.39,2.104,0.752,3.162,1.032
		c-0.968,4.165-1.279,7.766-4.519,11.155c-1.997,2.09-4.647,3.333-7.444,4.067c0.845-0.699,1.651-1.549,2.385-2.62
		c1.181-1.72,2.003-3.841,2.362-6.025c0.547-0.703,1.056-1.438,1.545-2.185c1.007-1.54,2.419-3.282,2.58-5.146
		C105.463,128.875,105.409,128.8,105.382,128.708z M82.465,135.384c-0.185-1.514,0.289-3.172,1.049-4.758
		c0.095,0.018,0.185,0.047,0.288,0.05c2.419,0.053,5.366-1.412,8.057-1.647c0.014,0.038,0.035,0.07,0.049,0.108
		c0.22,0.604,1.024,0.435,1.062-0.117c1.172,0.074,2.272,0.465,3.224,1.445c1.945,2.007,1.043,5.968,0.06,8.182
		c-1.014,2.283-3.108,5.084-5.933,4.294c-2.991-0.838-6.69-3.62-7.69-6.653C82.849,135.977,82.756,135.605,82.465,135.384z
		 M81.066,128.263c-1.927-2.079-4.157-3.562-6.674-4.842c-1.988-1.011-4.259-2.136-6.524-2.558
		c-0.286-1.612-0.413-3.302-0.371-5.066c3.2,1.109,6.281,1.992,9.225,3.956c2.638,1.76,4.835,4.229,6.596,6.908
		c-0.736,0.869-1.425,1.766-2.042,2.698C81.428,129.033,81.404,128.628,81.066,128.263z M53.726,125.15
		c-4.301-7.502-6.029-15.358-5.283-23.098c0.471-0.587,0.957-1.171,1.489-1.748c0.721-0.78-0.052-1.938-0.979-1.695
		c1.212-6.284,4.049-12.443,8.523-18.215c0.403,0.911,0.882,1.788,1.462,2.59C53.074,96.355,51.747,110.723,53.726,125.15z
		 M61.922,85.91c0.157,0.109,0.293,0.25,0.455,0.351c-1.687,6.324-3.787,12.664-5.408,19.075
		C57.786,98.722,59.397,92.223,61.922,85.91z M94.73,66.05c-0.59,1.084-1.177,2.195-1.765,3.302
		c-0.943-1.969-2.44-3.762-3.641-5.502c-0.762-1.104-1.508-2.208-2.347-3.255c-0.194-0.242-0.972-0.526-0.99-0.551
		c-0.048-0.068-0.092-0.076-0.139-0.118c0.046-0.132,0.054-0.281-0.045-0.399c-0.093-0.111-0.18-0.217-0.311-0.285
		c-0.185-0.096-0.353-0.058-0.51,0.066c-0.335,0.264-0.041,0.835,0.071,1.13c0.122,0.319-0.163,0.817,0.021,1.265
		c0.319,0.773,0.672,1.509,1.072,2.244c1.562,2.877,2.947,6.119,5.121,8.591c-0.78,1.47-1.572,2.944-2.378,4.415
		c-1.885-1.84-4.325-3.139-5.983-5.368c-0.061-0.082-0.099-0.175-0.158-0.258c-0.405-2.131-1.278-4.17-2.6-5.883
		c-0.316-1.288-0.551-2.598-0.64-3.914c-0.056-0.834-0.961-1.054-1.462-0.67c1.523-1.178,3.151-2.132,5.066-2.736
		c3.127-0.987,6.06,0.284,8.971,1.279c1.52,0.519,2.372-1.734,1.065-2.525c-6.819-4.128-13.737-1.547-18.953,3.694
		c-0.542,0.545-0.47,1.195-0.13,1.668c-0.306,0.267-0.542,0.597-0.545,0.996c-0.913-0.172-1.84-0.253-2.769-0.286
		c-1.246-15.217,16.494-12.82,26.413-9.251C94.895,57.776,93.729,62.396,94.73,66.05z M82.589,84.861
		c-1.289-0.629-2.443-1.309-3.575-2.069c0.721-0.707,1.396-1.444,1.959-2.23c0.931-1.298,1.484-2.77,1.787-4.294
		c1.294,1.52,2.873,2.848,4.588,3.442c-4.571,8.03-9.833,15.67-17.309,20.932c1.226-4.933,2.557-9.76,3.183-13.969
		c1.492-0.615,2.901-1.463,4.176-2.452c1.295,1.55,2.955,3.137,4.946,2.51C83.13,86.484,83.429,85.271,82.589,84.861z M74.918,65.54
		c2.891,3.621,6.074,6.91,3.447,11.961c-1.893,3.64-6.282,6.05-10.314,6.06c-0.616,0.001-1.194-0.105-1.741-0.279
		c-0.355-0.672-1.119-1.053-1.841-0.985c-0.234-0.179-0.44-0.395-0.653-0.604c0.299-0.635,0.546-1.281,0.864-1.912
		c1.072-2.128-1.981-3.98-3.194-2.002c-0.548-1.774-0.628-3.677-0.141-5.272C62.901,67.409,69.819,65.261,74.918,65.54z
		 M58.943,117.557c0.946-10.25,4.344-20.038,6.797-29.985c1.308,0.269,2.632,0.262,3.939,0.084
		c-0.928,4.713-2.7,10.913-4.031,17.261c-0.873,0.477-1.106,1.824-0.528,2.658c-2.542,13.7-2.19,27.239,13.951,27.313
		c-0.034,0.282-0.088,0.558-0.099,0.85c-6.17,1.195-13.916,2.854-17.987-2.582C57.847,128.964,58.494,122.424,58.943,117.557z
		 M68.253,108.804c8.89,2.437,16.962,7.787,21.551,15.858c-1.16,0.135-2.301,0.38-3.353,0.764c-0.101-0.66-1.028-1.158-1.571-0.55
		c-0.061,0.068-0.119,0.138-0.18,0.206c-3.292-6.652-9.421-12.347-16.886-13.425C67.932,110.716,68.086,109.762,68.253,108.804z
		 M69.06,124.764c1.116,0.354,2.262,0.643,3.334,1.02c2.587,0.91,5.105,2.178,7.226,3.928c0.534,0.441,1.158,0.275,1.496-0.119
		c-0.718,1.117-1.315,2.292-1.69,3.564C73.875,131.482,70.723,128.5,69.06,124.764z M99.765,71.546
		c-1.471,8.318-5.454,15.809-10.03,22.838c-2.26,3.472-4.811,6.843-7.812,9.71c-1.905,1.821-4.033,3.235-4.817,0.617
		c-0.072-0.24-0.478-0.206-0.452,0.062c0.083,0.87,0.619,1.804,0.566,2.588c-0.023,0.333,0.152,0.677,0.405,0.928
		c-2.727-1.444-5.647-2.543-8.649-3.15c0.111-0.508,0.243-1.014,0.36-1.522c14.053-7.075,20.735-20.799,26.977-34.523
		C97.157,70.106,98.277,70.955,99.765,71.546z M62.065,64.54c0.161-0.083,0.267-0.191,0.374-0.299
		c0.659,0.357,1.668,0.017,1.783-0.983c1.105-9.616,7.446-15.635,16.528-18.097c7.764-2.105,13.895,0.26,20.683,2.85
		c-0.863,0.842-1.657,1.808-2.409,2.819c-10.95-6.274-33.978-4.697-29.939,12.128c-4.773,0.276-9.327,2.485-11.681,7.053
		c-0.956,1.855-1.255,3.951-1.067,6.036c-8.809,6.054-12.889,15.94-13.046,26.099C40.484,87.276,48.396,71.601,62.065,64.54z
		 M50.593,134.475c-6.873-7.651-9.283-16.186-6.632-24.319c1.444,7.768,5.112,15.144,10.682,20.487
		c0.03,0.154,0.046,0.308,0.077,0.461c0.14,0.704,0.617,1.024,1.141,1.054c2.642,6.589,8.944,8.828,15.693,8.055
		c-0.895,3.29,0.353,6.02,2.641,8.224C64.969,147.275,56.696,141.269,50.593,134.475z M114.901,130.717
		c0.007,2.132-0.223,4.104-0.63,5.942c-0.461,0.364-0.669,1.058-0.404,1.565c-2.565,8.577-9.827,13.471-20.117,13.742
		c-7.064,0.188-20.611-3.212-19.993-12.103c1.856-0.387,3.719-0.978,5.526-1.766c0.948,3.101,3.922,5.371,6.565,7.022
		c2.652,1.657,5.184,2.143,7.485,1.552c4.099-0.21,8.25-1.206,11.502-3.786c3.649-2.893,6.364-7.837,6.051-12.628
		c1.35,0.243,2.694,0.397,4.021,0.421C114.908,130.694,114.901,130.703,114.901,130.717z M106.129,125.749
		c-7.896-2.337-14.889-8.008-19.559-14.665c-0.119-0.17-0.262-0.288-0.414-0.375c7.402-1.215,13.547-4.795,18.138-9.847
		c-0.931,2.325-1.339,4.863-0.952,7.607c0.691,4.908,3.545,9.917,7.768,12.744c-6.591-0.748-12.411-4.405-16.508-11.497
		c-0.27-0.467-1.085-0.151-0.889,0.375c4.622,12.404,18.911,18.838,30.756,12.332c0.635-0.036,1.253-0.135,1.872-0.23
		C120.374,126.828,114.265,128.156,106.129,125.749z M140.59,129.031c-4.544,9.292-13.836,10.639-22.716,8.247
		c0.437-2.06,0.652-4.241,0.556-6.562c-0.004-0.097-0.046-0.167-0.061-0.256c0.721-0.108,1.43-0.266,2.131-0.457
		c5.532,3.33,11.712,4.452,16.972-0.101c4.159-3.601,7.079-12.644,4.789-18.013c0.542-0.339,1.105-0.658,1.62-1.021
		C143.73,117.001,143.62,122.837,140.59,129.031z M147.773,102.572c-0.75-1.885-3.25-1.555-3.469,0.469
		c-0.173,1.608-0.256,3.172-0.317,4.72c-1.085,1.04-2.318,1.998-3.646,2.9c-0.099,0.052-0.195,0.09-0.278,0.167
		c-0.975,0.646-1.967,1.28-3.079,1.84c-0.136,0.068-0.224,0.165-0.291,0.273c0.537-2.134,0.574-4.417,0.141-6.641
		c7.604-7.96,12.389-21.191,6.839-31.556c-0.553-1.034-2.409-0.614-2.288,0.62c1.08,11.079,2.022,20.043-4.99,29.17
		c-0.656-1.993-1.903-3.918-3.503-5.582c1.668-2.876,4.033-6.65,3.395-9.915c-0.054-0.276-0.273-0.399-0.507-0.42
		c5.97-6.778,6.17-17.989,5.114-26.303c-0.079-0.625-0.21-1.254-0.316-1.881c10.606,11.449,15.241,29.746,7.312,42.479
		C147.848,102.803,147.817,102.682,147.773,102.572z"/>
</g>
<g>
</g>
<g>
</g>
<g>
</g>
<g>
</g>
<g>
</g>
<g>
</g>
<g>
</g>
<g>
</g>
<g>
</g>
<g>
</g>
<g>
</g>
<g>
</g>
<g>
</g>
<g>
</g>
<g>
</g>
</svg>
