<?xml version="1.0" encoding="iso-8859-1"?>
<!-- Generator: Adobe Illustrator 16.0.0, SVG Export Plug-In . SVG Version: 6.00 Build 0)  -->
<!DOCTYPE svg PUBLIC "-//W3C//DTD SVG 1.1//EN" "http://www.w3.org/Graphics/SVG/1.1/DTD/svg11.dtd">
<svg version="1.1" id="Capa_1" xmlns="http://www.w3.org/2000/svg" xmlns:xlink="http://www.w3.org/1999/xlink" x="0px" y="0px"
	 width="193.003px" height="193.004px" viewBox="0 0 193.003 193.004" style="enable-background:new 0 0 193.003 193.004;"
	 xml:space="preserve">
<g>
	<path d="M176.788,147.021c-15.924-4.437-36.708-1.18-52.588,3.511c0-0.009,0.001-0.018,0.001-0.026
		c-0.012-1.242-0.841-2.028-1.816-2.319c-0.097-0.553-0.312-1.096-0.699-1.558c-24.372-29.017-81.179-33.514-115.099-22.426
		c-1.282,0.419-1.916,1.366-2.113,2.392c-0.215,0.381-0.235,0.869-0.012,1.277c0.304,1.646,1.706,3.062,3.815,2.463
		c0.342-0.098,0.697-0.174,1.042-0.268c21.345,8.135,43.285,15.164,65.665,19.721c10.212,2.079,32.216,8.058,43.195,3.038
		c-8.208,18.203-43.728,15.073-59.408,13.316c-19.822-2.22-59.101-12.01-56.261-38.874c0.106-1.003-1.528-1.202-1.744-0.236
		c-6.714,30.048,32.326,41.104,55.054,44.128c12.482,1.661,50.786,4.68,63.902-9.136c-0.002,0.397,0.126,0.784,0.335,1.132
		c-0.19,0.311-0.306,0.624-0.146,0.904c0.093,0.16,0.257,0.197,0.426,0.173c0.402-0.056,0.82-0.073,1.232-0.105
		c0.041,0.005,0.069,0.026,0.111,0.029c12.767,1.034,25.509,4.405,38.263,5.934c6.945,0.832,27.697,4.688,32.027-4.124
		C196.671,156.402,184.239,149.099,176.788,147.021z M76.406,144.632c-20.766-3.619-40.726-10.455-60.998-16.047
		c28.553-6.175,62.073-2.471,87.757,10.432c2.697,1.354,12.488,9.769,13.673,8.582C111.676,152.775,81.817,145.574,76.406,144.632z
		 M177.877,165.576c-18.999,1.323-37.381-5.701-56.195-5.484c-0.168,0.002-0.294,0.058-0.44,0.089
		c0.555-0.777,1.042-1.596,1.448-2.466c0.556,0.162,1.162,0.232,1.865,0.062c13.267-3.224,26.474-5.849,40.192-5.982
		c7.57-0.074,16.711,0.765,21.375,7.474C190.071,164.945,181.444,165.328,177.877,165.576z"/>
	<path d="M37.157,74.003c-7.636-9.555-20.958-12.702-14.489-27.08c0.872-1.938-1.387-4.003-3.059-2.36
		c-7.558,7.427-5.571,16.111,1.363,22.996c9.601,9.533,22.377,14.826,12.258,29.898c-0.955,1.423,1.295,3.182,2.384,1.841
		C42.278,91.089,44.042,82.619,37.157,74.003z"/>
	<path d="M70.014,20.466c-2.647-0.765-3.876,2.797-1.788,4.24c9.923,6.86,16.424,11.721,11.011,24.312
		c-3.271,7.61-8.49,14.362-12.436,21.625c-5.978,11.002-7.311,22.881,3.752,30.852c1.485,1.07,3.011-1.191,1.874-2.429
		c-14.967-16.291,5.543-34.01,12.39-49.407C90.698,36.437,83.554,24.378,70.014,20.466z"/>
	<path d="M143.05,51.681c-1.646-1.865-4.905-0.384-4.84,2.005c0.216,7.936,4.527,13.961-3.674,19.473
		c-5.559,3.737-12.629,5.17-18.873,7.365c-11.012,3.87-18.112,10.533-13.043,22.527c0.842,1.989,4.08,0.559,3.455-1.457
		c-4.985-16.073,17.288-16.71,27.615-20.932C144.838,76.103,152.334,62.196,143.05,51.681z"/>
</g>
<g>
</g>
<g>
</g>
<g>
</g>
<g>
</g>
<g>
</g>
<g>
</g>
<g>
</g>
<g>
</g>
<g>
</g>
<g>
</g>
<g>
</g>
<g>
</g>
<g>
</g>
<g>
</g>
<g>
</g>
</svg>
