<?xml version="1.0" encoding="iso-8859-1"?>
<!-- Generator: Adobe Illustrator 16.0.0, SVG Export Plug-In . SVG Version: 6.00 Build 0)  -->
<!DOCTYPE svg PUBLIC "-//W3C//DTD SVG 1.1//EN" "http://www.w3.org/Graphics/SVG/1.1/DTD/svg11.dtd">
<svg version="1.1" id="Capa_1" xmlns="http://www.w3.org/2000/svg" xmlns:xlink="http://www.w3.org/1999/xlink" x="0px" y="0px"
	 width="184.638px" height="184.637px" viewBox="0 0 184.638 184.637" style="enable-background:new 0 0 184.638 184.637;"
	 xml:space="preserve">
<g>
	<path d="M108.594,5.335C64.795-12.581,23.444,23.916,7.647,62.403c-17.7,43.124-4.744,93.744,39.616,113.356
		c49.679,21.967,108.775-1.721,130.862-50.808C200.449,75.333,162.465,11.603,108.594,5.335z M169.706,127.336
		c-22.55,46.125-80.446,62.223-125.302,40.266C4.507,148.073-0.936,99.564,14.821,62.273C30.779,24.504,63.435,6.369,102.318,7.701
		c0.256,0.426,0.679,0.76,1.312,0.803c28.415,1.954,55.231,26.562,67.812,51.052C182.478,81.036,180.03,106.217,169.706,127.336z"/>
	<path d="M114.233,23.369c0.078-0.54-0.112-1.088-0.722-1.355C38.464-10.918-16.633,129.048,61.58,158.231
		c15.228,5.682,29.578,5.272,42.323,0.742c13.594-3.479,26.278-11.741,34.701-24.475c1.812-2.74,3.329-5.729,4.573-8.871
		C166.773,87.923,164.908,33.444,114.233,23.369z M137.706,124.371c-11.078,16.738-27.975,29.472-47.932,31.829
		c-15.545,1.143-28.538-5.863-37.71-17.097c17.726,12.22,42.287,14.446,61.671,1.706c18.493-12.154,25.665-39.323,17.482-59.487
		c-1.879-4.631-4.354-7.937-7.185-10.198C142.881,77.833,145.729,104.016,137.706,124.371z M84.252,84.822
		c-0.703,2.458,2.91,4.519,5.001,2.642c10.901-9.782,27.671-22.946,35.861-2.841c5.829,14.31,1.733,32.475-7.715,44.204
		c-17.004,21.112-50.681,16.938-68.797,0.179c-17.914-16.567-15.89-40.707-1.694-58.52C61.921,51.648,73.387,73.962,84.252,84.822z
		 M52.205,52.571c1.304-2.603,4.278-3.325,6.969-3.772c0.358,2.941,1.461,5.876,2.709,8.469c-0.094,0.027-0.19,0.049-0.284,0.077
		c-2.704-0.523-5.583-0.35-8.679,0.859c-0.249,0.097-0.483,0.238-0.729,0.344C51.792,56.583,51.178,54.62,52.205,52.571z
		 M93.365,64.67c0.932-0.44,0.851-1.398,0.315-2.004c0.287-0.297,0.572-0.595,0.847-0.902c0.945-1.061,2.243-2.298,2.952-3.686
		c2.935,2.109,5.853,4.24,8.563,6.643c0.834,0.738,2.163,0.67,2.754-0.355c1.776-3.084,3.876-5.95,5.714-8.996
		c0.624-1.034,0.138-2.105-0.727-2.77c-2.202-1.691-4.325-3.485-6.438-5.29c0.096-2.445,0.148-4.892,0.185-7.338
		c3.779-0.089,10.528-0.126,10.608,1.87c0.325,8.043-0.175,16.014-2.455,23.739c-3.276,0.172-6.805,0.814-10.601,2.024
		c-0.702,0.224-0.989,0.761-0.983,1.301c-2.327,0.843-4.631,1.976-6.848,3.353c-0.892-2.676-2.594-5.103-4.684-7.237
		C92.835,64.91,93.102,64.795,93.365,64.67z M92.402,58.171c-1.036,1.176-2.101,2.313-2.957,3.635
		c-0.067,0.103-0.103,0.226-0.16,0.337c-2.389-1.812-4.987-3.296-7.434-4.347c-0.466-0.199-0.947-0.313-1.418-0.48
		c2.352-2.271,4.672-4.573,6.992-6.873c2.208,1.905,4.547,3.637,6.905,5.345C93.652,56.546,93.068,57.417,92.402,58.171z
		 M110.13,55.001c-1.115,2.035-2.357,3.991-3.495,6.014c-3.039-1.867-6.103-3.823-9.092-5.887c-0.19-0.219-0.412-0.379-0.679-0.485
		c-2.669-1.865-5.282-3.808-7.75-5.868c1.774-1.752,3.569-3.48,5.374-5.199c2.208,1.45,4.533,2.789,6.602,4.407
		C104.095,50.333,106.989,52.833,110.13,55.001z M94.188,37.913c-0.497-0.122-1-0.212-1.519-0.23
		c-1.524-0.057-2.554,1.821-1.813,3.064c-2.01,1.741-3.989,3.517-5.941,5.321c-0.205,0.101-0.369,0.267-0.489,0.459
		c-3.002,2.793-5.949,5.643-8.78,8.601c0.078-0.117,0.164-0.225,0.216-0.377c3.432-9.963,10.229-24.591,22.187-20.044
		C96.749,35.756,95.471,36.838,94.188,37.913z M81.458,62.158c6.015,2.646,8.605,7.8,12.709,12.213
		c-2.843,2.127-5.479,4.622-7.751,7.341c-5.021-7.006-10.934-16.85-18.431-21.713C72.52,59.608,77.017,60.205,81.458,62.158z
		 M71.185,55.774c-2.391,0.034-4.783,0.343-7.135,0.901c-1.668-3.965-2.744-8.153-1.567-12.423c1.092-3.96,4.794-6.236,8.464-7.639
		C71.184,43.032,71.93,49.371,71.185,55.774z M132.052,69.722c2.081-0.202,4.172-0.457,6.283-0.564
		c1.097-0.056,2.028-0.879,2.023-2.024c-0.019-3.876,1.779-8.776-0.866-12.117c-1.005-1.27-4.252-1.551-5.688-1.722
		c-3.354-0.398-6.713-0.341-10.083-0.271c-1.707,0.035-1.707,2.61,0,2.647c4.204,0.091,8.467,0.101,12.515,1.369
		c2.106,0.66,1.038,5.133,0.415,8.112c-4.767,0.211-9.462,1.251-14.168-0.154c-0.987-0.295-1.763,0.09-2.235,0.726
		c-0.676-0.063-1.333-0.156-2.033-0.174c1.592-4.276,2.568-8.588,3.14-13.168c0.39-3.13,2.076-10.893,0.454-13.663
		c-2.405-4.104-12.55-2.912-16.353-2.917c-1.135-0.001-2.126,0.959-2.107,2.107c0.034,2.045,0.064,4.09,0.11,6.135
		c-0.507-0.421-1-0.856-1.513-1.271c-1.117-0.902-2.312-1.915-3.581-2.806c1.602-1.449,3.209-2.891,4.876-4.272
		c1.015-0.841,0.656-2.596-0.411-3.196c-13.457-7.572-22.986,3.064-27.724,14.856c-0.182-4.378-0.75-8.781-0.834-13.1
		c-0.021-1.066-1.072-1.973-2.145-1.634c-5.427,1.714-10.128,4.424-12.297,9.903c-0.364,0.919-0.556,1.868-0.671,2.827
		c-4.214-0.335-8.835,0.948-11.035,4.834c-1.502,2.652-1.747,7.527-0.16,10.682c-13.513,9.07-21.161,30.963-18.014,45.677
		c1.91,8.933,6.046,16.768,11.648,23.22c0.029,0.147,0.032,0.292,0.098,0.442c3.948,9.157,9.849,16.178,16.876,21.189
		C-6.014,123.261,41.427,4.639,111.005,24.352c-0.456,0.994-0.19,2.293,1.218,2.725c38.234,11.754,45.804,47.278,34.986,78.156
		C147.524,90.624,142.509,76.498,132.052,69.722z"/>
	<path d="M73.539,100.027C72.27,92.64,64.948,79.894,56.138,80.37c-0.575,0.031-1.038,0.396-1.252,0.86
		c-16.67,8.304-14.718,41.979,8.002,37.55C72.23,116.958,75.011,108.594,73.539,100.027z M63.921,113.402
		c-18.619,7.237-18.135-21.523-8.122-30.092c4.615,4.318,9.103,6.846,11.769,13.228C69.875,102.061,70.695,110.769,63.921,113.402z"
		/>
	<path d="M65.161,101.022c-0.701-1.077-1.861-1.659-2.996-2.163c-1.267-0.563-2.206-1.419-3.396-2.048
		c-0.261-0.139-0.533-0.194-0.797-0.193c0.346-0.513,0.67-1.025,0.926-1.538c0.526-1.054-0.827-2.256-1.697-1.31
		c-2.05,2.229-5.008,4.094-5.7,7.245c-0.994,4.525,4.136,7.799,7.252,9.908c0.751,0.509,1.883,0.309,2.493-0.321
		C63.426,108.353,67.399,104.46,65.161,101.022z M59.559,106.527c-2.028-1.347-4.844-3.415-4.146-5.598
		c0.221-0.691,0.605-1.366,1.028-2.035c0.374,1.695,2.259,2.646,3.725,3.384c0.431,0.217,1.593,0.98,1.586,0.888
		C61.833,104.196,60.62,105.505,59.559,106.527z"/>
</g>
<g>
</g>
<g>
</g>
<g>
</g>
<g>
</g>
<g>
</g>
<g>
</g>
<g>
</g>
<g>
</g>
<g>
</g>
<g>
</g>
<g>
</g>
<g>
</g>
<g>
</g>
<g>
</g>
<g>
</g>
</svg>
