<?xml version="1.0" encoding="iso-8859-1"?>
<!-- Generator: Adobe Illustrator 16.0.0, SVG Export Plug-In . SVG Version: 6.00 Build 0)  -->
<!DOCTYPE svg PUBLIC "-//W3C//DTD SVG 1.1//EN" "http://www.w3.org/Graphics/SVG/1.1/DTD/svg11.dtd">
<svg version="1.1" id="Capa_1" xmlns="http://www.w3.org/2000/svg" xmlns:xlink="http://www.w3.org/1999/xlink" x="0px" y="0px"
	 width="188.625px" height="188.625px" viewBox="0 0 188.625 188.625" style="enable-background:new 0 0 188.625 188.625;"
	 xml:space="preserve">
<g>
	<path d="M184.029,122.877c-12.991-26.52-46.761-36.385-71.419-21.562c-2.67-0.062-5.02,0.369-7.098,1.172
		c0.731-1.075,0.873-2.628-0.148-3.771C85.169,76.136,61.619,55.329,38.481,34.919c0.79-1.243,0.758-3.129-0.399-4.091
		C27.721,22.222,19.434,10.881,9.909,1.355C8.531-0.023,6.522,0.468,5.475,1.926c-2.38,3.315-3.816,7.104-5.34,10.864
		c-0.646,1.594,1.159,2.632,2.493,2.179c2.141,3.357,6.312,6.373,8.73,8.838c5.241,5.342,10.633,10.541,15.961,15.797
		c1.46,1.44,3.435,1.193,4.92,0c0.502-0.403,1.014-0.759,1.529-1.096c21.35,23.078,42.657,47.744,68.105,64.733
		c0.404,0.271,0.802,0.393,1.188,0.444c-13.173,7.922-12.613,33.734-8.398,46.127c8.113,23.851,30.796,42.919,56.769,37.271
		C180.935,180.67,197.142,149.647,184.029,122.877z M8.015,7.516c0.811,0.834,1.618,1.686,2.426,2.533
		c-0.059,0.102-0.128,0.21-0.177,0.304c-0.3,0.576-0.276,1.125-0.078,1.59c-1.16-1.03-2.349-1.941-3.557-2.531
		C7.072,8.767,7.53,8.131,8.015,7.516z M147.193,181.818c-21.83,4.841-39.871-15.312-46.964-33.54
		c-3.15-8.095-4.309-17.046-2.567-25.58c1.715-8.394,7.15-11.939,13.257-15.722c0.459,0.087,0.963,0.03,1.487-0.316
		c22.775-15.087,50.687-4.787,64.717,17.008C193.191,148.626,173.22,176.045,147.193,181.818z"/>
	<path d="M168.269,131.039c-10.794-14.631-32.843-25.173-51.026-22.845c-2.038,0.261-2.784,2.412-2.148,3.808
		c-29.146,24.019,6.639,73.517,41.336,58.765C173.794,163.382,179.394,146.12,168.269,131.039z M159.093,162.76
		c-30.741,22.005-63.479-24.118-40.227-49.608c3.098-0.013,6.685,0.502,10.478,1.43c-0.299,2.484-0.502,4.997-0.686,7.517
		c-1.69-1.231-3.343-2.536-4.912-3.995c-0.72-0.67-1.785,0.387-1.08,1.081c1.827,1.801,3.795,3.447,5.84,4.979
		c-0.229,3.365-0.438,6.741-0.755,10.091c-2.572-1.228-5.118-2.524-7.613-3.961c-0.13-0.412-0.576-0.658-1.01-0.626
		c-1.887-1.115-3.76-2.265-5.593-3.528c-0.568-0.394-1.07,0.515-0.533,0.913c1.703,1.267,3.463,2.449,5.233,3.613
		c-1.436,5.157-1.896,10.694,0.317,15.677c-0.404-0.067-0.812-0.144-1.214-0.209c-0.439-0.069-0.638,0.563-0.188,0.681
		c2.665,0.696,5.29,1.499,7.895,2.355c-0.118,0.38-0.203,0.77-0.331,1.146c-0.185,0.543,0.641,0.875,0.913,0.385
		c0.205-0.367,0.347-0.77,0.535-1.146c2.177,0.73,4.342,1.487,6.498,2.267c-0.306,2.062-0.606,4.127-0.932,6.187
		c-0.291,1.848,2.513,2.656,2.835,0.782c0.339-1.973,0.672-3.947,1.008-5.921c1.608,0.585,3.216,1.171,4.829,1.746
		c-0.15,0.373-0.287,0.764-0.445,1.129c-0.664,1.53,1.523,2.89,2.285,1.336c0.252-0.515,0.476-1.063,0.713-1.596
		c1.932,0.669,3.859,1.344,5.814,1.949c1.135,0.351,1.904-1.407,0.816-1.936c-1.822-0.883-3.704-1.676-5.609-2.429
		c1.038-2.657,1.845-5.488,2.541-8.356c2.408,0.896,4.835,1.741,7.276,2.539c-0.566,2.289-1.196,4.569-1.901,6.86
		c-0.451,1.466,1.763,2.034,2.268,0.625c0.786-2.195,1.604-4.412,2.308-6.658c3.967,1.24,7.956,2.39,11.953,3.42
		C167.144,155.295,164.211,159.098,159.093,162.76z M137.899,138.607c0.437-2.772,0.859-5.547,1.267-8.323
		c1.983,0.824,4.015,1.526,6.104,2.047c-0.242,2.821-0.571,5.704-1.091,8.617C142.07,140.199,139.979,139.416,137.899,138.607z
		 M143.631,143.572c-0.615,2.914-1.33,5.796-2.266,8.498c-1.764-0.636-3.555-1.212-5.359-1.754c0.521-3.091,1.006-6.189,1.502-9.284
		C139.529,141.92,141.57,142.765,143.631,143.572z M134.805,137.381c-1.546-0.636-3.072-1.322-4.599-2.013
		c0.444-3.08,0.715-6.227,0.94-9.355c1.621,1.066,3.292,2.037,5.017,2.903C135.683,131.734,135.235,134.556,134.805,137.381z
		 M129.875,137.397c1.517,0.775,3.04,1.536,4.586,2.257c-0.488,3.266-0.967,6.533-1.444,9.8c-2.026-0.55-4.065-1.044-6.108-1.496
		C128.337,144.674,129.236,141.095,129.875,137.397z M125.484,147.638c-1.918-0.404-3.832-0.76-5.738-1.091
		c0.025-0.117,0.049-0.238-0.008-0.371c-1.979-4.644-1.338-9.747,0.118-14.444c2.505,1.586,5.08,3.057,7.694,4.46
		C127.122,140.072,126.515,143.909,125.484,147.638z M157.235,145.363c0.748-2.886,1.227-5.823,1.116-8.829
		c-0.065-1.762-2.562-1.721-2.705,0c-0.224,2.699-0.662,5.318-1.21,7.912c-2.442-0.8-4.874-1.611-7.294-2.443
		c0.611-3.03,1.022-6.08,1.239-9.055c2.173,0.365,4.375,0.616,6.629,0.61c1.299-0.004,1.276-1.922,0-1.999
		c-2.219-0.136-4.38-0.451-6.509-0.856c0.024-0.71,0.059-1.425,0.057-2.12c-0.005-1.941-2.916-1.924-2.999,0
		c-0.021,0.471-0.085,0.979-0.114,1.457c-2.041-0.521-4.031-1.179-5.972-1.952c0.354-2.482,0.703-4.967,1.016-7.456
		c0.195-1.55-2.404-1.88-2.714-0.366c-0.445,2.174-0.833,4.357-1.221,6.543c-1.801-0.858-3.56-1.811-5.257-2.89
		c0.196-2.938,0.375-5.85,0.624-8.648c18.076,5.208,39.475,19.338,37.052,33.987C165.06,147.911,161.142,146.637,157.235,145.363z"
		/>
</g>
<g>
</g>
<g>
</g>
<g>
</g>
<g>
</g>
<g>
</g>
<g>
</g>
<g>
</g>
<g>
</g>
<g>
</g>
<g>
</g>
<g>
</g>
<g>
</g>
<g>
</g>
<g>
</g>
<g>
</g>
</svg>
