<?xml version="1.0" encoding="iso-8859-1"?>
<!-- Generator: Adobe Illustrator 16.0.0, SVG Export Plug-In . SVG Version: 6.00 Build 0)  -->
<!DOCTYPE svg PUBLIC "-//W3C//DTD SVG 1.1//EN" "http://www.w3.org/Graphics/SVG/1.1/DTD/svg11.dtd">
<svg version="1.1" id="Capa_1" xmlns="http://www.w3.org/2000/svg" xmlns:xlink="http://www.w3.org/1999/xlink" x="0px" y="0px"
	 width="190.127px" height="190.127px" viewBox="0 0 190.127 190.127" style="enable-background:new 0 0 190.127 190.127;"
	 xml:space="preserve">
<g>
	<path d="M145.288,53.573c-0.836-0.286-1.572-0.286-2.203-0.099c3.603-6.006,4.923-13.551,4.242-20.272
		c-0.247-2.442-3.236-4.293-5.201-2.155c-11.449,12.459-27.24,6.054-42.074,5.782c-0.762-3.622-2.33-6.947-2.435-10.951
		c-0.176-6.663,1.976-13.445,5.199-19.197c1.028-1.837-0.004-3.67-1.789-4.398c-7.332-2.986-16.275-2.81-23.842-0.817
		c-1.171,0.308-2.493,1.416-2.682,2.682c-1.692,11.331-0.443,23.95,7.383,32.124c-16.863,2.34-32.825,21.488-47.857,11.744
		c-2.97-1.925-7.398,2.076-5.079,5.079c2.866,3.711,5.831,7.114,9.138,9.958c-9.614,12.361-17.24,29.149-13.773,45.02
		c4.113,18.825,15.579,26.827,32.591,33.83c10.844,4.464,19.089,8.741,26.741,17.767c6.125,7.225,11.213,14.931,18.365,21.253
		c11.216,9.915,28.131,11.115,41.948,6.938c25.66-7.757,22.3-42.752,21.147-63.21C163.643,98.714,176.948,64.406,145.288,53.573z
		 M89.854,41.695c0.04,0.003,0.078-0.011,0.118-0.009c0.082-0.004,0.164-0.016,0.246-0.019c0.017-0.001,0.029-0.009,0.046-0.01
		c0.274-0.022,0.535-0.074,0.787-0.174c0.073-0.028,0.139-0.06,0.206-0.094c1.495-0.724,2.372-2.641,0.783-4.002
		C83.66,30.212,81.405,18.799,81.878,8.138c4.323-1.075,9.608-1.71,14.062-0.988c-2.42,5.3-3.817,10.879-4.294,16.776
		c-0.407,5.032,0.134,13.405,4.73,16.625c0.38,0.561,0.981,0.992,1.854,1.056c13.318,0.987,31.715,8.499,43.079-0.176
		c-0.881,5.295-3.618,10.191-8.069,13.503c-7.86,5.848-15.122,1.479-20.184-5.356c-1.715-2.317-4.6-1.657-5.622,0.222
		c-0.646-0.861-1.377-1.624-2.256-2.191c-1.019-0.658-2.433-0.009-2.741,1.115c-1.429,5.218,1.937,12.426,3.742,17.309
		c1.543,4.172,3.565,8.062,6.117,11.587c-10.307-1.165-19.361-6.716-23.624-17.063c-0.295-0.716-0.783-1.188-1.336-1.461
		c0.188-0.294,0.395-0.573,0.568-0.879c1.025-1.814-0.959-3.471-2.674-2.674c-8.441,3.92-14.417,8.72-24.251,9.212
		c-6.381,0.32-13.677-1.917-18.978-6.194C57.831,59.171,73.983,42.551,89.854,41.695z M155.87,124.651
		c0.761,17.216,5.086,43.525-12.65,53.729c-13.509,7.771-30.773,0.768-40.485-9.231c-7.589-7.814-12.89-19.712-22.247-25.721
		c-11.264-7.232-24.355-10.509-35.754-17.467c-21.204-12.942-10.362-41.869-0.952-58.844c3.441,1.923,7.306,3.22,11.817,3.641
		c9.267,0.864,21.233-1.059,28.473-7.765c4.389,16.114,20.273,23.374,36.182,21.788c2.758-0.275,5.053-3.798,2.492-6.016
		c-5.702-4.94-8.545-11.289-10.915-18.309c-0.219-0.648-0.438-1.347-0.66-2.061c5.567,6.063,13.849,7.894,22.137,4.085
		c2.967-1.363,5.421-3.349,7.427-5.718c-0.112,1.62,0.646,3.362,2.538,4.123C166.655,70.284,154.974,104.411,155.87,124.651z"/>
	<path d="M53.794,80.871c-3.173,2.965-3.229,7.25-3.813,11.241c-0.402,2.748,1.105,5.511,4.198,5.511
		c3.095,0,4.597-2.762,4.198-5.511c-0.315-2.174-0.662-5.282,0.719-7.15C61.462,81.764,56.479,78.36,53.794,80.871z"/>
	<path d="M71.354,101.792c-0.384-2.362-0.641-4.755-0.961-7.127c-0.295-2.187-4.103-2.187-4.398,0
		c-0.32,2.375-0.641,4.751-0.961,7.127c-0.348,2.583-1.316,4.841,0.219,7.211c1.422,2.195,4.46,2.195,5.882,0
		C72.643,106.676,71.769,104.338,71.354,101.792z"/>
	<path d="M67.627,118.846c-1.942-1.18-4.273-0.994-6.085-2.456c-2.087-1.686-2.763-4.562-3.022-7.104
		c-0.304-2.979-4.465-3.045-4.679,0c-0.302,4.286,0.492,8.224,3.159,11.646c2.264,2.904,7.3,4.656,10.627,2.822
		C69.534,122.705,69.408,119.926,67.627,118.846z"/>
	<path d="M145.878,138.879c-0.287-1.59-2.91-1.589-3.198,0c-0.389,2.143-0.713,4.308-1.171,6.436
		c-0.148,0.694-0.617,1.359-0.986,1.952c-0.006,0.021-0.031,0.027-0.038,0.047c-0.082-0.014-0.79,0.526-1.119,0.695
		c-3.792,1.955-1.133,7.83,2.848,6.757C148.705,153.015,146.736,143.62,145.878,138.879z"/>
	<path d="M135.104,161.689c-1.143-2.022-2.906-2.562-5.02-3.083c-0.671-0.166-1.57-0.387-1.817-1.066
		c-1.027-2.827,0.901-7.116,1.938-9.674c0.834-2.061-2.003-3.105-3.366-1.959c-4.401,3.697-7.885,8.959-6.232,14.925
		c1.527,5.523,10.784,9.993,14.501,4.176C135.738,164.017,135.667,162.686,135.104,161.689z"/>
</g>
<g>
</g>
<g>
</g>
<g>
</g>
<g>
</g>
<g>
</g>
<g>
</g>
<g>
</g>
<g>
</g>
<g>
</g>
<g>
</g>
<g>
</g>
<g>
</g>
<g>
</g>
<g>
</g>
<g>
</g>
</svg>
