<?xml version="1.0" encoding="iso-8859-1"?>
<!-- Generator: Adobe Illustrator 16.0.0, SVG Export Plug-In . SVG Version: 6.00 Build 0)  -->
<!DOCTYPE svg PUBLIC "-//W3C//DTD SVG 1.1//EN" "http://www.w3.org/Graphics/SVG/1.1/DTD/svg11.dtd">
<svg version="1.1" id="Capa_1" xmlns="http://www.w3.org/2000/svg" xmlns:xlink="http://www.w3.org/1999/xlink" x="0px" y="0px"
	 width="191.145px" height="191.145px" viewBox="0 0 191.145 191.145" style="enable-background:new 0 0 191.145 191.145;"
	 xml:space="preserve">
<g>
	<path d="M187.872,81.796c0.029-1.981,0.116-3.955,0.301-5.913c0.104-1.092-0.123-1.973-0.559-2.652
		c2.514-7.475,1.896-15.901-1.817-23.571c-9.123-18.85-31.888-22.952-50.772-25.43c-29.034-3.809-60.191-0.948-88.285,7.114
		C30.621,35.969,7.688,44.676,4.05,63.196c-4.732,5.316-4.913,10.274-2.315,14.782c-2.646,22.867-4.252,46.974,10.597,65.847
		c16.975,21.575,55.957,24.774,80.973,24.756c26.65-0.021,56.756-9.335,79.192-23.465c20.546-12.939,16.882-32.973,15.657-53.296
		c0.448-0.513,0.886-1.031,1.375-1.524C192.604,87.2,190.861,83.217,187.872,81.796z M10.245,67.209
		c0.028-0.055,0.076-0.084,0.101-0.142C17.358,50.87,37.15,44.585,52.768,40.309c23.244-6.365,47.832-8.151,71.83-6.916
		c16.43,0.845,42.623,3.006,51.46,19.445c6.827,12.702,0.676,23.225-10.618,30.05c-27.379,16.545-67.162,15.415-97.776,12.475
		c-9.357-0.898-26.839-2.596-40.072-7.928c-0.792-0.699-1.755-1.09-2.751-1.203C16.015,82.11,9.71,76.103,10.245,67.209z"/>
	<path d="M137.116,60.78c-9.397-16.146-77.199-21.925-71.278,1.555c-1.432,1.148-2.078,3.046-0.683,5.097
		C76.146,83.59,151.323,85.191,137.116,60.78z"/>
</g>
<g>
</g>
<g>
</g>
<g>
</g>
<g>
</g>
<g>
</g>
<g>
</g>
<g>
</g>
<g>
</g>
<g>
</g>
<g>
</g>
<g>
</g>
<g>
</g>
<g>
</g>
<g>
</g>
<g>
</g>
</svg>
