<?xml version="1.0" encoding="iso-8859-1"?>
<!-- Generator: Adobe Illustrator 16.0.0, SVG Export Plug-In . SVG Version: 6.00 Build 0)  -->
<!DOCTYPE svg PUBLIC "-//W3C//DTD SVG 1.1//EN" "http://www.w3.org/Graphics/SVG/1.1/DTD/svg11.dtd">
<svg version="1.1" id="Capa_1" xmlns="http://www.w3.org/2000/svg" xmlns:xlink="http://www.w3.org/1999/xlink" x="0px" y="0px"
	 width="195.807px" height="195.807px" viewBox="0 0 195.807 195.807" style="enable-background:new 0 0 195.807 195.807;"
	 xml:space="preserve">
<g>
	<path d="M49.771,37.69c0.08,0,0.08-0.123,0-0.123"/>
	<path d="M65.617,13.963c-5.714-9.172-18.963-11-24.519-1.046c-4.268,7.647-2.567,17.955,3.819,23.59
		c-4.366,3.109-7.943,7.143-8.3,12.82c-0.341,5.419,4.2,9.843,9.083,11.879c-5.005,2.093-9.933,5.411-10.696,10.647
		c-0.807,5.537,3.476,9.952,8.488,12.101c-3.979,2.329-7.414,5.875-8.196,10.444c-0.927,5.413,2.393,11.736,7.473,13.76
		c-5.196,4.264-11.399,10.642-10.079,17.705c1.041,5.566,5.873,8.728,11.091,9.382c-5.541,3.692-10.829,8.7-11.781,15.487
		c-0.988,7.043,4.523,13.338,11.516,13.813c1.654,0.112,2.315-2.026,1.286-3.106c-3.358-3.523-7.622-5.582-6.032-11.158
		c1.515-5.312,6.463-9.639,10.616-12.957c1.198-0.957,0.866-2.4-0.039-3.293c0.19-0.762-0.04-1.659-0.774-2.012
		c-3.691-1.77-9.592-2.834-9.684-7.863c-0.104-5.697,4.335-10.545,8.173-14.176c1.608-1.521,0.032-3.5-1.706-3.369
		c0.027-0.229,0.072-0.459,0.004-0.687c-1.135-3.78-3.927-6.485-3.721-10.668c0.214-4.328,3.378-7.255,6.299-10.037
		c0.621,0.089,1.236,0.152,1.832,0.16c1.506,0.02,2.674-2.165,1.33-3.211c-2.771-2.158-10.734-4.598-9.6-9.255
		c1.238-5.086,7.011-8.56,11.055-11.15c1.31-0.839,0.484-2.958-1.069-2.536c-0.13,0.035-0.278,0.085-0.411,0.122
		c-0.017-0.016-0.022-0.033-0.04-0.049c-3.31-2.815-8.173-5.065-8.468-9.972c-0.237-3.932,2.978-7.601,6.025-10.388
		c0.242,0.116,0.469,0.251,0.72,0.356c1.551,0.65,2.654-1.444,1.848-2.641c1.294-1.362-0.635-3.592-2.292-2.653
		c-0.003,0.001-0.005,0.003-0.008,0.005c-3.972-5.056-5.799-11.52-3.925-17.926c0.883-3.019,2.949-5.34,6.056-6.014
		c4.966-1.077,8.882,3.707,12.643,5.882C64.869,16.66,66.399,15.217,65.617,13.963z"/>
	<path d="M61.103,174.057c-2.217,2.133-3.268,5.355-5.233,7.754c-1.413,1.727-3.215,3.399-5.36,4.137
		c-3.23,1.111-5.957-0.447-8.072-2.814c-2.128-2.382-2.654-5.482-2.42-8.559c0.325-4.273,4.257-7.477,7.881-8.991
		c0.751-0.313,0.768-1.696-0.213-1.575c-5.725,0.706-10.708,3.021-12.861,8.633c-1.87,4.873,0.163,10.426,3.253,14.286
		c3.013,3.765,8.332,5.327,12.903,4.013c2.86-0.822,5.322-2.752,7.294-4.916c2.521-2.765,5.523-6.961,5.67-10.789
		C64.004,173.74,62.112,173.087,61.103,174.057z"/>
	<path d="M163.719,82.725c-0.568-5.189-4.415-9.661-9.192-12.021c5.802-3.564,10.464-9.329,9.182-16.607
		c-1.432-8.124-7.605-13.574-14.683-17.017c4.643-5.002,6.612-13.448,4.273-19.402c-3.523-8.973-13.35-8.957-20.846-5.459
		c-1.476-3.875-4.299-7.328-8.229-8.781c-4.905-1.814-9.968,2.695-12.994,5.948c-6.563-10.965-15.715-12.381-24.235-3.94
		c-4.785-3.211-11.817-6.852-17.195-3.468c-3.344,2.104-4.491,5.636-2.011,8.982c0.464,0.625,1.664,0.508,1.609-0.436
		c-0.497-8.599,14.022-1.775,16.742-0.102c0.819,0.504,2.139,0.411,2.783-0.359C91.489,7,94.314,3.331,99.011,4
		c3.851,0.549,7.366,5.152,10.198,7.549c0.641,0.542,1.468,0.432,1.99-0.004c0.535,0.556,1.454,0.76,2.231,0.091
		c2.708-2.332,5.812-4.675,9.564-3.737c3.293,0.823,4.768,5.292,6.304,7.838c0.542,0.898,1.459,1.106,2.266,0.889
		c0.58,0.548,1.37,0.847,2.283,0.536c5.046-1.717,12.323-2.792,14.623,3.424c2.469,6.675-3.134,10.7-6.95,14.97
		c-1.868,2.091-0.277,4.789,2.011,4.892c6.094,2.392,11.654,6.247,14.186,12.523c2.941,7.295-2.53,12.841-8.425,16.133
		c-1.209-0.166-2.421-0.233-3.614-0.091c-2.271,0.27-2.615,3.003-0.524,3.877c5.862,2.45,11.493,3.542,13.179,10.563
		c1.56,6.498-4.685,12.017-9.605,14.806c-0.815,0.462-1.095,1.165-1.063,1.858c-1.744,0.07-2.701,2.264-1.427,3.67
		c3.595,3.97,8.857,6.554,9.606,12.443c0.715,5.627-4.733,10.287-8.859,13.135c-0.223-0.077-0.444-0.166-0.666-0.234
		c-2.717-0.835-4.047,2.934-1.854,4.396c4.99,3.328,10.693,6.367,10.654,13.188c-0.04,7.015-7.915,9.554-13.61,9.896
		c-1.498,0.09-2.09,1.477-1.783,2.568c-0.581,0.865-0.531,2.213,0.17,3.072c3.317,4.07,8.614,5.395,10.517,10.832
		c1.155,3.3,0.137,6.637-2.142,9.171c-6.324,7.033-16.229,3.519-21.739-2.468c-1.354-1.471-3.682-0.363-4.121,1.203
		c-0.518-1.467-2.356-1.911-3.374-0.451c-3.021,4.331-4.008,11.352-10.983,9.59c-5.08-1.283-8.604-7.37-10.681-11.736
		c-1.007-2.119-3.729-0.656-3.658,1.293c-0.532-0.07-1.077,0.051-1.466,0.496c-3.609,4.12-7.137,7.786-12.981,7.668
		c-5.875-0.119-9.299-6.199-10.555-11.152c-0.637-2.512-4.887-2.047-4.604,0.623c0.826,7.772,5.335,14.246,13.363,15.729
		c7.324,1.354,13.975-3.335,17.157-9.625c2.107,6.104,6.948,11.289,13.625,12.273c7.326,1.08,14.622-6.022,14.334-13.352
		c0.06,0.119,0.078,0.24,0.166,0.357c4.027,5.326,9.04,8.811,15.824,9.261c5.341,0.354,10.781-2.138,14.359-6.015
		c3.618-3.92,4.833-9.396,3.359-14.486c-1.243-4.293-5.223-9.006-9.682-11.445c6.397-1.168,12.407-4.687,13.741-11.634
		c1.283-6.687-3.126-13.038-8.73-16.709c5.522-3.547,9.811-8.387,9.915-15.444c0.088-5.908-4.459-11.746-9.743-14.605
		C158.842,97.809,164.653,91.23,163.719,82.725z"/>
	<path d="M65.202,33.114c-12.038,40.729-2.953,85.654-4.987,127.527c-0.132,2.715,3.828,2.574,4.132,0
		c4.995-42.252-5.204-84.724,3.353-126.837C68.03,32.177,65.679,31.5,65.202,33.114z"/>
	<path d="M122.744,162.589c-15.305-0.696-30.576-0.202-45.87-1.562c-1.9-0.168-2.33,3.004-0.451,3.332
		c15.164,2.651,30.947,3.363,46.319,2.67C125.605,166.9,125.605,162.721,122.744,162.589z"/>
	<path d="M131.343,33.459c-0.06-3.028-4.58-3.016-4.687,0c-1.385,38.881-6.748,78.975,2.912,117.174
		c0.505,1.997,3.374,1.126,3.032-0.836C125.909,111.225,132.118,72.261,131.343,33.459z"/>
	<path d="M122.744,28.907c-8.963,0.452-17.868,1.771-26.85,2.176c-6.91,0.312-16.236,1.534-22.992-0.422
		c-0.684-0.198-1.297,0.744-0.72,1.237c5.226,4.469,11.945,4.197,18.604,4.382c10.646,0.296,22.191-0.177,32.615-2.526
		C126.11,33.142,125.526,28.766,122.744,28.907z"/>
</g>
<g>
</g>
<g>
</g>
<g>
</g>
<g>
</g>
<g>
</g>
<g>
</g>
<g>
</g>
<g>
</g>
<g>
</g>
<g>
</g>
<g>
</g>
<g>
</g>
<g>
</g>
<g>
</g>
<g>
</g>
</svg>
