<?xml version="1.0" encoding="iso-8859-1"?>
<!-- Generator: Adobe Illustrator 16.0.0, SVG Export Plug-In . SVG Version: 6.00 Build 0)  -->
<!DOCTYPE svg PUBLIC "-//W3C//DTD SVG 1.1//EN" "http://www.w3.org/Graphics/SVG/1.1/DTD/svg11.dtd">
<svg version="1.1" id="Capa_1" xmlns="http://www.w3.org/2000/svg" xmlns:xlink="http://www.w3.org/1999/xlink" x="0px" y="0px"
	 width="186.548px" height="186.548px" viewBox="0 0 186.548 186.548" style="enable-background:new 0 0 186.548 186.548;"
	 xml:space="preserve">
<g>
	<path d="M123.537,38.246c0.092,0,0.092-0.143,0-0.143"/>
	<path d="M164.935,91.412c-0.967-14.808-2.914-36.25-14.413-47.197c-9.051-8.617-16.516-1.511-21.425,7.439
		c0.791-11.406,0.589-22.786-2.084-33.797c-0.292-1.202-0.976-1.9-1.795-2.258c-0.125-0.169-0.229-0.34-0.379-0.505
		c-21.164-23.384-70.51-17.622-91.948,3.777c-0.562,0.231-1.019,0.655-1.296,1.276c-0.174,0.189-0.386,0.356-0.556,0.547
		c-1.137,1.28-1.252,2.959-0.745,4.392c-5.529,22.597-7.92,45.091-8.701,68.444c-0.777,23.235-1.6,49.344,5.087,71.831
		c0.769,2.585,2.829,3.642,4.881,3.562c0.085,0.688,0.281,1.403,0.649,2.144c13.96,28.048,78.664,13.635,91.68-8.862
		c1.394-2.407,0.856-4.88-0.575-6.638c0.215-5.228,0.266-10.423,0.264-15.605c9.127,8.595,22.6,14.002,31.912,2.991
		C166.604,129.814,165.982,107.452,164.935,91.412z M113.096,19.201c-13.789,2.035-27.39,4.201-41.405,4.74
		c-10.365,0.399-21.083-0.284-31.468,0.556C60.714,11.616,92.416,5.279,113.096,19.201z M75.414,104.44
		c-6.566,1.472-17.845,3.081-18.275-3.271c-0.59-8.705,0.2-14.547,7.442-16.754c0.311,0.393,0.679,0.74,1.167,0.965
		C74.486,89.406,75.88,96.259,75.414,104.44z M113.445,155.847c-9.02,8.773-20.138,12.559-32.431,14.957
		c-9.876,1.927-32.141,4.377-39.091-5.415c-1.421-2.002-3.373-2.722-5.207-2.571c1.418-22.819-1.591-46.401-1.804-69.288
		c-0.203-21.829,0.395-43.837,1.464-65.675c7.083,7.948,20.64,8.583,30.537,9.027c-6.011,10.875-6.745,25.682-6.29,38.825
		c-2.017,0.54-4.032,1.076-6.101,1.47c-1.613,0.307-2.846,1.812-3.301,3.301c-2.924,9.564-4.673,19.262-2.492,29.152
		c0.352,1.599,1.804,2.94,3.353,3.353c9.675,2.574,19.502,2.568,29.195,0.085c2.292-0.587,3.326-2.548,3.589-4.714
		c1.398-11.506-0.837-30.115-14.587-30.841c0.662-9.539,1.187-19.087,1.937-28.62c0.281-3.572-0.483-8.228-0.823-11.905
		c15.447,0.214,32.665-2.156,47.005-7.659c-2.711,19.38-4.252,39.075-6.533,58.456C109.342,109.239,105.582,135.006,113.445,155.847
		z M124.924,87.783c0.02-0.166,0.043-0.336,0.062-0.502c12.101-2.105,16.949,7.794,14.758,18.737
		c-0.789,3.936-2.547,8.638-6.125,10.576c-3.049,1.652-6.666-3.937-10.049-6.229C123.707,102.891,124.049,95.384,124.924,87.783z
		 M149.932,132.461c-6.62,13.683-18.202,0.26-25.6-5.545c-0.256-0.2-0.547-0.297-0.822-0.437c-0.01-1.231-0.006-2.464-0.012-3.696
		c3.74,2.436,8.49,3.6,12.154,2.675c7.121-1.796,10.967-9.877,12.519-16.359c1.724-7.203,1.356-15.779-2.829-22.102
		c-4.479-6.764-12.102-8.204-19.473-6.83c0.451-3.484,0.912-6.984,1.361-10.508c0.426-0.217,0.822-0.529,1.106-1.055
		c2.497-4.62,10.887-23.956,16.978-15.227c7.242,10.378,8.565,25.839,9.422,38.035C155.664,104.621,155.84,120.251,149.932,132.461z
		"/>
</g>
<g>
</g>
<g>
</g>
<g>
</g>
<g>
</g>
<g>
</g>
<g>
</g>
<g>
</g>
<g>
</g>
<g>
</g>
<g>
</g>
<g>
</g>
<g>
</g>
<g>
</g>
<g>
</g>
<g>
</g>
</svg>
