<?xml version="1.0" encoding="iso-8859-1"?>
<!-- Generator: Adobe Illustrator 16.0.0, SVG Export Plug-In . SVG Version: 6.00 Build 0)  -->
<!DOCTYPE svg PUBLIC "-//W3C//DTD SVG 1.1//EN" "http://www.w3.org/Graphics/SVG/1.1/DTD/svg11.dtd">
<svg version="1.1" id="Capa_1" xmlns="http://www.w3.org/2000/svg" xmlns:xlink="http://www.w3.org/1999/xlink" x="0px" y="0px"
	 width="188.218px" height="188.218px" viewBox="0 0 188.218 188.218" style="enable-background:new 0 0 188.218 188.218;"
	 xml:space="preserve">
<g>
	<path d="M183.224,99.866c5.201-9.37,7.957-19.768,0.04-28.604c2.363-11.229,1.469-21.939-6.411-28.527
		c-0.4-1.863-1.463-3.439-3.469-4.555c-24.557-13.668-52.578,2.69-77.893,5c-2.565-15.263-13.146-30.572-29.668-31.12
		c-7.896-0.262-16.954,7.079-18.991,14.487c-0.977,3.549-0.518,6.279-0.234,9.046c-3.751-1.613-7.706-2.488-11.858-3.707
		c-1.232-0.362-2.683,0.215-3.306,1.345c-2.175,3.95-4.16,7.977-6.021,12.054c-2.995-2.943-6.106-5.288-10.084-7.404
		c-1.214-0.646-2.921-0.366-3.599,0.944C4.062,53.649,1.66,77.772,8.533,93.692c-2.789,9.72-5.471,19.472-8.4,29.104
		c-0.627,2.062,1.051,3.741,2.982,3.914c3.231,0.288,6.466,0.51,9.7,0.745c-8.771,7.746-11.025,18.566-5.523,27.739
		c0.001,12.586,5.496,21.919,21.162,19.398c19.104-3.071,35.191-14.714,54.953-10.229c25.222,5.722,88.17,31.159,85.97-17.157
		c-0.098-2.118-1.863-3.014-3.442-2.772c10.929-8.065,14.127-31.116,18.629-41.534C185.153,101.53,184.294,100.275,183.224,99.866z
		 M176.065,49.755c11.353,15.363-10.049,50.782-19.297,61.326c-21.765,24.815-58.292-5.891-82.279-12.494
		c0.517-2.704,0.558-5.708-0.007-9.058c22.465,6.606,46.959,24,70.137,18.939c16.843-3.677,17.22-24.869,21.254-38.436
		C167.063,66.027,173.583,57.316,176.065,49.755z M54.744,36.5c-2.472-15.244,12.79-20.508,23.195-11.521
		c6.253,5.401,9.595,14.407,10.092,22.431c0.13,2.089,1.721,4.104,3.995,3.995c22.69-1.096,43.362-13.446,66.269-11.205
		c1.239,0.121,13.602,0.979,12.517,5.779c-0.652,2.886-3.069,5.883-4.57,8.379c-3.35,5.57-5.771,11.466-7.64,17.67
		c-4.494,14.917-3.903,31.22-23.533,30.195C111.643,101,92.07,84.804,68.438,83.1c-1.494-0.108-2.318,1.195-2.335,2.469
		c-1.343,0.205-2.62,0.991-3.258,2.534c-7.271,17.599-41.312,14.553-31.799-5.869c3.884-8.339,9.711-16.257,14.852-23.843
		C50.303,51.892,56.096,44.832,54.744,36.5z M69.639,91.786C68.529,111,49.109,114.473,32.281,113.644
		c-1.367-3.442-2.71-6.896-4.037-10.354C43.395,112.662,62.056,107.711,69.639,91.786z M14.989,43.792
		c2.952,1.712,5.84,3.539,8.63,5.497c-4.924,11.433-8.831,23.275-12.404,35.237C10.09,70.562,8.005,57,14.989,43.792z
		 M15.979,129.074c-0.401,5.247-0.695,13.261,2.897,14.759c5.179,2.161,11.38,2.047,16.901,2.054
		c0.93,0.002,2.079-0.696,2.226-1.694c0.215-1.463,0.888-10.367,4.404-7.608c2.607,2.046,4.306,5.321,6.01,8.092
		c1.467,2.385,5.141,0.252,3.754-2.193c-2.516-4.438-5.847-10.864-11.565-11.419c-4.608-0.447-6.143,6.203-6.792,10.184
		c-2.928-0.021-5.848-0.082-8.772-0.346c-3.962-0.357-3.92-0.733-4.768-4.35c-0.665-2.837-0.935-5.717-1.123-8.609
		c24.73,1.774,49.51,2.819,74.214,4.997c2.419,0.213,4.941,0.576,7.523,1.014c-0.072,0.026-0.143,0.04-0.215,0.068
		c-5.969,2.261-5.798,7.149-13.537,7.712c-11.222,0.814-21.583,2.479-32.828,0.448c-1.813-0.328-2.612,2.372-0.771,2.795
		c2.678,0.613,5.343,0.984,8.002,1.259c-2.465,0.78-4.94,1.799-7.508,3.127c-7.477,3.868-14.297,8.337-22.424,10.867
		c-10.322,3.212-22.038-3.304-22.87-15.46C8.355,139.204,12.11,133.41,15.979,129.074z M112.567,144.813
		c0.443,0.551,1.021,0.661,1.549,0.504c14.145,0.691,30.228,5.568,44.374,2.288c-15.283,20.752-51.291,4.169-73.7-1.337
		c3.6-0.179,7.217-0.348,10.865-0.383c0.788-0.008,1.614-0.428,1.992-1.143C101.783,136.923,107.732,138.802,112.567,144.813z
		 M82.554,158.559c-11.585-2.522-21.021,0.27-32.008,4.187c-15.258,5.44-33.02,11.8-39.013-2.271
		c0.809,0.774,1.667,1.534,2.617,2.261c17.522,13.396,38.162-11.646,54.796-13.156c24.459-2.222,78.042,32.273,94.242,0.983
		C158.698,187.227,105.804,163.62,82.554,158.559z M157.031,143.17c-13.365,2.98-28.306-0.904-41.922-1.255
		c-0.764-2.353-2.048-4.422-3.744-5.936c12.654,2.613,26.027,5.444,37.436,2.808c13.01-3.007,22.269-20.762,29.143-30.592
		c0.07-0.101,0.14-0.204,0.209-0.305C173.646,121.205,169.422,140.408,157.031,143.17z M158.361,124.122
		c-10.151,12.383-21.758,9.247-35.746,6.485c-37.75-7.456-77.145-6.542-115.451-9.738c4.494-14.852,8.498-29.845,13.036-44.685
		c2.838-9.283,6.145-18.395,9.955-27.323c3.911-9.166,7.626-12.469,16.43-8.166c-0.258,1.641-0.829,3.432-1.955,5.5
		c-3.374,6.201-8.007,11.625-11.666,17.645c-5.055,8.315-16.889,23.292-10.974,33.618c0.156,6.777,3.219,13.441,5.625,19.653
		c0.491,1.268,1.35,1.952,2.717,2.068c15.856,1.352,37.964-2.522,43.346-17.556c28.083,11.834,66.409,43.448,91.441,8.873
		c5.008-6.916,12.125-19.217,16.171-31.85C186.562,92.673,165.72,115.148,158.361,124.122z"/>
</g>
<g>
</g>
<g>
</g>
<g>
</g>
<g>
</g>
<g>
</g>
<g>
</g>
<g>
</g>
<g>
</g>
<g>
</g>
<g>
</g>
<g>
</g>
<g>
</g>
<g>
</g>
<g>
</g>
<g>
</g>
</svg>
