<?xml version="1.0" encoding="iso-8859-1"?>
<!-- Generator: Adobe Illustrator 16.0.0, SVG Export Plug-In . SVG Version: 6.00 Build 0)  -->
<!DOCTYPE svg PUBLIC "-//W3C//DTD SVG 1.1//EN" "http://www.w3.org/Graphics/SVG/1.1/DTD/svg11.dtd">
<svg version="1.1" id="Capa_1" xmlns="http://www.w3.org/2000/svg" xmlns:xlink="http://www.w3.org/1999/xlink" x="0px" y="0px"
	 width="191.284px" height="191.284px" viewBox="0 0 191.284 191.284" style="enable-background:new 0 0 191.284 191.284;"
	 xml:space="preserve">
<g>
	<path d="M185.346,143.159c-4.353-0.222-8.603,0.769-12.438,2.63c-2.625-5.516-6.233-10.565-9.846-15.468
		c-4.416-5.992-8.867-12.167-13.822-17.764c9.739-5.695,18.085-15.214,19.359-26.647c1.877-16.844-11.606-31.19-25.045-39.243
		c-1.634-0.979-3.122-0.679-4.135,0.222c-1.421-0.963-3.325-1.148-4.571,0.414c-10.021,12.563-22.821,21.085-35.715,30.15
		c0.372-4.442,0.367-8.806-0.04-12.95c-0.342-3.487-4.789-4.088-6.089-1.527c-18.395-0.481-36.992-5.34-51.656-16.796
		c-1.992-1.558-4.676,0.491-4.024,2.37c-0.142,0.037-0.287,0.091-0.432,0.19C9.79,67.535,0.87,114.214,33.341,130.61
		c-4.549,15.632-10.633,29.806-18.371,44.004c-3.781-0.915-7.675-1.151-11.427-0.465c-2.777,0.507-2.646,4.859,0,5.461
		c3.99,0.907,7.934,1.495,11.799,2.923c4.282,1.582,7.738,4.608,11.054,7.625c3.861,3.514,9.428-1.978,5.746-5.746
		c-2.836-2.903-6.349-5.389-10.18-7.248c7.674-13.694,15.08-28.935,15.705-44.69c28.965,11.114,49.358-10.294,57.628-35.951
		c2.928,22.896,28.206,27.817,49.131,18.499c2.999,5.929,6.999,11.324,10.714,16.814c4.014,5.932,7.518,12.186,11.408,18.177
		c-4.108,3.616-7.195,8.396-8.549,13.726c-0.693,2.728,3.031,4.286,4.501,1.898c2.344-3.813,4.892-7.337,8.608-9.929
		c4.187-2.918,9.374-2.932,14.237-3.377C191.181,151.799,191.322,143.464,185.346,143.159z M46.228,128.291
		C4.437,121.18,18.84,72.569,38.571,50.915c0.19-0.209,0.275-0.451,0.315-0.696C54.293,62.896,72.569,69.42,92.431,70.076
		C90.833,96.951,79.294,133.918,46.228,128.291z M144.075,107.487c-8.571,5.157-19.157,7.722-29.057,5.743
		c-11.133-2.227-16.517-11.997-18.126-22.316c0.476-1.913,0.853-3.839,1.196-5.764c14.45-9.797,30.876-17.833,41.558-32.024
		c0.031,0.025,0.054,0.055,0.086,0.078c10.427,7.853,22.271,17.101,21.443,31.562C160.608,94.688,152.004,102.717,144.075,107.487z"
		/>
	<path d="M78.741,78.367c-0.045,0.292-0.103,0.596-0.151,0.891c-0.235-0.185-0.498-0.342-0.82-0.421
		c-5.723-1.419-12.174,0.204-18.088,0.111c-8.235-0.13-15.981-2.653-22.321-7.97c-0.718-0.603-1.508-0.731-2.232-0.599
		c-0.341-1.243-2.005-2.133-2.961-0.896c-12.912,16.704-9.388,39.605,11.438,47.508c24.235,9.195,40.235-17.006,40.336-37.921
		C83.954,76.161,79.208,75.357,78.741,78.367z M46.149,112.412c-18.007-4.986-19.424-23.693-12.646-37.964
		c0.063,0.076,0.083,0.156,0.157,0.231c5.745,5.739,12.383,8.439,20.285,9.948c7.17,1.369,17.156,2.256,23.872-1.168
		C74.479,99.879,66.493,118.045,46.149,112.412z"/>
	<path d="M152.995,74.074c-0.811-2.642-4.616-2.806-5.798-0.827c-0.668,0.115-1.326,0.475-1.9,1.152
		c-9.547,11.275-23.49,17.405-38.246,14.308c-3.336-0.7-4.892,3.602-2.485,5.237c0.035,0.187,0.095,0.376,0.211,0.562
		C119.655,118.438,161.577,102.053,152.995,74.074z M135.83,97.951c-8.431,4.78-17.875,3.103-24.975-2.437
		c13.206,1.838,25.919-3.267,35.798-12.174C145.598,89.433,142.246,94.314,135.83,97.951z"/>
	<path d="M81.978,44.604c-1.566-0.976-3.085-2.031-4.212-3.518c-1.23-1.622-2.115-3.407-3.49-4.943
		c-1.309-1.463-3.454,0.102-3.087,1.797c1.04,4.805,5.51,7.415,9.745,9.139C82.404,47.68,83.229,45.383,81.978,44.604z"/>
	<path d="M102.298,32.186c-2.449,3.22-4.732,6.61-6.456,10.28c-1.313,2.796,2.643,5.229,4.199,2.455
		c2.087-3.719,4.977-6.918,6.251-11.051C107.08,31.311,103.696,30.348,102.298,32.186z"/>
	<path d="M130.682,27.107c-6.881,2.031-11.839,7.051-13.681,14.021c-0.511,1.932,2.47,3.331,3.318,1.399
		c2.347-5.332,6.029-9.171,11.476-11.385C134.223,30.157,133.339,26.323,130.682,27.107z"/>
	<path d="M73.652,7.146c-1.148-0.717-2.568,0.705-1.853,1.853c1.636,2.627,4.096,4.721,6.08,7.095
		c2.664,3.188,3.951,6.827,4.171,10.951c0.091,1.694,2.638,1.718,2.647,0C84.738,19.193,80.38,11.346,73.652,7.146z"/>
	<path d="M114.042,0.083c-7.343,2.213-11.777,8.934-11.458,16.557c0.088,2.095,3,2.024,3.2,0c0.569-5.725,4.665-10.53,9.846-12.787
		C117.799,2.908,116.242-0.58,114.042,0.083z"/>
</g>
<g>
</g>
<g>
</g>
<g>
</g>
<g>
</g>
<g>
</g>
<g>
</g>
<g>
</g>
<g>
</g>
<g>
</g>
<g>
</g>
<g>
</g>
<g>
</g>
<g>
</g>
<g>
</g>
<g>
</g>
</svg>
