<?xml version="1.0" encoding="iso-8859-1"?>
<!-- Generator: Adobe Illustrator 16.0.0, SVG Export Plug-In . SVG Version: 6.00 Build 0)  -->
<!DOCTYPE svg PUBLIC "-//W3C//DTD SVG 1.1//EN" "http://www.w3.org/Graphics/SVG/1.1/DTD/svg11.dtd">
<svg version="1.1" id="Capa_1" xmlns="http://www.w3.org/2000/svg" xmlns:xlink="http://www.w3.org/1999/xlink" x="0px" y="0px"
	 width="195.087px" height="195.087px" viewBox="0 0 195.087 195.087" style="enable-background:new 0 0 195.087 195.087;"
	 xml:space="preserve">
<g>
	<path d="M143.918,60.195c0.178-0.474,0.397-0.914,0.549-1.409c0.666-2.164-1.823-3.887-3.691-2.839
		c-16.529,9.276-26.163,0.347-37.035-10.41c0.398-10.172,2.307-20.129,5.965-29.66c0.527-1.374-0.584-2.57-1.73-3.047
		c-6.256-2.604-12.634-0.073-19.044-0.721c-1.71-0.173-3.082,1.546-3.11,3.109c-0.159,9.094-0.328,18.54,1.71,27.478
		c-13.155-4.06-25.465-1.553-39.456-2.022c-2.318-0.078-4.002,2.751-2.713,4.729c0.872,1.338,1.806,2.677,2.791,3.995
		c-38.696,9.148-58.382,50.826-42.798,87.285c14.406,33.702,57.529,45.892,90.693,46.724c33.205,0.834,74.983-7.496,92.61-38.795
		C209.012,108.473,177.471,70.926,143.918,60.195z M89.04,47.397c1.38,1.602,4.602,1.001,4.442-1.536
		c-0.592-9.37-1.113-18.673-1.348-28.05c3.788-0.642,8.223-1.264,11.977-0.753c-3.446,9.932-5.22,20.322-5.34,30.846
		c-0.019,1.665,1.342,2.411,2.626,2.298c8.298,12.979,20.091,18.185,33.527,13.876c-11.484,11.267-33.514,7.495-41.676-7.289
		c-0.716-1.297-2.357-1.599-3.603-0.945c-14.022,7.37-27.36,3.055-35.742-8.545C65.687,47.51,77.357,45.145,89.04,47.397z
		 M172.58,150.546c-18.054,19.953-51.33,23.724-76.534,23.803c-27.749,0.086-56.755-8.775-75.641-29.901
		c-28.335-31.695-4.253-79.084,32.655-89.194c0.021-0.006,0.032-0.02,0.053-0.026c5.323,5.423,11.874,9.522,19.812,9.775
		c5.046,0.161,10.215,0.096,14.868-2.294c2.701-1.387,7.768,5.439,10.232,7.332c12.164,9.349,31.482,8.537,41.363-2.317
		c0.41,0.329,0.89,0.613,1.476,0.806C174.994,79.796,200.953,119.189,172.58,150.546z"/>
</g>
<g>
</g>
<g>
</g>
<g>
</g>
<g>
</g>
<g>
</g>
<g>
</g>
<g>
</g>
<g>
</g>
<g>
</g>
<g>
</g>
<g>
</g>
<g>
</g>
<g>
</g>
<g>
</g>
<g>
</g>
</svg>
