<?xml version="1.0" encoding="iso-8859-1"?>
<!-- Generator: Adobe Illustrator 16.0.0, SVG Export Plug-In . SVG Version: 6.00 Build 0)  -->
<!DOCTYPE svg PUBLIC "-//W3C//DTD SVG 1.1//EN" "http://www.w3.org/Graphics/SVG/1.1/DTD/svg11.dtd">
<svg version="1.1" id="Capa_1" xmlns="http://www.w3.org/2000/svg" xmlns:xlink="http://www.w3.org/1999/xlink" x="0px" y="0px"
	 width="188.857px" height="188.857px" viewBox="0 0 188.857 188.857" style="enable-background:new 0 0 188.857 188.857;"
	 xml:space="preserve">
<g>
	<path d="M188.775,42.274c-0.13-4.881-6.403-5.691-8.446-2.421c-29.553-0.957-57.888,8.522-87.748,5.075
		c-28.165-3.251-55.931-10.539-84.382-6.05C7.179,38,5.222,38.342,4.634,39.875c-9.736,25.422-3.544,56.366,13.085,77.566
		c19.429,24.771,48.447,35.117,79.333,33.857c27.085-1.105,53.721-10.646,71.269-31.955
		C185.878,98.023,189.483,68.933,188.775,42.274z M92.581,54.787c24.979,2.964,49.458-1.506,74.162-4.702
		c1.015,22.284-3.743,44.331-20.734,60c-14.837,13.682-36.376,17.358-55.828,15.829c-42.488-3.338-76.338-36.246-67.077-79.793
		C46.456,47.447,69.236,52.017,92.581,54.787z M164.266,108.301c-13.602,21.604-38.741,30.552-62.99,32.941
		c-27.123,2.674-53.049-5.054-72.034-24.987C10.682,96.767,8.117,71.095,8.679,45.715c3.277-0.033,6.535,0.036,9.784,0.157
		c-15.495,44.935,24.63,80.813,67.185,86.125c21.236,2.65,44.459-0.858,61.651-14.444c21.104-16.677,27.187-42.397,25.341-68.197
		c2.335-0.277,4.672-0.543,7.013-0.778C179.283,69.547,175.641,90.23,164.266,108.301z"/>
	<path d="M51.179,73.468c0.098-0.98-0.158-2.126-0.228-3.108c-0.179-2.497-0.615-4.982-0.965-7.461
		c-0.681-4.829-9.029-4.829-9.711,0c-0.333,2.361-0.769,4.736-0.94,7.113c-0.078,1.086-0.156,2.172-0.234,3.258
		c-0.096,1.333,0.319,2.43,0.951,3.453c0.259,0.507,0.58,1,1.032,1.451c0.994,1.215,2.518,1.722,4.047,1.669
		c1.529,0.053,3.052-0.454,4.046-1.669c0.612-0.612,1.033-1.289,1.296-1.996C50.844,75.388,51.071,74.548,51.179,73.468z"/>
	<path d="M80.773,87.937c0.002,0.003,0.003,0.005,0.005,0.008c-0.824-3.528-0.963-7.294-1.366-10.898
		c-0.456-4.074-5.879-4.074-6.335,0c-0.403,3.603-0.542,7.37-1.366,10.898c0.002-0.003,0.003-0.005,0.005-0.008
		c-1.168,3.2,0.44,7.039,4.528,7.039S81.941,91.137,80.773,87.937z"/>
	<g>
		<path d="M107.769,107.103c0.044,0.095,0.108,0.176,0.146,0.274c-0.043-0.132-0.146-0.363-0.316-0.658
			c0.032,0.104,0.109,0.183,0.134,0.291C107.747,107.052,107.755,107.067,107.769,107.103z"/>
		<path d="M107.941,107.46c0.019,0.092-0.047-0.007-0.174-0.357c-0.118-0.257-0.244-0.509-0.397-0.74
			c0.086,0.126,0.162,0.243,0.229,0.356c-0.126-0.398-0.266-0.788-0.517-1.117c-0.342-0.452-0.536-0.706-0.659-0.864
			c-0.426-0.609-0.841-1.232-1.244-1.854c-1.143-1.756-1.757-2.76-2.14-4.702c-0.576-2.914-5.549-3.052-6.004,0
			c-0.486,3.261-0.293,7.031,0.5,10.227c0.63,2.535,1.887,4.31,4.42,5.187c2.953,1.022,6.636-1.638,6.299-4.829
			C108.206,108.308,108.095,107.872,107.941,107.46z"/>
		<path d="M107.937,107.439c0.002,0.006,0.002,0.014,0.005,0.021C107.94,107.452,107.938,107.447,107.937,107.439z"/>
		<path d="M107.915,107.377c0.007,0.02,0.019,0.048,0.021,0.062C107.93,107.419,107.923,107.397,107.915,107.377z"/>
	</g>
	<path d="M124.712,88.607c-1.309-4.414-1.492-8.914-4.104-12.885c-1.601-2.433-5.642-0.935-4.799,2.023
		c0.965,3.392,0.817,7.484-0.181,10.861c-0.871,2.948,1.523,5.962,4.542,5.962C123.187,94.569,125.586,91.555,124.712,88.607z"/>
	<path d="M149.51,75.029c-0.548-1.597-1.018-2.018-1.594-3.559c-0.523-1.404-0.934-2.854-1.395-4.279
		c-0.795-2.458-4.387-2.603-5.116,0c-0.487,1.735-0.477,3.426-0.362,5.209c0.1,1.542,0.089,3.352,0.462,4.835
		C142.813,82.451,151.243,80.082,149.51,75.029z"/>
	<path d="M106.972,75.605c-2.117-1.854-3.412-5.874-3.802-8.572c-0.554-3.839-6.127-2.551-6.381,0.864
		c-0.143,1.928,0.075,3.819,0.492,5.704c0.181,0.817,0.448,1.617,0.704,2.412c0.272,0.847,1.019,1.999,1.083,2.865
		c0.222,2.966,2.79,5.308,5.86,4.464C108.121,82.464,109.643,77.945,106.972,75.605z"/>
	<path d="M63.413,93.806c-0.599-1.721-1.528-3.387-2.287-5.045c-0.736-1.608-1.589-3.446-2.946-4.63
		c-2.361-2.058-6.633,0.692-4.592,3.543c0.135,0.189,0.245,0.378,0.352,0.584c-0.286-0.552,0.175,0.545,0.216,0.678
		c0.255,0.82,0.432,1.666,0.607,2.507c0.078,0.375,0.148,0.753,0.218,1.129c0.071,0.463,0.086,0.493,0.044,0.093
		c0.026,0.218,0.052,0.438,0.078,0.656c0.103,0.876,0.14,1.828,0.369,2.672c0.454,1.673,2.167,3.153,3.971,3.023
		c0.815-0.059,1.367-0.136,2.078-0.562C63.026,97.554,64.019,95.548,63.413,93.806z"/>
	<path d="M142.622,99.696c-0.374-1.679-1.325-2.571-1.77-4.127c-0.531-1.855-0.775-3.798-1.018-5.709
		c-0.519-4.105-5.873-4.108-6.389,0c-0.626,4.982-2.027,12.881,3.88,15.131C140.596,106.234,143.271,102.608,142.622,99.696z"/>
</g>
<g>
</g>
<g>
</g>
<g>
</g>
<g>
</g>
<g>
</g>
<g>
</g>
<g>
</g>
<g>
</g>
<g>
</g>
<g>
</g>
<g>
</g>
<g>
</g>
<g>
</g>
<g>
</g>
<g>
</g>
</svg>
