<?xml version="1.0" encoding="iso-8859-1"?>
<!-- Generator: Adobe Illustrator 16.0.0, SVG Export Plug-In . SVG Version: 6.00 Build 0)  -->
<!DOCTYPE svg PUBLIC "-//W3C//DTD SVG 1.1//EN" "http://www.w3.org/Graphics/SVG/1.1/DTD/svg11.dtd">
<svg version="1.1" id="Capa_1" xmlns="http://www.w3.org/2000/svg" xmlns:xlink="http://www.w3.org/1999/xlink" x="0px" y="0px"
	 width="188.92px" height="188.92px" viewBox="0 0 188.92 188.92" style="enable-background:new 0 0 188.92 188.92;"
	 xml:space="preserve">
<g>
	<path d="M146.541,18.739c0.654-3.39-3.394-5.139-5.39-3.469c-0.034-0.02-0.057-0.049-0.091-0.069
		c-18.529-10.343-84.707-29.261-94.155,1.97c-0.574,1.896,0.855,3.066,2.404,3.106c-2.088,41.039-12.203,81.83-3.564,122.863
		c6.435,30.563,37.016,53.378,68.75,43.409c26.537-8.336,29.551-45.9,30.906-68.688C147.336,85.337,140.351,50.824,146.541,18.739z
		 M133.122,17.968c-23.048,12.23-56.482,16.3-76.774-1.816C78.587,2.627,109.782,6.487,133.122,17.968z M119.237,177.388
		c-11.843,8.89-28.225,4.561-40.789-0.043c-20.569-7.534-26.389-28.78-28.598-48.547c-4.097-36.669,3.489-73.466,3.255-110.17
		c21.72,23.612,60.903,18.048,86.263,2.911c-3.57,23.662-0.566,48.777-0.202,72.48C139.554,119.213,142.096,160.231,119.237,177.388
		z"/>
	<path d="M128.581,75.376c-0.321-2.88-4.322-3.206-4.882-0.654C112.181,57.219,88.257,48.697,68.062,44.62
		c-0.09-0.609-0.159-1.221-0.194-1.838c-0.091-1.593-2.279-1.546-2.439,0c-0.046,0.445-0.049,0.882-0.069,1.322
		c-0.284-0.053-0.572-0.109-0.854-0.161c0.049-0.387,0.104-0.775,0.151-1.161c0.255-2.086-3.147-2.478-3.621-0.49
		c-0.254,1.066-0.505,2.141-0.757,3.213c-0.243,0.497-0.398,1.031-0.368,1.563c-6.391,27.378-11.745,56.541-4.534,84.147
		c4.803,18.387,24.814,40.995,45.502,39.977C134.203,169.552,130.939,96.504,128.581,75.376z M117.743,75.487
		c-16.208,2.017-39.956-8.698-47.5-24.048C87.499,55.679,106.869,61.479,117.743,75.487z M122.556,118.836
		c-1.4,14.482-3.537,37.657-17.779,45.752c-9.568,5.439-21.976-4.958-28.553-10.59c-11.738-10.05-16.288-24.418-17.904-39.294
		c-2.35-21.642,2.313-43.401,5.386-64.843c0.755,0.181,1.503,0.36,2.272,0.544c5.062,20.742,38.724,34.263,56.978,29.443
		c0.269-0.071,0.476-0.238,0.698-0.385C123.882,92.627,123.829,105.678,122.556,118.836z"/>
</g>
<g>
</g>
<g>
</g>
<g>
</g>
<g>
</g>
<g>
</g>
<g>
</g>
<g>
</g>
<g>
</g>
<g>
</g>
<g>
</g>
<g>
</g>
<g>
</g>
<g>
</g>
<g>
</g>
<g>
</g>
</svg>
