<?xml version="1.0" encoding="iso-8859-1"?>
<!-- Generator: Adobe Illustrator 16.0.0, SVG Export Plug-In . SVG Version: 6.00 Build 0)  -->
<!DOCTYPE svg PUBLIC "-//W3C//DTD SVG 1.1//EN" "http://www.w3.org/Graphics/SVG/1.1/DTD/svg11.dtd">
<svg version="1.1" id="Capa_1" xmlns="http://www.w3.org/2000/svg" xmlns:xlink="http://www.w3.org/1999/xlink" x="0px" y="0px"
	 width="186.191px" height="186.191px" viewBox="0 0 186.191 186.191" style="enable-background:new 0 0 186.191 186.191;"
	 xml:space="preserve">
<g>
	<path d="M150.211,4.261c-1.59-1.943-3.865-1.401-5.322,0.047c-13.487-4.879-34.03-0.686-47.717-0.835
		C85.933,3.351,74.729,2.881,63.516,2.132c-7.084-0.473-14.701-3.25-21.654-1.629C41.32,0.629,40.91,1.032,40.629,1.51
		c-2.066-1.329-5.635-0.576-6.679,2.191C17.894,46.289,35.501,104.02,82.62,110.927c-0.588,11.924,1.391,24.361,1,36.421
		c-0.226,6.96-3.217,17.507-2.498,25.706c-7.71,0.299-15.439,0.679-23.051,1.676c-5.564,0.729-5.564,7.93,0,8.657
		c10.974,1.438,22.145,1.509,33.19,2.07c7.479,0.38,18.007,2.456,24.141-2.684c2.062-1.727,2.062-5.703,0-7.43
		c-5.225-4.377-13.508-3.492-20.491-2.927c2.108-8.105,1.408-19.098,1.644-25.069c0.398-10.156,0.854-25.912-5.013-35.758
		c0.627,0.006,1.236,0.047,1.873,0.036c25.825-0.443,46.243-17.856,56.368-40.545C157.544,53.686,163.446,20.442,150.211,4.261z
		 M141.808,58.925c-6.949,24.961-27.305,40.575-53.049,41.017C39.12,100.794,38.839,40.2,42.07,5.458
		c9.318,9.772,33.343,8.749,45.059,9.51c11.448,0.744,23.003,0.562,34.47,0.543c7.108-0.012,15.124,1.022,22.088-0.95
		c0.535,4.709,1.611,9.439,1.895,14.148C146.194,38.936,144.541,49.108,141.808,58.925z"/>
	<path d="M131.195,43.198c-0.911-0.936-2.188-1.576-3.872-1.628c-24.185-0.732-46.336-4.449-67.867-15.479
		c-1.399-1.749-3.716-2.579-6.188-1.102c-19.164,11.448-1.763,43.22,8.52,54.292c5.252,5.653,12.084,10.008,19.017,12.02
		c0.761,0.445,1.505,0.917,2.29,1.324c22.359,11.579,38.324-5.942,46.484-24.942c3.822-5.978,6.233-12.976,6.574-20.428
		C136.305,43.961,133.65,42.693,131.195,43.198z"/>
</g>
<g>
</g>
<g>
</g>
<g>
</g>
<g>
</g>
<g>
</g>
<g>
</g>
<g>
</g>
<g>
</g>
<g>
</g>
<g>
</g>
<g>
</g>
<g>
</g>
<g>
</g>
<g>
</g>
<g>
</g>
</svg>
